<svg width="204" height="135" fill="none" xmlns="http://www.w3.org/2000/svg"><path d="M15.557 120.001c-1.887-1.541-3.856-3.014-5.606-4.706-.812-.784-1.57-1.638-2.148-2.615a7.487 7.487 0 01-.73-1.582c-.152-.454-.303-1.156.358-1.225.248-.027.51.028.744.097.261.068.371-.331.11-.399-.785-.193-1.915-.138-1.79.963.15 1.238.963 2.504 1.707 3.454 1.928 2.477 4.656 4.334 7.066 6.302.207.165.496-.124.29-.289z" fill="#F3F3F3"/><path d="M8.354 109.64a9.138 9.138 0 01-1.777-3.248c-.165-.536-.234-1.087-.4-1.61-.11-.33-.316-.633-.013-.922.138-.123.344-.206.496-.316.468-.317.73-.688.151-1.087-.33-.22-.744-.262-1.102-.441-.482-.261-.854-.688-1.13-1.142-.578-.935-.894-2.036-1.239-3.068a89.28 89.28 0 01-1.17-3.716 85.272 85.272 0 01-1.791-7.582c-.041.083-.097.165-.138.248 2.59-.853 5.165 1.335 7.011 2.89a33.358 33.358 0 015.11 5.408c3.1 4.128 5.262 8.889 6.612 13.856.826 3.042 1.35 6.165 1.639 9.303.027.261.44.261.413 0-1.006-10.83-5-21.797-13.554-28.939-1.955-1.624-4.6-3.811-7.327-2.917-.11.041-.166.138-.138.248a82.268 82.268 0 001.942 8.09 83.33 83.33 0 001.185 3.716c.344.99.66 2.05 1.267 2.917.234.331.496.633.826.867.4.289.868.317 1.267.565.524.316-.234.564-.51.756-.206.152-.399.331-.44.606-.055.413.303.894.4 1.28.137.591.261 1.169.482 1.747a10.084 10.084 0 001.666 2.793c.138.193.427-.096.262-.302z" fill="#F3F3F3"/><path d="M2.459 88.724a68.168 68.168 0 0113.154 22.251 67.563 67.563 0 012.052 6.921c.069.262.454.152.4-.11A68.465 68.465 0 007.292 94.118a66.835 66.835 0 00-4.531-5.697c-.193-.178-.483.11-.303.303zm.936 9.052c.661.165 1.308.385 1.942.647.248.096.358-.303.11-.4a13.975 13.975 0 00-1.942-.646c-.248-.069-.358.33-.11.4z" fill="#F3F3F3"/><path d="M8.244 106.915c.895-.027 1.639.44 2.369.881.66.399 1.308.798 1.942 1.238 1.308.908 2.493 1.982 3.278 3.385.124.234.482.028.358-.206-.826-1.459-2.066-2.587-3.43-3.523a33.797 33.797 0 00-2.23-1.403c-.717-.427-1.447-.785-2.301-.771-.248-.014-.248.399.014.399zm5.482-2.476a19.555 19.555 0 01.04-6.702c.042-.261-.357-.371-.399-.11a20.143 20.143 0 00-.04 6.922c.04.261.44.151.399-.11z" fill="#F3F3F3"/><path d="M13.023 95.012c.29-2.725.868-5.45 1.832-8.009.813-2.16 2.025-4.28 4.104-5.435-.11-.055-.206-.124-.316-.18.22 3.826 2.465 7.225 2.562 11.064.055-.069.096-.138.151-.192l-1.57.412c-.152.042-.207.234-.097.344.634.606.758 1.459.786 2.298.013.44.247 2.574-.262 2.711-.124.041-.193.193-.124.303 1.529 2.449.826 5.353.4 7.995a29.754 29.754 0 00-.18 8.201c.028.261.441.261.413 0-.358-3.069-.179-6.082.345-9.109.427-2.45.771-5.078-.606-7.307-.041.096-.083.206-.124.302.372-.096.496-.385.55-.743.097-.66.028-1.39.015-2.05-.014-1.046-.124-2.133-.923-2.89-.028.11-.055.234-.097.344l1.57-.412c.083-.028.152-.11.152-.193-.096-3.853-2.328-7.238-2.562-11.063-.014-.152-.165-.262-.317-.18-2.052 1.143-3.292 3.165-4.146 5.298-1.088 2.711-1.694 5.615-1.997 8.518 0 .234.413.234.441-.027z" fill="#F3F3F3"/><path d="M18.023 83.452a67.53 67.53 0 00-2.245 17.091c0 .261.413.261.413 0a67.275 67.275 0 012.218-16.98c.082-.262-.317-.372-.386-.11zm161.718-8.239a54.85 54.85 0 011.955 8.669c.207 1.486.359 3 .427 4.5.028.385.042.784.056 1.17.013.233-.056.618.027.839.083.206.372.344.537.481.29.234.579.468.854.702l.042-.33a2.354 2.354 0 01-1.212.358c-.097 0-.166.068-.193.15a3.501 3.501 0 00.785 3.51c.055-.124.096-.234.151-.358-1.432-.055-1.46 1.596-1.322 2.615.193 1.417.468 2.834.868 4.21.799 2.697 2.135 5.257 4.325 7.101.206.165.496-.124.289-.289-1.846-1.555-3.085-3.647-3.884-5.917a25.11 25.11 0 01-.882-3.275c-.179-.922-1.074-4.087.606-4.032.193.014.262-.22.152-.358a3.088 3.088 0 01-.675-3.096c-.069.055-.138.096-.193.151a2.51 2.51 0 001.419-.412c.096-.07.151-.234.041-.33-.51-.414-1.212-.771-1.295-1.46-.082-.729-.055-1.486-.11-2.215a51.057 51.057 0 00-.441-4.087 54.993 54.993 0 00-1.914-8.407c-.097-.262-.496-.152-.413.11z" fill="#F3F3F3"/><path d="M180.416 75.831c-.565-.743.496-1.294 1.115-1.142.62.165 1.13.66 1.557 1.1.785.799 1.405 1.734 1.942 2.712 1.116 2.008 2.052 4.155 2.879 6.288a59.897 59.897 0 013.484 13.637 61.43 61.43 0 01.524 7.953c0 .262.413.262.413 0a60.71 60.71 0 00-2.245-16.36 62.097 62.097 0 00-2.686-7.597c-.978-2.284-2.025-4.733-3.705-6.605-.675-.757-1.818-1.926-2.948-1.527-.688.234-1.143 1.114-.675 1.747.152.207.51.014.345-.206z" fill="#F3F3F3"/><path d="M190.332 90.952a76.457 76.457 0 012.438-6.922 65.1 65.1 0 011.543-3.481c.261-.537.523-1.087.799-1.624.179-.344.716-1.858 1.281-1.72.165.041.275-.096.248-.248-.138-.853.826-1.582 1.336-2.146.454-.496.895-.991 1.349-1.486.937-1.019 1.86-2.037 2.796-3.069-.11-.028-.234-.055-.344-.096 1.419 3.509 1.047 7.348.221 10.953-.427 1.844-.965 3.674-1.419 5.518-.317 1.28-.661 3.22-2.232 3.495-.11.014-.165.152-.137.248.399 1.637-.703 3.151-1.433 4.527a50.543 50.543 0 00-1.9 3.99 52.219 52.219 0 00-2.7 8.188c-.069.262.33.372.399.11a50.757 50.757 0 013.072-9.013 55.641 55.641 0 012.038-4.046c.661-1.197 1.268-2.463.937-3.852-.041.082-.096.165-.138.247 1.336-.234 1.915-1.582 2.259-2.766a149.737 149.737 0 001.557-6.027c.922-3.825 1.418-7.94-.097-11.682-.055-.138-.234-.22-.344-.097-1.171 1.28-2.342 2.573-3.513 3.853-.55.606-1.143 1.184-1.652 1.83-.331.44-.51.854-.427 1.404l.248-.248c-.992-.247-1.474 1.376-1.805 2.023a63.981 63.981 0 00-1.845 3.963 72.61 72.61 0 00-2.907 8.036c-.11.275.29.386.372.138z" fill="#F3F3F3"/><path d="M201.104 73.82c-4.297 8.01-8.678 16.266-9.711 25.416-.027.262.386.262.414 0 1.033-9.082 5.399-17.283 9.655-25.209.138-.234-.22-.44-.358-.206zm-17.92 5.506a94.956 94.956 0 015.937 27.617c.013.262.427.262.413 0a95.237 95.237 0 00-5.95-27.727c-.097-.234-.496-.138-.4.11zM9.14 74.895a68.836 68.836 0 0125.453.248 68.538 68.538 0 0112.121 3.591c4.09 1.638 8.016 3.606 12.025 5.422 15.123 6.853 31.307 11.338 47.794 13.292a162.244 162.244 0 0028.195.881c.262-.013.262-.426 0-.413A162.306 162.306 0 0160.57 84.527c-4.022-1.76-7.947-3.743-11.983-5.463-3.856-1.637-7.837-2.958-11.914-3.894a69.528 69.528 0 00-27.644-.66c-.262.027-.152.426.11.385z" fill="#F3F3F3"/><path d="M84.068 92.562c7.838.4 15.4-2.421 22.768-4.678a1501.386 1501.386 0 0123.209-6.867c7.714-2.215 15.427-4.54 23.264-6.316 7.81-1.761 15.771-2.6 23.774-2.834 8.911-.276 17.823.123 26.721.536.261.014.261-.399 0-.413-15.716-.715-31.639-1.417-47.175 1.597-7.879 1.527-15.592 3.866-23.306 6.054a1722.377 1722.377 0 00-23.222 6.812c-4.284 1.293-8.554 2.697-12.865 3.88-4.297 1.184-8.705 2.037-13.181 1.817-.248-.014-.248.399.013.412zM50.626 78.444c5.44 1.568 11.087.481 16.514-.565 5.813-1.114 11.68-1.87 17.603-2.105 11.735-.44 23.402 1.239 35.096 1.706 6.473.262 12.974.11 19.365-.949.262-.041.152-.44-.11-.4-11.501 1.914-23.181.772-34.723-.095-5.771-.44-11.556-.812-17.355-.716-5.744.096-11.488.647-17.162 1.651-6.281 1.101-12.81 2.917-19.132 1.087-.248-.082-.358.317-.096.386zm24.379 26.518a13.597 13.597 0 015.578-1.046c1.777.055 3.375.633 5.096.991 1.281.275 2.562.275 3.595-.633.4-.344.744-.702 1.323-.523.427.124.785.413 1.184.592.468.22.95.303 1.446.206 1.185-.234 2.08-1.211 3.113-1.775 1.75-.936 3.43.317 5.138.771 3.553.949 7.355.66 10.991.619 4.477-.041 8.967-.014 13.416-.564.262-.028.262-.441 0-.413-3.994.482-8.03.509-12.052.55-3.829.042-7.879.399-11.653-.454-.881-.192-1.708-.481-2.548-.825-.73-.303-1.487-.592-2.286-.482-1.254.165-2.19 1.156-3.25 1.761-.552.317-1.158.537-1.791.358-.69-.206-1.254-.812-2.011-.839-.717-.014-1.061.564-1.584.935-.73.51-1.653.523-2.507.386-1.818-.289-3.513-.991-5.372-1.074a13.78 13.78 0 00-5.937 1.06c-.247.096-.137.495.11.399z" fill="#F3F3F3"/><path d="M83.793 92.688c.248.041.482.096.73.138.261.055.358-.303.11-.4-.151-.055-.303-.11-.468-.165-.22-.082-.372.276-.166.372 1.268.66 2.59 1.183 3.967 1.555.262.069.372-.33.11-.4a18.672 18.672 0 01-3.87-1.513l-.165.372c.151.055.303.11.468.165.041-.138.069-.262.11-.4-.248-.04-.482-.096-.73-.137-.248-.041-.358.358-.096.413zM65.28 111.759a7.463 7.463 0 01-.812-1.142c-.11-.207-.248-.427-.317-.661a.598.598 0 01-.055-.509c-.041-.192.014-.344.152-.454.206-.564-.042-1.156-.18-1.734l-.62-2.724c-.11-.482-.22-.95-.316-1.431-.055-.221-.096-.427-.151-.647-.083-.385-.166-.564.123-.881.138-.289.345-.344.62-.124l.372.372c.138.179.234.385.344.578.193.358.386.715.565 1.073.427.853.8 1.734 1.116 2.628a25.726 25.726 0 011.267 5.188c.069-.082.138-.179.193-.261.028.027.041.069.069.096.069-.261-.33-.372-.4-.11-.055.248.07.427.33.427.152 0 .221-.124.194-.262-.317-2.27-.91-4.486-1.818-6.591-.427-.991-.882-2.092-1.516-2.973-.344-.481-.964-.921-1.556-.577-.675.385-.358 1.334-.22 1.926.275 1.211.55 2.422.812 3.633.124.578.386 1.224.413 1.816.014.482-.385.702-.316 1.184.138.894.812 1.802 1.377 2.463.207.179.496-.11.33-.303z" fill="#F3F3F3"/><path d="M66.548 105.843a9.447 9.447 0 01.11-3.729c.069-.316.165-.619.275-.922.193-.523.469-.468.744-.082a6.91 6.91 0 01.84 1.651c.84 2.394.469 4.967.11 7.403-.04.261.359.372.4.11.454-3.069.923-6.55-.937-9.288-.206-.303-.482-.812-.909-.743-.454.082-.606.701-.73 1.059-.495 1.5-.578 3.096-.316 4.638.068.275.468.165.413-.097z" fill="#F3F3F3"/><path d="M67.292 102.675c.413 2.146.564 4.307.496 6.481-.014.261.4.261.413 0a29.364 29.364 0 00-.51-6.591c-.055-.262-.44-.152-.4.11zM16.632 73.34c-.4-.881-1.295-1.5-1.86-2.271-.62-.853-1.143-1.775-1.652-2.683-.042.096-.083.206-.124.302 2.768-.495 4.366 2.23 4.903 4.528.055.261.454.15.4-.11-.593-2.546-2.411-5.34-5.414-4.817-.137.028-.179.193-.124.303.51.922 1.02 1.844 1.653 2.683.565.77 1.474 1.418 1.86 2.27.11.248.468.042.358-.206z" fill="#F3F3F3"/><path d="M17.83 71.123c.207-2.16 2.273-3.509 3.072-5.422-.097.042-.207.083-.303.124.923.592.234 2.739-.028 3.564a9.6 9.6 0 01-1.832 3.275c-.165.207.124.496.29.29a9.964 9.964 0 002.12-4.115c.235-.963.676-2.71-.344-3.371-.124-.083-.261.013-.303.123-.826 1.982-2.865 3.275-3.085 5.532-.027.262.386.262.413 0zm122.311 6.249l-.372-.95c-.068-.15-.124-.316-.192-.467-.083-.11-.083-.234-.014-.358.124.11.372.041.358-.151l-.207-2.078c-.013-.165-.179-.812-.082-.936.427-.592.716.385.757.537.372 1.266.358 2.724.345 4.032 0 .26.413.26.413 0a20.63 20.63 0 00-.193-3.193c-.096-.674-.207-1.651-.868-2.05-.427-.262-.785.014-.868.468-.082.44.056.963.097 1.39.055.605.124 1.21.179 1.816.124-.055.234-.097.358-.152-.234-.22-.592-.178-.73.124-.096.207-.014.427.055.633.165.482.386.95.565 1.431.096.262.496.152.399-.096z" fill="#F3F3F3"/><path d="M141.064 75.13a11.97 11.97 0 011.184-5.56l-.33.041c.895.743.303 2.752.151 3.716a40.345 40.345 0 01-.799 3.853c-.068.261.331.371.4.11.399-1.541.702-3.11.923-4.693.137-1.018.537-2.518-.386-3.288-.096-.083-.262-.083-.33.04a12.436 12.436 0 00-1.24 5.766c.027.276.441.276.427.014zM68.78 117.251c.867-.881 2.217.303 3.223.248.482-.028.922-.207 1.363-.358a4.322 4.322 0 011.777-.207c2.452.207 4.835.386 7.3.22.262-.013.262-.426 0-.412a38.85 38.85 0 01-3.994.055c-1.35-.055-2.755-.386-4.091-.289-.537.041-1.033.22-1.543.385-.743.234-1.308.193-2.024-.069-.785-.289-1.667-.523-2.314.138-.18.192.11.481.303.289zm-26.019 3.342c.964-1.046 2.658-1.115 3.678-.124l.041-.33a4.494 4.494 0 01-2.231.454c-.262-.014-.262.399 0 .413a4.898 4.898 0 002.451-.509c.124-.055.138-.234.042-.331-1.185-1.142-3.154-1.087-4.27.124-.18.207.11.496.289.303zm-38.388 3.715c-.702-.055-1.405.152-1.942.633-.33.303-.799.867-.372 1.266.482.441 1.64.152 2.204.097a20.842 20.842 0 003.044-.564c.262-.069.152-.468-.11-.399a19.756 19.756 0 01-3.691.605c-.248.014-.51.041-.758.041-.62-.027-.33-.495-.028-.757.455-.412 1.047-.564 1.653-.509.276.014.262-.399 0-.413zm19.683-11.352a.22.22 0 01.22-.178c.097-.014.193-.028.276-.042a2.6 2.6 0 01.647.014c.427.055.813.206 1.185.44.013-.123.027-.247.055-.371-.51.179-1.02.22-1.557.137-.261-.041-.372.358-.11.4a3.715 3.715 0 001.777-.138c.165-.055.207-.275.055-.372-.716-.454-1.653-.674-2.493-.44-.455.124-.813.826-.165.963.261.042.372-.357.11-.413zM35.46 18.325c-3.278-1.156-5.62-4.334-5.977-7.774C29.11 7 31.108 3.614 34.11 1.798c3.236-1.954 7.837-1.968 10.495.99 1.364 1.5 2.204 3.55 2.7 5.491.51 1.995.592 4.21-.551 6.013-1.157 1.803-3.223 2.808-5.165 3.564-2.053.812-4.518 1.445-6.529.18-.22-.138-.427.22-.207.357 1.805 1.128 3.981.84 5.91.207 1.886-.62 3.884-1.487 5.344-2.89 3.264-3.124 1.928-8.284-.11-11.71C44.922 2.184 43.311.849 41.258.299c-1.956-.523-4.05-.344-5.909.413-3.416 1.403-6.088 4.678-6.308 8.421-.248 4.128 2.41 8.215 6.308 9.591.248.097.358-.302.11-.399zm103.566 79.88a194.718 194.718 0 0027.933-3.798 195.273 195.273 0 007.934-1.857c.261-.07.151-.468-.111-.4a193.72 193.72 0 01-27.768 4.982c-2.658.275-5.316.495-7.975.66-.275.014-.275.427-.013.413zm-21.529 9.936c1.212.206 2.452.193 3.65-.096.744-.179 1.281-.468 2.053-.221.482.152.936.207 1.432.111.551-.111 1.061-.386 1.529-.688.51-.344 1.019-.826 1.639-.95.716-.138 1.364.427 2.052.578.496.11 1.006.096 1.502.014.261-.042.151-.441-.11-.399-.868.151-1.543-.069-2.328-.413-.331-.151-.648-.234-1.019-.207-1.116.124-1.887 1.17-2.92 1.542-.662.234-1.199.151-1.846-.055-.496-.152-.854-.069-1.336.082-1.364.427-2.755.551-4.16.317-.275-.055-.399.344-.138.385z" fill="#F3F3F3"/><path d="M49.249 126.042h32.106c.537 0 .537-.825 0-.825H49.25c-.538 0-.538.825 0 .825zm34.406-.248h3.76c.537 0 .537-.825 0-.825h-3.76c-.537 0-.537.825 0 .825zm6.543-.124h1.212c.537 0 .537-.825 0-.825h-1.212c-.538 0-.538.825 0 .825zm-75.48 3.4h23.746c.537 0 .537-.826 0-.826H14.718c-.524 0-.524.826 0 .826zm26.046 0h6.184c.538 0 .538-.826 0-.826h-6.184c-.524 0-.524.826 0 .826zm9.696-.247h.358c.22 0 .428-.193.414-.413-.014-.22-.18-.413-.413-.413h-.359c-.22 0-.427.193-.413.413.014.22.18.413.413.413zm-40.096.357h.854c.538 0 .538-.826 0-.826h-.854c-.537 0-.537.826 0 .826zm109.144-15.122h33.319c.537 0 .537-.826 0-.826h-33.319c-.537 0-.537.826 0 .826zm37.672-.481h30.164c.537 0 .537-.826 0-.826H157.18c-.524 0-.524.826 0 .826zm32.836-.25h2.424c.537 0 .537-.826 0-.826h-2.424c-.537 0-.537.826 0 .826zm-10.661-4.594h6.901c.537 0 .537-.826 0-.826h-6.901c-.537 0-.537.826 0 .826zm9.201-.124h1.694c.537 0 .537-.826 0-.826h-1.694c-.524 0-.524.826 0 .826zm-75.714 7.871h8.842c.538 0 .538-.826 0-.826h-8.842c-.524 0-.524.826 0 .826zm11.997-.125h3.76c.537 0 .537-.826 0-.826h-3.76c-.537 0-.537.826 0 .826zm5.454 2.064h2.548c.537 0 .537-.825 0-.825h-2.548c-.537 0-.537.825 0 .825zM71.63 49.425c-.495-.62 1.378-1.005 1.68-1.128.593-.262.965-.744 1.103-1.377.138-.646 0-1.334.193-1.967.289-.936 1.363-.881 2.162-.84.537.028.523-.798 0-.825-.909-.055-1.956-.028-2.59.715-.564.66-.454 1.555-.523 2.367-.055.73-.33 1.087-1.047 1.294-.413.123-.826.192-1.17.454-.634.454-.896 1.252-.386 1.885.317.426.909-.165.578-.578zm2.934.687c-.371-.44.482-.881.758-1.046.372-.22.689-.427.964-.757.565-.674.937-1.954 1.956-2.01.523-.027.537-.852 0-.825-1.694.083-1.832 1.844-2.989 2.67-.496.344-1.088.537-1.405 1.087a1.22 1.22 0 00.124 1.459c.344.412.937-.18.592-.578zm64.544-44.544c-.055.88-.744 1.94.083 2.683.716.633 1.611.165 2.424.22.895.069.51.894.399 1.5-.082.454-.124.95.083 1.39.331.688 1.226 1.128 1.887.633.413-.317 0-1.032-.413-.716-.675.51-.813-.715-.744-1.087.069-.399.207-.798.22-1.21.014-.579-.289-1.033-.826-1.226-.661-.233-1.253.028-1.914.014-1.199-.027-.4-1.486-.359-2.201.028-.537-.798-.537-.84 0zm4.739.952c-.345.743-.675 1.624-.124 2.367.206.275.482.44.812.495.221.028.51-.069.703.014a.617.617 0 01.344.826c-.234.481.482.894.716.412.29-.619.179-1.334-.372-1.788-.303-.248-.578-.248-.95-.29-1.005-.096-.73-.935-.413-1.61.22-.481-.496-.908-.716-.426zm43.897 28.538c-.303-.784.427-1.913 1.349-1.624.703.234 1.02 1.28.551 1.858-.33.413.248.99.579.578.854-1.032.427-2.835-.909-3.234-1.474-.44-2.893 1.238-2.356 2.628.179.51.978.29.786-.206zM26.948 67.726c-.082-.977 1.157-1.528 1.68-.606.442.798-.426 1.5-1.184 1.239-.495-.18-.716.619-.22.798 1.529.55 2.975-1.184 2.052-2.56-.991-1.472-3.292-.605-3.14 1.129.027.523.854.536.813 0z" fill="#2D2D2D"/><path d="M31.742 29.155c-.317.523-.345 1.198.069 1.68.206.233.495.384.798.44.427.068.744-.166 1.116.013.372.193.29.427.33.812.014.234.028.454.056.688.027.248.055.496.234.688.165.18.372.248.606.29.165.027.33.013.51.013.137 0 .289 0 .427.027.261.07.372.248.344.51-.207.151-.014.509.206.357.414-.302.276-.77-.082-1.073a1.037 1.037 0 00-.565-.234c-.716-.096-1.13.18-1.295-.825-.082-.496.097-1.528-.413-1.858-.234-.151-.44-.083-.675.014-.372.151-.675.275-1.06.04-.524-.316-.537-.935-.248-1.403.137-.192-.22-.399-.358-.178zm5.564 1.638c-.275.482-.606 1.211-.179 1.707.276.33.744.289 1.102.495.565.317.827.977.716 1.596-.041.262.358.372.4.11.11-.619-.028-1.224-.455-1.692a1.87 1.87 0 00-.66-.468c-.29-.124-.786-.275-.883-.633-.068-.262.207-.702.317-.908.124-.234-.234-.44-.358-.207zm77.533 43.457c-.468-.964.413-2.092 1.46-1.72 1.088.385 1.047 1.87.014 2.284-.248.096-.138.495.11.399 1.336-.537 1.515-2.45.124-3.027-1.433-.606-2.7.949-2.052 2.284.11.234.468.014.344-.22zM64.11 70.987c-.881-.178.537-1.128.689-1.224.22-.152.427-.317.537-.578.372-.84-.303-2.518 1.185-2.6.261-.015.261-.427 0-.414-.579.028-1.006.344-1.268.84-.427.798.083 1.885-.743 2.435-.469.317-.965.523-1.02 1.142-.027.372.124.702.51.785.262.069.372-.33.11-.386zm2.645-1.198c-.386-.537-.165-1.294.482-1.5.44-.138.771-.069 1.02-.523.247-.468.206-1.018.481-1.5.345-.62.923-1.046 1.584-1.252.248-.083.152-.482-.11-.4-.62.193-1.157.537-1.556 1.046a2.985 2.985 0 00-.496.895c-.152.44-.083 1.032-.579 1.266-.303.151-.606.069-.895.289-.193.138-.33.344-.413.55-.193.454-.152.936.138 1.335.137.22.495.014.344-.206z" fill="#FF6871"/><path d="M52.747 6.504c-.248-.495.813-.316.854-.302.151.055.303.179.44.261.221.124.47.248.73.262.345.013.634-.138.855-.386.633-.77.4-2.766 1.887-2.174.44.18.936.44 1.418.22.386-.179.469-.564.414-.95-.028-.192-.248-.577-.193-.77.11-.371.454-.399.716-.275.124.055.234.138.372.179.413.151.813.124 1.06-.261.138-.22-.22-.427-.358-.207-.275.44-1.377-.468-1.873-.193-.4.207-.386.62-.29 1.005.111.454.387 1.115-.454 1.1-.372 0-.716-.316-1.074-.384-.427-.083-.813.027-1.088.357-.689.812-.427 2.931-2.025 2.064-.468-.247-.854-.495-1.377-.261-.4.179-.593.523-.386.922.138.234.482.027.372-.207z" fill="#0071BC"/><path d="M69.151 17.734c-.62-.152-.702-.95-.4-1.417.428-.66 1.433-.62 2.108-.496 1.13.207 2.177.647 3.32.22 1.102-.412 1.928-1.307 3.168-1.334 1.294-.028 2.52.536 3.829.495 2.286-.069 4.366-1.197 6.556-1.72 1.295-.317 2.562-.344 3.857-.014 1.24.317 2.396.826 3.636 1.129 1.295.33 2.576.275 3.884.165 1.433-.11 2.906-.22 4.201.522-.027-.082-.069-.15-.096-.233-.689 2.022-2.92 2.848-4.89 2.958-2.465.138-4.862-.757-7.341-.66-2.507.096-4.628 1.623-7.094 1.857-2.52.248-4.903-.95-7.41-.88-2.548.068-5.868 1.458-7.879-.812-.179-.193-.468.096-.289.289 1.584 1.775 4.09 1.458 6.198 1.142 1.557-.234 2.975-.248 4.532.055 1.322.261 2.644.62 3.994.647 2.728.068 5.028-1.693 7.714-1.872 2.713-.179 5.344.908 8.057.606 2.025-.22 4.132-1.17 4.821-3.234a.203.203 0 00-.096-.234c-2.425-1.417-5.345-.083-7.948-.674-1.432-.33-2.768-.964-4.215-1.266-1.253-.276-2.493-.207-3.732.096-1.323.317-2.576.84-3.87 1.238-1.488.455-2.907.592-4.45.276-1.225-.262-2.355-.468-3.512.11-.537.275-1.033.647-1.584.894-.937.413-1.832.165-2.782-.069-1.006-.234-2.52-.399-3.086.716-.358.702-.11 1.706.717 1.899.234.055.344-.344.082-.4zM11.797 38.938c1.873-.248 3.65.715 5.51.481.757-.096 1.46-.426 2.162-.715a6.49 6.49 0 011.033-.344c.675-.151 1.281.028 1.942.165 1.846.4 3.912-.041 5.758-.303a90.677 90.677 0 002.713-.412c1.033-.18 2.066-.455 3.1-.565 1.087-.11 2.368.372 1.928 1.707-.372 1.142-1.764 1.472-2.81 1.555-1.818.137-3.623-.386-5.44-.042-1.695.317-3.21 1.197-4.85 1.68-.908.274-1.817.384-2.754.26-.937-.137-1.818-.371-2.782-.302-1.956.124-4.036 1.266-5.992.812-1.198-.276-1.818-1.376-1.24-2.518.565-1.101 1.86-1.39 2.99-1.39.261 0 .261-.413 0-.413-1.585 0-3.458.688-3.623 2.504-.152 1.68 1.501 2.367 2.92 2.312 1.033-.041 2.052-.344 3.058-.578 1.308-.303 2.507-.413 3.829-.165.978.179 1.887.275 2.879.083 1.019-.193 1.983-.606 2.933-.991.965-.386 1.942-.785 2.975-.936 1.212-.179 2.425.014 3.637.083 1.584.096 4.104.027 4.683-1.844.206-.674.055-1.459-.537-1.9-.579-.426-1.364-.398-2.039-.316-2.48.344-4.917.909-7.424 1.184-1.405.151-2.755.33-4.132 0-1.116-.276-1.997-.083-3.044.344-.551.22-1.088.468-1.667.578-.716.137-1.46.041-2.176-.083-1.17-.22-2.314-.523-3.498-.371-.303.055-.303.467-.042.44zm167.834 16.36c-2.604.908-5.648-1.238-7.521-2.862-.027.11-.055.234-.096.344 1.322-.537 2.713-.564 4.118-.482 1.391.07 2.782.166 4.173.207a86.88 86.88 0 008.885-.207c1.528-.11 3.044-.26 4.559-.44.743-.096 1.639-.275 2.341.069.978.495.896 1.569-.041 1.981-.482.207-1.006.276-1.515.372-.799.138-1.598.289-2.397.427-1.46.261-2.92.523-4.394.784l-2.52.454c-.785.138-1.598.344-2.411.358-1.377.014-2.41-1.197-3.787-1.046-.262.028-.262.44 0 .413.785-.096 1.404.33 2.079.647a3.832 3.832 0 001.695.399c1.584-.014 3.223-.496 4.779-.785 1.68-.302 3.375-.605 5.055-.908.799-.138 1.598-.289 2.397-.427.537-.096 1.102-.22 1.57-.536.785-.537.813-1.528.151-2.174-1.033-1.019-2.809-.482-4.063-.344a90.473 90.473 0 01-15.84.357c-1.666-.096-3.361-.178-4.931.454-.124.056-.22.234-.096.345 1.983 1.72 5.151 3.935 7.92 2.972.248-.055.151-.454-.11-.372zm-63.167 72.699c-.124-.784.992-.661 1.433-.509.344.11.675.247 1.033.289.854.11 1.694-.179 2.493-.441.771-.261 1.584-.55 2.41-.467.992.096 1.791.908 1.639 1.954-.165 1.087-1.281 1.596-2.272 1.293-.675-.206-1.268-.633-1.97-.743-1.488-.22-3.044 1.073-4.476.385-.235-.11-.455.234-.207.358.854.413 1.708.22 2.576-.028.551-.151 1.129-.344 1.708-.33.674.014 1.225.344 1.818.592.84.358 1.721.427 2.465-.179a2.054 2.054 0 00.716-2.105c-.578-2.271-3.195-1.569-4.765-1.046-.744.248-1.529.482-2.328.316-.51-.11-.992-.426-1.543-.412-.661.013-1.253.495-1.143 1.183.055.261.455.151.413-.11zm-15.881-4.583a2.745 2.745 0 012.465-.688c.372.083 1.405.358.758.853-.344.262-1.102.234-1.515.234-.262 0-.262.413 0 .413.606 0 1.666-.027 2.121-.509.386-.413-.055-.867-.427-1.073-1.185-.688-2.713-.427-3.691.481-.193.179.096.468.289.289zm-7.658 9.123c-.11-.041-.207-.082-.317-.123l-.041.33c.84-.606 1.79-.165 2.686.041.757.179 1.418.096 2.162-.082a16.01 16.01 0 012.81-.413c.441-.028.881-.041 1.322-.055.413-.014 1.446-.22 1.088.481-.427.84-1.666.867-2.424.62-.647-.207-1.253-.51-1.942-.344-.716.165-1.322.619-2.066.77-.992.207-1.97.11-2.92-.234-.248-.082-.358.303-.11.399a5.787 5.787 0 002.906.276c1.116-.193 2.107-1.06 3.264-.744.827.234 1.502.606 2.383.344.565-.165 1.364-.66 1.474-1.293.138-.743-.785-.716-1.267-.702-1.116.028-2.245.083-3.36.248-.607.096-1.185.261-1.778.371-.73.138-1.322 0-2.025-.192-.826-.234-1.68-.372-2.424.151-.11.083-.137.22-.041.33.207.234.427.289.716.234.276-.055.165-.454-.096-.413zm56.886-7.885a6.268 6.268 0 012.506-.495c.896.014 1.653.358 2.507.55 1.254.303 2.19-.467 3.21-1.059 1.611-.95 3.209-.33 4.889.014 1.199.247 2.48.289 3.513-.441.22-.151.013-.509-.207-.358-1.295.936-2.892.482-4.311.138-1.336-.316-2.659-.495-3.912.193-.551.302-1.061.702-1.639.963-.882.399-1.598.083-2.452-.165-1.391-.399-2.865-.289-4.201.261-.261.097-.151.496.097.399z" fill="#F3F3F3"/><path d="M54.041 56.896c1.226-.468 3.375 2.05 4.436 3.701 1.625 2.491 1.887 4.665 2.686 9.702.303 1.954.798 5.05 1.473 8.958 1.212 1.183 1.667 2.339 1.846 3.054.248.922.317 2.106 0 2.216-.344.124-.95-1.032-1.198-.922-.33.151.744 2.01.096 2.862-.661.867-3.14.73-4.435-.55-1.212-1.197-.73-2.725-.923-6.371-.069-1.239-.262-4.61-1.295-7.94-1.267-4.06-2.59-4.266-3.333-7.857-.523-2.532-.675-6.344.648-6.853z" fill="#fff" stroke="#2D2D2D" stroke-width=".906" stroke-miterlimit="10"/><path opacity=".15" d="M55.86 60.445c.757-.165 2.08 3.261 2.162 3.454 1.212 3.165.634 4.514 1.17 9.178.441 3.798.69 5.959 1.915 8.628 1.185 2.56 2.562 4.06 2.039 4.748-.524.701-2.576.027-4.187-.62a10.88 10.88 0 01-.551-1.54c-.455-1.61-.427-2.89-.427-3.51 0-.344-.014-4.334-.8-7.816-.426-1.857-.62-1.582-1.115-3.509-1.088-4.183-1.047-8.834-.207-9.013z" fill="#2D2D2D"/><path opacity=".17" d="M57.719 67.105c.151 1.43.344 3.563.427 6.164.124 4.004-.069 7.335-.18 7.335-.096 0 .028-2.395-.495-5.67a32.604 32.604 0 00-1.24-5.105c.262-.261.579-.62.868-1.114a5.659 5.659 0 00.62-1.61z" fill="#2D2D2D"/><path d="M56.769 115.916c-.358.66-.413 1.376.413 7.609.097.771.193 1.404.248 1.844a34.18 34.18 0 008.609.248c2.135-.206 4.628-.44 4.766-1.252.11-.661-1.337-1.844-7.948-4.101-.303-2.201-.62-4.403-.923-6.605-3.87.262-4.876 1.748-5.165 2.257z" fill="#2D2D2D"/><path d="M48.463 76.684a369.934 369.934 0 015.303 7.39c5.124 7.32 7.686 10.98 8.581 13.43 2.645 7.251 1.956 14.297 1.694 16.691a39.593 39.593 0 01-.495 3.275 15.959 15.959 0 01-8.457.798 55.601 55.601 0 01-.703-6.261 52.104 52.104 0 01.303-9.04 35.034 35.034 0 01-7.217-7.445c-3.72-5.243-4.711-9.784-5.303-12.7-.84-4.046-.262-5.147.275-5.725 1.79-1.858 5.675-.523 6.02-.413z" fill="#fff" stroke="#2D2D2D" stroke-width=".906" stroke-miterlimit="10"/><path opacity=".19" d="M48.863 88.3a31.496 31.496 0 015.055 5.408c.496.688 2.548 3.619 4.352 8.325 2.48 6.522 2.686 12.604 2.576 16.045-.606.22-1.46.454-2.48.536a8.777 8.777 0 01-3.195-.358 59.724 59.724 0 01-.799-9.219 62.246 62.246 0 01.262-6.206c-.344-.193-6.997-3.936-6.914-10.197.014-1.747.564-3.233 1.143-4.334z" fill="#2D2D2D"/><path opacity=".15" d="M50.64 98.84c.303-.413 4.09.743 5.592 3.55 1.13 2.106.22 3.729.261 6.729.028 2.243.606 5.436 3.1 9.302l-4.353-.082a66.926 66.926 0 01-.62-15.687 9.901 9.901 0 01-1.956-1.335c-.812-.716-2.245-2.174-2.024-2.477z" fill="#2D2D2D"/><path d="M32.43 114.826c-1.046.674-1.225 1.61-2.176 3.674a35.041 35.041 0 01-3.181 5.518 13.923 13.923 0 004.435 3.344c2.906 1.376 6.983 2.036 7.617.839.675-1.293-2.865-4.362-3.926-5.27.29-.647.758-1.679 1.336-2.931 1.529-3.275 1.832-3.757 1.584-4.349-.578-1.403-3.788-2.036-5.688-.825z" fill="#2D2D2D"/><path d="M36.852 73.571c-.827 2.27-1.667 4.541-2.493 6.798-1.364 3.936-.772 6.66-.33 7.967.481 1.445 1.321 2.684 2.988 5.147a70.49 70.49 0 003.32 4.486 44.026 44.026 0 00-5.482 6.963 44.183 44.183 0 00-4.821 10.458 14.038 14.038 0 003.65 1.995c1.804.66 3.402.812 4.49.825a34.468 34.468 0 006.97-7.141c1.914-2.629 4.49-6.165 5.316-11.119 1.405-8.435-3.181-15.302-4.82-17.75-2.962-4.446-6.516-7.143-8.788-8.629z" fill="#fff" stroke="#2D2D2D" stroke-width=".906" stroke-miterlimit="10"/><path d="M42.65 78.525a161.792 161.792 0 013.114 4.458c.124-.069.234-.138.358-.207a27.193 27.193 0 01-2.383-3.811l-.29.289c.565.385.882.963 1.227 1.527.399.66.812 1.321 1.212 1.982.785 1.28 1.57 2.573 2.355 3.853.124-.07.234-.138.358-.207a1260.757 1260.757 0 00-3.609-5.614c-.137-.22-.495-.014-.358.206 1.488 2.477 2.99 4.94 4.477 7.417.137.234.495.028.358-.206-1.088-1.844-2.163-3.702-3.25-5.546l-.331.248c1.556 1.72 1.831 4.225 3.526 5.835.192.178.482-.11.289-.29-1.694-1.596-1.97-4.114-3.526-5.834-.165-.179-.44.055-.33.248 1.087 1.844 2.162 3.701 3.25 5.545.124-.069.234-.137.358-.206-1.487-2.477-2.989-4.94-4.476-7.417-.124.069-.235.138-.359.206 1.199 1.872 2.397 3.743 3.61 5.615.137.22.495.013.357-.207-.881-1.445-1.763-2.89-2.644-4.32-.648-1.074-1.24-2.464-2.314-3.193-.18-.124-.372.11-.29.289a26.73 26.73 0 002.383 3.812c.152.206.51.013.358-.207a112.15 112.15 0 00-3.112-4.458c-.11-.234-.469-.028-.317.193z" fill="#fff"/><path opacity=".2" d="M43.518 79.131c-.716 1.032-1.708 2.739-2.135 4.982-1.308 6.797 4.201 9.811 2.975 15.77-.647 3.137-2.286 2.848-5.95 9.37a53.502 53.502 0 00-3.746 8.215 24.422 24.422 0 01-2.906-1.101 21.16 21.16 0 01-1.68-.839 47.954 47.954 0 013.883-8.862 48.234 48.234 0 016.336-8.724 78.434 78.434 0 01-2.259-3.041c-2.548-3.605-3.843-5.45-4.27-7.568-.482-2.34-.082-4.335.193-5.683a17.946 17.946 0 011.68-4.72c2.618.729 5.249 1.472 7.88 2.201z" fill="#2D2D2D"/><path opacity=".17" d="M40.282 78.292c-1.557 1.775-3.595 4.692-3.43 8.215.248 5.518 5.702 7.623 4.917 12.15-.22 1.253-1.956 3.262-5.44 7.239a164.123 164.123 0 01-4.656 5.105 39.616 39.616 0 013.884-7.238 40.439 40.439 0 014.656-5.684c-.427-.646-1.185-1.802-2.135-3.233-3.32-4.981-3.967-5.766-4.34-7.5-.44-2.036-.15-3.756.07-5.036.4-2.38 1.24-4.21 1.873-5.367 1.529.44 3.072.895 4.6 1.349z" fill="#2D2D2D"/><path d="M47.402 54.35c-1.956 1.157-5.675 3.702-8.512 8.38-3.609 5.96-3.609 11.78-3.485 14.037a92.244 92.244 0 0015.606 3.605 140.91 140.91 0 011.157-3.743c.62-1.885 1.267-3.688 1.928-5.408 2.287-1.183 3.086-2.71 3.347-3.344 1.06-2.477.055-5.063-1.033-7.857-.606-1.569-.923-2.367-1.68-3.22-2.37-2.683-6.281-2.518-7.328-2.45z" fill="#FF6871"/><path opacity=".27" d="M52.045 57.61c-3.76.495-5.771 2.201-6.584 3-4.586 4.527-3.002 12.164-2.575 14.228a20.84 20.84 0 001.418 4.348c-2.906-.784-5.799-1.582-8.705-2.367-.179-2.105-.358-7.513 2.769-13.279 2.906-5.339 7.08-8.077 8.939-9.15.262.013.523.04.785.055.4.468.882.963 1.474 1.472.881.77 1.75 1.307 2.48 1.693z" fill="#2D2D2D"/><path opacity=".2" d="M39.992 61.065a27.633 27.633 0 00-.289 8.42 27.392 27.392 0 002.824 9.207c-2.37-.606-4.752-1.211-7.121-1.803a24.698 24.698 0 01.854-8.022 24.928 24.928 0 013.733-7.803z" fill="#2D2D2D"/><path d="M156.436 106.53c-.868 1.941-.702 3.757-.565 4.61a27.062 27.062 0 006.97 2.023c.606.096 8.099 1.156 8.829-.895.179-.509-.11-1.032-.4-1.541-1.611-2.821-5.688-2.986-6.239-3-.152-2.931-2.039-5.105-3.967-5.256-2.727-.206-4.435 3.633-4.628 4.059z" fill="#2D2D2D"/><path d="M160.017 59.194a46.05 46.05 0 015.95 11.89c2.851 8.655 2.383 15.92 2.066 20.035a58.797 58.797 0 01-3.099 14.861c-.565.358-3.058 1.844-6.212 1.17-1.873-.399-3.14-1.39-3.746-1.94a35.401 35.401 0 002.975-10.734c.564-5.008-.124-8.93-1.033-13.967-2.066-11.38-4.917-15.7-2.452-18.879 1.185-1.541 3.209-2.23 5.551-2.436z" fill="#fff" stroke="#2D2D2D" stroke-width=".906" stroke-miterlimit="10"/><path opacity=".16" d="M160.995 65.482c.937 4.555 1.68 9.784 1.97 15.591a103.404 103.404 0 01-2.066 26.118 6.519 6.519 0 01-3.719-.62 6.347 6.347 0 01-1.97-1.555c1.722-3.963 2.342-7.334 2.59-9.604.385-3.564.068-6.427-.524-11.766a136.396 136.396 0 00-1.033-7.43c1.584-3.564 3.168-7.156 4.752-10.734z" fill="#2D2D2D"/><path opacity=".22" d="M157.978 72.335a37.499 37.499 0 012.356 16.43 37.276 37.276 0 01-4.725 15.384c2.7-7.788 2.838-12.563 2.424-15.522-.11-.756-.578-3.756-1.115-8.173a221.09 221.09 0 01-.482-4.294c.523-1.28 1.033-2.56 1.542-3.825z" fill="#2D2D2D"/><path d="M136.505 100.57c-1.143.564-1.487 1.486-3.057 4.472a173.173 173.173 0 01-2.507 4.582c1.763 1.266 4.559 2.931 8.292 3.812 2.203.523 6.79 1.252 7.313 0 .579-1.39-4.132-4.596-6.115-5.89 2.038-1.981 2.135-4.857.757-6.329-1.17-1.253-3.291-1.335-4.683-.647z" fill="#2D2D2D"/><path d="M156.477 58.903c4.545 4.005-.771 17.352-5.138 28.03a177.332 177.332 0 01-9.173 19.086c-.757.11-3.03.331-5.454-.977-2.438-1.307-3.499-3.357-3.816-4.032a70.196 70.196 0 004.256-8.724c.579-1.417 3.072-7.747 4.477-16.691a82.393 82.393 0 00.978-13.747c.813-.826 5.344-5.27 10.702-4.252.813.151 2.149.413 3.168 1.307z" fill="#fff" stroke="#2D2D2D" stroke-width=".906" stroke-miterlimit="10"/><path d="M157.951 64.408c-.014.481-.028.963-.028 1.445h.414a7.767 7.767 0 01.123-2.257c-.137-.014-.275-.041-.399-.055.083 1.624-.289 3.33-.578 4.926a47.222 47.222 0 01-1.13 4.775c.138.041.262.069.4.11a109.01 109.01 0 001.914-8.655c.041-.262-.358-.372-.399-.11a110.395 110.395 0 01-1.915 8.655c-.069.261.331.371.4.11a48.543 48.543 0 001.17-5.036c.276-1.541.634-3.207.551-4.775-.014-.22-.358-.29-.399-.055a8.037 8.037 0 00-.138 2.367c.028.261.413.275.413 0 .014-.482.028-.964.028-1.445 0-.262-.413-.262-.427 0z" fill="#fff"/><path d="M156.202 72.375c.014 1.06.041 2.12.055 3.179 0 .261.413.261.413 0-.014-1.06-.041-2.12-.055-3.179-.014-.275-.427-.275-.413 0z" fill="#fff"/><path opacity=".19" d="M150.472 63.184a55.29 55.29 0 01-.923 10.912c-.868 4.637-2.19 8.228-4.118 13.636-1.57 4.431-2.328 5.752-3.926 10.665a124.446 124.446 0 00-2.107 7.169 8.34 8.34 0 01-3.898-1.582 8.461 8.461 0 01-2.534-3.055 71.255 71.255 0 005.165-11.174c3.154-8.765 3.898-16.389 4.325-21.081.179-1.954.275-3.578.316-4.637 2.562-.29 5.138-.564 7.7-.853z" fill="#2D2D2D"/><path opacity=".24" d="M149.053 63.581a84.606 84.606 0 01-3.292 11.036c-.798 2.147-2.024 5.036-4.462 10.802-.895 2.133-1.35 3.192-1.57 3.674-1.35 3.027-3.513 7.28-6.97 12.288 3.099-5.559 6.653-13.485 8.54-23.475a77.65 77.65 0 001.336-13.61c-.014-.013-.014-.013 6.418-.715z" fill="#2D2D2D"/><path d="M153.405 29.745a7.481 7.481 0 001.309 2.12c.51.578 1.157 1.32 2.121 1.61 1.873.577 3.691-.909 3.939-1.115 1.819 1.073 3.637 2.147 5.441 3.22a33.002 33.002 0 01-.702 9.577c-.841 3.757-1.653 4.21-2.314 7.858-1.006 5.476-.262 10.361-.51 10.375-.041 0-.096-.11-.207-.702l-21.28 1.61c-.207-4.252-.179-7.83-.097-10.472.111-4.128.441-9.123 1.819-14.916.978-4.142 1.749-5.546 2.92-6.646 2.534-2.409 6.005-2.56 7.561-2.519z" fill="#0071BC"/><path opacity=".3" d="M161.614 32.856a117.99 117.99 0 01-1.515 10.747c-.248 1.349-.95 5.064-1.515 6.88-.688 2.23-3.374 8.601-16.514 13.775 4.008-.468 8.14-.88 12.368-1.225 2.645-.22 5.262-.413 7.838-.564a89.238 89.238 0 002.355-10.94 89.875 89.875 0 00.95-16.32l-3.967-2.353z" fill="#32198E"/><path d="M155.94 21.465c-.483 2.463-.703 5.187-2.7 8.2-.276.414-.51.73-.675.937.165.33 1.915 3.715 5.633 4.224 2.122.289 3.788-.523 4.422-.867a15.296 15.296 0 01-.069-2.93c.11-1.638.454-3 .799-4.033l4.779-.619c.317-.702.62-1.403.937-2.12l1.308-.04a151.92 151.92 0 01-1.404-4.376c-1.075-3.55-1.061-4.06-1.64-4.858-1.597-2.188-5.178-3.577-7.534-2.408-2.272 1.115-2.961 4.294-3.856 8.89z" fill="#fff" stroke="#2D2D2D" stroke-width=".906" stroke-miterlimit="10"/><path d="M170.306 24.024a14.593 14.593 0 01-2.328-.15c-.262-.042-.372.357-.11.398.812.124 1.611.18 2.438.165.275 0 .275-.413 0-.413zm.55-6.315c-.702-.386-1.542-.165-1.997.481-.151.22.207.427.358.207a1.12 1.12 0 011.433-.33c.234.123.441-.235.206-.358zm-.358 2.474c.069-.317.055-.633-.096-.922-.11-.207-.344-.454-.606-.344-.276.11-.262.495-.207.729.055.289.207.55.427.743.124.11.358.041.358-.151a2.15 2.15 0 00-.234-.963c-.11-.234-.468-.028-.358.206.11.234.165.481.179.743.124-.055.234-.096.358-.151-.234-.193-.316-.44-.33-.73.014-.027 0-.055-.042-.055a.159.159 0 01.069.07.561.561 0 01.097.206.824.824 0 01.014.481c-.097.29.303.4.371.138zm-3.636-1.925c-.799-.261-1.639.07-2.107.757-.152.22.206.427.358.206a1.438 1.438 0 011.639-.564c.248.07.358-.316.11-.399zm.22 2.296c.028-.372-.124-.95-.509-1.101-.51-.207-.51.509-.455.812.069.302.317.867.73.633.165-.097.193-.276.138-.44-.097-.262-.248-.496-.358-.744l-.331.248c.055.055.097.11.11.193.069.261.469.151.4-.11a.79.79 0 00-.221-.372c-.179-.165-.427.041-.33.248.055.096.096.192.151.302.042.083.083.234.152.303.027.096.055.096.096 0-.013-.027-.041-.069-.055-.096a.817.817 0 01-.082-.262c-.014-.082 0-.192-.028-.275.014-.055 0-.069-.014 0 .028.041.069.083.083.124a.948.948 0 01.11.55c-.028.248.386.248.413-.013z" fill="#2D2D2D"/><path d="M167.881 15.863a8.26 8.26 0 00-1.17-3.138c-.276-.426-.868-1.348-1.805-1.968-1.79-1.183-4.545-1.087-6.556.358-1.956 1.418-2.934 3.963-2.507 6.481l12.038-1.733z" fill="#FF6871"/><path d="M174.465 14.54l-18.539 2.353c-.786.096-.786 1.334 0 1.238l18.539-2.353c.771-.096.785-1.335 0-1.239z" fill="#2D2D2D"/><path d="M159.851 17.432c1.089.399 1.722 1.156 2.466 2.064 1.556 1.899 1.088 2.6 2.19 3.784 1.735 1.885 3.498.77 5.055 2.614 1.322 1.57 1.143 3.688 1.088 4.156-.055.468-.289 2.353-1.818 3.647-1.322 1.114-3.127 1.376-3.237 1.128-.041-.096.11-.316 1.088-.977a3.31 3.31 0 01-1.322.564c-.675.124-1.309 0-1.322-.096 0-.069.358-.069.633-.372.165-.178.234-.385.276-.564-.537.358-1.226.66-1.874.468-1.763-.537-2.079-4.486-2.19-5.793-.33-4.238.882-6.55-.592-8.036-.124-.124-.716-.73-1.363-.606-.827.152-1.46 1.445-1.185 2.298.234.73 1.061.936 1.005 1.074-.082.178-1.473-.097-2.644-1.032-.427-.345-.771-.62-.95-1.129-.317-.88.055-1.885.55-2.477 1.034-1.238 2.962-1.156 4.146-.715z" fill="#2D2D2D" stroke="#2D2D2D" stroke-width=".906" stroke-miterlimit="10"/><path opacity=".22" d="M158.212 22.896c.262.027.634.041.661-.055.014-.041-.082-.11-.082-.11s.317.399.702.454a.747.747 0 00.455-.096 34.418 34.418 0 00-2.011 5.325 33.485 33.485 0 00-1.143 5.752 6.952 6.952 0 01-2.728-1.624 6.924 6.924 0 01-1.418-1.981 15.795 15.795 0 001.597-3.069c.262-.688.359-1.142.827-2.71.386-1.267.689-2.313.895-3.028.11.096.276.248.496.399.317.22.937.647 1.749.743z" fill="#2D2D2D"/><path d="M162.661 10.016c-1.611.316-2.81 1.61-2.989 3.137-.22 1.816 1.116 3.055 1.24 3.165-1.708.206-3.416.427-5.124.633a7.21 7.21 0 01.055-1.583 6.79 6.79 0 011.763-3.55c.4-.412 1.805-1.747 3.885-1.871a5.57 5.57 0 011.17.069z" fill="#FF6871"/><path d="M165.803 35.445c1.102-.166 2.231 1.747 2.755 2.628 3.03 5.146 1.763 11.09 1.377 12.825-.303 1.362-.868 3.77-2.631 6.426a18.146 18.146 0 01-4.931 5.009c-2.121.812-5.978 1.926-10.619 1.17a19.83 19.83 0 01-4.188-1.17c-1.983.123-3.966.234-5.95.358a7.042 7.042 0 01-1.281-.33c-.633-.235-1.239-.469-1.239-.689 0-.247.688-.633 4.049-1.156-.165.028-2.369.454-3.843-1.087-1.377-1.43-1.46-3.88-.413-4.843.881-.812 2.314-.455 4.931.247a29.497 29.497 0 016.184 2.422c.579.261 5.083 2.202 9.201-.165 3.141-1.803 4.187-5.036 4.435-5.93.992-3.551-.812-4.803-.165-9.936.083-.88.675-5.545 2.328-5.78z" fill="#fff" stroke="#2D2D2D" stroke-width=".906" stroke-miterlimit="10"/><path d="M138.365 57.654a13.6 13.6 0 014.586 1.17c.235.11.455-.248.207-.358a13.868 13.868 0 00-4.793-1.239c-.262 0-.262.413 0 .427zm-.097-1.678c1.832-.055 3.389 1.06 5.097 1.583.247.082.358-.317.11-.4-1.736-.536-3.32-1.65-5.207-1.596-.261.014-.275.427 0 .413zm1.763-1.46c1.502.123 2.824.84 4.119 1.568.234.124.441-.22.206-.357-1.363-.757-2.741-1.486-4.325-1.624-.275-.028-.275.385 0 .413z" fill="#2D2D2D"/><path opacity=".18" d="M164.122 37.976c-.813 3.262 1.35 5.463 2.08 9.192.124.66 1.102 6.014-1.763 9.812-3.196 4.238-9.532 4.39-10.772 4.43-3.236.083-4.462-.866-9.531-.605-.482.028-4.89.275-4.931.895-.014.33 1.212.701 2.135.825 1.212.165 1.846-.11 3.388-.234a16.76 16.76 0 012.783 0 19.25 19.25 0 005.399 1.363c.592.054 2.438.22 4.807-.124 0 0 1.983-.276 3.554-.826 3.898-1.349 7.754-7.032 8.842-13.224 1.226-6.976-1.501-12.233-3.03-13.403-.206-.165-.799-.619-1.419-.468-1.005.22-1.418 1.858-1.542 2.367z" fill="#2D2D2D"/><path opacity=".17" d="M169.934 42.12c-.221 0-.221 2.627-.827 5.93-.372 2.009-1.129 6.096-2.961 8.944-3.264 5.078-9.931 6.22-12.465 6.523 2.176.302 5.523.371 8.787-1.363 7.08-3.77 7.769-12.866 7.893-14.517.193-2.78-.207-5.518-.427-5.518z" fill="#2D2D2D"/><path d="M50.998 94.189c5.702-5.064 11.432-10.1 17.19-15.096a1988.777 1988.777 0 0132.863-27.92c-.867-2.573-1.983-7.031-1.322-12.453.207-1.72 1.97-14.394 13.595-20.944.964-.55 14.311-7.76 26.817.193 8.251 5.243 12.521 14.806 11.515 24.15-1.487 13.884-13.829 20.035-14.545 20.38-8.898 4.237-19.6 2.985-27.575-3.207a12424.924 12424.924 0 00-35.88 29.613 7149.23 7149.23 0 00-15.675 13.017 13.793 13.793 0 01-4.518-3.481 13.775 13.775 0 01-2.465-4.252z" fill="#2D2D2D"/><path d="M125.968 60.72c12.065 0 21.845-9.364 21.845-20.915 0-11.552-9.78-20.916-21.845-20.916s-21.845 9.364-21.845 20.916c0 11.551 9.78 20.916 21.845 20.916z" fill="#fff" stroke="#2D2D2D" stroke-width=".906" stroke-miterlimit="10"/><path d="M127.744 20.047a591.122 591.122 0 01-12.589 25.071 670.144 670.144 0 01-3.76 6.963c-.124.234.234.44.358.207a584.252 584.252 0 0012.92-24.907c1.157-2.367 2.3-4.747 3.443-7.142.11-.22-.248-.426-.372-.192zm6.736 2.048a405.982 405.982 0 00-12.493 21.095c-.124.234.234.44.358.206a405.982 405.982 0 0112.493-21.095c.138-.22-.22-.426-.358-.206zm-13.223 23.519a160.778 160.778 0 01-5.84 10.417c-.138.233.221.44.358.206a167.668 167.668 0 005.84-10.417c.124-.234-.234-.454-.358-.206zm7.645-10.322c-2.314 4.349-4.614 8.697-6.928 13.045-.124.234.234.44.358.207 2.314-4.349 4.614-8.697 6.928-13.045.124-.234-.234-.44-.358-.207z" fill="#F3F3F3"/><path opacity=".08" d="M125.32 18.82c-1.528.55-11.597 4.321-14.82 14.421-.372 1.17-1.529 4.94-.661 9.303 1.666 8.31 9.986 15.04 20.867 17.296-.826.276-1.983.606-3.416.785-8.65 1.087-15.358-4.803-16.143-5.504-1.708-1.555-6.983-6.84-7.079-15.206-.014-.73.027-8.985 6.294-14.944 3.65-3.467 7.92-4.733 9.711-5.242a26.197 26.197 0 015.247-.909z" fill="#2D2D2D"/><path d="M44.716 61.274c.992-.124 2.48-.138 3.568.743 2.341 1.899.537 6.027 1.694 10.39.62 2.338 2.259 5.49 7.025 8.613 1.887.95 3.457 1.665 4.545 2.16 1.556.702 2.548 1.101 2.534 1.638-.013.537-.991.936-1.694 1.17.84.784 1.267 1.775.978 2.532-.22.591-.826.88-1.501 1.21-.772.386-1.419.468-2.163.565-1.39.179-2.08.261-2.713 0-.978-.413-1.419-1.321-2.066-2.629a11.472 11.472 0 01-1.033-3.275 22.6 22.6 0 01-6.006-4.031c-.867-.812-8.911-8.518-6.377-15.178.386-.936 1.198-2.45 3.21-3.908z" fill="#fff" stroke="#2D2D2D" stroke-width=".906" stroke-miterlimit="10"/><path d="M57.03 88.588a4.91 4.91 0 001.542 1.899c.207.165.414-.193.207-.358a4.54 4.54 0 01-1.391-1.748c-.11-.234-.468-.027-.358.207zm1.653-.221a5.194 5.194 0 001.79 1.954c.22.138.427-.22.207-.358a4.633 4.633 0 01-1.653-1.802c-.11-.234-.468-.028-.344.206zm1.735-.934a3.9 3.9 0 001.86 1.843c.234.11.454-.247.206-.357a3.52 3.52 0 01-1.708-1.693c-.124-.248-.468-.041-.358.207z" fill="#2D2D2D"/><path opacity=".2" d="M45.06 61.3a18.545 18.545 0 00-.344 6.096c.758 6.55 5 10.87 5.703 11.572 3.498 3.468 5.785 3 7.176 6.096.372.826 1.033 2.697 2.823 3.674.703.372 1.364.51 1.805.564-.234.193-.62.455-1.13.675-.854.371-1.598.385-2.768.399-.868.014-1.309.014-1.695-.165-.812-.372-1.198-1.142-1.35-1.528-.55-1.486-1.087-2.972-1.638-4.458-2.686-1.376-6.488-3.826-9.49-8.022-1.254-1.748-3.348-4.748-3.168-8.353.082-1.638.606-2.78.73-3.055.977-2.023 2.603-3.069 3.347-3.495z" fill="#2D2D2D"/><path opacity=".32" d="M41.163 68.69c.082-.027.606 1.624 1.639 3.551 2.52 4.761 6.157 7.678 8.76 9.715 1.184.922 2.19 1.61 2.823 2.037a15.648 15.648 0 011.474 3.22c.22.674.344 1.28.854 1.912.523.688 1.198 1.073 1.694 1.294a3.313 3.313 0 01-1.529-.29c-1.129-.522-1.625-1.61-2.148-2.765a10.978 10.978 0 01-.854-2.931c-7.19-3.633-9.89-8.215-10.91-10.39-1.046-2.229-1.914-5.297-1.803-5.352z" fill="#2D2D2D"/><path d="M52.568 48.707c-.978.386-.4 2.312-1.97 4.06-.771.866-1.708 1.28-2.355 1.513a8.086 8.086 0 002.562 2.422c.95.578 1.86.853 2.493.977.206-.371.55-.95.978-1.637 1.529-2.409 2.08-2.67 2.162-3.468.207-1.954-2.617-4.362-3.87-3.867z" fill="#fff" stroke="#2D2D2D" stroke-width=".906" stroke-miterlimit="10"/><path d="M52.389 52.423c.564 1.128 1.156 2.243 2.093 3.11.193.178.482-.11.29-.29-.91-.839-1.474-1.94-2.025-3.027-.124-.234-.482-.027-.358.207z" fill="#2D2D2D"/><path d="M51.975 51.68c.634 1.239 1.323 2.464 2.535 3.22.206.124.413-.151.248-.33-.4-.426-.813-.853-1.199-1.28l-.289.29c.234.247.482.48.758.674.096.068.399.206.454.288.083.138 0 .358-.041.496.138.041.261.069.4.11.013-.069.013-.138.027-.193.027-.178-.193-.371-.345-.206a.687.687 0 00-.137-.427c-.124.07-.234.138-.358.207l.454.619.33-.248a3.103 3.103 0 01-.316-.426c-.124-.18-.468-.07-.372.165.083.179.11.247.234.399.166.206.455-.083.29-.29a3.162 3.162 0 01-.125-.22l-.371.166c.123.179.248.344.385.509.152.179.468-.055.33-.248l-.454-.619c-.151-.22-.468-.027-.358.206.138.276.413.922.785.51-.11-.07-.234-.138-.344-.207-.014.07-.014.138-.028.193-.041.261.33.372.4.11.096-.33.33-.482.055-.812-.124-.151-.33-.22-.482-.316a4.788 4.788 0 01-.854-.73c-.18-.192-.469.097-.29.29l1.199 1.279.248-.33c-1.143-.716-1.777-1.9-2.383-3.069-.151-.234-.51-.014-.386.22z" fill="#2D2D2D"/><path d="M65.24 45.06a13.983 13.983 0 01-2.136 4.913c-2.272 3.289-5.358 4.679-6.68 5.188a8.366 8.366 0 01-2.686-1.665c-2.562-2.38-2.755-5.642-2.782-6.481a2.272 2.272 0 01-1.02-.55c-.88-.854-1.087-2.547-.275-3.248.923-.798 2.686.178 2.879.275.427.234.73.523.923.743.757-2.284 2.575-4.004 4.738-4.362 2.947-.482 6.17 1.665 7.038 5.188z" fill="#fff" stroke="#2D2D2D" stroke-width=".906" stroke-miterlimit="10"/><path d="M61.906 48.35a8.63 8.63 0 01-2.41 3.165c-.207.165.082.454.289.289a8.577 8.577 0 002.48-3.248c.11-.247-.249-.454-.359-.206z" fill="#2D2D2D"/><path d="M58.972 50.592c-.055.468.11.922.427 1.266.179.192.468-.097.29-.29a1.202 1.202 0 01-.304-.976c.028-.262-.386-.262-.413 0zm-.84-2.352a7.256 7.256 0 011.267-1.335c-.11-.069-.234-.138-.344-.206-.18.55-.565.99-1.074 1.266l.247.33c.317-.386.634-.757.95-1.142.166-.207-.123-.496-.288-.29-.317.386-.634.758-.95 1.143-.152.179.04.44.247.33a2.697 2.697 0 001.267-1.514c.07-.22-.193-.316-.344-.206-.51.413-.95.88-1.322 1.417-.165.22.193.427.344.207zm4.573 1.212c.18-.303.413-.564.675-.798-.11-.069-.234-.138-.344-.207a1.998 1.998 0 01-.73 1.046c.096.083.206.152.303.234.082-.22.206-.426.358-.605.165-.207-.124-.496-.29-.29a2.987 2.987 0 00-.454.785c-.069.165.165.344.303.234.44-.33.757-.757.909-1.28.069-.206-.193-.33-.344-.206-.29.247-.538.55-.744.88-.152.22.206.427.358.207zm-5.992-2.23c.207.482.317.977.317 1.486 0 .138.207.138.207 0 0-.55-.124-1.087-.345-1.596-.055-.124-.234-.014-.179.11zm-.578-.359c.138.22.234.44.317.674.041.124.234.069.193-.055a3.482 3.482 0 00-.33-.73c-.07-.11-.249 0-.18.11zm3.182-1.129a.765.765 0 011.005.73c0 .192.317.206.317 0a1.096 1.096 0 00-1.405-1.033c-.193.056-.11.358.083.303zm3.691 2.024a.673.673 0 01.716-.014c.166.11.33-.165.152-.261a.942.942 0 00-1.02.013c-.165.11-.013.372.152.262zm-6.722 3.538a2.53 2.53 0 001.557 1.197c.262.069.372-.33.11-.4a2.093 2.093 0 01-1.308-1.004c-.138-.234-.496-.027-.359.207z" fill="#2D2D2D"/><path d="M53.449 44.786a6.378 6.378 0 012.438-2.408 6.222 6.222 0 012.424-.743c.303.399.799.922 1.529 1.252 1.721.784 3.113-.248 4.132.44.537.358 1.074 1.225.868 3.592.909.935 1.515.99 1.845.922 1.378-.276 2.37-3.372 1.502-5.628-.262-.675-.606-1.06-3.526-3.386-4.119-3.274-4.628-3.467-5.166-3.591-2.837-.66-5.344.77-5.77 1.018-.552.317-.676.468-3.83 3.785-2.452 2.573-2.686 2.807-2.906 3.44-.579 1.596-.468 3.908 1.005 5.6 1.392 1.583 3.265 1.816 3.747 1.872a7.256 7.256 0 01-.537-1.94 7.094 7.094 0 01.124-2.478c-.097-.068-.648-.523-.69-1.293-.027-.564.235-1.28.841-1.514.675-.261 1.598.138 1.97 1.06z" fill="#0071BC"/><path d="M52.857 37.865c-.565-1.115-2.218-1.28-2.507-1.308-2.3-.233-4.146 1.817-5.234 3.014-1.928 2.133-1.377 2.766-3.25 5.34-2.48 3.412-4.34 3.563-4.725 5.916-.028.179-.372 2.546 1.198 3.977 1.35 1.238 3.526 1.252 4.959.51 1.942-1.005 1.776-3.028 3.181-6.427 2.755-6.633 7.466-8.876 6.378-11.022z" fill="#0071BC"/><path opacity=".12" d="M55.074 42.872a13.13 13.13 0 00-.936 5.036c.04 3.496 1.473 6.055 2.19 7.156a8.551 8.551 0 01-3.237-2.408c-.469-.564-1.57-1.9-1.86-3.95a7.175 7.175 0 01.028-2.215c-.083-.069-.648-.578-.62-1.376.014-.523.29-1.225.881-1.431.662-.234 1.57.193 1.929 1.114.138-.275.33-.619.62-.977a6.16 6.16 0 011.005-.949z" fill="#2D2D2D"/><path opacity=".13" d="M52.65 52.946c-.11.247-.234.495-.386.742a7.533 7.533 0 01-2.286 2.395 4.23 4.23 0 01-.91-.743 3.933 3.933 0 01-.701-1.046c.537-.165 1.873-.674 2.782-2.009.317-.482.51-.95.62-1.335.289.674.578 1.335.881 1.995z" fill="#2D2D2D"/><path opacity=".18" d="M51.438 46.258c.069.95.248 2.188.716 3.578a13.615 13.615 0 002.3 4.155 9.388 9.388 0 01-2.259-2.655c-.454-.812-1.13-1.982-1.046-3.578a5.35 5.35 0 01.289-1.5z" fill="#2D2D2D"/><path opacity=".32" d="M53.545 36.6c-.578.564-4.187 4.197-3.691 9.357.207 2.201 1.088 3.867 1.722 4.843a4.97 4.97 0 01-3.898-2.256c-.18-.29-.4-.757-.537-1.349 0 0-.248-1.156.206-2.587.482-1.569 2.659-4.623 6.198-8.008z" fill="#32198E"/><path opacity=".33" d="M46.094 38.827c.316.207-1.433 3.88-3.361 7.087-1.735 2.876-2.59 3.674-2.713 5.435-.124 1.83.647 3.4 1.336 4.459-.345.027-1.64.069-2.769-.826a3.741 3.741 0 01-1.102-1.431c-.33-.963-.62-2.367-.041-3.688.386-.894.84-.963 2.259-2.394 1.253-1.266 2.493-2.518 3.402-4.376.468-.95.633-1.638 1.432-2.71.524-.716 1.378-1.68 1.557-1.556z" fill="#32198E"/></svg>