<svg width="205" height="142" fill="none" xmlns="http://www.w3.org/2000/svg"><path d="M40.584 114.271h110.524c.298 0 .298-.471 0-.471H40.584c-.299 0-.299.471 0 .471zm113.43-9.762c-.126 4.52.33 9.04 1.367 13.451.063.298.518.172.456-.126a51.324 51.324 0 01-1.336-13.325c-.016-.298-.487-.298-.487 0zm18.711.36a37.45 37.45 0 01-.785 12.478c-.063.298.377.424.455.126a37.369 37.369 0 00.801-12.604c-.031-.298-.502-.298-.471 0z" fill="#F3F3F3"/><path d="M155.57 118.399a29.558 29.558 0 0016.512-.565c.282-.094.157-.549-.126-.455a29.104 29.104 0 01-16.26.565c-.299-.063-.425.392-.126.455zm-1.336-13.671a43.692 43.692 0 0018.538-.078c.299-.063.173-.518-.126-.456a43.265 43.265 0 01-18.287.079c-.298-.063-.424.392-.125.455z" fill="#F3F3F3"/><path d="M157.958 104.901c-.817-1.837-.079-4.081.534-5.886a22.06 22.06 0 012.623-5.274l-.377.047c.362.409.754.691 1.241.926.189.079.393-.047.346-.266-.188-.848-.518-1.68-.141-2.527.267-.597.644-1.193.958-1.758-.11.031-.22.063-.33.078.33.204.66.393.99.597.22.14.408-.126.33-.33-.33-.722-.55-1.444-.094-2.166.267-.44.612-.832.911-1.24.66-.879 1.351-1.758 2.042-2.62a108.999 108.999 0 014.101-4.82 22.82 22.82 0 01-.377-.047 18.16 18.16 0 013.629 9.088 16.882 16.882 0 01-.157 4.787 17.37 17.37 0 01-.597 2.355c-.048.156-.11.313-.157.455-.173.44-.456.627-.912.722-.314.062-.487.015-.754.22-.126.093-.157.25-.047.376.346.361.487.424.361.91-.078.314-.267.644-.408.958-.283.628-.597 1.24-.927 1.836a25.773 25.773 0 01-2.309 3.484c-.189.236.141.566.329.33a27.953 27.953 0 003.975-6.984c.032-.079 0-.173-.063-.236-.204-.204-.408-.423-.628-.628l-.047.377c.361-.251.77-.078 1.147-.235.298-.11.455-.33.581-.612.346-.738.566-1.586.754-2.37.393-1.727.519-3.5.393-5.258a18.447 18.447 0 00-3.739-9.81c-.079-.11-.252-.172-.377-.047a113.582 113.582 0 00-5.028 5.964c-.722.91-1.492 1.82-2.121 2.81-.565.894-.298 1.742.095 2.652l.33-.33c-.33-.203-.66-.392-.99-.596-.11-.063-.267-.031-.33.079-.393.722-1.006 1.522-1.226 2.323-.188.706.205 1.632.362 2.323.11-.095.235-.173.345-.267a3.208 3.208 0 01-1.146-.848c-.11-.126-.299-.078-.377.047a22.83 22.83 0 00-2.844 5.917c-.566 1.821-1.116 3.893-.314 5.713.157.283.565.047.44-.219z" fill="#F3F3F3"/><path d="M170.747 83.226c-.629 7.11-5.499 12.807-7.526 19.493-.094.298.361.408.456.126 2.026-6.733 6.912-12.447 7.541-19.62.031-.313-.456-.297-.471 0z" fill="#F3F3F3"/><path d="M164.808 87.008c.503 2.59 1.084 5.148 1.744 7.69.079.299.534.173.456-.125a129.525 129.525 0 01-1.744-7.69c-.047-.299-.503-.173-.456.125zm5.309 1.664a16.549 16.549 0 003.567-3.531c.188-.236-.22-.471-.409-.236a15.635 15.635 0 01-3.393 3.359c-.236.188 0 .596.235.408zm-1.461-6.717c.425 1.35.676 2.998 1.713 4.018.22.22.55-.126.33-.33-.959-.957-1.21-2.574-1.603-3.814-.078-.282-.534-.157-.44.126zm-11.641 22.82c-.958-.754-1.54-1.805-2.027-2.904a43.961 43.961 0 01-1.445-3.94 46.416 46.416 0 01-1.728-7.847c-.707-5.556-.141-11.175-.817-16.747-.141.047-.299.079-.44.126 1.76 3.955 5.876 6.325 9.301 8.68a2.464 2.464 0 01-.079-.33l-1.414 2.024c-.11.157.032.361.204.361.613 0 1.147-.078 1.729-.282-.095-.032-.173-.079-.267-.11l1.743 2.684c.016-.094.032-.188.032-.283a5.926 5.926 0 00-.754.895c-.079.11 0 .33.141.345 1.288.189 1.744 1.413 2.074 2.511.094.283.55.173.456-.125-.393-1.24-.959-2.637-2.404-2.841.047.11.094.236.141.345.204-.314.409-.533.676-.784a.217.217 0 00.031-.283l-1.744-2.684a.244.244 0 00-.267-.11 4.682 4.682 0 01-1.602.251c.063.126.141.236.204.361l1.414-2.024c.078-.11.016-.251-.079-.33-3.362-2.307-7.399-4.614-9.127-8.507-.095-.204-.472-.11-.44.126.691 5.776.078 11.614.895 17.375a45.33 45.33 0 001.933 8.161c.722 2.15 1.476 4.771 3.314 6.231.252.173.582-.157.346-.345z" fill="#F3F3F3"/><path d="M150.653 73.809c1.272 3.516 2.34 7.22 4.053 10.563.848 1.648 1.775 3.264 2.576 4.944.865 1.82 1.634 3.672 2.42 5.509.11.282.518.031.408-.236a155.238 155.238 0 00-2.293-5.242c-.786-1.695-1.697-3.312-2.577-4.96-1.76-3.358-2.844-7.125-4.148-10.688-.094-.298-.549-.173-.439.11z" fill="#F3F3F3"/><path d="M151.248 85.737c1.697.204 3.551.298 4.839 1.57.22.219.55-.126.33-.33-1.383-1.35-3.346-1.476-5.169-1.695-.298-.047-.298.423 0 .455zm4.542-6.357a16.157 16.157 0 00-.55 3.14c-.063.91-.173 1.977.141 2.856.094.283.55.157.456-.125-.299-.832-.189-1.868-.126-2.747.079-1.02.267-2.025.534-3.014.079-.282-.377-.408-.455-.11zm-3.473 14.91c1.226.032 2.404.048 3.598.377 1.178.33 2.341.675 3.519 1.02.299.079.425-.376.126-.455-1.257-.36-2.498-.753-3.771-1.083-1.146-.298-2.293-.282-3.472-.314-.298-.03-.298.44 0 .456zm17.188 10.046a11.64 11.64 0 013.142 0c-.047-.11-.094-.236-.141-.346-.095.142-1.037.157-1.226.173-.424.063-.864.126-1.288.22-.063.015-.487.063-.503.11.032-.079.66-.063.754-.063.456 0 .912.047 1.367.078v-.471a3.515 3.515 0 00-1.131.142c-.251.062-.204.455.063.455.613 0 1.162-.126 1.759-.283.299-.078.173-.533-.125-.455-.534.141-1.068.267-1.634.267.016.157.047.314.063.455.33-.094.66-.125 1.005-.125.299 0 .299-.456 0-.471-.691-.032-1.696-.283-2.325.11-.251.157-.613.565-.283.816.142.11.299.047.472.031.471-.094.927-.204 1.398-.282.55-.095 1.649.047 2.027-.471.078-.11-.001-.33-.142-.346a12.042 12.042 0 00-3.268-.015c-.282.031-.282.502.016.471zm-15.067.298c.22-.063.44-.11.66-.126.11 0 .204-.015.314 0 .048 0 .268-.015.283 0-.015-.078-.047-.157-.063-.235 0 .016-.015.031-.015.031.094-.047.188-.11.282-.157h-.031l.157.157c0-.015 0-.031-.016-.031-.078-.298-.518-.173-.455.125 0 .016 0 .032.016.032.015.078.094.141.157.157h.031c.126.031.236-.032.283-.157 0-.016.016-.032.016-.032.031-.078 0-.172-.063-.235-.173-.173-.55-.141-.77-.141-.314 0-.644.063-.943.141-.251.094-.125.549.157.471zm.361 3.155c5.735.989 11.689 1.459 17.345-.236.283-.094.173-.533-.126-.455-5.561 1.664-11.437 1.209-17.093.236-.298-.047-.424.408-.126.455zm19.75 6.45h30.227c.299 0 .299-.47 0-.47h-30.227c-.314 0-.314.47 0 .47zm-7.62 10.093h28.483c.299 0 .299-.471 0-.471h-28.483c-.299 0-.299.471 0 .471z" fill="#F3F3F3"/><path d="M171.249 124.284c-1.131.942-2.263 1.868-3.378 2.81-.236.188.094.518.33.329 1.131-.942 2.262-1.868 3.378-2.809.235-.189-.11-.534-.33-.33z" fill="#F3F3F3"/><path d="M168.013 127.597c.299 0 .299-.472 0-.472s-.299.472 0 .472z" fill="#F3F3F3"/><path d="M172.804 127.125h-28.703c-.299 0-.299.471 0 .471h28.703c.298 0 .298-.471 0-.471z" fill="#F3F3F3"/><path d="M144.053 131.99a101.822 101.822 0 015.232-4.065c.236-.172.016-.58-.236-.408a105.302 105.302 0 00-5.325 4.128c-.236.204.094.534.329.345zM1.025 123.421h42.701c.299 0 .299-.471 0-.471H1.025c-.299 0-.299.471 0 .471z" fill="#F3F3F3"/><path d="M6.821 127.518c1.493-1.271 3-2.542 4.493-3.814.236-.204-.11-.533-.33-.329-1.492 1.271-3 2.542-4.493 3.814-.236.188.11.533.33.329z" fill="#F3F3F3"/><path d="M1.417 127.973h30.919c.298 0 .298-.471 0-.471H1.417c-.298 0-.298.471 0 .471z" fill="#F3F3F3"/><path d="M28.739 127.879a167.072 167.072 0 01-3.614 3.893c-.204.219.126.549.33.329a213.176 213.176 0 003.614-3.892c.22-.22-.126-.55-.33-.33z" fill="#F3F3F3"/><path d="M20.694 132.525h27.18c.298 0 .298-.471 0-.471h-27.18c-.298 0-.298.471 0 .471zm-6.425-16.998h11.516c.298 0 .298-.471 0-.471H14.269c-.299 0-.299.471 0 .471zm14.422 1.538h3.551c.299 0 .299-.471 0-.471h-3.55c-.315 0-.315.471 0 .471zM20.16 33.142v7.69c0 .299.471.299.471 0v-7.69c0-.299-.471-.299-.471 0z" fill="#F3F3F3"/><path d="M12.258 41.21h18.947c.299 0 .299-.472 0-.472H12.258c-.298 0-.298.471 0 .471z" fill="#F3F3F3"/><path d="M25.486 41.429v5.917c0 .298.472.298.472 0v-5.917c0-.314-.472-.314-.472 0zm-5.233 6.733h15.098c.299 0 .299-.47 0-.47H20.253c-.314 0-.314.47 0 .47zm126.786-20.529V29.5c0 .298.471.298.471 0v-1.868c0-.298-.471-.298-.471 0z" fill="#F3F3F3"/><path d="M147.416 28.01h32.427c.298 0 .298-.47 0-.47h-32.427c-.298 0-.298.47 0 .47zm.283 1.725h32.128c.299 0 .299-.47 0-.47h-32.128c-.298 0-.298.47 0 .47z" fill="#F3F3F3"/><path d="M179.763 27.633a7.231 7.231 0 00.078 1.93c.047.299.503.173.456-.125a6.321 6.321 0 01-.063-1.805c.031-.298-.44-.298-.471 0zm-30.132.016V14.512c0-.299-.471-.299-.471 0v13.137c0 .314.471.314.471 0z" fill="#F3F3F3"/><path d="M149.631 14.59c1.335-.534 2.749-.455 3.99.283.267.157.503-.252.236-.409a4.895 4.895 0 00-4.352-.33c-.283.11-.157.566.126.456z" fill="#F3F3F3"/><path d="M153.544 14.763v12.635c0 .298.471.298.471 0V14.763c0-.299-.471-.299-.471 0z" fill="#F3F3F3"/><path d="M154.077 18.279c.958-.393 1.964-.33 2.859.22.267.156.503-.252.236-.409-.99-.596-2.152-.706-3.221-.267-.283.11-.157.566.126.456z" fill="#F3F3F3"/><path d="M156.842 18.482v8.837c0 .298.472.298.472 0v-8.837c0-.298-.472-.298-.472 0zm-7.148-.282a7.034 7.034 0 013.943.251c.283.095.409-.36.126-.455-1.367-.486-2.781-.55-4.195-.251-.282.063-.157.518.126.455z" fill="#F3F3F3"/><path d="M153.748 23.646a6.391 6.391 0 013.032-.078c.299.063.424-.393.126-.455a6.843 6.843 0 00-3.284.078c-.282.079-.172.534.126.455zm9.033 3.845v-2.636c0-.299-.472-.299-.472 0v2.636c0 .299.472.299.472 0z" fill="#F3F3F3"/><path d="M162.545 24.996h15.302c.298 0 .298-.47 0-.47h-15.302c-.314 0-.314.47 0 .47z" fill="#F3F3F3"/><path d="M178.005 25.248c.299 0 .299-.472 0-.472-.314 0-.314.472 0 .472z" fill="#F3F3F3"/><path d="M177.769 25.012v2.401c0 .298.472.298.472 0v-2.401c0-.299-.472-.299-.472 0zm-12.019-.33v-2.48c0-.298-.471-.298-.471 0v2.48c0 .298.471.298.471 0z" fill="#F3F3F3"/><path d="M165.515 22.359h15.051c.299 0 .299-.471 0-.471h-15.051c-.298 0-.298.47 0 .47z" fill="#F3F3F3"/><path d="M180.408 22.123v2.072c0 .298.472.298.472 0v-2.072c0-.314-.472-.314-.472 0zm-2.734 2.951h2.733c.299 0 .299-.47 0-.47h-2.733c-.315 0-.315.47 0 .47z" fill="#F3F3F3"/><path d="M180.376 24.21a1.01 1.01 0 00.015.487c.032.126.173.204.283.157.126-.031.205-.172.157-.282a.627.627 0 01-.015-.236c.015-.125-.032-.266-.157-.282-.11-.031-.268.031-.283.157zm-11.28-1.977c.204.8.251 1.617.141 2.448-.031.299.44.299.471 0a7.088 7.088 0 00-.157-2.573c-.078-.283-.534-.157-.455.125zm3.55 2.732c.11.785.047 1.554-.142 2.307-.078.298.377.424.456.126.22-.848.267-1.695.141-2.558-.031-.299-.487-.173-.455.125zm-3.078 19.101v3.704c0 .298.472.298.472 0v-3.705c0-.313-.472-.313-.472 0z" fill="#F3F3F3"/><path d="M165.923 47.833h9.426c.299 0 .299-.47 0-.47h-9.426c-.299 0-.299.47 0 .47z" fill="#F3F3F3"/><path d="M93.795 109.154a62.942 62.942 0 004.289 16.888 4.32 4.32 0 01-2.514 1.068 4.362 4.362 0 01-1.87-.283 132.489 132.489 0 01-1.618-6.121 136.63 136.63 0 01-2.34-12.399c1.366.282 2.717.565 4.053.847zm35.271-1.475a61.015 61.015 0 01-1.131 7.423 62.476 62.476 0 01-3 9.873c.157.141 1.052.989 2.435.926 1.194-.047 1.963-.754 2.152-.926.361-1.899.707-3.814 1.053-5.729a584.056 584.056 0 002.073-12.399 289.23 289.23 0 00-3.582.832zm-28.09-6.262c.361 2.401.785 4.881 1.272 7.424a179.302 179.302 0 002.357 10.531 4.569 4.569 0 01-2.074.644 4.591 4.591 0 01-1.869-.283c-.472-2.228-.927-4.489-1.383-6.749a732.59 732.59 0 01-2.34-12.399c1.35.267 2.686.549 4.037.832zm22.168-.471c-.425 2.37-.802 4.85-1.132 7.424a147.693 147.693 0 00-.958 10.171c.267.172.896.533 1.791.58a3.603 3.603 0 001.933-.502 47.941 47.941 0 01-.126-6.105 50.02 50.02 0 012.074-12.4c-1.194.267-2.388.55-3.582.832z" fill="#2D2D2D"/><path d="M151.06 48.429c2.75 4.897.629 10.312-4.524 23.763a8227.817 8227.817 0 00-13.433 35.283c-6.3 2.291-16.732 5.116-29.63 4.222a71.109 71.109 0 01-18.539-3.798c-.706-1.272-3.157-6.027-1.32-10.642 1.022-2.558 3.08-4.395 7.448-6.56 4.304-2.135 11.892-5.133 22.921-5.682-4.32-21.487 3.08-39.097 14.595-43.162 7.557-2.653 18.696-.157 22.482 6.576z" fill="#fff" stroke="#2D2D2D" stroke-miterlimit="10" stroke-linecap="round" stroke-linejoin="round"/><path d="M150.056 50.203c-4.556 5.76-5.593 13.498-7.337 20.42-1.869 7.408-4.022 14.8-7.242 21.753-1.776 3.814-3.865 7.487-6.363 10.877-.173.251.235.487.408.235 4.384-5.964 7.478-12.728 9.866-19.697 2.42-7.094 4.022-14.409 5.908-21.644 1.068-4.112 2.435-8.224 5.106-11.599.172-.251-.158-.58-.346-.345zm-65.026 54.29a66.423 66.423 0 0032.929 3.264 65.931 65.931 0 009.347-2.15c.283-.094.173-.549-.125-.455-10.683 3.296-22.152 3.798-33.087 1.475a65.235 65.235 0 01-8.939-2.59c-.283-.109-.409.346-.126.456zm36.888-12.337a12.01 12.01 0 016.394 4.96c.158.251.566.016.409-.235a12.59 12.59 0 00-6.677-5.18c-.299-.094-.424.361-.126.455zM74.66 112.482a1228.64 1228.64 0 013.756 5.666c-8.044 7.22-9.081 9.276-8.484 9.779 1.194.988 9.756-3.406 10.636-3.861a59.205 59.205 0 007.195-4.348 33.814 33.814 0 00-2.356-5.085 37.875 37.875 0 00-4.305-6.074 547.311 547.311 0 00-6.441 3.923z" fill="#2D2D2D"/><path d="M121.665 75.488c.566 1.225 1.163 2.967 1.257 5.07.142 3.17-.895 5.697-1.681 7.157a17.77 17.77 0 01-2.293 2.448s-2.53 2.23-6.552 3.94c-4.1 1.758-16.025 3.877-32.222 4.285.471 2.009 1.32 4.473 2.828 7.125a29.505 29.505 0 002.64 3.861c-.598.785-2.295 2.779-5.672 4.034-3.252 1.209-6.237 1.067-7.416.973a38.188 38.188 0 01-5.059-5.619c-4.76-6.545-5.875-12.87-6.08-16.935a49.859 49.859 0 015.17-3.249c4.712-2.59 9.033-4.002 12.583-5.054 6.112-1.789 11.956-3.029 25.404-5.305a914.22 914.22 0 0117.093-2.73z" fill="#fff" stroke="#2D2D2D" stroke-miterlimit="10" stroke-linecap="round" stroke-linejoin="round"/><path opacity=".19" d="M106.743 78.188c-.456 2.997-1.744 6.89-5.735 9.307-3.88 2.354-7.132 1.397-14.909 3.28-5.593 1.35-12.993 3.14-15.05 7.11-2.153 4.175 1.916 10.061 9.033 14.895a9.193 9.193 0 002.152-.549c2.058-.816 3.064-2.151 3.44-2.731a29.718 29.718 0 01-2.717-3.83 26.426 26.426 0 01-3.016-7.33 235.359 235.359 0 0020.627-1.758c6.395-.831 10.825-1.663 15.051-4.049 3.535-1.993 4.949-3.955 5.452-4.709 1.524-2.307 1.649-4.41 1.712-5.587.157-2.872-.785-5.21-1.571-6.686l-14.469 2.637z" fill="#F3F3F3"/><path opacity=".19" d="M121.369 75.88c-.315 2.92-1.43 7.535-5.876 11.176-2.734 2.244-5.672 3.249-17.203 6.356a1156.87 1156.87 0 01-18.256 4.74c8.908-.094 16.15-.831 21.351-1.538 5.389-.737 8.028-1.38 10.762-2.558 2.592-1.114 7.823-3.374 9.96-8.13 2.058-4.615-.016-8.758-.738-10.045z" fill="#F3F3F3"/><path opacity=".22" d="M80.082 98.388a39.26 39.26 0 00.424 7.047 41.13 41.13 0 001.65 6.89 11.932 11.932 0 001.743-1.256 11.581 11.581 0 001.65-1.742 34.203 34.203 0 01-2.702-4.128 29.936 29.936 0 01-2.765-6.811z" fill="#F3F3F3"/><path d="M79.359 121.491c1.21 2.37 2.404 4.74 3.613 7.126-7.73 9.072-8.735 11.646-8.154 12.273 1.147 1.256 9.38-4.284 10.228-4.849a58.372 58.372 0 006.928-5.462 50.668 50.668 0 00-2.278-6.404 50.646 50.646 0 00-4.132-7.644c-2.073 1.664-4.147 3.312-6.205 4.96z" fill="#2D2D2D"/><path d="M124.541 75.002a21.318 21.318 0 011.21 6.372 21.724 21.724 0 01-1.618 8.994 22.216 22.216 0 01-2.199 3.092s-2.42 2.81-6.285 4.96c-3.943 2.197-15.412 4.881-30.965 5.383a39.795 39.795 0 002.718 8.946 38.395 38.395 0 002.545 4.85c-.566.989-2.2 3.484-5.452 5.07a12.886 12.886 0 01-7.132 1.208 44.573 44.573 0 01-4.855-7.063c-4.587-8.224-5.656-16.182-5.844-21.283a50.106 50.106 0 014.964-4.08c4.54-3.25 8.672-5.039 12.097-6.357 5.86-2.244 11.5-3.798 24.43-6.67a599.378 599.378 0 0116.386-3.422z" fill="#fff" stroke="#2D2D2D" stroke-miterlimit="10" stroke-linecap="round" stroke-linejoin="round"/><path opacity=".19" d="M110.198 78.392c-.44 3.767-1.681 8.648-5.514 11.693-3.724 2.966-6.866 1.758-14.328 4.128-5.374 1.695-12.49 3.955-14.47 8.946-2.074 5.242 1.838 12.65 8.672 18.709a7.09 7.09 0 002.074-.691c1.98-1.02 2.938-2.699 3.3-3.437a38.631 38.631 0 01-2.624-4.819 38.9 38.9 0 01-2.891-9.213 177.735 177.735 0 0019.842-2.197c6.159-1.036 10.401-2.087 14.47-5.085 3.393-2.512 4.76-4.976 5.231-5.918 1.461-2.903 1.587-5.54 1.65-7.015.141-3.61-.754-6.545-1.508-8.397a2234.76 2234.76 0 00-13.904 3.296z" fill="#F3F3F3"/><path opacity=".19" d="M124.243 75.488c-.298 3.657-1.366 9.465-5.64 14.048-2.639 2.825-5.451 4.08-16.527 7.989a870.502 870.502 0 01-17.549 5.964c8.562-.126 15.538-1.036 20.534-1.931 5.184-.926 7.729-1.726 10.337-3.202 2.498-1.412 7.51-4.237 9.584-10.233 1.964-5.807-.032-11.002-.739-12.635z" fill="#F3F3F3"/><path opacity=".22" d="M84.573 103.787a63.864 63.864 0 00.408 8.852 64.961 64.961 0 001.587 8.648 12.72 12.72 0 001.68-1.585 14.154 14.154 0 001.588-2.181 43.287 43.287 0 01-2.593-5.196 43.737 43.737 0 01-2.67-8.538z" fill="#F3F3F3"/><path d="M78.462 50.61c-.299-.14-.896-.407-.88-.706.031-.486 1.65-.816 2.86-.8.816 0 2.324.173 4.084 1.397-1.65.518-4.085.989-6.064.11z" fill="#fff" stroke="#2D2D2D" stroke-miterlimit="10" stroke-linecap="round" stroke-linejoin="round"/><path d="M116.246 30.254c-2.985-.393-5.671 4.08-5.923 4.489-.911 1.553-1.021 2.59-1.649 5.43-1.524 6.922-2.341 10.438-4.603 12.556-2.043 1.9-4.43 2.355-5.06 2.449-2.686.424-5.12-.58-9.865-2.605-4.007-1.711-4.494-2.339-6.677-2.59-1.116-.126-4.368-.487-6.52 1.6-1.383 1.335-1.996 3.47-1.493 3.909.644.565 3.284-1.428 3.315-1.381.016.031-.785.408-1.445 1.224-.33.392-.896 1.24-.692 1.46.362.44 2.577-2.23 5.012-1.758 1.665.314 1.98 1.82 3.912 2.103 1.131.173 2.12-.173 2.75-.47 1.1 1.192 2.89 2.887 5.482 4.268 1.54.816 6.976 3.626 13.621 1.993 7.054-1.726 10.605-7.235 11.721-8.962.628-.988 5.247-8.365 3.016-16.637-.393-1.334-1.822-6.67-4.902-7.078z" fill="#fff" stroke="#2D2D2D" stroke-miterlimit="10" stroke-linecap="round" stroke-linejoin="round"/><path opacity=".25" d="M115.931 30.301c-1.021.534.959 4.238.707 9.543-.235 5.1-2.419 8.868-3.393 10.594-1.32 2.307-3.064 5.32-6.536 7.283-4.666 2.637-10.447 2.244-14.564.455-1.225-.534-2.466-2.26-5.168-3.312-1.179-.455-2.106-.643-3.19-.863-2.655-.518-5.011-.989-7.195.11-1.037.534-1.901 1.35-1.838 1.46.063.11 1.272-.503 2.34-1.084-1.288 1.711-1.492 2.198-1.398 2.292.11.094.503-.267 1.509-.832 1.084-.596 1.87-1.02 2.828-.942a3.55 3.55 0 011.084.299c.864.376 1.068.816 1.932 1.255a4.83 4.83 0 001.21.424c.502.11 1.54.251 2.906-.235 1.194 1.255 6.677 6.811 14.705 6.702 4.132-.063 7.164-1.601 8.358-2.214 6.552-3.405 9.16-9.448 9.819-11.112 2.043-5.148 2.765-12.776-.974-17.563-.895-1.161-2.435-2.62-3.142-2.26z" fill="#F3F3F3"/><path d="M74.738 55.492a6.634 6.634 0 012.372-2.15c.204-.11.016-.408-.173-.299a7.086 7.086 0 00-2.498 2.276c-.141.189.173.361.299.173zm.189-2.025c.612-.958 1.602-1.46 2.592-1.947.204-.094.031-.408-.173-.298-1.053.502-2.09 1.052-2.734 2.072-.11.188.189.361.315.173z" fill="#2D2D2D"/><path opacity=".29" d="M120.44 35.951a54.09 54.09 0 01-1.414 6.577c-1.476 5.336-2.812 10.139-6.3 13.953-4.32 4.708-10.18 5.995-13.542 6.388 2.498.58 4.462.47 5.703.298 9.426-1.319 14.516-11.442 15.899-15.868.236-.785.738-2.401.801-4.614.11-2.951-.612-5.321-1.147-6.734z" fill="#F3F3F3"/><path opacity=".26" d="M80.96 54.849a14.148 14.148 0 006.74 1.444c-2.153 1.145-3.269 1.004-3.897.627-.393-.235-.833-.706-2.043-1.538-.33-.235-.612-.423-.8-.533z" fill="#F3F3F3"/><path d="M49.194 80.653v22.616c0 .911 1.414.911 1.414 0V80.652c0-.894-1.414-.91-1.414 0zm25.702-.298v3.625c0 .91 1.414.91 1.414 0v-3.625c0-.91-1.414-.91-1.414 0z" fill="#2D2D2D"/><path d="M29.681 79.726c7.62-7.172 15.24-14.36 22.875-21.534l36.983.66c-2.011 6.968-4.022 13.921-6.033 20.89-17.942-.016-35.883-.016-53.825-.016z" fill="#fff" stroke="#2D2D2D" stroke-miterlimit="10" stroke-linecap="round" stroke-linejoin="round"/><path d="M30.137 80.542h52.898c.91 0 .91-1.412 0-1.412H30.137c-.911 0-.911 1.412 0 1.412z" fill="#2D2D2D"/><path d="M34.175 80.307v59.956c0 .91 1.414.91 1.414 0V80.307c0-.91-1.414-.91-1.414 0zm43.095 0v59.956c0 .91 1.413.91 1.413 0V80.307c0-.91-1.414-.91-1.414 0z" fill="#2D2D2D"/><path d="M34.881 109.454h42.701c.912 0 .912-1.413 0-1.413H34.881c-.911 0-.911 1.413 0 1.413zM89.35 58.851a263.757 263.757 0 01-6.206 20.718c-.204.58.707.816.912.251a265.793 265.793 0 006.205-20.718c.142-.58-.754-.831-.91-.25zm-75.222 82.95H39.14c.912 0 .912-1.412 0-1.412H14.13c-.912 0-.912 1.412 0 1.412zm28.515-.313h5.765c.912 0 .912-1.413 0-1.413h-5.765c-.912 0-.912 1.413 0 1.413zm25.01.203h22.544c.912 0 .912-1.413 0-1.413H67.653c-.912 0-.912 1.413 0 1.413zm27.683-.502h4.022c.911 0 .911-1.413 0-1.413h-4.022c-.91 0-.91 1.413 0 1.413zm-88.781-4.363h9.741c.911 0 .911-1.413 0-1.413h-9.74c-.912 0-.912 1.413 0 1.413z" fill="#2D2D2D"/><path d="M75.274 76.759c-9.694-.251-19.403-.487-29.096-.738 5.75-5.493 11.484-11.002 17.234-16.496l19.906 1.036C80.63 65.976 77.96 71.36 75.274 76.76zM63.082 59.416c-5.64 5.446-11.28 10.908-16.92 16.354-.252-8.726-.519-17.468-.77-26.195l17.156-10.83c.157 6.89.345 13.78.534 20.67z" fill="#fff" stroke="#2D2D2D" stroke-miterlimit="10" stroke-linecap="round" stroke-linejoin="round"/><path d="M45.91 50.407c.456 7.769.755 15.554.912 23.339 0 .157.235.157.235 0a608.474 608.474 0 00-.91-23.34c-.016-.14-.252-.14-.236 0z" fill="#2D2D2D"/><path d="M46.036 50.439l15.79-10.265c.125-.079.015-.283-.126-.204L45.91 50.234c-.125.095-.015.299.126.205z" fill="#2D2D2D"/><path d="M61.763 40.158a277.65 277.65 0 00.58 18.787c.016.157.252.157.236 0A288.507 288.507 0 0162 40.158c0-.142-.236-.142-.236 0z" fill="#2D2D2D"/><path d="M46.98 74.075c5.152-4.975 10.32-9.95 15.474-14.91.11-.11-.063-.267-.173-.173-5.153 4.975-10.322 9.95-15.475 14.91-.094.11.063.283.173.173zm23.863-2.668c.958-1.522 1.916-3.06 2.843-4.614.079-.126-.125-.251-.204-.126a226.23 226.23 0 01-2.844 4.615c-.094.125.11.25.205.125z" fill="#2D2D2D"/><path d="M73.624 66.745c1.241.047 2.483.047 3.724-.015.157 0 .157-.236 0-.236a58.886 58.886 0 01-3.724.016c-.157 0-.157.235 0 .235z" fill="#2D2D2D"/><path d="M77.19 66.667c-.707 1.538-1.43 3.076-2.152 4.614-.063.141.141.251.204.126a607.374 607.374 0 002.152-4.615c.063-.157-.141-.267-.204-.125z" fill="#2D2D2D"/><path d="M70.764 71.533c1.382.204 2.843.11 4.242.047.157 0 .157-.235 0-.235-1.367.063-2.813.157-4.18-.032-.157-.031-.22.204-.062.22z" fill="#2D2D2D"/><path d="M75.918 66.682a40.488 40.488 0 01-2.168 4.567c-.079.126.125.252.204.126a46.17 46.17 0 002.2-4.63c.047-.141-.173-.204-.236-.063zm-22.764 7.11a300.796 300.796 0 0110.73-12.525c.094-.11-.063-.282-.173-.172a281.646 281.646 0 00-10.73 12.525c-.095.125.078.282.172.172zm4.178.267a198.926 198.926 0 019.788-12.54c.094-.11-.063-.283-.173-.173a200.342 200.342 0 00-9.819 12.587c-.094.126.11.251.204.126zm4.492.644a139.501 139.501 0 018.798-12.98c.094-.125-.11-.235-.204-.125a139.456 139.456 0 00-8.798 12.98c-.078.125.126.251.204.125zm3.772.392a81.456 81.456 0 019.348-13.812c.094-.11-.063-.282-.173-.173a82.084 82.084 0 00-9.395 13.86c-.063.14.141.266.22.125z" fill="#2D2D2D"/><path d="M55.164 71.25c4.022-.424 8.044.079 12.05.612.157.016.142-.22 0-.235-3.99-.534-8.012-1.052-12.05-.612-.141.016-.141.25 0 .235zm2.027-2.29a49.998 49.998 0 0111.343.862c.141.032.204-.204.063-.22a50.554 50.554 0 00-11.406-.863c-.141-.015-.141.22 0 .22zm1.822-2.214c3.66-.236 7.321.094 10.887.973.142.031.205-.189.063-.22a35.705 35.705 0 00-10.95-.989c-.157.016-.157.251 0 .236zm1.885-2.214c3.52.016 7.007.377 10.448 1.083.141.031.204-.204.063-.22a53.675 53.675 0 00-10.51-1.083c-.142-.015-.142.22 0 .22zm1.87-2.056c3.346.063 6.677.456 9.929 1.193.141.032.204-.188.063-.22a48.701 48.701 0 00-9.992-1.192c-.157-.016-.157.22 0 .22zm10.777 2.386c-1.54 2.26-3.064 4.52-4.603 6.78-.079.126.125.251.204.126 1.54-2.26 3.063-4.52 4.603-6.78.094-.142-.11-.252-.204-.126zM47.529 61.44c1.964-.831 4.085-.36 6.158-.392a9.784 9.784 0 004.902-1.381c.126-.078.016-.282-.126-.204-1.838 1.083-3.786 1.428-5.891 1.334-1.76-.078-3.504-.251-5.169.455-.126.047-.016.251.126.189z" fill="#2D2D2D"/><path d="M52.824 60.468c3.362-1.9 4.917-5.902 8.42-7.581.142-.063.016-.267-.125-.204-3.52 1.695-5.059 5.681-8.421 7.58-.126.079-.016.283.126.205zm4.273-11.191c-.581-.455-.487-1.193-.157-1.774.157-.282.393-.58.66-.753.487-.314.942-.063 1.32.267.11.094.282-.063.172-.173-.785-.66-1.524-.596-2.168.251-.518.69-.785 1.727 0 2.355.126.094.299-.079.173-.173z" fill="#2D2D2D"/><path d="M105.484 37.803c-4.304 4.772-5.467 10.014-6.095 12.98-1.147 5.494.063 7.691.141 18.129.031 4.441-.157 8.036-.298 10.296.974.753 7.007 5.242 15.066 3.767 5.97-1.083 9.568-4.819 10.699-6.09.267-1.491.644-3.689 1.084-6.357 2.325-14.392 3.472-21.69 2.027-26.917-.864-3.17-3.001-8.193-9.065-13.388-2.545.533-8.657 2.166-13.559 7.58z" fill="#FF6871"/><path opacity=".19" d="M109.868 34.915a72.846 72.846 0 012.765 11.066c1.241 7.392 3.111 18.473-2.152 29.208a33.605 33.605 0 01-5.028 7.487 20.477 20.477 0 009.741-.11c5.121-1.318 8.326-4.285 9.646-5.634a1081.973 1081.973 0 002.467-14.754c1.084-6.874 1.335-8.962 1.225-11.897-.126-3.767-.298-7.722-2.561-11.991-2.168-4.081-5.216-6.53-7.085-7.785a18.08 18.08 0 00-5.955 2.15 19.897 19.897 0 00-3.063 2.26z" fill="#F3F3F3"/><path opacity=".18" d="M127.716 42.402c-.283.016.314 4.364-.613 10.36-1.713 11.096-7.211 18.787-9.332 21.517a46.848 46.848 0 01-8.625 8.507c1.461.22 3.409.314 5.64-.11 5.294-.988 8.656-4.237 9.945-5.634a955.77 955.77 0 011.539-8.617c1.587-8.664 1.901-9.7 2.153-12.4.691-7.36-.378-13.623-.707-13.623z" fill="#F3F3F3"/><path d="M77.802 54.064c-.298-.204-.895-.58-.833-.895.126-.502 1.933-.58 3.237-.36.88.14 2.482.596 4.163 2.18-1.885.268-4.603.346-6.567-.925z" fill="#fff" stroke="#2D2D2D" stroke-miterlimit="10" stroke-linecap="round" stroke-linejoin="round"/><path d="M122.153 39.028c-3.158-.926-6.85 3.327-7.18 3.736-1.257 1.49-1.555 2.558-2.734 5.446-2.859 7.063-4.352 10.626-7.179 12.477-2.53 1.664-5.185 1.727-5.892 1.727-2.97-.016-5.42-1.491-10.196-4.442-4.022-2.495-4.43-3.249-6.756-3.877-1.178-.313-4.634-1.255-7.32.581-1.713 1.162-2.766 3.328-2.294 3.877.596.706 3.801-.957 3.817-.895.016.032-.927.298-1.775 1.052-.424.36-1.178 1.146-1.006 1.428.315.534 3.174-1.915 5.719-1.004 1.728.612 1.822 2.26 3.85 2.903 1.193.377 2.324.173 3.047-.031a22.173 22.173 0 005.169 5.446c1.524 1.13 6.897 5.023 14.359 4.442 7.918-.612 12.726-5.839 14.218-7.455.864-.926 7.133-7.942 6.175-17.077-.142-1.49-.755-7.36-4.022-8.334z" fill="#fff" stroke="#2D2D2D" stroke-miterlimit="10" stroke-linecap="round" stroke-linejoin="round"/><path opacity=".25" d="M121.808 39.028c-1.194.393.298 4.646-.912 10.218-1.146 5.352-4.163 8.962-5.53 10.61-1.838 2.213-4.242 5.101-8.342 6.577-5.499 1.977-11.673.58-15.805-2.01-1.225-.784-2.262-2.809-5.011-4.394-1.195-.69-2.153-1.036-3.3-1.46-2.765-1.004-5.247-1.915-7.776-1.114-1.21.376-2.294 1.098-2.231 1.224.063.141 1.46-.314 2.718-.738-1.681 1.585-1.996 2.072-1.917 2.198.094.125.597-.204 1.775-.613 1.288-.455 2.184-.753 3.22-.502.52.126.896.361 1.132.502.864.534 1.006 1.052 1.854 1.664.518.377.99.565 1.241.66.518.203 1.618.533 3.173.25 1.069 1.539 6.018 8.35 14.706 9.606 4.477.644 8.012-.455 9.41-.91 7.667-2.48 11.548-8.413 12.553-10.06 3.111-5.086 5.232-13.028 2.027-18.741-.754-1.428-2.168-3.233-2.985-2.967z" fill="#F3F3F3"/><path d="M72.885 58.6a7.185 7.185 0 012.938-1.868c.22-.078.126-.408-.094-.345a7.838 7.838 0 00-3.095 1.962c-.157.172.094.424.251.25zm.565-2.103c.832-.926 1.995-1.287 3.157-1.617.22-.063.126-.408-.094-.345-1.21.36-2.435.753-3.299 1.71-.173.173.079.409.236.252z" fill="#2D2D2D"/><path opacity=".29" d="M125.688 45.777a60.974 60.974 0 01-2.671 6.718c-2.529 5.383-4.807 10.233-9.254 13.67-5.483 4.238-12.05 4.6-15.742 4.427 2.593 1.051 4.745 1.27 6.112 1.302 10.4.22 17.69-9.62 19.952-14.047.393-.785 1.21-2.417 1.681-4.74.613-3.123.252-5.744-.078-7.33z" fill="#F3F3F3"/><path opacity=".26" d="M79.734 58.977c.88.612 2.121 1.334 3.708 1.899 1.257.44 2.404.659 3.315.769-2.53.832-3.708.502-4.32 0-.377-.314-.77-.895-1.948-1.978a11.408 11.408 0 00-.755-.69z" fill="#F3F3F3"/><path d="M97.8 7.37a83.358 83.358 0 00-.487 3.061 87.305 87.305 0 00-.88 12.054c.864-.094 1.713-.188 2.577-.266-.094.832-.361 3.876 1.587 6.89 1.838 2.84 4.477 3.877 5.294 4.16-.094 1.537-.173 3.06-.267 4.598A36.788 36.788 0 01112.568 33a35.4 35.4 0 016.174-2.605c-2.026-2.511-2.796-4.881-3.126-6.247-.566-2.354-.456-4.379-.346-6.168a28.49 28.49 0 01.613-4.426c.738-3.359-1.194-8.68-5.043-10.594-3.802-1.9-9.473-.299-13.04 4.41z" fill="#fff" stroke="#2D2D2D" stroke-miterlimit="10" stroke-linecap="round" stroke-linejoin="round"/><path d="M98.65 22.329c.439-.063.895-.11 1.334-.157.158-.016.158-.251 0-.236-.47.047-.926.11-1.398.173-.141 0-.078.235.063.22z" fill="#2D2D2D"/><path d="M112.821 9.803c-1.901.487-2.247 2.135-4.651 5.572-2.435 3.484-3.975 5.666-6.724 6.937-1.775.817-2.655.597-3.44 1.648-1.352 1.821-.44 4.819.36 6.357.928 1.774 2.342 2.84 3.504 3.72a15.9 15.9 0 002.86 1.71c-.77-1.176-.817-1.538-.723-1.647.251-.252 1.32 1.098 2.576.926.362-.048 1.006-.252 2.436-2.496.974-1.522 1.633-2.574 2.073-4.08.959-3.234-.392-4.113 0-8.366.063-.644.503-5.682 2.294-6.012.644-.125 1.304.409 1.618.817.66.863.582 2.244-.235 3.437.267-.189 2.828-1.915 2.796-4.725 0-.439-.016-2.056-1.241-3.107-1.398-1.193-3.346-.722-3.503-.69z" fill="#2D2D2D" stroke="#2D2D2D" stroke-miterlimit="10" stroke-linecap="round" stroke-linejoin="round"/><path d="M100.158 16.945c.364 0 .659-.527.659-1.177s-.295-1.177-.659-1.177c-.365 0-.66.527-.66 1.177s.295 1.177.66 1.177zm-5.028.549c.364 0 .66-.527.66-1.177s-.296-1.177-.66-1.177c-.365 0-.66.527-.66 1.177s.295 1.177.66 1.177zm-.99-3.108c.424-.486 1.084-.534 1.555-.063.22.22.55-.125.33-.33-.644-.627-1.634-.611-2.23.063-.173.236.156.566.345.33zm5.153-.816c.55-.455 1.273-.392 1.744.126.205.22.535-.11.33-.33-.66-.706-1.68-.737-2.42-.125-.22.188.11.518.346.33z" fill="#2D2D2D"/><path d="M97.266 9.238c.173-1.13.613-2.982 1.823-4.897.424-.675 1.335-2.103 2.78-3.076 2.765-1.836 7.023-1.695 10.118.565 3.032 2.213 4.54 6.168 3.881 10.092a3786.35 3786.35 0 01-18.602-2.684z" fill="#0071BC"/><path d="M87.118 9.38c9.536 1.224 19.088 2.448 28.624 3.656.896.11.896-1.302 0-1.412a17814.06 17814.06 0 00-28.624-3.657c-.896-.126-.896 1.287 0 1.412z" fill="#2D2D2D"/><path d="M105.342.12c2.451.533 4.305 2.51 4.619 4.88.283 2.072-.628 4.175-2.356 5.462 2.718.361 5.451.738 8.169 1.099.142-.722.267-1.82.095-3.108-.409-3.013-2.153-4.944-2.718-5.524-.613-.628-2.781-2.731-6.002-2.92a8.452 8.452 0 00-1.807.11z" fill="#0071BC"/></svg>