<svg width="204" height="134" fill="none" xmlns="http://www.w3.org/2000/svg"><g clip-path="url(#clip0)"><path d="M183.934 114.562c-.993-1.237-1.738-2.634-2.366-4.075a57.428 57.428 0 01-.877-2.183c-.131-.35-.277-.684-.379-1.034-.117-.364-.161-.553.014-.902 0-.248.103-.349.292-.32.161-.044.263.029.322.218.146-.015.292-.044.423-.058a35.942 35.942 0 01-1.694-8.108 37.347 37.347 0 01-.132-4.046 27.75 27.75 0 01.103-1.892c.014-.248-.015-.946.131-1.15.161-.044.307-.087.468-.116.263-.219.467-.219.599.014.16.131.263.364.365.539 2.673 4.425 4.455 9.417 5.317 14.497.497 2.925.686 5.88.555 8.849-.015.277.424.277.438 0a43.044 43.044 0 00-2.892-17.32 45.168 45.168 0 00-1.811-4.018 35.184 35.184 0 00-.979-1.79c-.278-.48-.555-1.063-1.023-1.383-.905-.611-1.431.262-1.533 1.063-.19 1.514-.22 3.056-.176 4.585a36.32 36.32 0 001.826 10.378c.073.233.438.203.424-.059 0-.582-.658-.829-1.154-.582-.877.422-.38 1.63-.146 2.271.905 2.445 1.884 4.861 3.535 6.914.219.247.526-.073.35-.292z" fill="#F3F3F3"/><path d="M186.505 103.675c.117-1.936.365-3.857.789-5.763.204-.888.423-1.776.701-2.65.131-.436.277-.873.423-1.295.073-.218.146-.437.234-.64.029-.088.059-.175.102-.262.059-.306.263-.48.599-.539-.029.248.365.291.424.058.292-.96 2.658-7.146 4.105-6.084.423.306.54 1.02.613 1.5a39.137 39.137 0 01.541 5.487c.131 4.73-.585 9.49-2.104 13.987a40.153 40.153 0 01-3.389 7.38c-.146.247.234.465.38.218a40.425 40.425 0 005.23-15.268c.35-2.708.438-5.444.233-8.166a38.24 38.24 0 00-.482-3.872c-.131-.698-.453-1.732-1.285-1.863-1.096-.174-1.943 1.63-2.381 2.358a18.667 18.667 0 00-1.87 4.207c.146.014.292.043.424.058.087-.699-.789-.742-1.14-.291-.263.335-.38.83-.511 1.223a36.535 36.535 0 00-2.06 10.203c-.029.291.409.291.424.014zm-6.866-12.823a76.663 76.663 0 015.917 23.303c.029.277.467.277.438 0a77.751 77.751 0 00-5.975-23.536c-.117-.247-.496-.014-.38.233z" fill="#F3F3F3"/><path d="M179.552 100.444a19.853 19.853 0 014.192 2.81c.205.189.526-.117.307-.306a20.91 20.91 0 00-4.294-2.882c-.234-.117-.468.262-.205.378zm4.06-4.264c-.409.8-.716 1.644-.906 2.532-.058.276.365.393.424.116.19-.844.467-1.66.862-2.43.131-.248-.249-.466-.38-.219zm9.554-9.345c-.949 8.457-1.987 17.19-6.12 24.788-.132.247.248.466.379.218 4.178-7.67 5.215-16.462 6.179-25.006.029-.276-.409-.276-.438 0z" fill="#F3F3F3"/><path d="M187.702 95.117a42.27 42.27 0 012.6 8.486c.058.276.482.16.423-.117a43.952 43.952 0 00-2.643-8.588c-.117-.261-.483-.043-.38.219zm4.396 2.198c1.096-1.382 2.191-2.765 3.287-4.133.175-.219-.131-.524-.307-.306a1023.06 1023.06 0 01-3.286 4.133c-.176.204.131.525.306.306zM10.571 112.627c-.95-1.019-1.913-2.067-2.688-3.231a11.604 11.604 0 01-.964-1.776c-.146-.349-.832-2.212.117-1.834.234.087.336-.218.22-.364-.965-1.222-1.608-2.649-2.163-4.09a139.793 139.793 0 01-1.519-4.133c-.526-1.514-.979-3.072-1.154-4.658-.131-1.252-.263-2.97.643-4.003 1.33-1.499 2.673.975 3.301 1.907.847 1.252 1.68 2.533 2.484 3.813 1.592 2.606 3.038 5.313 4.104 8.195 1.213 3.29 1.885 6.768 1.724 10.276-.015.277.424.277.438 0 .321-7.103-2.731-13.726-6.456-19.606-.92-1.44-1.84-2.896-2.849-4.28-.57-.77-1.475-1.571-2.498-1.062-.935.452-1.285 1.66-1.373 2.606-.16 1.717.175 3.464.643 5.109.526 1.863 1.242 3.668 1.913 5.472.629 1.689 1.33 3.334 2.455 4.76.073-.116.146-.247.219-.364-.38-.145-.716-.102-1.037.131-.059.044-.117.117-.103.189.322 2.94 2.323 5.196 4.251 7.263.175.204.482-.102.292-.32z" fill="#F3F3F3"/><path d="M11.77 98.785a25.274 25.274 0 011.577-11.994c-.117.03-.249.059-.365.102.452.408.76.873.934 1.456.059.203.366.218.424 0a38.652 38.652 0 014.338-9.752 3.67 3.67 0 01-.394-.058 31.158 31.158 0 012.089 9.067c.204 2.795.277 6.012-1.432 8.384-.087.117 0 .291.132.32 1.315.306.92 2.373.803 3.305a44.464 44.464 0 01-.774 4.599 47.41 47.41 0 01-2.76 8.544c-.118.262.262.48.38.218a47.774 47.774 0 003.081-9.97c.292-1.572.628-3.231.658-4.832.014-.918-.22-2.067-1.257-2.3.044.102.088.218.132.32 1.709-2.373 1.68-5.546 1.504-8.34a31.244 31.244 0 00-2.118-9.447c-.073-.174-.292-.218-.394-.058a39.222 39.222 0 00-4.382 9.854h.423a3.593 3.593 0 00-1.051-1.645c-.132-.116-.307-.058-.366.102a25.577 25.577 0 00-1.592 12.11c0 .291.438.291.41.015zM3.223 88.466c2.03 4.003 4.105 7.99 6.048 12.037 1.899 3.988 3.579 8.107 4.484 12.445.059.276.482.16.424-.117-.906-4.294-2.542-8.354-4.426-12.313-1.957-4.134-4.09-8.195-6.164-12.285-.117-.233-.497-.015-.366.233z" fill="#F3F3F3"/><path d="M18.372 79.15c-.307 4.323-1.65 8.456-2.644 12.648a89.526 89.526 0 00-2.06 12.751c-.03.276.41.276.438 0a89.13 89.13 0 012.177-13.173c.993-4.046 2.22-8.049 2.527-12.226.015-.291-.424-.291-.438 0zM2.99 96.805a18.854 18.854 0 016.018 3.362c.22.175.526-.131.307-.305a19.912 19.912 0 00-6.208-3.48c-.278-.101-.395.321-.117.423z" fill="#F3F3F3"/><path d="M12.85 87.14a45.681 45.681 0 002.176 7.73c.103.262.526.145.424-.117a47.476 47.476 0 01-2.177-7.729c-.058-.276-.467-.16-.423.117zm1.577 18.369c1.578-2.066 3.2-4.148 5.507-5.443.249-.131.03-.51-.219-.379-2.366 1.339-4.046 3.479-5.668 5.604-.16.218.22.437.38.218z" fill="#F3F3F3"/><path d="M166.347 115.349h36.869c.57 0 .57-.873 0-.873h-36.869c-.57 0-.57.873 0 .873zm-133.44-2.911H3.984c-.57 0-.57.873 0 .873h28.923c.555 0 .555-.873 0-.873zm98.192 10.013h51.345c.57 0 .57-.873 0-.873h-51.345c-.555 0-.57.873 0 .873z" fill="#2D2D2D"/><path d="M162.636 115.582l-127.524-2.533c-7.61-.145-12.928-7.554-10.62-14.773l26.25-82.295a11.38 11.38 0 0110.766-7.904c39.338-.277 78.676-.568 118.014-.844 7.187-.058 12.636 6.477 11.248 13.507l-16.755 85.672c-1.037 5.415-5.843 9.286-11.379 9.17z" fill="#FF6871" stroke="#2D2D2D" stroke-miterlimit="10"/><path d="M161.818 114.869c-42.508-.801-85.016-1.587-127.524-2.387-7.61-.146-12.928-7.133-10.62-13.944l26.25-77.681c1.49-4.41 5.843-7.424 10.766-7.467 39.338-.262 78.676-.539 118.014-.8 7.187-.045 12.636 6.112 11.248 12.75l-16.755 80.883c-1.037 5.094-5.843 8.747-11.379 8.646z" fill="#fff" stroke="#2D2D2D" stroke-miterlimit="10"/><path d="M172.715 108.392a11.486 11.486 0 01-7.362 6.288c-.278.072-.161.494.117.422a11.938 11.938 0 007.625-6.492c.102-.247-.263-.48-.38-.218zM62.633 11.293c-.438-.043-.599-.509-.482-.887.16-.48.628-.583 1.066-.364.307.16.468.538.337.873-.147.364-.57.48-.92.35-.264-.103-.38.32-.118.421.57.219 1.271-.072 1.476-.67.204-.64-.205-1.265-.818-1.455-.687-.203-1.286.117-1.461.83-.146.655.263 1.266.92 1.34.278.028.278-.408 0-.438z" fill="#2D2D2D"/><path d="M62.121 10.945c.176.45.818.596 1.198.32a.782.782 0 00.248-.873.79.79 0 00-.847-.495c-.467.087-.774.626-.599 1.048z" fill="#fff"/><path d="M67.57 11.163c-.438-.044-.599-.51-.482-.888.161-.48.628-.582 1.067-.364.306.16.467.538.336.873-.147.364-.57.48-.92.35-.264-.102-.38.32-.117.422.57.218 1.27-.073 1.475-.67.204-.64-.205-1.266-.818-1.455-.687-.204-1.286.116-1.46.83-.147.654.262 1.266.92 1.338.277.03.277-.407 0-.436z" fill="#2D2D2D"/><path d="M67.058 10.814c.176.45.818.597 1.198.32.249-.19.365-.553.249-.873a.79.79 0 00-.848-.495c-.467.087-.774.626-.599 1.048z" stroke="#2D2D2D" stroke-miterlimit="10"/><path d="M62.34 10.042c.205.451.439.888.716 1.31.146.233.526.014.38-.218a14.211 14.211 0 01-.716-1.31c-.117-.248-.496-.03-.38.218z" fill="#2D2D2D"/><path d="M62.383 11.352c.205-.174.395-.364.6-.538.174-.16.35-.35.569-.466.248-.131.029-.51-.22-.378-.218.116-.394.305-.584.48-.219.204-.452.407-.672.611-.204.175.103.48.307.291z" fill="#2D2D2D"/><path d="M116.637 21.176c-1.3 4.163-2.615 8.34-3.915 12.503-.803 2.591 1.11 5.211 3.827 5.255 18.128.218 36.242.422 54.37.64a4.061 4.061 0 004.046-3.348c.774-4.424 1.563-8.85 2.337-13.274.439-2.474-1.475-4.745-4.002-4.745l-52.792.131a4.058 4.058 0 00-3.871 2.838zM47.075 79.208l-7.581 21.702c-1.563 4.483 2.147 9.053 7.406 9.112 35.087.363 70.189.742 105.277 1.106 3.856.043 7.172-2.416 7.829-5.808 1.519-7.67 3.024-15.355 4.543-23.026.847-4.308-2.863-8.238-7.756-8.238l-102.239.218c-3.433.014-6.456 2.009-7.479 4.934z" fill="#fff" stroke="#2D2D2D" stroke-miterlimit="10"/><path d="M122.129 46.11l-7.056 21.046c-.087.262.336.379.424.117l7.056-21.047c.087-.277-.336-.393-.424-.117z" fill="#F3F3F3"/><path d="M122.407 46.153c6.106-.32 12.241-.815 18.362-.815 6.091 0 12.168.524 18.23 1.048.278.03.278-.408 0-.437-6.062-.524-12.139-1.033-18.23-1.048-6.121 0-12.256.495-18.362.816-.277.014-.292.45 0 .436z" fill="#F3F3F3"/><path d="M158.926 46.371c-1.636 6.958-3.287 13.9-4.923 20.858-.059.276.365.393.424.116 1.636-6.957 3.286-13.9 4.922-20.857.059-.262-.365-.379-.423-.117z" fill="#F3F3F3"/><path d="M115.337 67.913a357.733 357.733 0 0130.091-.364c2.863.088 5.712.204 8.575.364.277.015.277-.422 0-.436a351.634 351.634 0 00-30.092-.364c-2.863.087-5.711.203-8.574.364-.278.014-.292.45 0 .436z" fill="#F3F3F3"/><path d="M134.793 67.171c6.252-3.246 13.395-3.726 20.305-4.148.277-.015.277-.451 0-.437-6.983.437-14.199.932-20.524 4.207-.263.13-.044.51.219.378z" fill="#F3F3F3"/><path d="M144.77 53.315a51.282 51.282 0 011.052 10.13c0 .277.438.277.438 0a53.565 53.565 0 00-1.066-10.247c-.058-.276-.482-.16-.424.117z" fill="#F3F3F3"/><path d="M144.61 53.242c-.891 1.295-1.767 2.605-2.658 3.9.131.044.277.073.409.117a5.664 5.664 0 011.008-3.61c.16-.233-.22-.45-.38-.218a6.074 6.074 0 00-1.081 3.828c.014.218.277.291.409.116.891-1.295 1.767-2.605 2.658-3.9.176-.248-.204-.466-.365-.233z" fill="#F3F3F3"/><path d="M143.134 53.125a3.279 3.279 0 00-1.534-.29c-.321.014-1.621.407-1.431-.073.073-.19.482-.437.643-.568.306-.248.628-.48.964-.67.745-.422 1.577-.626 2.425-.495.277.044.394-.378.116-.422-1.694-.262-3.462.655-4.557 1.922-.292.334-.248.8.234.946.263.073.555-.03.803-.088.716-.16 1.417-.218 2.118.088.249.145.468-.233.219-.35z" fill="#F3F3F3"/><path d="M144.595 50.578a4.703 4.703 0 013.01-2.678c-.073-.117-.146-.248-.22-.364a4.3 4.3 0 00-.891 2.14c-.029.276.409.276.439 0 .087-.684.35-1.296.759-1.834.117-.16.015-.437-.219-.364a5.16 5.16 0 00-3.316 2.984c-.087.262.336.378.438.116z" fill="#F3F3F3"/><path d="M146.815 49.938a3.685 3.685 0 013.638-.044v-.379c-.921.437-1.797.961-2.63 1.543-.233.16-.014.539.219.379a18.314 18.314 0 012.63-1.543c.146-.073.131-.306 0-.379-1.3-.713-2.805-.698-4.076.044-.248.146-.029.524.219.379z" fill="#F3F3F3"/><path d="M147.664 51.467c.95.524 1.87 1.382 1.607 2.576.131-.015.263-.03.394-.058a3.15 3.15 0 00-2.819-1.485c-.278.015-.278.451 0 .437 1.008-.044 1.914.422 2.44 1.266.087.146.365.146.394-.058.292-1.383-.672-2.445-1.811-3.071-.234-.117-.453.262-.205.393z" fill="#F3F3F3"/><path d="M146.465 52.863c.672 3.494.92 7.03.73 10.582-.015.277.424.277.438 0a43.78 43.78 0 00-.745-10.698c-.058-.277-.482-.16-.423.116z" fill="#F3F3F3"/><path d="M145.983 59.72a2.62 2.62 0 001.374-.219c.262-.116.029-.495-.22-.378a1.972 1.972 0 01-1.154.16c-.277-.044-.277.393 0 .436zm-28.747 2.24c2.396.146 4.821.19 7.202.466 1.168.131 2.293.48 3.447.655 1.125.16 2.22 0 3.345-.204 4.923-.858 9.875-.393 14.798.131.277.03.277-.407 0-.436-4.762-.51-9.598-1.005-14.36-.219-1.344.219-2.614.48-3.973.248-1.095-.19-2.147-.48-3.243-.611-2.381-.277-4.806-.32-7.201-.466-.292-.03-.292.407-.015.437zm28.236-5.254c.058.248.306.306.54.262.453-.073.92-.233 1.358-.364.278-.072.161-.495-.116-.422-.263.073-.526.146-.789.204-.117.03-.249.058-.365.102l-.176.044c-.102-.015-.102 0-.029.043-.058-.262-.482-.145-.423.131zm-18.508-5.56c-1.446-.466.439-2.94 1.446-1.834.366.393.351 1.077.015 1.484-.38.466-1.037.539-1.548.248-.249-.146-.468.233-.219.378.745.422 1.752.262 2.22-.48.423-.684.307-1.747-.438-2.169-1.622-.902-3.565 2.169-1.578 2.81.263.072.38-.35.102-.437zm33.773-3.508c4.718.247 9.393.8 14.038 1.674.278.058.394-.364.117-.422a104.971 104.971 0 00-14.155-1.703c-.277 0-.277.436 0 .45zm-.074 1.267c4.499.48 9.013.99 13.498 1.528.277.03.277-.407 0-.437-4.5-.538-8.999-1.047-13.498-1.528-.277-.029-.277.408 0 .437zm-.145 1.309c2.717.452 5.448.743 8.194.83.278.015.278-.422 0-.437a62.783 62.783 0 01-8.078-.815c-.277-.043-.394.379-.116.422zm-1.636 7.846c3.696.524 7.406.96 11.116 1.31.278.03.278-.407 0-.437a251.95 251.95 0 01-10.999-1.295c-.278-.044-.395.378-.117.422zm-.278 1.251c2.936.51 5.873.932 8.823 1.281.278.03.278-.407 0-.436a145.828 145.828 0 01-8.706-1.267c-.277-.058-.394.364-.117.422zm-.307 1.849a84.38 84.38 0 0011.131 1.456c.277.014.277-.422 0-.437a87.685 87.685 0 01-11.014-1.441c-.278-.058-.395.364-.117.422zM53.4 79.892c6.72.335 13.468-.014 20.188-.116 6.72-.102 13.424-.131 20.143-.117 13.483.03 26.951.277 40.434.583 7.596.174 15.177.378 22.773.567.278.015.278-.422 0-.436-13.468-.35-26.951-.714-40.433-.932-13.483-.218-26.951-.32-40.434-.145-7.552.087-15.134.538-22.671.145-.292 0-.292.437 0 .451z" fill="#F3F3F3"/><path d="M53.138 28.63c.876.13 1.49-.467 3.228-1.747 2.615-1.936 3.17-1.995 3.564-1.965.19.014.54.072 2.191 1.31 2.41 1.804 2.557 2.357 3.345 2.401 1.432.058 1.636-1.747 3.346-1.907 1.548-.145 2.03 1.267 3.944 1.194 1.475-.044 2.337-.946 2.468-.757.16.248-1.227 2.154-3.228 2.46-1.475.218-1.797-.64-3.228-.437-1.987.291-2.367 2.096-3.828 1.965-.861-.087-.978-.728-2.468-1.746-.789-.539-2.162-1.47-3.667-1.587-2.76-.204-4.192 2.46-5.857 1.688-.804-.363-1.257-1.353-1.154-1.47.073-.116.584.48 1.344.597z" fill="#0071BC"/><path d="M121.574 21.162a125.83 125.83 0 01-3.272 11.95c-.088.262.336.378.423.116a125.825 125.825 0 003.273-11.95c.058-.276-.366-.392-.424-.116z" fill="#F3F3F3"/><path d="M118.564 33.447c1.505.174 3.01.101 4.529.072 1.577-.043 3.155-.072 4.747-.116 3.155-.073 6.325-.16 9.48-.233.278 0 .278-.437 0-.437-3.155.073-6.325.16-9.48.233-1.534.044-3.067.073-4.601.117-1.563.043-3.112.116-4.675-.058-.277-.044-.277.392 0 .422z" fill="#F3F3F3"/><path d="M123.998 25.223a128.588 128.588 0 00-1.417 7.816c-.044.276.38.393.424.116.394-2.62.861-5.225 1.416-7.816.059-.276-.365-.393-.423-.116z" fill="#F3F3F3"/><path d="M124.334 25.456c.774.043 1.534.116 2.293.262-.044-.088-.102-.175-.146-.262a93.711 93.711 0 00-1.753 7.452c-.058.276.365.393.424.116a93.264 93.264 0 011.753-7.452c.029-.102-.03-.247-.146-.262a19.11 19.11 0 00-2.411-.276c-.306-.03-.306.407-.014.422zm3.77 2.242a63.516 63.516 0 01-.877 5.269c-.058.276.366.393.424.116.38-1.776.672-3.58.891-5.385.029-.277-.409-.277-.438 0z" fill="#F3F3F3"/><path d="M128.323 27.727c.818-.03 1.65-.015 2.469.044a3.074 3.074 0 01-.205-.277 105.24 105.24 0 00-.833 5.21c-.043.277.395.277.439 0 .233-1.702.496-3.39.818-5.094.029-.145-.059-.261-.205-.276a27.977 27.977 0 00-2.469-.044c-.306 0-.306.437-.014.437zm5.111-3.989a192.316 192.316 0 01-1.767 9.097c-.059.277.365.393.424.117a192.291 192.291 0 001.767-9.097c.058-.277-.365-.393-.424-.117z" fill="#F3F3F3"/><path d="M133.785 23.52v.073c0 .116.102.218.219.218a.224.224 0 00.219-.218v-.073a.224.224 0 00-.219-.218c-.117.014-.219.102-.219.218z" fill="#F3F3F3"/><path d="M133.888 23.884a8.417 8.417 0 002.001.204 3.262 3.262 0 01-.204-.277 381.729 381.729 0 00-1.592 9.155c-.044.277.379.393.423.117a386.795 386.795 0 011.593-9.155c.029-.131-.059-.277-.205-.277a9.09 9.09 0 01-1.884-.19c-.293-.057-.409.35-.132.423zm6.676-.99a390.4 390.4 0 0114.885.102c.278 0 .278-.436 0-.436a461.633 461.633 0 00-14.885-.102c-.277 0-.277.436 0 .436zm.335 1.776a57.89 57.89 0 009.262-.131c.277-.03.277-.466 0-.437a57.9 57.9 0 01-9.262.131c-.277-.015-.277.422 0 .437zm-.671 2.198a185.1 185.1 0 0112.709.218c.277.015.277-.422 0-.436a168.287 168.287 0 00-12.709-.219c-.278 0-.278.437 0 .437zm22.729 6.754c-1.49-.19-2.206-1.674-2.629-2.94-.395-1.194-.541-2.445-.088-3.639.789-2.096 2.936-3.784 5.098-4.265 2.25-.51 4.528.684 5.609 2.678 1.14 2.096.745 4.79-.584 6.696-1.636 2.343-5.083 2.605-7.479 1.368-.248-.131-.467.247-.219.378 2.293 1.18 5.463 1.121 7.406-.727 1.899-1.805 2.513-5.022 1.519-7.409-.949-2.256-3.345-3.828-5.828-3.508-2.454.32-4.923 2.184-5.858 4.469-.628 1.557-.365 3.187.248 4.701.526 1.28 1.359 2.445 2.82 2.635.263.029.263-.408-.015-.437z" fill="#F3F3F3"/><path d="M163.57 23.36a110.583 110.583 0 011.914 5.357c.088.262.511.145.424-.117a116.404 116.404 0 00-1.914-5.356c-.102-.247-.526-.146-.424.116z" fill="#F3F3F3"/><path d="M165.937 28.964a141.413 141.413 0 005.098-3.697c.219-.174 0-.553-.219-.378a157.053 157.053 0 01-5.098 3.697c-.234.16-.015.538.219.378z" fill="#F3F3F3"/><path d="M165.864 28.978a24.293 24.293 0 005.771-.96c.262-.073.16-.495-.117-.423a23.184 23.184 0 01-5.654.932c-.277.029-.277.466 0 .451z" fill="#F3F3F3"/><path d="M165.514 28.833c-1.169 1.499-2.323 2.998-3.491 4.497-.176.218.204.437.379.218 1.169-1.499 2.323-2.998 3.492-4.497.175-.218-.205-.437-.38-.218zM53.694 79.15c-.366-.102-.147-.582.014-.742.175-.175.614-.16.847-.16.424-.015.848 0 1.286-.015.876 0 1.753-.014 2.63-.014 1.752-.015 3.505-.015 5.258-.03 3.462-.014 6.91-.043 10.371-.058 6.968-.043 13.921-.073 20.89-.087 13.876-.044 27.739-.044 41.616.03 3.798.028 7.611.028 11.409.188 1.884.073 3.768.19 5.653.364.935.087 1.884.19 2.819.306.307.043.613.073.92.13.249.044.395 0 .482.234.234.553-.511 1.12-.964 1.15-.277.014-.277.45 0 .436.979-.073 1.665-1.062 1.3-1.994-.029-.073-.073-.145-.146-.145-6.968-1.034-14.023-1.034-21.049-1.078-7.26-.043-14.506-.058-21.766-.072-14.549 0-29.112.058-43.662.13-4.09.03-8.18.044-12.27.074-.979 0-1.943.014-2.921.014-.819 0-1.783-.13-2.571.102-.76.218-1.257 1.412-.263 1.688.263.044.38-.378.117-.45zm-1.083 2.562a128.963 128.963 0 01-5.361 15.457c-.102.263.321.379.424.117a128.95 128.95 0 005.36-15.458c.074-.276-.35-.393-.423-.116z" fill="#F3F3F3"/><path d="M52.758 82.148c3.754.451 7.625.145 11.394.102.277 0 .277-.437 0-.437-3.77.058-7.64.35-11.394-.102-.293-.029-.278.408 0 .437z" fill="#F3F3F3"/><path d="M63.684 82.222a453.836 453.836 0 01-3.944 13.652c-.088.277.336.379.423.117a441.214 441.214 0 003.944-13.653c.073-.276-.35-.393-.423-.116zM47.455 97.388l6.164-.044c1.008 0 2.002-.014 3.01-.014.89 0 1.782.029 2.658-.175.278-.058.16-.48-.117-.422-.92.218-1.884.16-2.834.16-1.008 0-2.001.015-3.009.015-1.957.014-3.915.029-5.872.029-.278.014-.278.451 0 .451zm18.523-15.065a490.76 490.76 0 0129.638.058c.278.014.278-.422 0-.437-9.874-.32-19.764-.35-29.638-.058-.278 0-.278.437 0 .437zm-.409 2.562c5.726-.015 11.452-.015 17.193-.03.278 0 .278-.436 0-.436-5.726.014-11.452.014-17.193.03-.292 0-.292.436 0 .436z" fill="#F3F3F3"/><path d="M59.682 96.878c.263-.437.453-.902.555-1.383.059-.276-.365-.393-.423-.116a4.061 4.061 0 01-.512 1.28c-.146.233.234.452.38.219zm54.808-13.274c-1.169 5.56-2.293 11.12-3.389 16.681-.058.276.365.393.424.116 1.095-5.56 2.22-11.12 3.389-16.68.058-.277-.365-.393-.424-.117z" fill="#F3F3F3"/><path d="M111.188 100.648l17.996.48c5.931.16 11.861.408 17.792.408.278 0 .278-.437 0-.437-5.931 0-11.861-.262-17.792-.407l-17.996-.481c-.278-.014-.278.422 0 .437z" fill="#F3F3F3"/><path d="M111.626 100.605c1.812-1.95 3.623-3.916 5.434-5.866h-.306a8.035 8.035 0 002.118 1.848c.248.146.467-.233.219-.378a7.405 7.405 0 01-2.031-1.776c-.073-.087-.233-.073-.306 0-1.812 1.95-3.623 3.916-5.434 5.866-.19.204.116.509.306.306z" fill="#F3F3F3"/><path d="M118.989 96.442c1.943-2.286 3.9-4.556 5.843-6.841.175-.219-.132-.525-.307-.306-1.943 2.285-3.9 4.556-5.843 6.84-.19.205.117.51.307.306z" fill="#F3F3F3"/><path d="M124.525 89.382c.394.524.788 1.034 1.183 1.558.087.116.219.145.35.043a102.99 102.99 0 005.201-4.555c.204-.19-.103-.495-.307-.306a102.92 102.92 0 01-5.2 4.556l.35.043c-.394-.524-.789-1.033-1.183-1.557-.19-.233-.57-.014-.394.218z" fill="#F3F3F3"/><path d="M130.792 86.617a121.828 121.828 0 017.07 6.04c.204.19.511-.116.306-.306a115.77 115.77 0 00-7.07-6.04c-.219-.175-.526.13-.306.306z" fill="#F3F3F3"/><path d="M138.125 92.599c3.009-1.907 5.171-4.847 8.107-6.856.234-.16.015-.538-.219-.378-2.936 2.009-5.098 4.949-8.107 6.855-.234.146-.015.524.219.379z" fill="#F3F3F3"/><path d="M143.675 86.195a21.51 21.51 0 002.703-.67l-.263-.262c-.161.728-.307 1.456-.468 2.184-.058.276.366.393.424.116.161-.728.307-1.456.467-2.183.03-.16-.102-.32-.263-.262-.891.276-1.782.51-2.702.67-.278.043-.161.465.102.407zm-23.809-1.441c-.512 5.197-1.037 10.393-1.549 15.589-.029.277.409.277.438 0 .512-5.196 1.038-10.392 1.549-15.589.015-.276-.424-.276-.438 0zm6.485-.917a428.9 428.9 0 00-1.301 16.753c-.014.276.424.276.439 0 .321-5.59.759-11.178 1.3-16.753.014-.291-.424-.277-.438 0zm12.24-.16a319.24 319.24 0 00-1.227 17.495c-.014.277.424.277.439 0 .248-5.836.657-11.673 1.227-17.495.029-.276-.409-.276-.439 0zm-7.318-2.126l-1.139 19.461c-.015.276.423.276.438 0l1.139-19.46c.015-.292-.424-.292-.438 0zm-45.531 3.261c2.965.262 5.93-.393 8.896-.029.278.03.278-.408 0-.437-2.965-.364-5.93.291-8.896.03-.292-.015-.278.421 0 .436zM39.743 58.554c5.17-.757 10.152 1.31 14.739 3.464 4.25 2.009 8.458 4.061 13.176 4.658 10.079 1.252 19.735-2.97 29.215-5.633 5.565-1.557 11.335-2.649 17.135-1.921.277.029.277-.408 0-.437-10.27-1.295-19.969 3.013-29.64 5.677-4.907 1.353-9.99 2.372-15.103 2.037-5.128-.334-9.641-2.401-14.214-4.57-4.806-2.285-9.977-4.483-15.425-3.682-.278.029-.146.45.117.407z" fill="#F3F3F3"/><path d="M67.41 62.528c12.869.684 24.789-5.036 37.103-7.787 3.55-.786 7.158-1.339 10.81-1.412.277 0 .277-.436 0-.436-12.855.29-24.614 6.185-37.118 8.442-3.564.64-7.173.96-10.795.771-.278-.044-.278.393 0 .422zm-24.76-14.89c5.828.408 11.145 2.999 16.52 5.022 5.463 2.052 11.16 3.202 17.004 3.057a43.955 43.955 0 009.918-1.412c.278-.073.16-.495-.117-.422-5.887 1.542-12.066 1.834-18.07.8-5.726-.99-10.882-3.479-16.301-5.414-2.893-1.034-5.873-1.849-8.955-2.053-.292-.029-.277.408 0 .422zm39.63-27.99a11.033 11.033 0 01-.57 2.14c-.058.145.088.276.205.276 9.305.408 18.61.495 27.915.248.277-.015.277-.451 0-.437a387.78 387.78 0 01-27.915-.247c.073.087.146.19.204.276.263-.698.453-1.397.57-2.14.058-.276-.365-.392-.41-.116z" fill="#F3F3F3"/><path d="M82.572 19.808l28.075.35c.278 0 .278-.437 0-.437l-28.075-.35c-.278-.014-.278.423 0 .437z" fill="#F3F3F3"/><path d="M110.603 19.896a9.027 9.027 0 00-.628 2.14c-.044.276.38.392.424.116a8.96 8.96 0 01.584-2.038c.102-.262-.278-.48-.38-.218z" fill="#F3F3F3"/><path d="M7.125 103.428c-2.498.596-5.01 1.193-7.509 1.79 1.3 8.18 2.323 12.255 3.039 12.197.613-.043 1.008-3.1 1.183-9.169 1.388-.481 2.775-.947 4.163-1.427-.292-1.121-.584-2.256-.876-3.391z" fill="#2D2D2D" stroke="#2D2D2D" stroke-width="3" stroke-miterlimit="10"/><path d="M24.2 72.935a64.73 64.73 0 00-1.3 4.425c-1.036 4.032-1.08 5.75-2.132 10.873-1.256 6.098-1.899 7.146-2.308 7.743-1.855 2.649-4.426 3.857-5.828 4.512-3.39 1.586-6.544 1.732-8.414 1.659-.073.859-.146 2.955 1.11 5.065a8.2 8.2 0 001.943 2.213 21.21 21.21 0 008.779-1.383c1.563-.597 5.55-2.198 8.59-6.171 2.336-3.057 2.98-6.04 3.695-9.388 1.388-6.448-.336-7.424 1.388-12.896 1.037-3.319 2.235-4.949 1.387-6.172-1.008-1.499-4.177-1.106-6.91-.48z" fill="#FF6871"/><path opacity=".09" d="M24.376 72.95a247.569 247.569 0 01-.672 6.272c-.277 2.257-.584 4.702-1.08 7.555-.863 4.89-1.3 7.335-2.236 9.373-.818 1.776-2.395 5.065-6.018 7.554-3.769 2.577-7.669 2.824-9.407 2.839a8.283 8.283 0 01-.54-1.747 8.96 8.96 0 01-.132-2.489 19.813 19.813 0 004.47-.466c3.126-.698 5.215-1.965 5.755-2.3 1.33-.83 2.717-1.688 3.856-3.376.775-1.136 1.096-2.169 1.622-4.323.774-3.173 1.169-4.745 1.49-7.074.35-2.693 1.125-6.623 2.892-11.819z" fill="#2D2D2D"/><path opacity=".12" d="M4.32 102.264a8.557 8.557 0 00.117 2.518c.146.742.365 1.353.57 1.834 2-.422 8.296-2.023 12.197-7.758a17.19 17.19 0 002.264-4.818 12.23 12.23 0 01-2.294 3.551c-2.088 2.228-4.484 3.043-6.208 3.625-1.46.509-3.74 1.091-6.646 1.048z" fill="#2D2D2D"/><path d="M23.134 116.79a6632.71 6632.71 0 00-3.418 9.403c8.005.931 12.08 1.062 12.226.364.117-.539-2.25-1.602-7.07-3.159.658-1.936 1.33-3.872 1.987-5.807-1.242-.262-2.483-.539-3.725-.801z" fill="#2D2D2D" stroke="#2D2D2D" stroke-width="3" stroke-miterlimit="10"/><path d="M35.01 74.594c.16 2.154.306 5.095.277 8.559-.073 9.562-1.373 16.738-1.753 18.688a97.955 97.955 0 01-5.726 19.068c-.965.043-3.346.014-5.727-1.47a9.576 9.576 0 01-2.863-2.766 64.548 64.548 0 003.053-6.637c1.885-4.803 2.703-8.631 3.229-11.15 1.183-5.661 1.782-8.485 1.3-11.512-.468-2.868-1.227-3.363-1.11-5.808.029-.538.394-6.812 4.338-8.005 2.03-.597 4.046.45 4.981 1.033z" fill="#FF6871"/><path opacity=".14" d="M31.547 73.502c1.3.554.877 4.192.76 5.153-1.563 13.711.584 6.332-1.3 14.788-2.586 11.615-6.077 22.779-7.304 26.622-.292 0-.701-.03-1.14-.233-.409-.189-.496-.437-.993-.83-.54-.422-.73-.393-1.14-.684-.364-.262-.817-.728-1.139-1.587a67.504 67.504 0 002.586-5.691c1.169-2.911 1.811-5.123 2.513-7.51 0 0 2.19-7.525 2.585-13.275.073-1.15.015-1.935-.073-2.503-.132-.902-.321-1.354-.614-2.43-.073-.277-.482-1.85-.613-3.028-.365-3.479 1.49-6.273 2.366-7.278a4.272 4.272 0 011.3-1.062c.22-.102 1.49-.757 2.206-.451z" fill="#2D2D2D"/><path opacity=".11" d="M28.202 97.184c-.248 3.537-1.081 4.585-3.506 13.274-1.066 3.814-1.855 6.943-2.366 8.952a5.876 5.876 0 01-1.446-.83 5.863 5.863 0 01-1.52-1.746 61.28 61.28 0 002.659-6.303c.38-1.048.628-1.848.862-2.576 3.33-10.64 3.856-13.871 4.017-16.084.131-1.877.03-3.39 0-3.871-.146-2.009-.497-3.392-.497-3.392s2.279 5.706 1.797 12.576z" fill="#2D2D2D"/><path d="M9.74 68.09c.03-.044.175-.03.467 0 .497.043.658.116.979.145.307.015.716.044.833-.145.16-.248-.35-.728-1.067-1.761-1.227-1.747-1.168-2.358-1.066-2.635.03-.073.117-.35.307-.393.248-.058.526.277.789.611.438.539.613.961.657.932.088-.03-.424-1.12-.307-2.46.03-.364.088-.888.35-.96.234-.073.585.218.862.684 0-.059.074-.86.351-.917.22-.044.468.378.716.785.204.335.336.64.409.845-.015-.408.204-.743.511-.844.336-.102.643.16.657.174.336.306.307.844.307 1.034-.029.83.059 2.227.249 4.264.38-.145.934-.407 1.548-.815.628-.422 1.285-.975 2.907-2.91.628-.758.95-1.136 1.504-1.878 2.002-2.664 3.185-4.236 4.383-6.463.38-.713.993-1.921 2.264-2.998.409-.35 1.212-1.005 1.68-.757.336.174.365.727.35 1.543-.014 1.775-.029 2.649-.336 3.857a16.834 16.834 0 01-2.293 5.181c-1.154 1.689-2.308 2.664-3.798 3.93-1.548 1.31-2.834 2.387-4.864 3.202-1.33.524-2.381.714-3.491.917-1.841.32-2.79.48-3.74.073-1.359-.582-2.279-2.023-2.118-2.241z" fill="#fff"/><path d="M29.97 51.422c-1.577.219-2.512 1.689-3.359 2.897-1.08 1.543-2.104 3.13-3.155 4.687-1.052 1.572-2.148 3.114-3.39 4.555-.598.685-1.212 1.354-1.883 1.965-.745.699-1.564 1.5-2.542 1.834-.263.088-.146.51.117.422 1.533-.509 2.834-1.965 3.9-3.114 1.227-1.325 2.322-2.766 3.36-4.25 1.051-1.514 2.06-3.072 3.082-4.6.964-1.426 2.103-3.712 3.988-3.974.277-.043.16-.45-.117-.422zM16.152 70.49c1.87-.175 3.447-1.034 5.01-2.024 1.549-.975 3.024-2.096 4.339-3.377 1.694-1.63 3.126-3.566 4.075-5.734.935-2.17 1.373-4.542 1.067-6.9-.03-.276-.468-.276-.439 0 .497 3.945-1.08 7.86-3.622 10.859-1.14 1.339-2.469 2.518-3.871 3.566-1.928 1.426-4.12 2.954-6.573 3.187-.264.015-.264.451.014.422z" fill="#2D2D2D"/><path d="M16.152 70.039c-.862-.015-1.695.189-2.542.247-.979.073-1.797-.218-2.6-.757-.322-.218-.672-.48-.877-.83-.423-.742.453-.305.76-.218.497.146.95.088 1.33-.247.218-.19-.103-.495-.308-.306-.657.582-1.884-.713-2.322.03-.336.567.438 1.382.818 1.688.657.538 1.46.975 2.322 1.077 1.14.13 2.28-.262 3.419-.233.277-.015.277-.451 0-.451z" fill="#2D2D2D"/><path d="M12.252 67.986c-.292-.975-.95-1.732-1.476-2.59-.073-.117-.949-1.704-.657-1.835.511-.233 1.242 1.237 1.344 1.528.088.262.511.146.424-.116-.234-.67-.643-1.295-1.257-1.703-.321-.218-.788-.378-.935.116-.19.67.307 1.572.643 2.125.526.86 1.213 1.602 1.505 2.591.073.277.496.16.409-.116z" fill="#2D2D2D"/><path d="M12.018 64.959c-.132-.539-.307-1.092-.395-1.645a3.866 3.866 0 01-.043-1.004c.043-.437.131-.874.482-.364.54.8.715 1.892.978 2.794.073.277.497.16.424-.116-.22-.771-.395-1.586-.716-2.329-.16-.364-.526-1.179-1.037-1.179-.526 0-.54.815-.57 1.18-.073.945.22 1.848.453 2.75.059.306.482.19.424-.087z" fill="#2D2D2D"/><path d="M13.04 62.891c-.072-.305-.218-.815-.102-1.12.22-.568.54.45.628.67.322.77.497 1.586.541 2.415.015.277.453.277.438 0-.058-.8-.19-1.572-.467-2.314-.16-.451-.395-1.252-.833-1.5-.993-.567-.716 1.616-.643 1.98.073.262.497.146.439-.13z" fill="#2D2D2D"/><path d="M14.516 63.402c-.015-.146-.117-.932.058-1.078.482-.422.614.35.672.583.102.495.088 1.048.131 1.557l.22 3.13c.014.276.452.276.438 0l-.22-3.13c-.043-.728.015-1.688-.364-2.343-.205-.35-.556-.67-.965-.408-.526.35-.452 1.281-.38 1.805.03.277.453.16.41-.116z" fill="#2D2D2D"/><path opacity=".09" d="M30.13 51.932c-.073 0-.014 1.15-.467 2.75-.35 1.223-.92 2.388-2.761 4.804-1.695 2.227-2.922 3.842-5.054 5.735-2.337 2.08-3.506 3.114-5.113 3.507-3.476.86-6.675-1.135-6.982-.465-.161.363.716 1.091 1.052 1.339.423.305 1.241.786 3.17.815 2.059.029 3.637-.466 3.987-.582 3.71-1.223 6.15-3.64 7.45-4.978 1.724-1.747 3.126-3.173 4.046-5.56 1.476-3.712.818-7.365.672-7.365z" fill="#2D2D2D"/><path opacity=".13" d="M29.838 57.55c-.102-.058-.715.96-1.592 2.169 0 0-2.103 2.911-4.82 5.385-1.49 1.354-4.207 3.45-8.516 5.095a9.65 9.65 0 003.695-.466c.468-.16 1.636-.597 4.456-3.042 2.25-1.95 3.505-3.028 4.762-4.92 1.358-2.023 2.162-4.148 2.015-4.22z" fill="#2D2D2D"/><path d="M31.667 49.824c-.92.32-1.49.888-2.089 1.485-1.665 1.673-2.264 3.566-2.731 5.094-1.402 4.6-2.118 6.885-2.44 8.893a46.206 46.206 0 00-.599 8.893c.76.524 1.841 1.194 3.214 1.776 1.578.67 2.995 1.266 4.82 1.12a7.574 7.574 0 003.39-1.12c.073-.946.233-2.416.657-4.148.73-3.071 1.52-3.96 2.805-7.773 1.008-3.012 1.504-4.555 1.431-6.404-.058-1.295-.175-3.828-2.089-5.807-1.46-1.5-4.075-2.81-6.369-2.009z" fill="#fff"/><path d="M31.008 49.923c-1.753 1.048-2.82 2.795-3.696 4.585-.935 1.936-1.636 3.974-2.147 6.07-1.066 4.366-1.33 8.893-1.505 13.376-.014.277.424.277.439 0 .16-4.28.409-8.573 1.373-12.765.467-2.052 1.11-4.075 2-5.997.863-1.877 1.93-3.813 3.755-4.89.234-.146.015-.524-.22-.379zm5.654.947c1.65 1.28 2.79 3.085 3.155 5.137.409 2.344-.16 4.73-.95 6.929-.76 2.125-1.752 4.148-2.44 6.302a28.347 28.347 0 00-1.285 6.52c-.029.277.41.277.439 0 .204-2.488.73-4.948 1.577-7.291.804-2.242 1.87-4.382 2.557-6.667.613-2.052.934-4.279.423-6.404-.453-1.921-1.592-3.624-3.155-4.818-.234-.189-.54.117-.321.291z" fill="#2D2D2D"/><path d="M23.747 74.245a12.065 12.065 0 006.311 2.94c1.87.262 4.28.277 5.507-1.397.16-.233-.219-.451-.38-.218-1.227 1.659-3.944 1.44-5.726 1.077a11.67 11.67 0 01-5.405-2.708c-.204-.189-.511.117-.306.306z" fill="#2D2D2D"/><path opacity=".11" d="M33.548 49.88c.497.859-1.343 2.445-2.76 4.92-.906 1.572-1.256 2.94-1.943 5.676-1.607 6.405-1.3 13.682-1.169 15.793-1.256-.67-2.498-1.325-3.754-1.994.059-1.427.175-3.465.41-5.91.379-3.871.598-5.982 1.343-8.718.657-2.373 1.3-4.585 3.053-6.958a16.352 16.352 0 013.228-3.275c.555-.029 1.33.015 1.592.466z" fill="#2D2D2D"/><path opacity=".15" d="M27.97 54.276c.19.058-.584 3.1-1.826 9.824-.818 4.41-1.008 5.997-.35 7.962.847 2.518 2.556 4.046 2.234 4.381-.204.204-1.08-.087-4.104-2.343a46.767 46.767 0 011.402-12.576c1.008-3.974 2.44-7.321 2.644-7.248z" fill="#2D2D2D"/><path d="M41.596 43.883c.686.626.599 1.849.467 3.624-.088 1.238-.131 1.864-.555 2.46-.877 1.237-2.863 1.805-4.426 1.106-.19-.087-1.154-.538-1.68-1.63-.76-1.572.03-3.144.19-3.435 1.227-2.285 4.777-3.26 6.004-2.125z" fill="#0071BC"/><path d="M41.625 35.833c.555.117.891.888 1.563 2.446a16.73 16.73 0 01.95 2.91c.19.889.292 1.645.335 2.213-.394.116-.788.218-1.183.335a8.94 8.94 0 01-.657 2.11c-.526 1.165-.964 2.169-1.987 2.635-1.183.538-2.454.058-2.877-.146a8.713 8.713 0 01-.702 1.368 8.21 8.21 0 01-.657.888c-1.33.335-1.943-.014-2.176-.189-1.227-.902-1.125-3.813.76-7.103a8.809 8.809 0 00-.468-.655c-.424-.524-.57-.538-.76-.844-.058-.087-.511-.859-.146-1.558.175-.334.54-.625.95-.654.496-.044.657.349 1.08.465.73.219 1.534-.567 3.535-2.445 1.68-1.572 2.016-1.863 2.44-1.776z" fill="#fff"/><path d="M43.03 38.22a18.764 18.764 0 011.285 5.357c.015.204.35.204.336 0a18.878 18.878 0 00-1.3-5.443c-.073-.204-.394-.117-.321.087z" fill="#2D2D2D"/><path d="M44.403 43.432c-.395.043-.79.101-1.184.145-.204.03-.204.35 0 .335.395-.044.79-.102 1.184-.146.204-.043.204-.364 0-.334z" fill="#2D2D2D"/><path d="M43.132 43.722c-.263 1.456-.862 2.868-1.841 3.989-1.169 1.368-3.024.654-4.455.072-.19-.087-.278.233-.088.32 1.344.554 3.272 1.31 4.485.146 1.197-1.135 1.913-2.838 2.205-4.44.044-.203-.263-.29-.306-.087z" fill="#2D2D2D"/><path d="M37.553 48.41a11.519 11.519 0 01-1.125 1.98c-.117.174.16.334.278.16.438-.626.818-1.296 1.125-1.98.087-.19-.19-.35-.278-.16z" fill="#2D2D2D"/><path d="M36.717 48.147c.22.233.468.437.745.582.19.102.35-.174.16-.276a2.737 2.737 0 01-.686-.539c-.131-.16-.365.073-.219.233zm5.085-7.554a.51.51 0 01.044-.539c-.088-.029-.19-.043-.277-.072.043.247.043.48.029.727l.16-.16c.015.03.03.059.059.088.044-.204-.278-.291-.322-.088a.262.262 0 00.263.335c.103 0 .161-.073.161-.16.03-.276.015-.538-.03-.815-.014-.117-.204-.16-.277-.073-.219.277-.263.626-.087.932.087.174.38.014.277-.175zm-.877-1.965c.204-.51.788-.655 1.241-.364.176.117.336-.174.16-.276-.642-.422-1.43-.146-1.723.553-.073.204.248.291.322.087zm-.671 2.621h-.19c-.015-.03-.015-.059-.03-.088.03-.102.074-.13.162-.102l.058.059v-.015a.165.165 0 00-.22-.058.165.165 0 00-.058.218c.059.073.147.117.234.102.088-.029.16-.102.16-.204 0-.218-.306-.276-.408-.102a.165.165 0 00.058.219c.088.073.19.044.234-.03zm.729.668a.835.835 0 01-.117.102h.015-.088s-.014 0-.014-.014l-.059-.058v.014c0-.044-.014-.087-.014-.13l.043-.045c-.073.059-.102.146-.058.219.044.073.16.116.219.058.102-.073.175-.218.059-.32a.178.178 0 00-.19-.044c-.074.015-.103.058-.132.131-.03.087.03.175.117.204.102.03.19-.03.22-.117zm-1.153.016h-.03c-.204 0-.219.334 0 .334h.03c.219 0 .219-.334 0-.334zm1.317 2.154c.233.713.599 1.353 1.329 1.63.19.072.278-.233.088-.32-.6-.233-.906-.83-1.096-1.412-.073-.19-.38-.102-.321.102z" fill="#2D2D2D"/><path d="M41.102 44.262c.087-.131.233-.204.409-.233.087-.015.131-.131.116-.204-.029-.102-.116-.131-.204-.116a.864.864 0 00-.599.378c-.131.175.146.35.278.175zm-6.211-1.893c-.89.32-1.373-1.048-1.212-1.688.088-.335.321-.728.672-.83.482-.146.92.233 1.227.524.146.145.38-.087.234-.233-.395-.378-.877-.742-1.461-.626-.526.102-.847.597-.979 1.077-.233.888.482 2.49 1.607 2.096.205-.072.117-.393-.088-.32z" fill="#2D2D2D"/><path d="M40.472 36.154c-.175.204-.438.538-.745.975-1.11 1.616-1.008 2.27-1.782 2.736-.599.364-1.519.48-2.22.19-.526-.219-.672-.553-1.125-.539-.496.015-.964.422-1.154.903-.233.567 0 1.091.16 1.426.147.306.352.757.79.859a.974.974 0 00.657-.117c-.015.16-.044.408-.058.713-.073 1.267.073 2.14.131 2.708.146 1.368.278 2.46-.131 3.493-.628 1.543-2.191 2.227-2.761 2.474-2.425 1.063-4.675.175-4.981.044-.482-.204-2.79-1.15-3.36-3.304-.35-1.295.044-2.605.204-3.159a7.62 7.62 0 01.643-1.484c.833-1.485 2.03-2.387 2.863-2.897a22.759 22.759 0 011.563-4.09c.92-1.863 1.432-2.896 2.6-3.857 1.855-1.528 3.959-1.717 4.645-1.76.351-.03 2.075-.132 4.12.698 1.446.582 3.14 1.28 3.842 3.013.803 2.023-.336 4.032-.555 4.41a2.98 2.98 0 00-.424-.99c-.365-.538-.774-.757-1.388-1.179-.394-.306-.92-.699-1.534-1.266z" fill="#0071BC"/><path d="M34.456 50.535a2.491 2.491 0 002.06.218c.263-.087.146-.51-.117-.422a2.107 2.107 0 01-1.724-.175c-.248-.13-.467.248-.22.379z" fill="#2D2D2D"/><path opacity=".14" d="M33.767 41.83a.938.938 0 00.76.612.943.943 0 00.92-.452 4.73 4.73 0 00.306 2.533c.614 1.485 1.811 2.183 2.337 2.49a5.99 5.99 0 003.112.756 2.2 2.2 0 01-.92.859c-1.184.582-2.425-.204-2.498-.248a9.186 9.186 0 01-.92 1.572c-.366.495-.512.611-.614.655-.701.408-1.622-.014-1.885-.145a7.474 7.474 0 01-1.27.96c-.468.277-1.724 1.005-3.462 1.02 0 0-2.338 0-4.222-1.573-.73-.611-1.037-1.15-1.125-1.324-.073-.146-.38-.728-.453-1.674-.16-1.82.629-3.362 1.067-4.061a7.507 7.507 0 012.44-2.387c-.045.16-.585 2.416.613 3.508 1.504 1.353 4.908.072 5.653-1.878.19-.48.19-.931.16-1.223z" fill="#2D2D2D"/><path opacity=".07" d="M35.55 45.863c-.118.058.16.815.423 1.353a7.44 7.44 0 001.33 1.936c.102-.262.204-.524.306-.771a3.926 3.926 0 002.994.029c-2.249-.044-3.388-.728-4.017-1.354-.51-.51-.92-1.252-1.037-1.193z" fill="#2D2D2D"/><path d="M71.836 32.428c-.204-.116-.248-.393-.277-.582-.102-.684.409-1.238.496-1.354.54-.597.848-.291 1.359-.844.38-.408.35-.742.935-1.281.38-.364.511-.32.54-.306.205.088.03.539.234 1.238.175.582.394.582.468 1.077.014.13.116.786-.278 1.164-.175.175-.41.218-.891.306-.555.102-.628.043-1.008.116-.92.175-1.242.655-1.578.466z" fill="#fff"/><path d="M71.792 31.816c-2.206 2.271-4.411 4.556-6.617 6.827a.896.896 0 00-.044 1.12.882.882 0 001.169.19c2.264-2.62 4.513-5.255 6.778-7.875-.424-.087-.848-.174-1.286-.262zm-7.975 12.431c.073.19-.16.582-1.431 1.426-.365-.072-.672-.276-.73-.538-.088-.437.54-.8.818-.931.51-.233 1.241-.219 1.343.043z" fill="#2D2D2D"/><path d="M38.122 50.243c-.788.175-2.176.51-2.819 1.645-.424.742-.336 1.528-.307 1.805.146 1.237 1.008 2.27 1.987 2.722 1.198.538 2.44.13 3.068-.087 5.463-1.878 8.194-2.81 9.304-3.363 3.214-1.615 6.793-3.435 10.869-6.812a50.005 50.005 0 002.468-2.197c.234.13.76.378 1.388.305.511-.058.847-.29 1.344-.64.35-.248.76-.539 1.125-1.077.35-.51.467-.961.57-1.34.102-.422.306-1.178.043-1.339-.19-.116-.394.204-.906.219-.043 0-.671 0-.949-.393-.263-.364.015-.699-.22-.99-.247-.32-.89-.291-1.3-.175-.949.291-1.401 1.34-1.694 1.893-.803 1.586-1.957 2.445-4.104 4.06-1.666 1.252-3.156 1.834-5.157 2.635-.789.32-2.293.902-4.28 1.383-3.345.786-5.989.757-10.43 1.746z" fill="#fff"/><path d="M35.726 51.742c1.505-1.499 3.871-1.557 5.858-1.834 2.322-.32 4.645-.67 6.924-1.208 4.046-.931 8.063-2.489 11.233-5.225.833-.728 1.607-1.528 2.25-2.445.584-.83 1.694-3.275 3.067-2.11.22.174.526-.132.307-.306-.526-.452-1.227-.48-1.84-.175-.862.437-1.257 1.397-1.768 2.169-1.33 2.008-3.345 3.551-5.42 4.73-4.367 2.474-9.392 3.362-14.3 4.076-2.22.32-4.908.349-6.603 2.023-.219.189.088.495.292.305z" fill="#2D2D2D"/><path d="M35.405 51.219c-.979 1.659-.789 3.857.847 5.036 1.957 1.412 4.704.072 6.705-.612a60.524 60.524 0 0013.395-6.578 59.861 59.861 0 006.617-5.022c.22-.19-.102-.495-.306-.306-6.56 5.706-14.52 10.218-22.963 12.474-1.447.393-2.951.306-3.886-1.004-.818-1.121-.716-2.606-.03-3.755.147-.248-.233-.466-.38-.233z" fill="#2D2D2D"/><path d="M66.885 39.56c.073.335.146.7.116 1.048-.058.48-.292.64-.467 1.034-.073.175-.088.35-.146.524-.117.393-.278.48-.555.713-.307.248-.482.539-.745.815-.424.451-.672.306-1.198.248-.38-.044-.774-.102-1.154-.146-.277-.029-.277.408 0 .437.628.087 1.694.45 2.279.145.234-.116.365-.334.511-.538.19-.262.365-.48.657-.626.146-.073.22-.015.351-.131.16-.131.204-.35.248-.539.103-.465.249-.771.453-1.179.307-.596.205-1.266.073-1.892-.058-.306-.482-.189-.423.087z" fill="#2D2D2D"/><path d="M65.088 38.745c-.336.495-.073 1.208.453 1.441.613.277 1.3-.131 1.606-.67.146-.247-.233-.465-.38-.218-.19.335-.584.64-.978.51-.35-.102-.54-.539-.322-.845.147-.233-.233-.45-.38-.218z" fill="#2D2D2D"/><path d="M65.365 38.949a367.44 367.44 0 006.53-6.943c.19-.204-.117-.524-.307-.306a367.4 367.4 0 01-6.53 6.943c-.204.19.102.51.307.306zm1.768.465c2.104-2.416 4.193-4.832 6.296-7.248.19-.218-.131-.524-.307-.306-2.103 2.416-4.192 4.833-6.296 7.249-.19.218.117.524.307.305zm-3.492 4.774c-.278.277-.555.568-.833.844-.087.088-.219.277-.321.335-.365.19-.555-.174-.687-.407-.146-.248-.525-.03-.38.218.22.364.585.83 1.067.684.263-.073.453-.335.628-.524.278-.276.555-.568.833-.844.204-.204-.117-.51-.307-.306z" fill="#2D2D2D"/><path d="M73.312 32.107c.876.393 1.943.16 2.395-.742.22-.437.234-.96.074-1.412-.278-.728-1.286-1.368-.395-2.125.22-.19-.102-.495-.307-.306-.511.437-.657 1.107-.321 1.689.321.568.833.888.672 1.63-.175.873-1.11 1.237-1.885.888-.277-.117-.496.262-.233.378z" fill="#2D2D2D"/><path d="M71.866 31.628c.088-.64.321-1.062.89-1.383.293-.16.6-.29.863-.495.54-.436.7-1.237 1.344-1.557.248-.13.029-.495-.22-.378-.365.174-.584.45-.788.8-.322.51-.614.844-1.154 1.12-.877.452-1.242.903-1.373 1.893-.03.277.409.277.438 0z" fill="#2D2D2D"/><path d="M71.793 32.05a1.19 1.19 0 011.183.16c.219.174.438-.205.219-.38a1.57 1.57 0 00-1.534-.203c-.248.102-.131.524.132.422z" fill="#2D2D2D"/><path d="M73.239 30.041a3.072 3.072 0 011.738-.058c.277.073.394-.35.117-.422a3.631 3.631 0 00-1.972.058c-.263.087-.146.51.117.422z" fill="#0071BC"/><path d="M72.99 30.041c1.066-.451 1.387-1.688 2.38-2.241l-.262-.35c-.76.684-.088 1.616.102 2.373.102-.088.22-.16.321-.248a3.633 3.633 0 00-1.709-.29c.059.116.132.218.19.334.205-.393.453-.742.73-1.092-.116-.072-.248-.145-.365-.218-.117.306-.263.684-.204 1.004.014.088.117.16.204.16.35-.014.439-.494.555-.756-.131-.044-.277-.073-.409-.117.03.218.103.48.074.713.029-.058.073-.13.102-.189-.102.058-.497.015-.672.058a2.72 2.72 0 00-.804.306c-.19.102-.102.422.117.407.365-.029.73-.072 1.096-.101.277-.03.277-.466 0-.437-.365.03-.73.073-1.096.102.044.13.073.276.117.407.307-.16.643-.276.993-.29.132-.015.336.043.453-.044.263-.19.088-.64.059-.917-.03-.19-.307-.335-.41-.117-.014.044-.248.539-.175.539.073.058.146.102.205.16-.044-.218.131-.582.204-.771.073-.204-.233-.379-.365-.219-.307.364-.57.757-.803 1.18-.073.13.014.348.19.334a3.064 3.064 0 011.49.233c.175.072.38-.044.321-.248-.146-.582-.789-1.44-.22-1.95.19-.175-.058-.466-.262-.35-.979.554-1.33 1.79-2.381 2.242-.248.131-.015.495.234.393z" fill="#0071BC"/><path d="M75.124 27.348c-.614.378-.994.946-1.447 1.484-.277.335-.584.539-.89.83-.117.102-.22.16-.22.32 0 .03.015.073.059.088.92.392 1.943-.655 2.848.087.059.044.132.044.175-.03.263-.378-.32-.742-.54-.974-.073-.073-.22 0-.19.101.044.146.03.131.132.248.087.116.277 0 .19-.117-.03-.072-.073-.13-.103-.203-.058.029-.117.072-.19.102.103.101.643.524.512.713.058-.015.117-.015.175-.03a1.546 1.546 0 00-1.066-.349c-.234.015-.468.059-.702.102-.19.044-.365.088-.555.102-.204.03-.453.146-.292-.131.088-.145.35-.276.468-.393a4.49 4.49 0 00.482-.568c.38-.465.73-.931 1.241-1.251.146-.015.03-.204-.087-.131z" fill="#0071BC"/><path d="M72.874 30.143c.438.058.862-.088 1.3-.146.365-.044.657.015.993.131.19.073.307.116.511.087.073-.014.117-.058.103-.13a1.007 1.007 0 00-.176-.452c-.073-.116-.263 0-.19.117a.67.67 0 01.161.393c.03-.044.073-.088.103-.131-.41.043-.819-.248-1.242-.248-.497.015-1.008.248-1.505.175-.146-.03-.204.174-.058.204zm2.073-2.416a.757.757 0 01.278-.248c.029-.014.131-.087.16-.058.044.03-.073.117-.102.131a1.395 1.395 0 00-.38.539c-.058.13.161.189.205.058.088-.204.234-.335.394-.495.103-.087.161-.218.059-.35-.22-.29-.643.088-.789.277-.073.102.088.262.175.146z" fill="#0071BC"/><path d="M75.444 27.246a1.16 1.16 0 00-.496.699c-.03.13.175.189.204.058a.97.97 0 01.394-.568c.132-.087.015-.276-.102-.189z" fill="#0071BC"/><path d="M35.58 51.713c.468-.917 2.163-1.266 3.098-1.383.277-.043.16-.465-.117-.422-1.052.146-2.82.553-3.36 1.587-.117.247.263.48.38.218z" fill="#2D2D2D"/><path opacity=".13" d="M35.083 53.824a44.313 44.313 0 005.492-.698c6.486-1.238 11.102-3.64 13.921-5.124a59.598 59.598 0 008.838-5.75c1.49-.48 2.41-1.134 2.994-1.658.395-.35.687-.7.833-.626.234.13-.131 1.339-.628 2.212-.438.786-.95 1.237-1.11 1.383-.41.35-.643.597-1.037.698-.73.19-1.388-.203-1.607-.349-.54.422-1.33 1.048-2.308 1.79-3.944 2.984-5.93 4.483-8.546 5.91-2.41 1.31-4.426 2.096-8.355 3.61-.365.145-.847.305-1.812.625-2.57.86-3.184.961-3.9.83-.292-.058-1.008-.19-1.665-.757-.862-.771-1.052-1.761-1.11-2.096z" fill="#2D2D2D"/><path opacity=".19" d="M46.667 53.926c-.03-.044.219-.248 5.697-3.712 7.216-4.57 6.705-4.163 7.464-4.716 3.155-2.328 4.558-3.9 5.288-3.435.497.32.584 1.485.044 1.994-.468.452-1.446.408-2.323-.233a58.836 58.836 0 01-7.859 5.88c-4.09 2.519-8.209 4.396-8.311 4.222z" fill="#2D2D2D"/></g><defs><clipPath id="clip0"><path fill="#fff" d="M0 0h204v134H0z"/></clipPath></defs></svg>