<svg width="204" height="138" fill="none" xmlns="http://www.w3.org/2000/svg"><path d="M163.341 118.802a28.972 28.972 0 01-6.579-10.674c-.047.095-.11.189-.157.284.362-.079.708-.142 1.07-.221.205-.047.236-.33.063-.425-1.353-.724-1.511-3.054-1.81-4.392a132.193 132.193 0 01-2.597-16.089c-.126.063-.236.142-.362.205a56.092 56.092 0 017.476 5.274c2.109 1.779 4.218 3.683 5.714 6.013 1.605 2.472 2.376 5.463 2.849 8.328.535 3.164.535 6.392-.221 9.525-.079.299.378.425.457.125 1.18-4.77.582-9.854-.929-14.483-1.464-4.424-4.769-7.62-8.31-10.484a57.314 57.314 0 00-6.784-4.707c-.142-.08-.378.015-.362.204.378 3.889.929 7.746 1.653 11.571.362 1.905.755 3.81 1.211 5.683.3 1.275.504 2.944 1.779 3.637a4.11 4.11 0 01.063-.425c-.362.078-.708.141-1.07.22-.126.032-.205.173-.158.283a29.541 29.541 0 006.705 10.879c.189.22.52-.111.299-.331z" fill="#F3F3F3"/><path d="M153.378 87.678a72.421 72.421 0 0111.521 27.471c.063.299.52.173.457-.126a72.772 72.772 0 00-11.584-27.596c-.158-.237-.567 0-.394.251z" fill="#F3F3F3"/><path d="M155.267 101.249c2.377.519 4.879 1.102 6.532 3.038.189.236.535-.11.33-.331-1.7-1.999-4.281-2.629-6.736-3.164-.299-.063-.425.394-.126.457zm6.265.031a13.421 13.421 0 011.054-6.423c.126-.283-.283-.52-.409-.236-.913 2.11-1.306 4.36-1.117 6.659.031.299.503.299.472 0zm3.792-4.33c1.134-7.052 5.966-12.53 10.593-17.647-.126-.078-.268-.157-.394-.236-1.086 3.889 1.464 7.494 2.393 11.146.504 2.015.74 4.093.787 6.171a50.39 50.39 0 01-.016 3.086c-.016.503-.016 1.023-.126 1.511-.157.677-.913 1.732-1.715 1.023l-.284.378c1.385.724.882 2.802.661 4.014-.283 1.638-.755 3.196-1.81 4.519-1.526 1.889-3.714 3.29-4.438 5.714-.095.299.362.409.456.126.897-2.96 4.061-4.376 5.367-7.116.677-1.416.976-3.085 1.118-4.628.11-1.118 0-2.456-1.118-3.023-.22-.11-.503.189-.283.378.488.441 1.165.441 1.716.079.613-.409.802-1.165.865-1.873.252-2.377.142-4.88-.141-7.242-.284-2.361-.913-4.581-1.795-6.77-.928-2.33-1.888-4.8-1.18-7.335.063-.22-.236-.41-.394-.236-4.674 5.179-9.569 10.736-10.718 17.852-.047.283.409.409.456.11z" fill="#F3F3F3"/><path d="M174.989 80.673a86.48 86.48 0 00-6.028 25.298c-.031.299.441.299.472 0a86.242 86.242 0 016.013-25.172c.11-.268-.347-.394-.457-.126zm-44.983 24.732c3.857.834 7.618-1.024 11.333-1.764 4.092-.802 8.31-.802 12.418-.062.299.047.425-.394.126-.457a34.426 34.426 0 00-11.505-.142c-1.952.315-3.841.85-5.73 1.386-2.124.582-4.312 1.054-6.5.582-.315-.063-.441.378-.142.457zm48.192-1.448c2.235-.425 4.439.11 6.595.645 2.109.504 4.234.96 6.39 1.338 4.156.724 8.374 1.149 12.592 1.323.299.015.299-.457 0-.473a95.264 95.264 0 01-13.363-1.464c-2.14-.393-4.249-.881-6.359-1.385-1.967-.472-3.966-.819-5.981-.425-.283.047-.157.504.126.441zM.297 90.764c5.572-1.291 11.143-2.787 16.794-3.605 5.635-.803 11.348-.898 17.03-.41 10.923.945 21.532 3.81 32.234 6.03 5.902 1.228 11.868 2.235 17.896 2.645.299.015.299-.457 0-.473-11.05-.755-21.783-3.573-32.58-5.872-10.735-2.266-21.658-3.904-32.644-2.644-6.375.74-12.607 2.424-18.856 3.872-.3.063-.173.52.126.457z" fill="#F3F3F3"/><path d="M44.998 87.679c9.239-.803 18.289-2.976 27.245-5.306 9.16-2.392 18.32-4.817 27.48-7.241 9.145-2.409 18.274-4.88 27.45-7.226 4.565-1.165 9.176-2.22 13.866-2.66 4.518-.426 9.082-.363 13.599.062 10.546.976 20.808 3.794 30.991 6.596.299.08.425-.377.126-.456-8.956-2.472-17.958-4.943-27.198-6.171-4.595-.614-9.254-.929-13.897-.74-4.565.173-9.066.897-13.521 1.905-4.533 1.039-9.018 2.283-13.52 3.479l-13.787 3.636c-9.287 2.44-18.589 4.897-27.875 7.337-10.183 2.676-20.43 5.384-30.96 6.297-.298.047-.298.52 0 .488zM19.64 115.984l11.538.425c3.745.142 7.507.362 11.253.393 3.652.032 7.177-.676 10.766-1.322a105.72 105.72 0 0111.332-1.433 110.6 110.6 0 0112.718-.188c.299.015.299-.457 0-.473a109.253 109.253 0 00-22.209 1.307c-3.745.614-7.46 1.558-11.253 1.637-3.715.095-7.476-.189-11.19-.33l-12.939-.473c-.314-.031-.314.441-.015.457zm-7.728 20.623c.236.173.472.33.708.504.22.157.473-.189.284-.378l-2.157-2.251c-.33-.347-.724-.662-.991-1.055-.41-.598.015-.882.11-1.37.11-.503-.394-.787-.677-1.102-.63-.677-1.039-1.527-1.353-2.393-1.307-3.573-1.763-7.603-1.89-11.382l-.235.237c3.966-.362 6.264 3.384 7.586 6.549 1.48 3.51 2.833 7.178 3.006 11.035.016.299.488.299.473 0-.19-4.124-1.669-8.123-3.337-11.87-1.385-3.133-3.888-6.549-7.744-6.202-.126.015-.236.094-.236.236.079 2.031.267 4.046.598 6.045.33 1.952.708 3.967 1.432 5.809.268.677.598 1.322 1.04 1.889.314.394.849.74.66 1.322-.079.237-.236.363-.22.646.031.693.787 1.259 1.212 1.7l2.376 2.472.284-.378c-.236-.173-.473-.331-.709-.504-.236-.142-.472.268-.22.441z" fill="#F3F3F3"/><path d="M14.84 125.886a19.49 19.49 0 016.91-8.942c-.11-.031-.221-.063-.331-.078a24.405 24.405 0 011.794 6.297c.047-.095.11-.189.157-.284-.377.111-.755.221-1.149.331-.157.047-.204.205-.141.346.44 1.055.928 2.252.44 3.369-.409.929-1.29 1.622-1.904 2.393-1.117 1.385-1.983 2.928-2.644 4.565-.11.284.346.41.456.126.882-2.219 2.204-3.982 3.762-5.761.567-.646.992-1.354 1.023-2.236.031-.944-.362-1.842-.724-2.692-.047.11-.094.236-.142.346.378-.11.756-.22 1.15-.33.125-.032.188-.158.157-.283a25.411 25.411 0 00-1.842-6.423c-.047-.111-.22-.158-.33-.079a20.12 20.12 0 00-7.13 9.225c-.063.268.377.394.488.11zm-7.493-6.156c4.014 4.613 6.627 10.359 7.43 16.42.047.299.519.299.472 0a32.071 32.071 0 00-7.571-16.766c-.205-.22-.535.11-.33.346z" fill="#F3F3F3"/><path d="M16.98 130.861a34.263 34.263 0 013.117-7.493c.141-.268-.252-.504-.41-.237a35.296 35.296 0 00-3.163 7.604c-.094.299.362.425.456.126zm-9.474-19.71c5.509-1.071 11.143-1.48 16.684-.425 2.58.488 5.13 1.055 7.743 1.354 2.755.315 5.54.44 8.31.551.3.015.3-.457 0-.473-2.77-.126-5.555-.236-8.31-.551-2.864-.33-5.666-1.007-8.515-1.495-5.32-.913-10.781-.425-16.038.598-.3.047-.173.504.126.441zm20.76 18.717c3.148-.503 6.296-1.023 9.476-1.212 3.226-.189 6.342.079 9.506.661 2.896.536 5.698.788 8.657.725 3.069-.079 6.17-.221 9.16.582.3.079.425-.378.126-.457-2.896-.787-5.87-.692-8.846-.613-1.573.047-3.163.062-4.737-.063-1.621-.126-3.227-.457-4.816-.74-3.054-.551-6.092-.756-9.208-.567-3.164.205-6.311.708-9.444 1.212-.299.063-.173.52.126.472zm86.519 3.764a146.284 146.284 0 0117.801-1.48c5.808-.126 11.616.11 17.424.236.299 0 .299-.472 0-.472-5.903-.126-11.821-.362-17.739-.221-5.902.142-11.773.646-17.612 1.48-.299.047-.173.488.126.457zm26.159 3.383c2.25-.96 4.674.205 6.988.095.488-.032.991-.095 1.464-.252.645-.22 1.243-.567 1.936-.598 1.196-.063 2.313.393 3.509.204.3-.047.174-.503-.125-.456-1.338.22-2.645-.441-3.967-.142-.598.126-1.133.441-1.715.614-.598.158-1.212.189-1.826.173-2.188-.094-4.376-.928-6.516-.015-.252.078-.016.488.252.377zm31.841-17.395c3.966-1.18 7.932-1.149 11.993-.661 3.825.457 7.681 1.055 11.521.378.299-.047.173-.504-.126-.457-3.998.709-8.011-.015-11.993-.456-3.919-.441-7.744-.394-11.537.755-.268.079-.158.536.142.441zm-15.819-90.016c-2.927-1.575-4.832-4.629-4.391-8.013.394-3.102 2.88-5.778 5.918-6.502 3.101-.724 6.563.74 8.248 3.432 1.81 2.88 1.416 6.69-.803 9.24-2.518 2.897-6.925 3.338-10.105 1.292-.252-.174-.488.236-.236.409 2.959 1.92 7.051 1.795 9.79-.488 2.723-2.267 3.73-6.203 2.377-9.493-1.291-3.133-4.596-5.18-7.98-5.038-3.337.158-6.359 2.566-7.366 5.73-1.259 3.92.85 7.95 4.328 9.824.252.158.488-.252.22-.393zM21.12 64.033c1.606-1.432 3.857-.456 5.053.992.614.74.976 1.574 1.448 2.393.3.551.74 1.102 1.401 1.228.52.094.944-.094 1.29-.472.221-.252.363-.583.583-.835.472-.55 1.086-.488 1.59-.047 1.101.96 1.149 3.337 3.085 3.164.299-.031.299-.503 0-.472-2.015.189-1.779-3.196-3.715-3.526-.567-.095-1.023.157-1.37.598-.22.283-.361.677-.645.913-.818.677-1.542-.268-1.873-.913-.802-1.48-1.59-3.023-3.179-3.794-1.306-.63-2.896-.567-3.998.425-.22.205.11.551.33.346zm105.942-21.189c-.315-.85-.693-1.858-.126-2.692.519-.74 1.401-.362 2.141-.599.975-.314 1.573-1.275 1.841-2.203.315-1.087-.063-2.504.582-3.464.787-1.18 2.487.268 3.557-.456.252-.174.016-.583-.236-.41-1.086.74-2.565-.771-3.588.441-.819.96-.441 2.424-.708 3.558-.189.787-.614 1.621-1.354 2-.645.33-1.385 0-2.03.33-1.385.708-.945 2.471-.52 3.62.079.268.535.158.441-.125zm1.701-11.036a2.24 2.24 0 01.457-2.314c.724-.787 1.558-.473 2.455-.787.535-.19.85-.646 1.055-1.15.126-.314.204-.645.315-.96.094-.252.204-.535.393-.724.283-.268.96-.488 1.133.11.095.284.535.173.457-.126-.205-.661-.976-.897-1.574-.582-1.133.582-.724 2.314-1.779 2.896-.582.315-1.306.126-1.92.378a2.74 2.74 0 00-1.007.787c-.583.74-.772 1.716-.441 2.598.094.283.551.157.456-.126zm13.252 16.812c-.472-.676-.33-1.637.284-2.203.708-.662 1.731-.362 2.219.393 1.117 1.685-1.354 3.164-2.534 1.763-.205-.236-.535.11-.331.331.677.803 1.936.897 2.802.33.976-.63 1.054-1.904.378-2.802-.661-.881-1.889-1.18-2.771-.456-.834.677-1.086 1.968-.456 2.865.173.268.582.032.409-.22z" fill="#F3F3F3"/><path d="M143.794 51.234c-.44-.614-.991-1.354-.802-2.14.283-1.166 1.668-.867 2.298-.174.519.582.708 1.495.047 2.046-.504.425-1.275.504-1.731 0-.205-.22-.536.11-.331.331.63.677 1.7.614 2.377.032.802-.693.708-1.842.078-2.614-.629-.787-2.061-1.354-2.848-.456-.882 1.007-.142 2.314.503 3.211.173.252.583.016.409-.236zM37.946 84.042a20.97 20.97 0 005.383.913c.299.015.299-.457 0-.473a19.786 19.786 0 01-5.257-.897c-.3-.094-.425.362-.126.457zm118.045-12.594c10.703-.078 20.776 3.92 30.881 6.88 2.896.85 5.824 1.621 8.783 2.204.299.063.425-.394.126-.457-10.499-2.078-20.399-6.533-30.96-8.343-2.912-.504-5.871-.787-8.83-.756-.299 0-.299.472 0 .472zM50.773 3.188c.55 1.322 1.227 4.25 3.21 2.944.662-.425 1.638-1.669 2.346-.661.425.598.456 1.385 1.259 1.653.283.094.41-.362.126-.457-.74-.252-.74-1.385-1.338-1.842-.393-.299-.881-.283-1.306-.063-.63.3-1.086.976-1.747 1.197-1.18.393-1.779-2.141-2.094-2.897-.126-.268-.582-.157-.456.126zm4.896.284c.881-.677 2.172-.362 2.612.661.268.645.473 1.023 1.228 1.07.362.016.755-.11 1.117-.047.756.126.756.787.882 1.401s.41 1.15 1.07 1.228c.3.032.3-.44 0-.472-.865-.094-.503-1.873-1.18-2.377-.724-.535-1.81.173-2.377-.488-.267-.315-.346-.74-.63-1.055a2.009 2.009 0 00-.85-.582 2.125 2.125 0 00-2.093.267c-.267.173-.031.583.22.394zm14.164 14.845c.992.205 2.046-.425 2.314-1.433.252-.944-.362-1.841-1.26-2.14-2.093-.709-3.257 2.172-1.557 3.353.252.173.488-.237.236-.41-1.197-.834-.457-2.928 1.07-2.534.661.173 1.212.771 1.086 1.48-.142.802-.96 1.385-1.763 1.212-.299-.047-.425.409-.126.472z" fill="#F3F3F3"/><path d="M71.36 19.119c-.377-.3-.834-.63-.991-1.118-.22-.66.409-1.448 1.149-1.26.52.143.881.74.755 1.276-.157.598-.834.897-1.4.756-.3-.079-.425.378-.127.456.772.19 1.622-.173 1.937-.929.298-.74-.11-1.637-.835-1.952-.724-.299-1.558.095-1.873.787-.44.96.362 1.764 1.07 2.315.205.189.551-.142.315-.331zM39.96 50.21c-.724-.645-.866-1.62-.157-2.345.614-.614 1.527-.598 2.109.047 1.212 1.354-.535 3.117-1.968 2.189-.251-.174-.487.236-.236.409.85.55 2.015.362 2.676-.394.677-.787.472-1.968-.252-2.66-.771-.724-1.92-.677-2.66.063-.897.897-.755 2.204.158 3.022.22.205.55-.126.33-.33zm67.097-44.503c.912-2 2.187-3.779 3.761-5.306.221-.204-.11-.55-.33-.33a18.04 18.04 0 00-3.841 5.415c-.126.252.284.504.41.22zm1.967-.315a26.488 26.488 0 013.132-3.243c.236-.205-.11-.535-.33-.33a27.658 27.658 0 00-3.133 3.242c-.189.236.142.567.331.33zm1.197 1.416c.425-.362.85-.708 1.275-1.07.236-.189-.11-.535-.33-.33-.425.361-.85.708-1.275 1.07-.236.189.094.52.33.33z" fill="#F3F3F3"/><path d="M132.493 8.194a2.298 2.298 0 100-4.596 2.298 2.298 0 000 4.596zm-1.055 3.574a1.37 1.37 0 100-2.74 1.37 1.37 0 000 2.74zM58.895 72.834a1.684 1.684 0 100-3.369 1.684 1.684 0 000 3.369zm2.738 4.613a.929.929 0 100-1.858.929.929 0 000 1.858zm16.4-25.426c.142 1.37.582 2.582 2.14 2.55.536 0 .992-.157 1.401.253.378.377.268.755.425 1.227.079.236.19.457.41.614.283.205 1.353.205 1.259.677-.063.3.393.425.456.126.11-.535-.252-.85-.755-.992-.724-.204-.897-.488-1.008-1.133-.047-.3-.11-.598-.315-.85-.409-.488-1.07-.425-1.636-.41-.614.032-1.197-.015-1.527-.613-.252-.441-.315-.977-.362-1.465-.047-.283-.52-.283-.488.016zm1.605 5.794c.819-.866 1.795.016 2.047.882.11.346.126.677.377.944.567.63 1.606.284 2.125.945.189.236.52-.095.33-.33-.346-.442-.834-.505-1.353-.615-.488-.11-.755-.283-.944-.771-.126-.3-.142-.614-.315-.913-.535-.96-1.794-1.338-2.597-.488-.22.236.11.566.33.346zm55.908-1.59c-.299-.567.33-.992.803-.645.141.094.362-.032.362-.205-.048-.535.488-.929.991-.74.283.11.409-.346.126-.456-.787-.3-1.653.362-1.59 1.196.126-.063.236-.142.362-.205-.897-.645-1.951.347-1.448 1.291.126.268.536.032.394-.236zm2.676-.252c-.11-.267.646-.315.772-.315.393.016.771.08 1.164.11.299.032.299-.44 0-.471-.614-.063-1.306-.237-1.904.015-.394.173-.614.488-.441.898.11.283.519.031.409-.237z" fill="#0071BC"/><path d="M56.202 74.865a1.857 1.857 0 100-3.715 1.857 1.857 0 000 3.715zm17.582-69.63a2.503 2.503 0 100-5.006 2.503 2.503 0 000 5.006zm-45.361 96.769a3.163 3.163 0 100-6.327 3.163 3.163 0 000 6.327zm107.988-11.161a1.621 1.621 0 100-3.243 1.621 1.621 0 000 3.243z" fill="#FF6871"/><path d="M118.375 127.729c3.337-.803 6.69-1.622 10.026-2.425 2.141.158 5.32.205 9.098-.425 3.588-.598 10.466-2.283 10.419-4.14-.031-1.228-3.1-2.11-8.168-3.574a79.237 79.237 0 00-8.043-1.857 94.499 94.499 0 01-6.721 2.991 89.3 89.3 0 01-9.239 3.133 791.008 791.008 0 002.628 6.297z" fill="#2D2D2D" stroke="#2D2D2D" stroke-miterlimit="10"/><path d="M110.129 124.532c3.336-.803 6.689-1.621 10.026-2.424 2.14.157 5.32.205 9.097-.425 3.589-.598 10.467-2.283 10.419-4.14-.031-1.228-3.1-2.11-8.168-3.574a79.57 79.57 0 00-8.043-1.858 93.604 93.604 0 01-6.721 2.991 89.062 89.062 0 01-9.239 3.133 472.163 472.163 0 002.629 6.297z" fill="#2D2D2D" stroke="#2D2D2D" stroke-miterlimit="10"/><path d="M92.909 95.456c-2.975 1.606-5.54 3.385-5.981 3.684-1.511 1.054-5.037 3.526-8.53 7.131-5.163 5.321-9.507 9.792-9.224 15.459.252 5.101 4.108 8.643 4.533 9.021 6.878 6.139 21.579 3.904 36.421-5.557-.535-2.818-1.055-5.62-1.59-8.438 1.322-.268 4.313-1.071 7.036-3.637 3.384-3.196 4.139-7.068 4.328-8.328a20.017 20.017 0 00-.677-4.943c-1.495-5.604-5.052-9.146-6.941-10.768-4.895.85-12.261 2.566-19.375 6.376z" fill="#fff" stroke="#2D2D2D" stroke-miterlimit="10"/><path d="M104.162 98.4a69.384 69.384 0 00-5.98 3.684c-3.904 2.724-6.659 5.337-8.532 7.132-6.689 6.423-11.442 10.783-10.813 16.073.614 5.085 5.698 8.155 6.123 8.391 2.975 1.732 5.997 1.779 8.42 1.653 10.892-.567 23.106-5.211 28.001-7.21-.535-2.818-1.054-5.62-1.59-8.438 1.323-.441 5.069-1.921 7.54-5.825.377-.598 1.699-2.787 2.061-5.919.111-.898.237-2.787-.755-6.707-.614-2.424-1.716-5.809-3.777-9.65-4.345.771-12.828 2.566-20.698 6.817z" fill="#fff" stroke="#2D2D2D" stroke-miterlimit="10"/><path d="M102.73 122.691a49.778 49.778 0 0017.187-2.613c.284-.095.158-.551-.126-.457a48.688 48.688 0 01-17.061 2.598c-.299-.016-.299.456 0 .472z" fill="#2D2D2D"/><path d="M101.203 121.037a3.562 3.562 0 001.715 1.512c.283.11.52-.284.236-.41a3.199 3.199 0 01-1.542-1.338c-.158-.267-.567-.031-.409.236z" fill="#2D2D2D"/><path opacity=".12" d="M111.12 109.372c-5.478 3.07-8.311 2.566-13.757 6.817-1.416 1.117-9.695 7.588-8.64 14.152.094.551.582 3.637 2.88 4.849.976.52 1.936.488 3.274.394 4.485-.347 7.948-1.197 8.373-1.307 5.509-1.37 4.58-.803 8.373-1.826a78.304 78.304 0 009.822-3.401c-.52-2.755-1.055-5.494-1.574-8.249a17.54 17.54 0 004.328-2.881c1.165-1.054 4.486-4.046 5.241-8.768.41-2.535-.094-4.471-.912-7.604a33.57 33.57 0 00-2.881-7.336c-4.91 8.611-10.419 12.877-14.527 15.16z" fill="#2D2D2D"/><path opacity=".11" d="M105.232 95.786c-.22-.377-7.146 2.771-15.063 8.517-9.79 7.1-15.22 11.303-15.456 17.286-.267 6.973 9.287 12.798 9.696 12.436.22-.204-5.54-4.187-5.635-9.949-.063-3.763 2.33-6.738 6.548-11.004 10.781-10.91 20.178-16.83 19.91-17.286z" fill="#2D2D2D"/><path opacity=".12" d="M127.488 99.203c-.724 2.865-2.219 7.1-5.493 11.272-6.972 8.863-16.872 10.909-19.768 11.398.487.472.96 1.007 1.448 1.574 2.612 3.148 3.903 6.517 4.58 9.162 4.281-1.48 8.562-2.975 12.827-4.455-.661-2.613-1.306-5.242-1.967-7.856a16.784 16.784 0 005.635-3.794c.865-.897 2.959-3.085 3.934-6.549 1.417-5.132-.566-9.508-1.196-10.752z" fill="#2D2D2D"/><path d="M93.457 53.516c1.322.189 1.888 4.14 2.077 5.447.771 5.305-.866 7.682-1.117 14.184-.205 5.163.74 5.4.314 7.918-.63 3.684-3.541 8.407-13.882 12.69-.771.833-2.14 2.14-4.124 2.974-4.17 1.764-9.648.85-10.387-1.684-.252-.85-.016-2.03.566-2.582.945-.913 2.392.394 4.785-.472.126-.047 1.196-.44 1.165-.724-.016-.173-.425-.236-.913-.3-2.22-.314-2.88-.251-2.928-.44-.079-.315 1.621-1.401 3.825-2.031a20.79 20.79 0 016.83-.771c2.472-2.787 4.959-5.573 7.43-8.36-.236-3.589-.19-8.705 1.165-14.514.991-4.22 3.336-11.603 5.194-11.335z" fill="#fff" stroke="#2D2D2D" stroke-miterlimit="10"/><path opacity=".12" d="M93.521 53.439c-1.936.031-3.683 7.73-4.045 13.192-.456 6.911 1.354 9.068 0 13.302-.897 2.803-3.163 6.408-9.254 9.682-4.801 4.015-7.996 4.44-10.105 3.936-1.29-.3-2.896-1.134-3.62-.425-.614.598-.33 2.078.314 3.085 1.543 2.346 6.186 1.78 8.83.85 2.456-.865 4.077-2.377 5.005-3.4 2.157-.582 7.193-2.267 11.38-7.021 4.077-4.629 5.037-9.556 5.525-12.232 1.873-10.186-1.669-21.017-4.03-20.97z" fill="#2D2D2D"/><path d="M117.398 44.386c5.603 1.18 9.853 5.919 11.694 10.28 2.031 4.785.85 8.532-.283 16.45-.771 5.432-1.606 13.256-1.606 23.032-1.699 1.291-9.742 7.179-20.697 5.683-6.957-.944-11.71-4.392-13.803-6.14.346-2.518.692-6.422.283-11.145-.598-6.644-2.204-9.241-2.503-14.5-.189-3.32.095-8.217 2.645-14.356a65.537 65.537 0 015.996-3.621c7.87-4.204 12.796-6.833 18.274-5.683z" fill="#FF6871"/><path opacity=".14" d="M111.951 51.737c1.448 3.873 3.494 11.052 2.408 19.93-1.81 14.751-11.049 23.867-13.914 26.48a27.28 27.28 0 0013.111 1.731c6.847-.787 11.537-3.967 13.505-5.478-.173-6.549.22-11.996.661-16.042 1.353-12.184 3.793-16.577 1.196-23.267-.614-1.59-2.676-6.911-7.885-9.367a13.096 13.096 0 00-3.479-1.07c-.315 1.117-1.039 3.116-2.801 4.942a11.138 11.138 0 01-2.802 2.142z" fill="#2D2D2D"/><path opacity=".21" d="M129.47 57.357c-4.14 11.24-8.295 22.465-12.435 33.705-3.604 2.944-7.224 5.888-10.828 8.832 2.691.236 6.972.252 11.899-1.196a32.518 32.518 0 009.223-4.408 130.308 130.308 0 010-7.085c.22-7.43.315-11.145 1.338-15.648.944-4.156 2.219-7.32 1.338-12.043a16.376 16.376 0 00-.535-2.157z" fill="#2D2D2D"/><path d="M62.783 89.866c1.873 4.534 3.762 9.068 5.635 13.586 7.618-2.645 15.251-5.305 22.87-7.95-1.826-4.36-3.652-8.737-5.462-13.098l-23.043 7.462z" fill="#fff" stroke="#2D2D2D" stroke-miterlimit="10"/><path d="M60.327 74.879a50.98 50.98 0 018.61 7.95 52.537 52.537 0 015.634 7.95c2.99-4.644 5.966-9.289 8.956-13.917-3.478-3.873-6.957-7.73-10.435-11.602-4.266 3.211-8.515 6.407-12.765 9.618zM46.54 53.28v12.768c3.258-1.606 6.516-3.212 9.774-4.802 2.156-1.055 4.312-2.11 6.468-3.148-.613-3.102-1.211-6.187-1.825-9.288-4.8 1.48-9.601 2.975-14.418 4.47zm-9.492-27.14c1.605 3.81 3.21 7.62 4.8 11.43 5.682-3.26 11.38-6.518 17.062-9.777-2.377-4.534-4.753-9.068-7.13-13.586a52.466 52.466 0 01-5.462 5.463 53.66 53.66 0 01-9.27 6.47zm-23.531 4.975c-.503 2.928-.991 5.856-1.495 8.785 5.792-1.323 11.6-2.645 17.392-3.983l-.33-9.62c-5.179 1.607-10.373 3.212-15.567 4.818z" fill="#fff" stroke="#2D2D2D" stroke-miterlimit="10"/><path d="M62.956 90.26c5.446.803 10.845 1.81 16.196 3.022.3.063.425-.393.126-.456a210.772 210.772 0 00-16.196-3.023c-.299-.031-.425.425-.126.457z" fill="#2D2D2D"/><path d="M85.509 82.625a56.862 56.862 0 01-6.343 10.264c-.19.236.141.567.33.33a57.126 57.126 0 006.422-10.358c.126-.268-.284-.504-.41-.236zM64.23 75.823a51.023 51.023 0 018.799-7.446c.252-.173.016-.582-.236-.41a52.113 52.113 0 00-8.893 7.526c-.22.204.126.55.33.33zm2.283 1.417a44.745 44.745 0 016.532-5.919c.236-.173 0-.582-.236-.409a44.383 44.383 0 00-6.626 5.998c-.22.22.11.55.33.33zm1.982 2.646a63.768 63.768 0 018.436-7.919c.236-.189-.094-.52-.33-.33a63.704 63.704 0 00-8.437 7.918c-.204.22.142.551.33.33zm3.368 3.195c.897-1.448 2.093-2.676 3.274-3.904 1.29-1.307 2.581-2.63 3.872-3.936.22-.22-.126-.55-.33-.33-1.354 1.385-2.708 2.754-4.061 4.14-1.165 1.18-2.283 2.393-3.164 3.794-.157.252.252.488.41.236zm-4.075 13.696a12.91 12.91 0 001.4 3.637c.142.268.551.032.41-.236a12.487 12.487 0 01-1.354-3.526c-.063-.3-.52-.174-.456.125z" fill="#2D2D2D"/><path d="M68.164 97.061a13.35 13.35 0 015.084-1.779c-.095-.047-.19-.11-.284-.157.315 1.023.614 2.03.929 3.054.094.283.55.173.456-.126-.314-1.023-.614-2.031-.928-3.054-.047-.142-.158-.19-.284-.158a13.58 13.58 0 00-5.194 1.827c-.283.141-.047.55.22.393z" fill="#2D2D2D"/><path d="M69.488 100.602a58.524 58.524 0 004.407-2.046c.267-.142.031-.551-.236-.41a59.316 59.316 0 01-4.297 2c-.283.126-.158.582.126.456zm12.04-7.099a20.1 20.1 0 015.493-1.968c.3-.063.174-.52-.126-.457a20.219 20.219 0 00-5.603 2.015c-.283.142-.031.551.236.41zm.566 1.353a510.2 510.2 0 003.148-1.37c.283-.125.031-.534-.236-.409-1.055.457-2.11.913-3.148 1.37-.283.126-.032.52.236.41zM47.955 54.933c3.746-1.244 7.492-2.755 11.38-3.51.298-.064.172-.52-.127-.457-3.871.771-7.633 2.267-11.38 3.51-.283.095-.157.552.127.457zm-.063 2.031a68.303 68.303 0 0111.112-3.998c.3-.08.173-.536-.126-.457a69.157 69.157 0 00-11.222 4.046c-.267.126-.031.535.236.41zm-.282 2.047a81.752 81.752 0 004.644-2.078c.267-.126.03-.535-.237-.41a83.1 83.1 0 01-4.533 2.032c-.267.11-.157.566.126.456zm.865 1.7a120.598 120.598 0 0110.183-4.597c.283-.11.157-.566-.126-.456a120.907 120.907 0 00-10.293 4.644c-.284.141-.032.55.236.409zm-9.428-33.595a58.913 58.913 0 0012.403-8.123c.235-.205-.11-.536-.331-.33a59.045 59.045 0 01-12.308 8.06c-.284.125-.047.535.236.393zm.961 2.046a53.527 53.527 0 005.399-3.59c.236-.172 0-.597-.236-.408a53.516 53.516 0 01-5.399 3.589c-.267.157-.031.567.236.41zm1.196 1.433c4.03-2.157 7.901-4.55 11.632-7.195.251-.173.015-.582-.236-.409a107.494 107.494 0 01-11.632 7.194c-.268.142-.031.551.236.41zm1.007 2.44a76.373 76.373 0 0012.702-7.273c.252-.174.016-.583-.236-.41a75.125 75.125 0 01-12.702 7.274c-.283.125-.047.519.236.409z" fill="#2D2D2D"/><path opacity=".13" d="M64.104 72.266l5.053-1.133c2.392 5.037 4.784 10.075 7.177 15.097 2.392-3.102 4.784-6.187 7.177-9.288A6944.327 6944.327 0 0172.95 65.544c-2.96 2.251-5.903 4.487-8.846 6.722z" fill="#2D2D2D"/><path opacity=".21" d="M51.734 52.178c-.882 4.046-1.763 8.108-2.645 12.154 4.502-2.157 9.003-4.33 13.52-6.486-.66-2.866-1.306-5.746-1.967-8.612-2.975.992-5.95 1.968-8.908 2.944z" fill="#2D2D2D"/><path opacity=".08" d="M72.037 87.142l2.644 6.424c1.464.33 2.912.66 4.376.975 1.59 1.103 3.163 2.22 4.753 3.322 2.408-.834 4.832-1.668 7.24-2.487-1.841-4.172-3.667-8.36-5.509-12.531-2.408.724-4.832 1.464-7.24 2.188l-3.777 6.045c-.834-1.322-1.653-2.629-2.487-3.936z" fill="#2D2D2D"/><path opacity=".15" d="M16.479 31.303c-.756 2.63-1.495 5.274-2.251 7.903l15.063-3.495c-.174-3.022-.33-6.045-.504-9.067a6352.42 6352.42 0 01-12.308 4.66z" fill="#2D2D2D"/><path opacity=".11" d="M44.179 22.314c.582 8.501 1.023 12.736 1.338 12.736.094 0 .173-.425.251-1.243 4.124-2.079 8.264-4.157 12.387-6.235-2.077-3.888-4.155-7.76-6.233-11.65-2.596 2.126-5.178 4.267-7.743 6.392z" fill="#2D2D2D"/><path d="M125.504 50.73c2.125-.283 4.706 5.888 5.808 9.572 1.857 6.234 1.196 11.696.567 16.766-.677 5.4-1.008 8.107-2.298 10.94-4.171 9.163-14.654 12.674-18.762 13.807a19.828 19.828 0 01-5.871 2.975c-5.839 1.795-13.504 1.024-14.559-1.983-.346-1.008-.015-2.393.787-3.039 1.338-1.07 3.337.457 6.705-.566.174-.047 1.669-.52 1.621-.85-.031-.205-.582-.268-1.274-.347-3.101-.362-4.03-.299-4.093-.52-.094-.377 2.283-1.636 5.352-2.392 2.392-.583 5.603-1.086 9.569-.913 3.872-3.558 7.744-7.132 11.616-10.69-.031-8.69.661-15.852 1.369-21.11 1.48-10.674 2.755-11.555 3.463-11.65z" fill="#fff" stroke="#2D2D2D" stroke-miterlimit="10"/><path d="M90.153 102.681c.598.645 1.7.834 2.503 1.071 1.18.33 2.392.582 3.62.739.299.048.425-.409.126-.456a25.696 25.696 0 01-3.054-.598c-.865-.221-2.25-.41-2.864-1.102-.205-.205-.535.126-.33.346zm.267-1.433a13.495 13.495 0 006.484 2c.299.015.299-.457 0-.473a12.768 12.768 0 01-6.249-1.936c-.252-.157-.503.252-.236.409zm.833-1.101a15.548 15.548 0 007.067 1.7c.3 0 .3-.472 0-.472-2.392 0-4.706-.551-6.83-1.638-.268-.141-.504.268-.237.41z" fill="#2D2D2D"/><path opacity=".15" d="M124.684 51.422a43.798 43.798 0 013.84 14.5c.409 4.8 1.086 12.987-3.84 21.142-4.848 8.013-12.198 11.193-14.921 12.358-2.739 1.18-7.335 3.101-13.3 2.471a22.52 22.52 0 01-5.713-1.369c-.3.661-.583 1.605-.252 2.471 1.07 2.818 7.744 2.771 11.332 2.22 1.999-.299 5.32-1.102 9.035-3.574 4.47-1.322 15.582-5.258 18.918-14.152.976-2.598 1.559-6.329 1.873-8.36.441-2.865 1.086-7.163.677-12.704 0 0-.598-8.013-5.036-14.578-.205-.315-.677-.976-1.37-1.023-.535-.031-1.007.362-1.243.598z" fill="#2D2D2D"/><path opacity=".09" d="M132.02 72.486c-.472-.079-1.479 5.148-2.55 8.438-1.857 5.7-6.39 13.24-18.415 20.718a28.995 28.995 0 0010.483-4.692c1.967-1.417 5.288-3.794 7.586-8.186 1.59-3.038 2.015-5.762 2.55-9.288.488-3.101.74-6.927.346-6.99z" fill="#2D2D2D"/><path d="M88.562 21.811l-.236 10.894c-1.101 4.597.614 9.257 4.187 11.618 3.888 2.566 8.232 1.276 8.861 1.07.032.882 0 1.984-.236 3.228a14.674 14.674 0 01-.834 2.865c1.92 1.795 3.699 2.251 4.675 2.393 4.627.677 9.915-3.038 12.686-9.461a22.472 22.472 0 01-2.991-3.952c-.598-.991-1.983-3.495-2.754-7.068-.787-3.652-.016-4.14-.598-6.817-.661-3.054-2.566-6.517-5.147-8.264-4.344-2.881-11.647-1.606-17.613 3.494z" fill="#fff" stroke="#2D2D2D" stroke-miterlimit="10"/><path d="M87.917 34.137c-1.101.599-1.18 2.362-1.29 4.692-.11 2.172-.22 4.77 1.416 7.367 1.244 1.984 2.928 2.96 3.62 3.353 3.589 2.047 7.24 1.417 8.389 1.165-.724-.299-1.463-.598-2.187-.897a9.31 9.31 0 003.997-1.039c1.637-.85 2.566-1.983 3.353-2.975.929-1.165 2.392-3.322 3.227-6.58-.41-.71-1.984-3.574-1.165-7.1a9.357 9.357 0 012.062-4c.96.064 1.479.457 1.684.646 1.054.96 1.18 2.928.126 4.786a5.763 5.763 0 002.062-2.85c.55-1.668.11-3.07-.126-3.872-.299-.96-.74-2.393-2.062-3.101-.378-.205-.976-.457-1.684-.394-2.267.22-2.739 3.857-5.383 7.21-1.983 2.503-6.06 5.935-10.073 5.479-3.022-.347-4.47-2.708-5.966-1.89z" fill="#2D2D2D" stroke="#2D2D2D" stroke-miterlimit="10"/><path d="M93.459 27.857c.189 2.488.22 4.99.078 7.478-.015.22.268.299.41.173.787-.693 1.574-1.385 2.345-2.078.22-.205-.11-.535-.33-.33-.788.692-1.575 1.385-2.346 2.078.142.063.268.11.41.173.141-2.488.11-4.99-.08-7.478-.03-.315-.503-.315-.487-.016zm-3.401 2.424c-.063-.173-.268-.866.11-.866.22 0 .22.378.22.52 0 .142 0 .378-.11.504-.11.141-.267.031-.315-.126-.047-.158-.015-.33 0-.488.048-.3-.409-.425-.456-.126-.079.503-.016 1.322.692 1.275.504-.032.646-.63.646-1.055 0-.44-.19-1.055-.756-.992-.74.095-.692.945-.52 1.464.127.3.583.174.489-.11z" fill="#2D2D2D"/><path d="M90.389 30.14c-.11-.127-.11-.347 0-.489l-.378-.047c.126.173.157.425.016.598l.377.047c-.047-.078-.377-.535-.11-.55-.031 0 0-.048-.015.03 0 .064.015.143.015.221 0 .047-.031.252-.11.205-.252-.173-.488.236-.236.41.283.188.645 0 .756-.284.11-.268.11-.803-.174-.976-.251-.158-.598-.016-.74.22-.188.33 0 .693.19.976.078.11.267.173.377.047.268-.33.315-.802.063-1.164-.078-.11-.267-.174-.377-.048a.883.883 0 000 1.15c.204.204.535-.127.346-.347zm8.83-.504c-.158-.142-.347-.472-.063-.614.283-.141.33.236.33.425 0 .11.032.551-.157.551-.173 0-.268-.362-.315-.472-.079-.283-.535-.173-.456.126.125.41.44.96.944.787.488-.157.504-.881.425-1.29-.095-.489-.583-.804-1.039-.52-.504.314-.393.976 0 1.338.22.204.551-.126.33-.33z" fill="#2D2D2D"/><path d="M99.549 29.762a1.165 1.165 0 01-.032-.614c-.11.047-.236.095-.346.142.11.063.11.268 0 .33.11.048.236.095.346.142-.094-.204-.173-.425-.267-.63-.048-.11-.158-.204-.284-.157-.11.031-.22.173-.157.283.094.205.173.425.267.63.063.142.205.236.347.142.409-.252.409-.898 0-1.15-.126-.078-.315-.015-.347.142-.063.3-.047.583.032.866.078.283.52.157.44-.126zm-10.167-2.347c.504-.928 1.747-1.054 2.377-.173.173.252.582.016.41-.236-.835-1.15-2.503-1.102-3.196.173-.141.268.268.504.41.236zm8.263-.046c.677-1.118 2.267-1.023 2.754.205.111.283.567.157.457-.126-.645-1.606-2.723-1.81-3.62-.315-.158.252.252.488.409.236zm-14.921-4.156a531.542 531.542 0 0124.506 1.983c.913.095.897-1.322 0-1.416a490.9 490.9 0 00-24.506-1.984c-.913-.047-.913 1.37 0 1.417z" fill="#2D2D2D"/><path d="M88.029 22.174c.126-1.212.645-4.33 3.148-6.88 3.384-3.447 9.286-4.644 13.945-1.889 3.651 2.173 5.776 6.313 5.524 10.705-7.539-.63-15.078-1.29-22.617-1.936z" fill="#0071BC"/><path opacity=".11" d="M110.914 33.383c-.016.126-.221 1.18-1.165 1.653a2.107 2.107 0 01-1.165.204c.96 1.228 4.895 6.55 3.652 13.067a14.478 14.478 0 01-1.574 4.266 17.313 17.313 0 003.714-3.101 17.355 17.355 0 003.101-4.88 33.507 33.507 0 01-3.101-4.613 33.663 33.663 0 01-2.754-6.533c-.252-.016-.472-.047-.708-.063z" fill="#2D2D2D"/><path opacity=".12" d="M93.444 27.951c-.567 2.173-1.15 4.36-1.716 6.533.645.252 1.29.504 1.92.756-.063-2.44-.126-4.865-.204-7.289z" fill="#2D2D2D"/><path opacity=".69" d="M98.37 12.539c-1.621 1.48-.724 5.95 2.125 10.69 3.368.298 6.736.613 10.104.912.111-1.385.126-4.077-1.432-6.659-2.66-4.392-8.798-6.753-10.797-4.943z" fill="#0071BC"/></svg>