<svg width="172" height="190" fill="none" xmlns="http://www.w3.org/2000/svg"><path d="M165.712 153.737c-2.932-2.327-6.01-4.819-8.942-7.145-1.172-.997-2.198 1.163-1.172 2.16l6.156 4.985c-.293.166-.439.498-.439.996 0 .665-7.769.997-18.47 1.33-1.906-33.066-2.492-66.297-1.906-99.529 0-.996-.879-1.329-1.465-1.163.146-.664-.147-1.661-1.026-1.661a126.81 126.81 0 00-19.496.997.799.799 0 00-.733.498c-.586 0-1.173.333-1.173 1.163.587 32.9.733 65.799.147 98.532 0 .664.293.997.733 1.163h-10.261c.147-.166.147-.333.147-.665.293-29.742 0-59.484-.733-89.226 0-.333-.147-.665-.293-.831-.147-.499-.44-.831-1.026-.831-7.183.166-14.366.665-21.548 1.662-.586 0-.88.498-1.026.996-.587 0-1.173.333-1.026 1.164a1432.19 1432.19 0 011.759 86.9c0 .166 0 .332.146.498h-8.208a519.763 519.763 0 01-1.76-60.48c0-.832-.586-1.164-1.025-1.164-.147-.332-.44-.498-.88-.498-7.036-.665-13.925-.831-20.961-.665-1.173 0-1.32 1.662-.587 2.326a590.668 590.668 0 001.76 60.315c0 .166 0 .166.146.333-3.665 0-7.33 0-11.14.166a1.593 1.593 0 000-1.163l-.147-.167c-.293-.498-.586-.498-.88-.498.733-1.662.88-3.489.733-5.317 0-1.994.147-4.154.147-6.148.147-3.655.293-7.311.44-10.8.293-5.649 1.759-12.462 1.026-17.945 0-.499-.44-.665-.733-.831-5.717-2.492-14.365-1.495-20.522-1.994-.586 0-1.172.665-1.172 1.163 0 14.788-.44 29.41-1.76 44.198-3.81 0-7.622 0-11.433.166-.293-46.69 1.32-93.546 4.838-140.237 1.026 1.994 2.052 3.822 3.078 5.816.733 1.33 2.638.166 1.905-1.33-1.612-2.99-3.078-5.815-4.69-8.806v-.166c0-.664-.293-.997-.733-1.163 0 0 0-.166-.147-.332-.44-.83-1.466-.83-1.905 0-1.32 2.99-2.639 5.815-3.958 8.64-.733 1.495 1.173 2.659 1.905 1.33l2.492-5.484a1909.106 1909.106 0 00-5.277 141.899H1.1c-1.465 0-1.465 2.492 0 2.492h3.518v9.471c0 1.661 2.2 1.661 2.2 0v-9.471l86.776-.997 46.32-.499c6.303 0 14.366 1.496 20.522-.332l-2.785 2.825c-1.026.997.44 2.825 1.612 1.828 2.199-2.16 4.398-4.487 6.597-6.647.586-.498.293-1.329-.147-1.827zm-126.061-30.74c-.294 4.653-.587 9.305-.733 13.958-.293 5.649-1.906 14.455 0 19.606-6.157.166-12.313.166-18.323.166.733-8.806 1.173-17.778 1.466-26.585.146-2.658-1.173-12.129.146-14.289 1.906-3.157 8.649-.997 11.434-.831 5.277.498 6.45 1.994 6.01 7.975zm14.658 33.398v-.332a588.788 588.788 0 01-1.759-60.15c6.303-.165 12.753.167 19.056.665a577.685 577.685 0 001.759 59.651c-6.303 0-12.606.166-19.056.166zm31.662-.332c.147-.166.147-.333.147-.499.293-28.911-.294-57.822-1.76-86.734 6.743-.997 13.633-1.495 20.522-1.662.733 29.41.88 58.82.733 88.396 0 .166 0 .499.147.665-8.063 0-15.099-.166-19.79-.166zm32.688 0c.44-.166.733-.499.733-1.163.586-32.567.44-65.3-.147-97.867 6.45-.83 12.753-1.163 19.203-.997h.293v.332c-.587 33.232.146 66.297 1.905 99.529-6.742.166-14.365.166-21.987.166z" fill="#2D2D2D"/><path d="M123.35 5.69c-.733.498-1.613.997-2.346 1.495a.837.837 0 00-.879 0c-1.759.997-3.665 1.994-5.424 3.157-1.172.665-.293 2.825.88 2.327.439-.167 1.026-.499 1.466-.665-4.105 6.314-8.209 12.462-12.607 18.61-2.198 3.157-4.544 6.314-6.889 9.47-3.225 4.154-4.25 4.487-7.769.665-2.052-1.994-4.104-5.317-7.036-3.988-4.104 1.994-8.795 11.133-11.58 14.788l-7.476 9.97c-3.078 3.988-3.664 5.15-7.329 1.662-2.199-2.16-5.863-6.148-9.235-5.151-3.518.996-6.156 7.975-7.915 10.966-4.69 7.81-9.381 15.619-14.219 23.262-.733 1.33 1.173 2.492 1.906 1.33 4.25-6.98 8.355-13.792 12.606-20.77 2.346-3.822 5.717-11.798 10.7-11.465 2.932.166 6.743 5.815 8.796 8.142.44.498 1.172.498 1.612 0 4.984-6.647 9.968-13.293 14.952-19.773 1.319-1.828 5.57-9.471 7.475-9.97 3.518-.83 7.916 5.483 10.261 7.81.44.498 1.173.498 1.612 0 9.089-12.13 17.884-24.592 26.092-37.552.293-.166.44-.332.733-.498-1.026 2.824-2.052 5.483-2.932 8.308-.586 1.495 1.613 2.16 2.053.664 1.319-3.822 2.785-7.643 4.104-11.465.44-.997-.733-1.827-1.612-1.329z" fill="#2D2D2D"/><path d="M53.456 97.52l1.617 57.878H71.25c-2.157 0-1.079-59.706-1.618-57.878-.431 1.462-10.964.609-16.176 0zm32.892-27.356l1.65 85.234h16.509c-2.201 0-1.1-87.925-1.651-85.234-.44 2.153-11.189.897-16.508 0z" fill="#0071BC"/></svg>