<svg width="191" height="140" fill="none" xmlns="http://www.w3.org/2000/svg"><path d="M10.153 58.552c-2.276-.755-4.362-1.888-6.448-3.21-.948-.755-1.896-1.51-2.655-2.643-.759-1.133-1.138-2.455-.759-3.777.76-2.643 2.845-4.154 4.931-5.476 2.086-1.321 4.172-2.265 6.448-3.21v1.511c-2.276-.944-4.551-2.455-5.69-4.72-.568-1.133-.758-2.455-.758-3.777 0-.566 0-1.322.38-1.888.19-.755.758-1.51 1.517-1.888.758-.378 1.706-.378 2.275-.19.759.19 1.328.379 1.897.756 1.138.567 2.086 1.322 3.034 2.266s1.707 1.888 2.276 3.021c.569 1.133 1.137 2.266 1.137 3.776l-2.275-.566c5.879-9.44 13.844-17.182 22.947-23.225 9.292-6.42 19.533-10.951 30.153-13.217C79.373-.36 90.37-.548 101.37.962c10.809 1.133 21.429 4.343 31.48 8.12l-1.138.188c4.931-3.21 10.241-4.91 15.93-5.664 5.5-.756 11.379-.378 16.689.944l3.982 1.133a9.253 9.253 0 012.086.755c.569.378 1.517.755 1.897 1.7.189.566.189 1.132 0 1.51l-.569 1.133c-.38.566-.949 1.133-1.328 1.7l-2.655 3.02c-3.603 4.154-6.258 8.875-7.585 14.162v-.567c3.034 4.532 5.689 9.252 7.775 14.35.948 2.455 1.896 5.099 2.465 7.93.379 2.644.569 5.854-1.138 8.309l-.758-1.133c3.793.377 7.585 1.133 10.999 2.643 3.603 1.51 7.017 3.588 9.103 6.987 2.275 3.398 2.655 7.552 1.896 11.329-.758 3.776-2.276 7.364-4.172 10.574l-5.689 9.63c-1.897 3.209-3.603 6.419-6.448 9.629-.759.755-1.707 1.511-3.034 1.888-1.328.378-2.466.189-3.603 0-2.087-.566-3.604-1.321-5.5-1.888-3.414-1.322-6.827-2.455-10.43-3.399l2.086-1.888c.758 5.854.758 11.707-.759 17.749-.758 2.832-1.896 5.854-3.793 8.308-1.896 2.455-4.361 4.721-7.396 5.854-2.844 1.321-6.068 1.699-9.103 1.699h-2.275c-.759 0-1.517-.189-2.276-.189l-2.276-.566c-.758-.189-1.517-.567-2.275-.944-.759-.378-1.328-.945-2.086-1.511-.759-.566-1.138-1.322-1.707-1.888-.379-.755-.948-1.511-1.138-2.266-.19-.755-.569-1.511-.759-2.455-.569-3.21-.379-6.231.569-9.441l2.276 2.644c-5.5 1.133-10.999 2.266-16.499 3.021-5.5.755-11.189 1.322-16.688 1.699-5.69.189-11.379.189-17.068-.566-2.845-.378-5.69-1.133-8.534-2.455-2.655-1.133-5.5-3.21-7.017-6.231l3.603-.755a81.605 81.605 0 01-1.706 9.819c-.949 3.209-2.086 6.419-4.362 9.252-1.138 1.321-2.465 2.832-4.172 3.587-1.707.944-3.603 1.322-5.5 1.322l-4.93-.378c-1.707-.189-3.224-.189-4.931-.566-1.707-.378-3.414-1.133-5.12-2.266-1.518-1.322-2.655-2.832-3.224-4.532-1.328-3.21-1.707-6.608-1.897-10.007-.19-6.609.38-13.029.948-19.448l.38.755c-2.655-3.021-4.741-6.231-6.448-9.819-1.707-3.398-3.034-7.175-3.983-10.951a58.232 58.232 0 01-1.706-11.518c-.19-1.888 0-3.776 0-5.853 0-1.889.379-3.777.379-5.665h.38c0 1.888-.19 3.776-.19 5.664 0 1.889 0 3.777.19 5.665.189 3.776 1.137 7.553 2.085 11.14.948 3.588 2.466 7.175 4.362 10.385 1.707 3.21 3.793 6.61 6.448 9.064l.38.377v.567c-.38 6.42-.76 12.84-.38 19.071.19 3.209.758 6.231 1.896 8.874.57 1.322 1.328 2.455 2.466 3.21 1.137.755 2.275 1.322 3.792 1.51 1.518.378 3.035.378 4.552.567l4.74.189c1.328 0 2.656-.189 3.794-.944 1.138-.567 2.086-1.7 3.034-2.833 1.707-2.265 2.845-5.287 3.603-8.308.759-3.021 1.328-6.042 1.517-9.063l.38-6.231 3.034 5.476c1.138 1.888 3.034 3.398 5.31 4.343a32.021 32.021 0 007.586 2.077c5.31.755 10.81.755 16.309.566 5.5-.189 10.999-.944 16.309-1.699 5.5-.756 10.809-1.7 16.309-3.021l3.414-.756-.949 3.399c-1.517 4.721-.948 10.763 3.224 12.84.569.189.949.566 1.707.755l1.897.378c.568 0 1.327.188 1.896.188h1.896c2.655 0 5.31-.377 7.586-1.321 4.741-1.888 7.775-6.609 9.103-11.707 1.327-5.098 1.517-10.952.758-16.238v-1.7l2.276.567c3.603.944 7.207 2.265 10.81 3.587 1.706.755 3.413 1.511 5.12 1.888 1.707.378 2.465.189 3.603-.944 1.138-1.133 2.086-2.643 3.224-4.154a186.35 186.35 0 013.034-4.72l5.879-9.441c1.897-3.021 3.414-6.42 4.172-9.819.759-3.398.38-6.986-1.327-10.007-1.896-3.021-4.931-5.098-8.155-6.42-3.413-1.322-7.016-2.266-10.62-2.643h-1.517l.759-.945c1.327-2.077 1.517-4.72.948-7.363-.379-2.644-1.327-5.099-2.276-7.553-.948-2.455-2.275-4.91-3.413-7.175-1.328-2.266-2.655-4.72-4.172-6.987l-.19-.188v-.19c1.517-5.475 4.172-10.384 7.775-14.727l2.845-3.399c.379-.566.948-.944 1.138-1.51.379-.567.569-.944.379-1.322-.19-.378-.569-.567-1.138-.944-.569-.189-1.138-.567-1.896-.567l-3.983-1.133c-5.31-1.133-10.809-1.321-16.119-.377-5.31.944-10.431 2.832-14.792 5.664l-.569.378-.379-.189c-10.051-3.587-20.482-6.23-31.102-7.364-5.31-.755-10.62-.755-15.93-.566-5.31.189-10.62.944-15.74 1.888-10.24 2.266-20.292 6.42-29.015 12.273-4.362 3.021-8.534 6.231-12.327 10.008-3.793 3.587-7.396 7.741-10.24 12.084l-2.276 3.399v-3.966c0-1.699-1.328-3.776-2.655-5.286-.759-.756-1.517-1.511-2.466-1.889-.758-.566-1.896-.755-2.275-.566-.38.189-.759 1.133-.948 2.077 0 .944 0 1.888.569 2.832.758 1.7 2.654 3.21 4.55 3.965l1.897.756-1.896.755c-2.086.944-4.172 1.7-6.258 3.021-1.897 1.133-3.793 2.455-4.552 4.532-.569 2.077.949 4.154 2.655 5.476 1.707 1.51 3.983 2.643 6.069 3.398v.378z" fill="#2D2D2D"/><path d="M12.807 49.489c.19.944 0 1.7-.19 2.454-.19.567-.569 1.322-1.327 1.7-.759.377-1.707.377-2.466.755-.19 0-.379.189-.758.189-.38 0-.759-.378-.948-.567-.38-.566-.57-.944-.57-1.321-.379-.756-.568-1.51-.568-2.266 0-.755 0-1.51.19-2.077.568-1.322 1.327-2.455 2.844-3.399l.38.189c.758 1.7.758 3.021.758 4.154 0 .566-.38 1.133-.569 1.7-.19.566-.569 1.132-.948 1.699-.19.188-.38.566-.38.566h-.19.19c.38-.378.38-1.133.57-1.7.19-.566.758-.943 1.327-1.321s1.138-.755 2.276-.755h.379z" fill="#2D2D2D"/><path d="M102.059 51.071c-1.145-7.867-2.8-15.86-3.182-23.855 4.328 1.27 8.401 4.188 11.837 6.472.128.127.255-.127.255-.254-2.291-3.807-7.001-7.487-12.092-9.263 0-2.03.127-4.187.382-6.218 0-.126-.127-.126-.127 0a49.763 49.763 0 00-.764 6.091c-1.655-.507-3.182-.761-4.837-.761-.127-2.157-.254-4.441-.254-6.598 0-.635-1.018-.762-1.146-.127-.382 2.284-.763 4.695-.89 6.979-1.273.253-2.419.634-3.564 1.268-6.11 3.553-13.238 14.339-7.128 20.937 3.436 3.68 8.018 5.076 12.6 6.344 0 .254.128.635.128.889 1.273 9.897.254 21.317 2.29 31.468-4.327-2.284-8.654-7.487-12.982-9.136-.763-.254-1.654.634-1.4 1.396 2.164 5.836 8.782 11.8 15.528 12.688.382 1.142.764 2.157 1.146 3.3.636 1.395 2.546.507 2.546-.635v-2.665c.381-.127.891-.253 1.272-.38.128 1.522.255 3.045.382 4.44.127.889 1.528.889 1.655 0 .254-1.903.382-3.806.636-5.836.382-.254.764-.634 1.273-.888 8.655-7.614 10.819-19.668 4.455-29.438-2.037-3.046-4.837-4.822-8.019-6.218zM98.114 27.09c-.255 7.74.636 15.48 1.4 23.094-.891-.254-1.782-.634-2.8-.888-.891-7.614-2.292-14.973-3.055-22.586 1.654-.127 3.054 0 4.454.38zm-11.71 18.653c-8.528-4.314-2.673-15.48 4.2-18.272.127 0 .255-.127.51-.127-.128 6.979.763 13.958 1.526 20.81-2.163-.761-4.327-1.396-6.236-2.411zm13.746 39.716c-.382-4.188-1.146-8.502-1.527-12.689-.51-6.471-.891-12.943-1.4-19.414.89.254 1.781.635 2.672 1.015.637 6.218 1.273 12.308 1.528 18.526.127 4.06 0 8.12.127 12.181-.382.127-.891.254-1.4.38zm6.746-5.837a24.224 24.224 0 01-2.164 3.045c.127-9.009-.891-18.398-2.036-27.027l.763.38c8.019 4.95 7.637 16.496 3.437 23.602z" fill="#0071BC"/></svg>