<svg width="224" height="225" fill="none" xmlns="http://www.w3.org/2000/svg"><path d="M107.87 36.024c.621 2.79.931 5.268 1.241 8.057l-.31 7.746-.931 15.804-.621 15.803-.62 8.056c-.621 2.48-.931 5.268-1.552 7.747-.931-2.479-1.241-5.268-1.551-8.056l.31-8.057.62-15.803.931-15.803.311-7.747c.62-2.479 1.241-4.958 2.172-7.747zm21.412 4.958c.621 2.79.931 5.268 1.552 8.057v7.747l-.311 15.803v23.549c-.31 2.48-.93 5.268-1.241 8.057-.931-2.479-1.241-5.268-1.862-7.747V72.59l.311-15.803V49.04c.31-3.099.62-5.578 1.551-8.057zm20.171.93c.62 2.789.931 5.578 1.241 8.367l-.31 8.056-.621 16.423c-.31 5.577-.31 10.845-.31 16.423v8.056c-.311 2.789-.931 5.578-.931 8.057-1.241-2.479-1.552-5.268-2.172-8.057v-8.366c0-5.578.31-10.845.31-16.423l.621-16.423.31-8.056c.31-2.79.931-5.578 1.862-8.057zm19.55.93c.31 2.789.31 5.577.31 8.676l-1.241 8.366c-.621 5.578-1.552 11.156-2.173 16.733-.62 5.578-1.241 11.155-1.551 16.733-.31 2.789-.31 5.577-.31 8.366-.621 2.789-.931 5.578-1.242 8.367a40.576 40.576 0 01-1.862-8.367c0-2.789.311-5.577.311-8.366.31-5.578.931-11.155 1.551-16.733.621-5.577 1.242-11.155 2.172-16.733l1.242-8.366c.62-3.099 1.551-5.887 2.793-8.676z" fill="#2D2D2D"/><path d="M184.519 44.391a573.906 573.906 0 00-32.584-1.86c-10.861-.619-21.722-.619-32.583-1.239-21.722-1.239-43.445-1.859-65.167-2.169l1.552-1.24c-1.242 13.325-2.793 27.579-3.724 41.523 0 1.86-.31 3.408 0 4.958-.31-.62.31.31.93.31.621.31 1.552.62 2.173.93 3.103 1.239 6.517 2.168 9.93 3.098C71.873 90.56 78.7 92.11 85.527 93.66a1948.424 1948.424 0 0082.855 15.803c3.414.62 6.827 1.239 10.551 1.549l2.483.31h1.551c.31 0 .621 0 .931.31.31 0 .31.31.621.31.31.31.62.619.62.929.621 2.169.621 4.029.931 5.888 0 7.437-2.172 14.563-6.516 20.761-4.345 5.887-11.482 9.915-18.619 11.155-3.724.62-7.138.93-10.862.62-3.723-.31-7.137-.62-10.55-.93-7.138-.62-13.965-1.549-21.102-2.169-7.137-.62-13.964-1.549-21.102-2.479l-21.101-2.479c-6.827-.929-13.965-1.859-20.792-3.408 6.827 1.239 13.965 1.549 21.102 2.169l21.102 1.549c7.137.62 13.964.93 21.101 1.549l21.102 2.169c3.413.31 7.137.93 10.551.93 3.413.31 6.827 0 10.24-.62 6.517-1.239 12.723-4.338 16.757-9.915 4.035-5.268 5.896-12.085 5.896-18.902 0-1.55 0-3.409-.62-4.648 0 0 0-.31 0 0l.31.31c.31 0 .31.31.621.31h-1.862l-2.793-.31c-3.413-.31-7.137-.93-10.551-1.55-27.928-4.648-55.547-9.915-83.165-15.803-6.827-1.55-13.654-3.099-20.481-4.958-3.414-.93-6.827-1.859-10.24-3.098-.932-.31-1.552-.62-2.483-.93-.31-.31-.931-.31-1.241-.93-.31 0-.621-.31-.931-.62 0 0-.31-.31-.31-.929v-6.197c.31-14.254 1.861-28.198 3.102-42.452 0-.62.931-1.24 1.552-1.24 21.722.31 43.445.93 65.477 2.17 5.586.31 10.861.62 16.447 1.24l16.137 1.549c10.55.93 21.412 2.169 32.273 3.718z" fill="#2D2D2D"/><path d="M202.827 10.306c-1.861-1.55-4.344-1.86-6.206-.93s-3.103 3.099-3.724 4.958c-2.172 4.028-3.413 8.366-4.344 13.014-1.862 9.296-2.793 18.592-3.414 28.198-.62 9.606-.62 18.902-.62 28.508v14.254c-.311 4.648-.621 9.605-1.242 14.253-.62-4.648-1.241-9.605-1.861-14.253V84.054c0-9.606.31-19.212.62-28.508.621-9.606 1.552-19.212 3.414-28.508.931-4.648 2.482-9.296 4.654-13.944 1.552-2.168 3.414-4.028 5.896-4.957 1.242-.31 2.793-.31 4.035 0 1.241.62 2.172 1.24 2.792 2.169zM65.046 37.264c.62 2.169.931 4.338 1.241 6.817l-.31 6.507-.93 13.014c-.311 4.338-.311 8.676-.311 13.015v6.507c-.31 2.169-.931 4.338-.931 6.507-1.241-1.86-1.552-4.338-2.172-6.507v-6.507c0-4.339.31-8.677.62-13.325l.62-13.324.311-6.507c.62-1.86 1.242-4.028 1.862-6.197zm21.102.62c.62 2.479.93 4.958 1.241 7.127l-.31 7.127c-.31 4.648-.31 9.605-.62 14.253v14.254c0 2.48 0 4.648.31 7.127-.621 2.789-.621 4.958-.621 7.437-1.242-2.17-1.862-4.648-2.483-7.127-.31-2.479-.31-4.958-.31-7.127V66.391c0-4.957.31-9.605.62-14.253l.31-7.127c.311-2.48.932-4.648 1.863-7.127z" fill="#2D2D2D"/><path d="M181.726 87.152c-5.586-.31-10.861-.62-16.447-.93l-16.137-2.478-32.583-5.268-32.583-5.268-16.447-2.479-16.137-4.028c5.586 0 11.172.62 16.447.93l16.137 2.479 32.583 5.267 32.583 5.268 16.137 2.479c5.586 1.24 11.171 2.479 16.447 4.028zm1.551-30.057c-5.585.31-11.171.31-16.446.62l-16.447-.93-32.584-1.24-32.583-.929H68.77c-2.793-.31-5.586-.31-8.068-.62h-4.034c-1.242 0-2.793 0-4.035.62 2.483-1.55 5.276-1.55 8.069-2.169 2.793-.31 5.585-.62 8.068-.93h16.447c10.861.31 21.722.62 32.894.93l32.583 1.24 16.447.62c5.275.929 10.551 1.859 16.136 2.788zM71.253 143.858c-2.793 1.239-4.965 4.028-6.517 6.197-.93.93-1.552 2.169-1.862 3.099v1.549c0 .31 0 .62.31.93l.621.929c.31.62.931.93 1.241 1.55.31.619.931.929 1.552 1.239.62.31 1.241.93 1.862 1.24l1.862.929c2.482 1.549 5.585 2.479 8.068 2.479 2.793 0 4.965-1.239 5.896-3.718s.931-5.268 0-8.057c-.93-2.479-2.793-4.958-4.965-6.197-.931-.93-2.172-1.549-3.724-2.169-1.241-.31-2.793-.31-4.344 0zm0 0c1.551-.31 3.103-.93 4.654-.93 1.552-.31 3.414 0 5.276.62 3.103 1.859 5.275 4.648 6.517 8.056.93 3.099 1.24 6.817 0 10.226-.621 1.549-1.862 3.099-3.414 4.338-1.552.93-3.413 1.549-5.275 1.549-3.414 0-6.827-1.239-9.62-2.788l-2.172-1.24c-.621-.31-1.242-.929-2.173-1.239-.62-.31-1.24-.93-1.862-1.55l-1.861-1.859-.621-1.239c-.31-.31-.31-.93-.31-1.24-.31-.929-.31-1.859 0-3.098.31-1.86 1.24-3.719 2.482-4.648 1.241-1.24 2.793-1.86 4.345-2.479 1.24-1.24 2.482-1.859 4.034-2.479zm77.269 6.817c-2.793.93-5.896 2.169-8.379 3.409l-3.723 1.859c-.931.93-1.862 1.859-1.862 2.789-.311 2.169 1.241 4.648 2.793 6.817 1.861 2.169 4.034 4.028 6.516 4.958 2.483.929 5.276.619 7.758-.62 1.241-.62 2.172-1.549 3.103-2.479.621-.93 1.552-2.169 1.862-3.409.621-2.478-.31-4.957-2.172-6.817-1.552-2.479-3.724-4.648-5.896-6.507zm0 0c3.103.93 5.586 2.479 8.379 4.648 1.241 1.24 1.862 2.789 2.482 4.338.621 1.55.621 3.719.31 5.268-.93 3.409-3.413 6.197-6.516 7.747-3.103 1.549-6.827 1.859-9.93.619-3.104-1.239-5.896-3.408-8.069-5.887-.931-1.239-1.862-2.479-2.793-4.028-.93-1.55-1.241-3.409-.93-5.268.31-1.859 1.861-3.409 3.103-4.648 1.551-.93 2.793-1.859 4.344-2.479 3.414-.31 6.517-.62 9.62-.31z" fill="#2D2D2D"/><path d="M72.483 145.798c-5.778 3.929-13.035 12.619 4.16 15.947 21.493 4.16-1.387-22.88-4.16-15.947zm74.879 6.934c-7.627-2.774-20.107 13.173-2.08 16.64 18.026 3.466 9.706-13.867 2.08-16.64z" fill="#0071BC"/></svg>