<svg width="288" height="237" fill="none" xmlns="http://www.w3.org/2000/svg"><path d="M199.333 53.702a3.664 3.664 0 003.659-3.67 3.664 3.664 0 00-3.659-3.668 3.664 3.664 0 00-3.659 3.669 3.664 3.664 0 003.659 3.669zm3.883-10.173c.942 0 1.706-.766 1.706-1.711 0-.945-.764-1.71-1.706-1.71s-1.706.765-1.706 1.71.764 1.71 1.706 1.71zM91.361 21.269c.967 0 1.751-.786 1.751-1.756s-.784-1.755-1.75-1.755c-.968 0-1.752.786-1.752 1.755 0 .97.784 1.756 1.751 1.756zm114.571 205.468a2.967 2.967 0 002.963-2.971 2.967 2.967 0 00-2.963-2.971 2.967 2.967 0 00-2.963 2.971 2.967 2.967 0 002.963 2.971zM71.091 236.91a1.372 1.372 0 000-2.746c-.756 0-1.369.615-1.369 1.373s.613 1.373 1.37 1.373zm17.104-101.417c.782 0 1.415-.635 1.415-1.418 0-.783-.633-1.418-1.415-1.418-.78 0-1.414.635-1.414 1.418 0 .783.633 1.418 1.414 1.418z" fill="#EC615B"/><path d="M90.98 142.718c.756 0 1.369-.615 1.369-1.373a1.37 1.37 0 00-1.37-1.373 1.37 1.37 0 00-1.369 1.373c0 .758.613 1.373 1.37 1.373zm-1.64 38.261a2.562 2.562 0 002.56-2.566 2.562 2.562 0 00-2.56-2.565 2.562 2.562 0 00-2.559 2.565 2.562 2.562 0 002.56 2.566zM197.29 35.156c.893 0 1.617-.725 1.617-1.62a1.62 1.62 0 00-1.617-1.621c-.892 0-1.616.726-1.616 1.62 0 .896.724 1.621 1.616 1.621zm-61.483 2.836c.782 0 1.415-.635 1.415-1.418 0-.783-.633-1.418-1.415-1.418-.781 0-1.414.635-1.414 1.418 0 .783.633 1.418 1.414 1.418zM9.72 148.907a1.08 1.08 0 001.077-1.081 1.079 1.079 0 10-2.155 0 1.08 1.08 0 001.078 1.081zm192.464 85.256a2.697 2.697 0 002.694-2.7 2.697 2.697 0 00-2.694-2.701 2.697 2.697 0 00-2.694 2.701c0 1.491 1.206 2.7 2.694 2.7zM231.028 2.926c.781 0 1.414-.635 1.414-1.418 0-.783-.633-1.418-1.414-1.418-.781 0-1.414.635-1.414 1.418 0 .783.633 1.418 1.414 1.418zM93.629 65.248c-.225-1.396-.427-4.187 1.795-3.961.808.09 1.257.81 2.155.495 1.684-.585 1.302-2.769 1.998-4.03 1.145-2.025 3.367.924 5.073-.044.561-.315.696-.9.674-1.508-.045-2.273 1.953-2.116 3.591-1.666.427.113.606-.54.18-.652-1.661-.45-4.422-.608-4.49 1.8-.022.585.292 1.17-.561 1.53-.269.113-.718-.022-.965-.09-.584-.18-1.1-.584-1.706-.742-.786-.225-1.549-.068-2.088.563-.673.81-.65 1.913-.965 2.858-.337 1.013-.988 1.598-2.087 1.103-.45-.203-.854-.383-1.37-.315-2.312.315-2.2 3.128-1.908 4.839.09.428.74.248.674-.18zm2.647 1.305c.18-1.395 1.302-2.003 2.604-2.003.696 0 1.392.112 2.065-.135 1.527-.585 1.235-2.25 1.594-3.556.674-2.476 3.794-.946 5.522-1.35 1.168-.293 2.155-1.464 1.661-2.702-.157-.405-.808-.225-.651.18.764 1.869-1.84 1.981-2.94 1.846-.808-.09-1.594-.225-2.402-.022-1.28.337-1.773 1.282-1.953 2.498-.157 1.125-.135 2.363-1.594 2.543-.785.09-1.571-.135-2.357.045-1.257.293-2.065 1.35-2.222 2.611-.067.473.606.473.673.045zm46.376-55.277c-.785.99-1.616 2.205-1.234 3.533.314 1.08 1.167 1.486 2.2 1.418.606-.045 1.234-.202 1.728.338.382.405.135 1.26.022 1.71-.179.698-.516 1.373-.448 2.116.112 1.013.92 1.8 1.952 1.576.427-.09.247-.743-.179-.653-1.953.45-.606-2.814-.516-3.601.067-.653-.045-1.373-.539-1.846-.494-.473-1.1-.428-1.729-.36-.987.113-1.908-.203-1.953-1.396-.022-.9.607-1.71 1.145-2.385.315-.293-.179-.788-.449-.45zm5.298-.337c-1.055.45-1.728 1.553-1.459 2.7.135.518.449 1.013.898 1.329.539.405 1.168.315 1.706.652 1.01.608.202 1.8.247 2.746.023.473.135.9.539 1.193.606.473 1.504.315 1.751-.45.134-.405-.516-.585-.651-.18-.853-.113-1.145-.495-.898-1.148l.135-.675c.045-.225.067-.45.067-.676 0-.472-.135-.967-.494-1.305-.539-.495-1.369-.293-1.953-.698-1.19-.832-.763-2.408.449-2.926.404-.157.045-.72-.337-.562z" fill="#5222D0"/><path d="M1.167 143.978c-.516-.811-.516-1.801 0-2.634.516-.81 1.235-.833 2.065-1.148 1.145-.472 1.168-1.665 1.1-2.745-.022-.383-.045-.788.068-1.171.291-.9 1.055-.653 1.75-.54.404.067.786 0 1.123-.225.426-.293.696-.81.83-1.306.113-.405.135-.832.225-1.237.045-.293.135-.563.27-.811.358-.562.785-.607 1.301-.112.112.427.763.247.651-.18-.404-1.463-2.2-.81-2.649.225-.202.472-.224.99-.336 1.485-.068.293-.113.608-.27.878-.336.608-.965.495-1.549.428-.695-.068-1.234-.135-1.683.517-.516.743-.382 1.621-.382 2.476.023 1.035-.202 1.441-1.212 1.778-.404.135-.74.203-1.1.473-1.302.923-1.639 2.836-.786 4.164.225.382.809.045.584-.315zm2.807 1.553c-.943-.135-.584-1.171-.158-1.576.315-.292.741-.472 1.145-.675.494-.248.988-.54 1.347-.968.965-1.215-.426-2.836.92-3.803 1.347-.946 4.961-1.373 3.906-3.894-.157-.405-.74-.045-.583.337.763 1.823-2.941 2.364-3.884 3.129-.336.27-.628.63-.763 1.058-.27.945.516 1.913-.18 2.813-.808.99-2.536.99-2.94 2.386-.247.788.18 1.733 1.032 1.868.405.045.584-.608.158-.675zm246.067-52.307c-.292-.517-.247-1.08.067-1.575.494-.72 1.078-.563 1.841-.495.516.045.987.157 1.481-.135.876-.54.741-1.666.898-2.521.359-2.003 2.088-.18 3.255-.81.427-.226.584-.653.673-1.103.158-.878.202-3.489 1.886-2.431.359.225.718-.36.337-.585-1.504-.923-2.716.607-2.851 2.025-.09.81 0 1.598-1.078 1.486-.381-.045-.763-.248-1.144-.293-.606-.067-1.145.113-1.482.653-.381.63-.247 1.418-.404 2.093-.337 1.53-1.639.675-2.694.855-1.414.248-2.065 1.958-1.391 3.151.224.405.808.068.606-.315zm3.345 1.418c-.382-1.035.808-2.183 1.841-1.642.134.067.314.067.404-.046.516-.562.651-1.215.875-1.935.404-1.306 1.369-1.486 2.537-1.846 1.144-.36 2.424-1.305 1.953-2.656-.158-.405-.809-.225-.651.18.651 1.778-2.537 1.914-3.48 2.566-1.145.81-.808 2.273-1.683 3.219.134-.023.269-.045.404-.045-1.504-.788-3.412.765-2.829 2.408.135.383.786.225.629-.203zm-90.665 5.897c.045 0 .539 1.215.741 1.373.314.248.696.27 1.077.203.674-.113 1.1-.608 1.684-.923 1.257-.72 1.257.517 1.751 1.215.561.833 1.167.428 1.818.023.426-.27.831-.45 1.212-.068.202.203.337.54.494.788.247.36.516.653.92.833.382.18.741-.405.337-.586-.92-.405-1.033-1.935-2.132-2.093-.517-.067-.741.225-1.145.45-.494.293-.786.496-1.1-.067-.135-.225-.157-.54-.314-.765-.719-1.193-1.841-.54-2.739.045-.157.112-.314.225-.494.315-.382-.113-.786-.225-1.167-.338-.157-.157-.157-.54-.292-.743-.224-.315-.449-.405-.808-.337-.449.09-.269.743.157.675zm5.275-2.16c.674-1.058 2.222 1.147 2.851 1.417.382.158.741.158 1.145.045.179-.045.336-.135.494-.202.606-.248 1.122-.09 1.616.338.718.607.92 1.417 1.953 1.643.606.135 1.167-.045 1.436-.631.18-.382-.404-.742-.583-.337-.629 1.35-2.357-1.306-2.806-1.598-.831-.54-1.347-.09-2.178.09-1.324.27-1.75-1.216-2.85-1.576-.651-.225-1.28-.112-1.639.495-.269.36.314.698.561.316z" fill="#EC615B"/><path d="M251.883 137.721h35.781c.426 0 .426-.675 0-.675h-35.781c-.427 0-.427.675 0 .675z" fill="#E8E8E8"/><path d="M261.647 137.564v10.443c0 .428.673.428.673 0v-10.443c0-.428-.673-.428-.673 0zm16.656-.338v-14.585c0-.428-.673-.428-.673 0v14.585c0 .45.673.45.673 0z" fill="#E8E8E8"/><path d="M270.379 122.912h13.536c.426 0 .426-.676 0-.676h-13.536c-.427 0-.427.676 0 .676zm-8.868-81.048v12.604c0 .427.674.427.674 0V41.864c0-.428-.674-.428-.674 0z" fill="#E8E8E8"/><path d="M251.03 55.435h24.288c.426 0 .426-.675 0-.675H251.03c-.449 0-.449.675 0 .675z" fill="#E8E8E8"/><path d="M275.093 55.345v8.373c0 .427.674.427.674 0v-8.373c0-.428-.674-.428-.674 0zM49.654 28.742H73.45c.426 0 .426-.676 0-.676H49.654c-.426 0-.449.676 0 .676z" fill="#E8E8E8"/><path d="M72.461 28.674v6.483c0 .427.674.427.674 0v-6.482c0-.45-.674-.45-.674 0zm-7.206-.54V17.758c0-.427-.674-.427-.674 0v10.376c0 .45.674.45.674 0zM2.582 98.109h16.431c.427 0 .427-.675 0-.675H2.582c-.427 0-.427.675 0 .675z" fill="#E8E8E8"/><path d="M12.616 91.334v6.077c0 .428.674.428.674 0v-6.077c0-.427-.674-.427-.674 0z" fill="#E8E8E8"/><path d="M8.665 91.671h8.755c.426 0 .426-.675 0-.675H8.665c-.449 0-.449.675 0 .675zm98.858 141.909h21.953c.427 0 .427-.676 0-.676h-21.953c-.449 0-.449.676 0 .676z" fill="#E8E8E8"/><path d="M121.037 232.904v-4.749c0-.428-.674-.428-.674 0v4.749c0 .45.674.45.674 0z" fill="#E8E8E8"/><path d="M118.994 228.177h9.113c.427 0 .427-.675 0-.675h-9.113c-.427 0-.427.675 0 .675zM3.098 221.74H25.05c.427 0 .427-.676 0-.676H3.098c-.427 0-.427.676 0 .676z" fill="#E8E8E8"/><path d="M13.244 212.917v7.788c0 .427.673.427.673 0v-7.788c0-.427-.673-.427-.673 0z" fill="#E8E8E8"/><path d="M13.244 211.904H4.468c-.427 0-.427.675 0 .675h8.776c.427 0 .427-.675 0-.675zm233.879-9.97c-.741-.742-.561-2.183.584-2.43.606-.136 1.19.247 1.773.315.449.067.921.022 1.212-.383.449-.585.09-1.26.068-1.913-.045-2.048 2.379-1.913 3.591-1.193.27.158.561-.113.494-.383-.583-2.813 2.626-4.749 4.826-2.88.337.27.808-.203.472-.473-2.716-2.296-6.69.045-5.949 3.556.157-.135.337-.248.494-.383-1.033-.63-2.357-.945-3.457-.247-.404.247-.763.63-.943 1.08a1.977 1.977 0 00-.179.945c.022.608.224.563-.225 1.148-.494.653-.539.36-1.234.203a2.015 2.015 0 00-.741-.09 2.043 2.043 0 00-1.437.698c-.785.877-.583 2.115.202 2.903.292.315.763-.158.449-.473zm4.378.675c-.247-2.048 3.098-2.07 4.041-3.488.246-.36.336-.765.493-1.148.292-.698.809-1.148 1.572-1.35 1.234-.316 2.514.247 3.636.72.404.157.584-.495.18-.653-2.065-.855-4.849-1.508-5.994 1.013-.404.9-.538 1.395-1.481 1.868-.561.27-1.145.428-1.684.743-.853.495-1.526 1.26-1.414 2.295.045.428.718.428.651 0zm-96.547-65.451c.449 1.126.898 2.274 1.347 3.399.045-.135.112-.248.157-.383-.247.158-.494.315-.741.496-.382-.901-.224-1.126.494-.721.426.27.628.856.718 1.328.202 1.081-.022 2.206-.381 3.241-.09.27.179.45.404.405 1.346-.27 1.885 1.351 1.616 2.364-.202.742-.606 1.395-1.01 2.048-.225.36.359.698.583.337.719-1.125 1.549-2.52 1.055-3.916-.381-1.035-1.324-1.688-2.424-1.485l.404.405c.449-1.306.741-2.949.18-4.277-.382-.877-1.257-1.553-2.245-1.26-.763.225-1.145.99-.786 1.733.606 1.238 1.661.405 2.447-.112.112-.068.202-.248.157-.383-.449-1.125-.898-2.273-1.347-3.399-.134-.382-.785-.225-.628.18zM22.201 30.678c-.426-1.08 1.01-1.373 1.684-.99.516.292.853.81 1.167 1.282.292.428.606.9.764 1.396.18.427.157.833-.068 1.238-.786.36-1.19.27-1.212-.248-.202-.743.584-1.238 1.257-1.215.696.022 1.347.427 1.818.922.808.856 1.1 1.981.988 3.129.202-.068.427-.113.628-.18-.448-.653-.022-1.35.584-1.688.516-.27 1.1-.203 1.594.067.808.428 1.37 1.216 1.886 1.936.246.36.83.023.583-.338-.853-1.192-2.132-2.858-3.816-2.475-1.235.27-2.222 1.71-1.414 2.835.202.293.584.158.628-.18.202-2.138-1.369-5.064-3.883-4.704-.898.136-1.549.766-1.549 1.689 0 .72.45 1.462 1.212 1.507.898.068 1.504-.81 1.55-1.62.067-1.125-.809-2.34-1.482-3.174-.629-.742-1.55-1.373-2.537-.99-.808.293-1.347 1.103-1.01 1.936.135.45.786.27.628-.135zm118.252 33.018c-.942-.563-.269-2.229.786-1.53 1.01.674-.337 1.822-.988 1.035-.269-.338-.74.135-.471.472.516.63 1.504.585 2.087.068.674-.608.494-1.598-.202-2.093-.695-.496-1.706-.406-2.132.405-.427.765-.135 1.8.606 2.228.337.202.673-.36.314-.585zm71.518-49.224c-.494-.697.359-1.755 1.144-1.44-.067-.045-.134-.113-.202-.158.427.743-.202 1.756-1.032 1.71.112.09.224.158.314.248-.135-.382-.292-.788-.426-1.17-.158-.405-.809-.225-.651.18.134.383.291.788.426 1.17.045.158.157.248.314.248.719.045 1.347-.405 1.661-1.035.247-.496.382-1.53-.224-1.846-1.324-.653-2.694 1.328-1.908 2.43.247.36.83.023.584-.337zm18.272 33.468c-.112-.517.269-1.08.786-1.193.471-.09.898.293 1.01.72.292 1.013-1.033 1.486-1.661.788-.292-.315-.763.158-.472.473 1.168 1.305 3.412.022 2.694-1.643-.314-.743-1.1-1.215-1.885-.968-.831.27-1.325 1.148-1.145 2.003.134.428.785.248.673-.18zm-72.865 186.292c-.853-.405-.786-1.575 0-2.026.763-.427 1.482-.045 2.178.271.583.27 1.257.517 1.773 0 .471-.451.381-1.148.404-1.733.09-2.274 2.29-1.824 3.794-1.261.404.158.583-.495.179-.653-1.324-.517-3.165-1.012-4.22.293-.314.383-.404.833-.427 1.305-.022.316.113 1.013-.067 1.306-.494.743-1.167.067-1.683-.158-.988-.427-2.402-.315-3.008.721-.517.877-.202 2.07.718 2.498.404.202.741-.383.359-.563zm10.864-53.05a99.066 99.066 0 001.078 24.713c.067.428.718.247.651-.18a98.622 98.622 0 01-1.055-24.533c.045-.428-.629-.428-.674 0z" fill="#E8E8E8"/><path d="M168.691 181.7a49.316 49.316 0 0010.797 2.431c3.457.36 7.43.743 10.753-.562.404-.158.224-.811-.18-.653-3.232 1.283-7.161.9-10.573.54-3.614-.383-7.183-1.215-10.617-2.408-.427-.158-.584.495-.18.652z" fill="#E8E8E8"/><path d="M174.034 182.622c-1.167-1.823-2.133-3.758-2.806-5.829a28.042 28.042 0 01-.786-2.993 25.663 25.663 0 01-.291-1.823c0-.068-.247-1.666.224-1.441.225.113.606-.09.494-.383a28.07 28.07 0 01-1.975-9.79l-.337.337c.179.068.337.136.516.203.225.27.651-.022.561-.338a18.598 18.598 0 01-.83-4.456c-.023-.36.045-4.411.292-4.344.269.068.448-.18.404-.405-.427-2.543-.629-5.132-.517-7.697a30.74 30.74 0 01.359-3.804c.18-1.148.27-2.543 1.168-3.376l-.539-.068c1.886 3.556 2.941 7.45 3.906 11.321a197.996 197.996 0 012.491 11.524c1.46 7.99 2.38 16.07 2.784 24.195.022.428.696.428.673 0a185.37 185.37 0 00-2.806-24.375c-.74-4.006-1.593-7.99-2.581-11.951-.965-3.804-2.02-7.585-3.883-11.074-.113-.202-.382-.202-.539-.067-.763.697-.988 1.62-1.167 2.588a37.44 37.44 0 00-.517 4.186 38.21 38.21 0 00.494 8.756l.404-.406c-1.302-.36-1.145 2.454-1.167 3.084-.09 2.206.247 4.411.898 6.527.179-.113.381-.225.561-.338-.292-.337-.539-.45-.988-.405-.179.023-.336.135-.336.338a28.69 28.69 0 001.997 9.971c.158-.136.337-.248.494-.383-2.244-1.08-.942 4.006-.763 4.771.674 2.926 1.886 5.717 3.502 8.238.269.405.853.068.606-.293z" fill="#E8E8E8"/><path d="M177.602 160.138c-.202-1.44-.246-2.903-.067-4.344.045-.36.898-4.591 1.325-4.411a.353.353 0 00.516-.293c.134-2.881 1.032-5.446 2.087-8.102 1.055-2.634 2.088-5.177 3.839-7.45h-.471c1.279 1.463 1.122 3.691 1.189 5.514.09 2.048.157 4.096.18 6.145.045 4.028-.023 8.057-.202 12.086-.382 8.237-1.302 16.453-2.694 24.578-.067.427.584.607.651.18a204.402 204.402 0 002.761-25.636c.18-4.321.225-8.643.135-12.964-.045-2.161-.09-4.321-.247-6.482-.09-1.418-.314-2.813-1.302-3.916-.112-.135-.359-.135-.471 0-1.729 2.25-2.806 4.726-3.839 7.36-1.145 2.835-2.11 5.581-2.267 8.687.179-.09.337-.202.516-.292-1.369-.608-1.818 2.318-1.998 3.106-.494 2.115-.538 4.253-.224 6.392-.023.45.628.27.583-.158zm-7.968 46.32a33.63 33.63 0 0021.594-.315c.404-.135.225-.788-.179-.653a33.14 33.14 0 01-21.235.315c-.427-.135-.606.518-.18.653z" fill="#E8E8E8"/><path d="M190.152 183.343c.269 3.646.561 7.293.808 10.939.247 3.713.337 7.472-.269 11.163-.068.428.583.608.651.18.606-3.623.561-7.27.314-10.916a964.625 964.625 0 00-.831-11.366c-.022-.427-.696-.427-.673 0z" fill="#E8E8E8"/><path d="M70.35 212.242c4.58-2.453 9.181-4.906 13.76-7.359 2.156.36 5.119.832 8.665 1.327 7.094.991 18.52 2.589 32.976 3.016 14.456.428 25.298-.495 29.428-.9 9.944-.945 15.96-2.228 20.876-3.556a109.904 109.904 0 0010.775-3.556 49.416 49.416 0 017.116 3.016 45.68 45.68 0 013.995 2.341 334.393 334.393 0 01-16.656 4.343c-14.231 3.332-25.141 4.907-27.43 5.245-13.087 1.868-31.741 4.501-55.198 1.778a182.314 182.314 0 01-28.306-5.695z" fill="#fff"/><path d="M70.104 212.264c.112.946.247 1.869.359 2.814 1.683.473 4.153 1.148 7.205 1.823 5.837 1.305 11.763 2.206 19.507 2.813 28.598 2.251 51.45.248 51.45.248 11.425-1.013 22.514-2.048 36.836-6.235a151.007 151.007 0 0012.929-4.411 2946.33 2946.33 0 00-.74-3.173c-.876.36-2.178.877-3.771 1.463-10.82 3.961-19.732 5.266-27.678 6.234-17.464 2.161-26.196 3.219-39.014 3.421-14.59.248-34.165-.63-57.083-4.997z" fill="#161616"/><path d="M69.946 212.692v2.161c0 .427.674.427.674 0v-2.161c0-.45-.674-.45-.674 0z" fill="#161616"/><path d="M70.194 215.483c16.768 4.546 34.277 5.131 51.539 5.379 16.589.225 33.29-.495 49.631-3.534 9.204-1.71 18.272-4.208 27.027-7.607.404-.158.224-.81-.18-.653-15.443 6.01-31.853 9.071-48.351 10.354-16.634 1.282-33.425.99-50.058-.023-9.944-.63-19.799-1.936-29.429-4.546-.426-.135-.606.517-.18.63z" fill="#161616"/><path d="M198.39 209.248c.135-.945.18-1.913.09-2.858-.045-.428-.718-.428-.674 0 .068.9.068 1.801-.067 2.678-.067.406.584.608.651.18zm-127.905 3.377a203.38 203.38 0 0013.873-7.27c.381-.225.045-.788-.337-.585a214.223 214.223 0 01-13.872 7.27c-.404.18-.068.765.336.585z" fill="#161616"/><path d="M84.177 205.04c26.78 5.109 54.615 6.055 81.619 2.183 7.183-1.035 14.321-2.633 20.966-5.604.404-.18.045-.765-.337-.585-5.971 2.656-12.346 4.209-18.788 5.222-6.555 1.035-13.177 1.665-19.799 2.093-13.446.855-26.959.63-40.36-.653-7.767-.743-15.467-1.868-23.121-3.308-.427-.068-.606.585-.18.652z" fill="#161616"/><path d="M186.629 201.506a46.373 46.373 0 0111.246 5.447c.359.247.696-.338.336-.586a47.68 47.68 0 00-11.403-5.514c-.426-.135-.606.518-.179.653z" fill="#161616"/><path d="M70.53 212.265c7.924 2.678 16.184 3.938 24.49 4.614 8.418.675 16.903.877 25.343.877 16.768 0 33.581-1.147 50.103-4.163 9.383-1.711 18.676-4.029 27.722-7.068.404-.135.225-.787-.179-.652-15.916 5.311-32.459 8.417-49.16 9.948-16.611 1.53-33.402 1.62-50.058.63-9.517-.585-19.058-1.778-28.126-4.839-.36-.135-.54.518-.135.653zM83.46 83.726c27.43-6.37 55.669-7.765 83.728-8.035 7.946-.09 15.893-.067 23.839-.067.426 0 .426-.676 0-.676-28.149-.045-56.433-.067-84.38 3.827-7.856 1.102-15.646 2.498-23.368 4.298-.426.113-.246.766.18.653z" fill="#161616"/><path d="M192.419 75.016c.291 10.466.471 22.597.404 36.079-.045 7.833-.113 4.096-.808 36.687-.404 18.771-.517 25.838-1.841 36.686a238.11 238.11 0 01-2.649 16.813c5.792 1.621 11.314 3.151 16.162 4.502 7.498 2.093 9.495 2.655 12.481 3.083 4.624.63 10.258.72 16.768-.608a801.765 801.765 0 004.49-49.403c2.738-45.239.179-66.08-.808-73.395a270.296 270.296 0 00-4.288-23.565 155.366 155.366 0 00-11.448 2.655c-9.406 2.589-16.858 5.627-23.098 8.193a458.62 458.62 0 00-5.365 2.273zM37.667 62.3c-.18 1.935-.382 4.321-.561 6.392-3.726 42.606-5.59 63.92-6.196 77.627-.628 14.72-.673 36.056 2.447 62.592.247.54.696 1.283 1.504 1.891 1.055.788 2.02.765 3.928 1.305 1.504.428 2.29.855 3.008 1.126 2.066.81 6.69 1.733 12.57 1.508 8.441-.338 14.928-2.926 19.687-4.884a76.637 76.637 0 0010.506-5.267 580.595 580.595 0 01-3.008-39.658c-1.19-29.529 0-56.65 2.446-80.823-1.032-.405-2.536-.968-4.31-1.688-3.052-1.238-10.37-4.231-23.255-10.533A560.577 560.577 0 0137.667 62.3z" fill="#fff"/><path d="M232.197 61.805c.269 1.485.628 3.533 1.032 5.987.561 3.488 1.818 11.748 2.739 22.597.943 11.298 1.167 21.021 1.189 28.764.068 15.71-.516 27.233-2.042 54.107-.472 8.373-1.167 20.639-2.043 35.606.92-.067 1.818-.112 2.739-.18a319.625 319.625 0 001.526-16.092c.359-4.907.516-8.486.673-12.334.786-17.646.921-17.443 1.19-24.646.539-14.202.427-25.118.337-34.931-.067-6.774-.269-13.189-.674-26.018-.291-8.733-.583-16.475-2.559-26.536a152.496 152.496 0 00-1.369-6.167c-.92-.045-1.818-.09-2.738-.157zm-197.964.9c-.157.788-.404 2.003-.65 3.489-.72 4.299-.899 7.54-.966 8.597-.494 7.653-1.482 11.389-2.918 28.382-.27 3.106-.472 5.829-.876 11.298-.83 11.164-1.234 16.746-1.526 23.048-.314 7.045-.36 12.019-.427 21.967-.067 8.597-.112 14.809.113 22.935.18 6.482.538 15.282 1.414 25.77 1.818.54 3.614 1.08 5.432 1.621a148.47 148.47 0 00-.224-5.109c-.54-10.106-1.414-14.202-1.617-22.62-.067-2.588-.022-4.299 0-6.752.247-17.601-.044-25.636.113-37.069.269-18.659 1.526-33.244 2.604-45.668a763.951 763.951 0 013.142-29.686c-1.234-.068-2.424-.135-3.614-.203zm157.648 12.694c.83 16.52.718 33.085.494 49.606-.247 16.16-.359 32.365-1.594 48.502-.696 9.183-1.796 18.344-3.502 27.414-.09.428.561.608.651.18 2.986-15.867 4.086-32.005 4.579-48.12.517-16.453.741-32.951.719-49.426-.023-9.385-.18-18.77-.651-28.156-.045-.428-.719-.428-.696 0z" fill="#161616"/><path d="M192.711 75.398a153.869 153.869 0 0139.328-13.279c.426-.09.247-.742-.18-.652a156.007 156.007 0 00-39.485 13.346c-.381.203-.045.788.337.585z" fill="#161616"/><path d="M231.814 61.917c3.704 18.703 4.826 37.812 4.804 56.853-.045 19.041-1.167 38.037-2.088 57.055-.538 10.961-1.077 21.9-1.616 32.861-.022.427.651.427.674 0 .965-19.401 1.975-38.802 2.85-58.226.853-19.041 1.392-38.127.113-57.146-.719-10.6-1.998-21.156-4.063-31.555-.113-.45-.764-.27-.674.158z" fill="#161616"/><path d="M187.392 201.056c1.01 1.17 2.805 1.396 4.22 1.823 1.93.585 3.883 1.171 5.813 1.756 3.906 1.17 7.79 2.408 11.74 3.398 7.722 1.891 15.646 2.274 23.48.923.427-.067.247-.72-.179-.653-7.722 1.328-15.534.946-23.121-.922-3.614-.878-7.161-2.004-10.707-3.084l-5.388-1.62-2.693-.811c-.943-.292-1.998-.495-2.672-1.283-.314-.315-.785.158-.493.473zM232.264 61.94c.83.202 1.661.405 2.514.607.426.113.606-.54.18-.652-.831-.203-1.662-.406-2.515-.608-.426-.09-.606.563-.179.653z" fill="#161616"/><path d="M234.732 62.322c2.245 9.093 2.851 18.591 3.502 27.931.674 9.543 1.033 19.109 1.19 28.697.269 19.019-.382 38.037-1.459 57.033-.606 10.759-1.37 21.517-2.155 32.275-.023.428.651.428.673 0 1.414-19.131 2.694-38.262 3.3-57.438.606-19.131.561-38.307-.651-57.438-.651-10.398-1.235-21.067-3.726-31.217-.135-.45-.786-.27-.674.157z" fill="#161616"/><path d="M233.274 209.069c.988-.09 1.953-.181 2.941-.271.426-.045.426-.72 0-.675l-2.941.27c-.426.045-.426.721 0 .676zM83.437 83.93a606.265 606.265 0 00-2.693 46.904 601.814 601.814 0 00.965 47.197c.516 8.823 1.257 17.624 2.155 26.401.045.428.718.428.673 0a605.554 605.554 0 01-3.03-46.882 601.741 601.741 0 01.628-47.198 650.373 650.373 0 011.953-26.423c.068-.428-.606-.428-.65 0z" fill="#161616"/><path d="M38.094 62.84a365.079 365.079 0 0045.231 21.292c.404.157.584-.496.18-.653A362.59 362.59 0 0138.43 62.255c-.382-.225-.719.36-.337.585z" fill="#161616"/><path d="M37.397 62.682a711.354 711.354 0 00-5.163 57.393 704.627 704.627 0 00-.448 57.618 706.561 706.561 0 001.818 32.321c.045.427.718.427.673 0a704.254 704.254 0 01.315-115.147 737.822 737.822 0 013.479-32.185c.045-.428-.629-.428-.674 0z" fill="#161616"/><path d="M33.582 210.442c12.503 6.819 27.475 5.356 40.18-.045 3.816-1.621 7.498-3.579 11.044-5.717.36-.225.023-.811-.336-.585-11.83 7.179-25.703 12.198-39.687 9.588a36.568 36.568 0 01-10.865-3.827c-.359-.202-.718.383-.336.586z" fill="#161616"/><path d="M28.62 208.573a46.953 46.953 0 004.827 1.936c.404.135.583-.518.18-.653a43.915 43.915 0 01-4.67-1.868c-.404-.18-.74.405-.336.585z" fill="#161616"/><path d="M33.784 62.84c-2.425 18.861-4.445 37.767-5.77 56.741-1.301 18.883-1.93 37.812-1.526 56.74.225 10.713.764 21.427 1.684 32.095.045.428.718.428.673 0-1.616-18.928-2.087-37.924-1.638-56.92.426-18.929 1.728-37.835 3.591-56.696a1097.27 1097.27 0 013.66-31.982c.067-.405-.607-.405-.674.022z" fill="#161616"/><path d="M34.166 63.312a15.43 15.43 0 013.95-.292c.427.022.427-.653 0-.676a16.974 16.974 0 00-4.13.315c-.426.09-.247.743.18.653zM200.478 76.93c.943 26.107.898 52.238-.179 78.346a898.36 898.36 0 01-1.145 21.922c-.023.428.651.428.673 0a1012.775 1012.775 0 001.325-100.269c-.023-.428-.696-.428-.674 0zm10.886-9.363a1078.918 1078.918 0 011.325 54.557c0 18.186-.449 36.394-1.347 54.557a1085.16 1085.16 0 01-1.931 30.813c-.022.427.651.427.674 0a1132.873 1132.873 0 002.851-54.49c.494-18.186.561-36.394.179-54.58a1177.721 1177.721 0 00-1.077-30.857c-.023-.428-.696-.428-.674 0zm13.066-4.007c1.257 18.884 2.02 37.812 2.222 56.763.202 19.019-.112 38.015-.965 57.011a950.213 950.213 0 01-1.953 31.915c-.023.427.651.427.673 0 1.437-18.884 2.38-37.812 2.761-56.741a1028.18 1028.18 0 00-.426-57.033 1015.978 1015.978 0 00-1.639-31.937c-.022-.428-.696-.428-.673.022zm-26.263 122.079a121.605 121.605 0 01-2.829 17.511c-.089.427.539.607.651.18a120.95 120.95 0 002.851-17.691c.045-.428-.628-.428-.673 0zM45.456 67.228c-2.693 18.884-3.838 37.97-4.018 57.033-.157 19.176.629 38.33 1.796 57.461.651 10.826 1.414 21.629 2.177 32.455.023.428.696.428.674 0-1.347-19.063-2.694-38.127-3.435-57.213-.74-19.041-.853-38.127.247-57.168.629-10.826 1.661-21.652 3.188-32.388.09-.405-.561-.607-.629-.18zm12.907 6.302c-1.706 18.254-2.851 36.575-3.233 54.918-.359 18.321.068 36.642 1.572 54.918a442.823 442.823 0 003.524 30.317c.067.427.718.247.651-.18-2.739-18.141-4.31-36.462-4.894-54.805-.583-18.096-.246-36.237.741-54.31a787.698 787.698 0 012.312-30.835c.045-.45-.628-.45-.673-.022zm12.93 5.38a473.713 473.713 0 00-3.816 51.361 480.423 480.423 0 001.751 51.474 486.365 486.365 0 003.39 28.516c.067.428.718.248.65-.18A477.234 477.234 0 0168.42 158.9a476.965 476.965 0 01.696-51.294 474.474 474.474 0 012.828-28.719c.09-.405-.583-.405-.65.022z" fill="#161616"/><path opacity=".12" d="M219.401 65.09a189.942 189.942 0 015.186 35.54c1.683 34.075-6.308 61.917-13.267 79.787-4.916 7.9-9.809 15.8-14.725 23.7a65.527 65.527 0 0020.719 5.199 64.124 64.124 0 0015.533-.63c.045-.99.786-16.047.831-17.038 2.447-50.438 2.604-53.882 2.694-57.348.404-14.112.336-34.368-2.066-59.644-.83-4.299-1.661-8.597-2.491-12.874a1725.06 1725.06 0 00-12.414 3.309z" fill="#3F3F3F"/><path opacity=".13" d="M62.741 76.096c-.584 2.453-1.459 6.122-2.492 10.6-4.579 19.987-7.946 34.684-9.742 48.211-3.187 23.835-6.263 46.928 6.847 65.879 3.816 5.514 7.99 9.227 10.774 11.433a40.506 40.506 0 01-9.944 2.498c-10.864 1.283-19.574-2.25-23.839-4.366a553.109 553.109 0 01-3.098-47.805 556.787 556.787 0 016.847-99.954A12253.11 12253.11 0 0062.74 76.096z" fill="#3F3F3F"/><path d="M39.193 51.879c-.292.225-.067 1.103.337 2.61.157.586.314 1.036.404 1.329-.18 1.215-.337 2.43-.517 3.646a4.18 4.18 0 00-2.132.99 4.208 4.208 0 00-1.212 1.868c.718.068 1.594.225 2.536.518a13.68 13.68 0 013.233 1.508c0 .27.045.787.404 1.17.314.315.696.36.92.405.808.135 1.774.315 3.008.585.539.316 1.437.833 2.537 1.44 3.726 2.027 5.073 2.364 8.8 4.345 2.4 1.283 2.199 1.328 3.883 2.138a38.347 38.347 0 006.307 2.43 10.268 10.268 0 002.2-4.006 9.964 9.964 0 00.337-3.78c.381.202.987.427 1.683.337 1.796-.203 2.94-2.25 3.3-3.714.314-1.283.022-2.093-.224-3.601-.562-3.376-1.055-6.392.336-8.305 1.168-1.598 3.57-2.34 5.5-4.479.18-.203.516-.585.404-.765-.202-.338-1.773.247-2.537.585-.493.225-4.197 1.935-5.32 5.807-.18.608-.202 2.363-.224 5.852-.023 2.543.022 3.983-.988 4.816-.516.428-1.28.675-1.975.518-1.033-.225-1.527-1.238-1.975-1.913-1.168-1.778-2.829-2.521-4.872-3.534-1.593-.788-2.963-1.08-5.724-1.688-2.604-.563-3.39-.495-4.512-1.328-1.257-.945-1.953-2.273-2.312-3.016-.359-.698-.92-1.8-1.167-3.376-.135-.923-.112-1.575-.337-1.62-.404-.09-.606 1.778-1.975 2.43-.83.405-1.37.023-2.828.068-.943.022-2.02.225-3.233.765-.404-.293-1.66-1.328-2.065-1.035z" fill="#2D2D2D"/><path d="M39.867 59.284c-.471-3.714 2.896-7.09 6.622-6.707 3.525.36 5.86 4.659 5.747 7.877-.023.428.65.428.673 0 .113-3.556-2.536-8.237-6.42-8.552-4.085-.338-7.811 3.286-7.295 7.382.067.405.74.428.673 0z" fill="#2D2D2D"/><path d="M39.8 61.624c1.37 2.679 4.31 4.57 7.385 4.164 2.806-.382 5.185-2.655 5.612-5.469.067-.428-.584-.608-.65-.18-.383 2.566-2.493 4.636-5.052 4.974-2.806.383-5.454-1.373-6.711-3.826-.202-.383-.786-.045-.584.337z" fill="#2D2D2D"/><path d="M42.224 64.888c-.067-.855 2.357-1.215 2.963-1.35 1.1-.248 2.222-.383 3.345-.383 2.087 0 4.085.54 5.859 1.643.359.225.718-.36.336-.585-2.29-1.418-4.96-1.913-7.61-1.666a18.124 18.124 0 00-4.085.878c-.718.248-1.571.563-1.504 1.463.045.428.741.428.696 0zm9.652-7.788c1.414 1.711 3.704 2.116 5.747 2.567 2.716.63 5.522 1.192 7.901 2.7 4.916 3.106 5.837 9.881 1.953 14.225-.292.315.18.81.472.473 3.457-3.85 3.546-9.746-.023-13.572-1.886-2.026-4.58-3.084-7.206-3.781-2.67-.698-6.51-.81-8.395-3.106-.247-.316-.718.157-.449.495z" fill="#2D2D2D"/><path d="M67.59 68.872c-1.123-1.486-3.099-2.003-4.827-1.283-2.133.878-2.245 3.511-1.998 5.514.045.428.718.428.674 0-.202-1.575-.225-4.006 1.391-4.794 1.392-.698 3.21-.337 4.153.923.27.338.853 0 .606-.36z" fill="#2D2D2D"/><path d="M61.349 72.788c-1.235-.945-2.515-1.756-4.108-1.328-.18.045-.27.248-.225.405.404 1.576 2.873 2.228 4.175 2.791 1.998.878 4.04 1.62 6.106 2.273.404.135.584-.517.18-.652a55.165 55.165 0 01-4.894-1.756 52.85 52.85 0 01-2.581-1.148c-.764-.36-2.133-.788-2.357-1.688-.068.135-.157.27-.225.405 1.392-.382 2.537.45 3.57 1.26.359.293.695-.292.358-.562zM41.618 64.82c.876 1.44 2.65 1.688 4.198 1.914 2.29.337 4.58.337 6.869.09.426-.046.426-.72 0-.676-1.84.203-3.681.248-5.522.068-1.549-.158-4.04-.248-4.983-1.733-.203-.383-.786-.045-.562.337zm-5.23-2.295c.291-1.575 1.66-2.386 3.187-2.453-.112-.09-.224-.158-.314-.248.112.54.27 1.058.494 1.553.157.405.808.225.65-.18a12.495 12.495 0 01-.493-1.553c-.023-.135-.18-.247-.315-.247-1.795.09-3.501 1.08-3.838 2.948-.09.428.561.608.629.18zm3.905-6.977c-.336-.968-.583-1.98-.673-3.016 0-.09-.023-.18-.023-.27-.022-.203 0-.18.09.067.202.135.404.293.606.45.337.293.651.608.92.946.292.337.764-.158.472-.473-.382-.45-1.975-2.296-2.649-1.575-.337.36-.09 1.193-.022 1.598.112.832.336 1.665.606 2.453.18.405.83.247.673-.18zm7.587-3.151c.202-.36.404-.72.629-1.08.09-.158.18-.293.247-.45.134-.226.134-.428.404-.36.314.067.202.81.202 1.08 0 .427.022.855.022 1.282 0 .428.674.428.674 0 0-.697.022-1.395-.023-2.093-.022-.45-.18-.945-.673-1.103-.45-.135-.764.158-.988.495-.382.608-.718 1.26-1.077 1.869-.225.405.359.742.583.36zm21.505 14.719c.135 1.71 2.043 2.273 3.367 1.44 1.954-1.215 2.38-3.96 2.133-6.032-.337-2.836-1.01-5.469-.045-8.282.92-2.679 3.21-4.862 6.106-5.042.426-.022.426-.698 0-.675-3.95.248-6.645 3.624-7.206 7.36-.337 2.228.157 4.299.45 6.482.179 1.44.089 2.813-.562 4.141-.292.563-.696 1.126-1.235 1.486-.83.517-2.267.36-2.357-.856 0-.45-.673-.472-.65-.022z" fill="#2D2D2D"/><path d="M69.745 68.331c.695 1.868 3.12 1.035 4.175-.045 1.728-1.755 1.347-4.681 1.212-6.91-.023-.427-.696-.427-.674 0 .09 1.418.225 2.949-.022 4.367-.112.675-.36 1.305-.808 1.845-.494.608-2.649 2.139-3.233.563-.157-.405-.808-.225-.65.18z" fill="#2D2D2D"/><path d="M80.968 48.503c-2.559.99-5.14 2.386-6.173 5.087-1.19 3.105-.337 6.481-.404 9.7 0 .428.673.428.673 0 .068-2.813-.606-5.694.068-8.485.74-3.061 3.277-4.592 6.016-5.65.404-.157.224-.81-.18-.652z" fill="#2D2D2D"/><path d="M80.452 48.886c-2.357 1.08-4.512 2.97-5.612 5.379-.584 1.26-.494 2.656-.494 4.029 0 1.755.068 3.533.202 5.289.023.427.696.427.674 0a88.93 88.93 0 01-.18-4.232c-.022-1.485-.224-3.24.337-4.636.965-2.363 3.143-4.186 5.41-5.244.404-.18.067-.765-.337-.585z" fill="#2D2D2D"/><path d="M41.191 57.033c.629 1.102 2.223.72 2.38-.496.022-.225-.314-.202-.337 0-.112.923-1.28 1.103-1.75.338-.113-.203-.405-.023-.293.158zm4.759-.877c.696 1.192 2.47.72 2.492-.653 0-.225-.337-.225-.337 0a.991.991 0 01-1.863.495c-.112-.203-.404-.045-.292.158zm-1.347 1.484a2.176 2.176 0 01-.382 1.846c-.134.18.157.338.292.18.449-.607.584-1.373.427-2.115-.068-.203-.405-.113-.337.09z" fill="#fff"/><path d="M44.738 57.618a2.05 2.05 0 001.19 2.026c.202.09.359-.203.18-.293-.674-.315-1.1-.99-1.033-1.733 0-.225-.337-.225-.337 0zm-5.477 2.002c1.975-.157 3.232 1.464 4.557 2.657.157.135.404-.09.247-.248-1.392-1.26-2.739-2.903-4.804-2.768-.202.022-.202.36 0 .36zm3.682 3.963a11.156 11.156 0 018.485-1.508c.202.045.292-.27.09-.316-3.03-.652-6.128-.112-8.732 1.553-.202.09-.023.383.157.27zm6.374 3.082a7.77 7.77 0 005.657-1.89c.157-.135-.067-.383-.247-.248a7.434 7.434 0 01-5.41 1.8c-.202 0-.202.338 0 .338zm-.605-15.98a3.316 3.316 0 00-.315 2.724c.068.202.382.112.315-.09a2.94 2.94 0 01.269-2.454c.135-.202-.157-.382-.27-.18zm-8.891 2.094c.54.337.876.855 1.01 1.463.045.202.36.112.315-.09a2.617 2.617 0 00-1.167-1.666c-.18-.112-.337.18-.158.293zm11.876 3.601c.427.518.92.968 1.482 1.305.18.113.359-.18.18-.292a5.426 5.426 0 01-1.415-1.26c-.157-.158-.382.09-.247.247zm13.85 11.051c-.471-1.193-2.739-.382-3.48.09a3.519 3.519 0 00-1.414 4.029c.068.203.382.112.315-.09a3.197 3.197 0 01.875-3.354c.404-.382.943-.652 1.482-.787.381-.113 1.683-.36 1.885.18.09.225.404.135.337-.068z" fill="#fff"/><path d="M60.923 71.573c-1.75-.743-3.614-.81-5.432-.248-.202.067-.112.383.09.315 1.773-.563 3.546-.472 5.252.248.203.09.292-.248.09-.315z" fill="#fff"/><path d="M122.585 165.18c-.92 2.206-.92 3.849-1.055 8.08-.157 5.222-.606 10.421-.651 15.62-.045 4.389-.112 11.028-.292 19.671 7.184.405 15.13.495 23.75.068a225.62 225.62 0 0022.649-2.274c-3.232-10.961-5.365-18.951-6.891-25.14-.808-3.309-1.998-8.26-5.275-14.044a45.079 45.079 0 00-5.029-7.158c-.359-.315-8.283-6.999-17.441-3.848-.449.18-7.116 2.61-9.765 9.025z" fill="#EC615B"/><path d="M135.806 178.302c1.504 2.678 3.008 5.356 4.49 8.035.202.382.786.045.583-.338-1.503-2.678-3.007-5.356-4.489-8.035-.202-.382-.786-.045-.584.338z" fill="#C64F4F"/><path d="M135.628 178.167c3.456 4.321 5.454 9.25 6.532 14.652 1.01 5.109 1.661 10.285 2.042 15.485.023.427.696.427.674 0-.404-5.335-1.078-10.669-2.11-15.913-1.078-5.424-3.188-10.376-6.645-14.697-.269-.36-.763.135-.493.473z" fill="#C64F4F"/><path opacity=".19" d="M141.037 155.637a189.15 189.15 0 013.165 6.684c3.659 8.148 7.453 16.746 9.473 27.324.83 4.276 1.616 10.466 1.279 18.186 1.886-.09 3.884-.248 5.971-.473 2.088-.225 4.086-.495 5.971-.81-.583-1.981-1.526-5.132-2.581-9.026-2.941-10.893-3.345-14.292-5.859-21.471-1.863-5.335-3.591-8.958-6.083-12.424-2.245-3.129-4.355-5.087-7.026-6.46-1.661-.855-3.21-1.283-4.31-1.53z" fill="#3F3F3F"/><path opacity=".11" d="M135.672 178.414a66.037 66.037 0 011.998 11.614c.628 7.63-.18 14.134-1.168 18.996l7.722-.473a108.344 108.344 0 00-1.414-12.671c-1.414-8.306-2.896-11.389-4.085-13.37a28.609 28.609 0 00-3.053-4.096z" fill="#3F3F3F"/><path d="M106.917 126.828c-.741.495-1.19 1.44-2.065 3.308-.718 1.531-1.055 2.724-1.594 4.502-1.481 5.041-1.324 4.186-1.841 6.099-.673 2.543-1.885 7-2.559 12.874-.65 5.695-.516 10.083-.493 11.141.247 6.685 1.414 11.659 2.199 14.855 1.392 5.739 3.255 10.511 6.959 20.031a815.776 815.776 0 001.953 4.907c-.337.045-.875.112-1.526.202-3.39.406-3.861.316-5.231.608-1.751.383-3.322.765-3.928 2.093-.27.608-.382 1.463-.045 1.756.427.36 1.257-.45 2.694-.923a6.754 6.754 0 013.03-.248 15.364 15.364 0 00-1.122 2.926c-.494 1.711-.876 3.106-.247 4.097.314.495.92.945 1.414.81.27-.068.516-.315 1.19-2.093.651-1.778.696-2.341 1.234-3.039a4.05 4.05 0 011.37-1.08c-.18.563-.382 1.395-.472 2.408-.045.608-.112 1.171 0 1.891.09.653.292 2.048 1.325 2.813.179.135.92.698 1.369.405.382-.225.269-.855.427-2.881.134-1.71.269-2.183.381-2.453a4.743 4.743 0 011.078-1.688 34.211 34.211 0 00-.045 3.961c.09 1.598.247 2.319.763 2.769.292.247.786.495 1.19.315.404-.18.538-.743.651-1.441.494-2.633.202-3.398.763-4.726.224-.518.471-1.148 1.077-1.598 1.28-.945 3.098-.383 3.345-.315 1.077.337 1.482.923 2.02.675.449-.203.696-.855.719-1.395.022-1.328-1.437-2.341-2.694-3.174a12.474 12.474 0 00-2.828-1.44 53.285 53.285 0 01-3.637-9.386c-.763-2.701-1.122-4.771-1.459-6.729-1.19-6.865-.763-9.498-2.088-16.318a74.539 74.539 0 00-.808-3.691c.09-1.126.247-2.881.472-5.019.74-6.978 1.234-11.344 2.738-16.476a135.448 135.448 0 012.402-7.337c1.527-4.119 2.02-4.681 1.841-6.009-.629-4.187-7.161-7.833-9.922-5.987z" fill="#fff"/><path d="M105.189 128.966c-3.996 9.25-6.51 19.131-7.049 29.214-.561 10.286 1.212 20.346 4.534 30.069 1.886 5.56 4.176 10.961 6.51 16.363.18.405.741.045.584-.337-4.041-9.363-7.991-18.861-9.877-28.9-1.863-9.903-1.482-20.143.673-29.979a87.799 87.799 0 015.208-16.07c.157-.405-.404-.765-.583-.36zm8.373 12.851c-2.829 8.575-4.31 17.556-4.468 26.581 0 .428.674.428.674 0a89.455 89.455 0 014.444-26.401c.135-.405-.516-.585-.65-.18z" fill="#161616"/><path d="M106.737 164.302c1.998 2.791 2.806 6.122 3.278 9.453.493 3.398.718 6.842 1.212 10.24.987 6.91 2.604 13.797 5.858 19.987.203.382.786.045.584-.338-3.389-6.437-4.983-13.617-5.926-20.774-.831-6.279-.584-13.549-4.422-18.906-.247-.338-.831 0-.584.338zm2.358 39.995c-2.088.113-4.176.316-6.218.698-1.459.293-3.008.765-4.018 1.936-.584.697-1.325 2.363-.045 2.836.56.202 1.055-.18 1.526-.45 1.167-.676 2.379-1.373 3.771-.991.427.113.606-.54.18-.652-1.145-.316-2.178-.046-3.21.472-.314.158-.606.315-.898.495-.18.09-.337.203-.516.315-.202-.36-.427-.72-.629-1.08.045-.563 1.167-1.215 1.571-1.44 1.1-.586 2.38-.788 3.592-.968a51.792 51.792 0 014.916-.495c.426-.023.426-.698-.022-.676z" fill="#161616"/><path d="M107.254 206.3c-1.773.292-3.232 1.508-3.906 3.151-.718 1.71-1.324 4.254-.494 6.009.629 1.328 2.178 1.801 2.761.18.359-1.013.292-2.115.651-3.128.449-1.261 1.212-2.341 2.335-3.084.359-.247.022-.832-.337-.585a6.467 6.467 0 00-2.357 2.791 8.73 8.73 0 00-.606 1.823c-.112.518-.18 3.129-1.414 2.363-.696-.427-.763-1.8-.741-2.498.045-1.035.314-2.228.651-3.218.561-1.666 1.886-2.859 3.614-3.151.449-.068.269-.721-.157-.653z" fill="#161616"/><path d="M109.364 207.966c-1.392.9-1.886 2.858-2.02 4.434-.135 1.688.336 3.511 1.593 4.704.741.698 1.886 1.058 2.088-.248.337-2.183-.539-5.266 1.841-6.572.381-.202.045-.787-.337-.585-.853.473-1.392 1.238-1.728 2.161-.472 1.35-.202 2.723-.404 4.119-.09.63-.27 1.305-.966.652a3.814 3.814 0 01-.651-.81 4.953 4.953 0 01-.74-2.228c-.158-1.576.246-4.096 1.683-5.042.337-.247 0-.833-.359-.585z" fill="#161616"/><path d="M112.552 209.766c-.426 1.621-.83 3.309-.561 4.997.112.81.584 2.791 1.616 2.993 1.167.225 1.639-1.845 1.751-2.611.247-1.665-.067-3.668 1.235-4.951.314-.315-.158-.788-.472-.473-1.571 1.553-1.032 3.804-1.504 5.784-.157.721-.606 1.801-1.347.968-.404-.427-.516-1.26-.606-1.823-.224-1.575.157-3.151.561-4.681.09-.428-.561-.608-.673-.203z" fill="#161616"/><path d="M117.4 204.364c1.324.541 2.694 1.126 3.726 2.161.471.473 1.055 1.193 1.19 1.868.337 1.868-1.055.675-1.572.45-1.414-.63-4.22-.18-5.028 1.261-.202.382.382.72.584.337.426-.787 1.594-.99 2.402-1.103.494-.067 1.055-.112 1.526.023.539.158.876.63 1.392.788.741.225 1.302-.293 1.414-1.013.202-1.17-.808-2.476-1.594-3.241-1.1-1.058-2.514-1.643-3.906-2.206-.359-.135-.516.518-.134.675z" fill="#161616"/><path opacity=".13" d="M112.866 134.548c-2.582.157-4.131 6.774-4.984 10.443-.965 4.119-1.84 9.791-1.661 18.051.157 7.382 1.1 13.009 1.414 14.967a105.008 105.008 0 005.814 21.022c.719 2.025 1.414 4.051 2.133 6.054a199.967 199.967 0 00-1.19 5.154 150.815 150.815 0 00-1.302 6.842c.427.045 1.01.023 1.414-.382.517-.518.449-1.351.472-2.071.022-.675.089-3.939 1.548-5.154.898-.743 2.335-.743 3.323-.383 1.01.383 1.459 1.126 2.132.901.517-.158.876-.788.943-1.283.224-1.643-2.918-3.331-3.434-3.601-1.011-.541-1.482-.608-2.133-1.283-.808-.856-1.077-1.868-1.19-2.319-1.863-7.112-2.783-6.662-4.04-14.832-.943-6.167-.337-5.807-1.302-10.713-.674-3.466-1.235-4.884-1.414-7.878-.202-3.286.179-5.851.583-8.125 1.684-9.295 4.916-20.549 5.702-23.227-.718-1.125-1.706-2.251-2.828-2.183z" fill="#3F3F3F"/><path d="M158.681 42.022c-.696-.023-1.235 1.238-1.37 1.575-.202.495-.516 1.463-.292 2.836 0 0 .135.945.584 6.662.112 1.283.135 3.151-.202 5.492a71.573 71.573 0 01-2.334 5.672c-1.976 4.23-3.3 5.919-6.061 11.276-1.033 2.003-1.123 2.318-2.335 4.794-3.03 6.144-5.252 9.993-7.52 14.112-1.997 3.6-4.803 8.89-8.103 15.687-.157.585-.943 3.714.875 6.46 1.931 2.903 5.971 4.208 9.877 2.948a23.782 23.782 0 002.245-3.916c.763-1.688 1.122-2.994 1.369-3.826.247-.833 1.235-3.647 3.233-9.318a440.681 440.681 0 012.94-7.945c2.357-6.28 3.524-9.408 4.31-11.366 1.773-4.457 3.12-7.54 5.769-13.527a983.74 983.74 0 015.073-11.276 27.538 27.538 0 004.4-3.129c2.424-2.093 3.636-3.871 5.971-7.247 1.504-2.206 2.649-4.141 2.334-6.077-.044-.27-.157-1.058-.583-1.17-.539-.158-1.212.922-1.953 1.868-.763.968-1.908 2.228-3.614 3.533a37.352 37.352 0 011.571-3.713c.92-1.89 1.684-3.106 2.155-5.2.516-2.228.045-2.633-.09-2.745-.606-.45-1.638.405-2.244-.09-.539-.473-.068-1.508-.494-1.756-.427-.248-1.37.495-2.043 1.283-1.167 1.35-1.437 2.656-1.863 3.916-.404 1.238-1.145 2.926-2.537 4.794-.336.045-.785.068-.987-.202-.225-.315.089-.833.381-1.666.068-.202.023-.09.494-2.16.18-.788.516-2.251.786-3.422.381-1.688.561-2.385.202-3.128-.068-.158-.359-.765-.786-.788-.494-.022-.875.765-1.167 1.373-1.19 2.453-1.796 3.691-1.953 4.119-.786 2.138-1.841 5.402-1.998 6.527-.022.135-.067.608-.292 1.215-.112.293-.179.406-.247.586-.561 1.26-.089 2.093-.673 2.543-.067.045-.404.292-.673.202-.292-.09-.427-.472-.584-1.755-.225-1.756-.09-2.273-.494-3.039-.269-.337-.606-.99-1.077-1.012z" fill="#fff"/><path d="M157.603 52.442c.157-1.643-.09-3.241-.18-4.884-.044-.788-.044-1.598.068-2.386.067-.45.157-.9.292-1.328.224-.653.246-1.193.965-1.215.673-.023.628.382.741.945.112.495.134 1.013.157 1.508.045.697.067 1.418.224 2.093.157.698.584 1.283 1.369 1.035.405-.135.247-.787-.179-.652-.786.225-.718-2.431-.763-2.881-.068-.72-.135-1.463-.404-2.139-.382-.945-1.257-1.417-1.998-.54-.965 1.126-1.167 3.151-1.167 4.547 0 1.98.381 3.916.202 5.897-.023.427.651.427.673 0z" fill="#161616"/><path d="M161.508 47.94c1.122-2.183 1.459-4.658 2.11-7 .696-2.52 1.571-4.996 2.873-7.246.292-.496.584-1.193 1.01-1.576.831-.765.831.698.764 1.328-.135 1.395-.494 2.813-.809 4.186-.291 1.26-.695 2.476-.987 3.736-.157.698-.157 1.306.336 1.846.292.315.764-.158.472-.473-.561-.607.022-1.823.202-2.475.202-.743.404-1.486.561-2.229.314-1.373.629-2.768.831-4.186.112-.743.269-2.048-.382-2.61-.561-.473-1.122-.023-1.504.427-1.639 2.048-2.649 4.749-3.457 7.225-.92 2.858-1.212 6.054-2.604 8.732-.202.36.382.698.584.316z" fill="#161616"/><path d="M166.963 43.281c.673.068.92-.428 1.234-.968a42.08 42.08 0 001.37-2.633c.83-1.71 1.414-3.579 2.424-5.177.225-.36.494-.81.853-1.08.292-.337.674-.45 1.167-.293.068.316.113.63.113.946.022 1.103-.337 2.206-.719 3.24-.763 2.049-1.616 4.075-2.446 6.123-.158.405.493.585.65.18.472-1.17 5.321-11.434 2.155-11.501-.628-.023-1.346.765-1.706 1.192-.628.743-1.077 1.598-1.481 2.476-.471 1.058-.898 2.116-1.392 3.151a48.59 48.59 0 01-.943 1.89c-.202.406-.695 1.802-1.257 1.757-.449-.023-.449.652-.022.697z" fill="#161616"/><path d="M174.909 35c.247-1.306 1.662-.406 1.841.427.157.698-.112 1.395-.337 2.048a40.76 40.76 0 01-1.122 2.904c-.786 1.845-1.706 3.6-2.739 5.334-.224.382.36.72.584.337a47.118 47.118 0 002.581-4.951c.651-1.463 1.437-3.084 1.684-4.682.157-1.013-.135-2.318-1.257-2.678-.831-.27-1.728.248-1.886 1.103-.067.405.584.585.651.157z" fill="#161616"/><path d="M173.609 46.32c.853-.968 1.683-1.935 2.536-2.903.449-.518.853-1.08 1.347-1.53.157-.136.314-.248.449-.383.382.135.763.27 1.167.405.112.202-.157.788-.224.968-.696 2.138-1.706 4.163-2.896 6.054-2.402 3.804-5.702 7-9.563 9.318-.381.225-.022.81.337.585 4.804-2.88 8.755-7.112 11.246-12.131.606-1.216 1.19-2.498 1.572-3.804.224-.765.359-1.8-.517-2.206-.853-.405-1.751.383-2.289.946-1.28 1.328-2.447 2.813-3.659 4.209-.27.315.202.787.494.472zm-16.59 5.425c.157 2.07.314 4.186-.022 6.257-.337 2.048-1.19 3.938-2.133 5.784-1.908 3.736-3.906 7.427-5.859 11.14-3.905 7.428-7.811 14.833-11.717 22.26-2.245 4.254-4.49 8.531-6.734 12.784-.202.383.381.721.583.338 8.059-15.327 16.275-30.587 24.199-46.005.942-1.822 1.818-3.69 2.199-5.694.449-2.273.292-4.569.113-6.864.022-.428-.651-.428-.629 0z" fill="#161616"/><path d="M166.38 58.091c-7.183 15.215-13.446 30.79-18.968 46.68-1.616 4.614-3.232 9.228-5.185 13.707-.18.405.404.743.583.337 3.345-7.63 5.792-15.62 8.665-23.407a452.48 452.48 0 019.518-23.79 463.277 463.277 0 015.971-13.19c.179-.382-.404-.72-.584-.337z" fill="#161616"/><path opacity=".1" d="M176.527 34.73c-.921-.136-2.155 3.645-2.874 5.536-2.177 5.807-4.018 6.482-8.687 14.36-1.728 2.903-4.108 7.27-6.51 12.964-7.183 15.17-14.344 30.362-21.527 45.531 1.751 2.139 3.48 4.299 5.231 6.437.875-2.498 2.155-6.166 3.748-10.6 2.896-7.99 6.645-18.276 11.942-30.79a498.507 498.507 0 018.777-19.491 31.636 31.636 0 004.041-3.061c2.11-1.846 4.893-4.344 6.801-8.418a20.702 20.702 0 001.774-5.74c-.292-.134-.719-.292-1.19-.202-.808.158-1.235.946-1.571 1.486-1.302 2.003-3.21 3.33-3.457 3.173-.135-.112.247-.765 1.279-2.88 2.11-4.345 1.235-3.197 2.065-4.66.472-.833.943-1.553.786-2.475 0-.406-.247-1.103-.628-1.17z" fill="#3F3F3F"/><path opacity=".13" d="M175.156 50.08a65.184 65.184 0 00-4.534 3.173c-2.088 1.575-4.332 3.286-6.218 5.446-2.559 2.926-3.681 5.83-4.355 7.518-6.173 15.8-13.513 32.95-15.601 37.722a237.374 237.374 0 01-5.32 11.276c1.078 1.418 2.178 2.836 3.255 4.254a509.132 509.132 0 0110.752-29.687 514.535 514.535 0 0113.536-30.993 29.197 29.197 0 004.041-3.263 28.984 28.984 0 004.444-5.447z" fill="#3F3F3F"/><path d="M115.469 115.238a25.06 25.06 0 00-4.602 3.983c-1.975 2.184-3.12 4.232-4.063 5.965a41.557 41.557 0 00-1.661 3.353 68.787 68.787 0 002.829 4.929c2.312 3.669 4.107 5.65 7.205 9.633a209.988 209.988 0 015.432 7.315c.36 1.688.674 3.466.943 5.334.539 3.827.741 7.383.741 10.579.831.9 2.267 2.205 4.377 3.128 3.502 1.553 6.69 1.103 8.351.833 3.681-.563 6.195-2.206 7.924-3.354 3.142-2.07 5.275-4.546 6.689-6.594a261.204 261.204 0 00-2.492-20.212 51.487 51.487 0 00-1.032-9.317c-.629-3.129-1.392-6.775-3.659-11.096-2.829-5.38-6.353-8.643-7.722-9.836a35.037 35.037 0 00-3.12-2.408 50.158 50.158 0 01-8.036 4.186c-3.592 1.485-5.276 1.711-8.104 3.579z" fill="#fff"/><path d="M105.502 128.629c.696-2.656 2.626-5.131 4.287-7.292 1.751-2.251 3.727-4.299 6.084-5.942.359-.248.022-.833-.337-.585-2.424 1.688-4.467 3.781-6.263 6.099-1.728 2.228-3.681 4.749-4.4 7.518-.112.45.539.607.629.202z" fill="#161616"/><path d="M105.008 128.854a132.726 132.726 0 0016.32 22.664c.291.315.763-.157.471-.472a132.326 132.326 0 01-16.207-22.53c-.225-.383-.808-.045-.584.338zm18.99-16.88a27.488 27.488 0 018.216-3.962c.426-.112.247-.765-.18-.652a28.23 28.23 0 00-8.373 4.028c-.359.248-.022.833.337.586z" fill="#161616"/><path d="M131.654 108.193c10.73 7.495 15.331 20.639 14.815 33.355-.022.428.651.428.673 0 .539-12.986-4.22-26.31-15.152-33.94-.336-.248-.673.337-.336.585zm-11.785 41.998c1.167 2.408 1.302 5.402 1.548 8.012.27 2.656.36 5.335.36 8.013 0 .428.673.428.673 0a73.493 73.493 0 00-.449-8.89c-.269-2.499-.449-5.2-1.549-7.495-.202-.383-.763-.045-.583.36z" fill="#161616"/><path d="M122.203 166.351c3.367 4.142 9.114 5.312 14.119 4.029 2.784-.72 5.365-2.093 7.677-3.804 2.312-1.71 4.512-3.691 5.814-6.302.202-.382-.381-.72-.583-.337-1.257 2.498-3.367 4.411-5.59 6.054-2.155 1.598-4.557 2.904-7.161 3.646-4.893 1.373-10.527.316-13.827-3.758-.247-.338-.718.135-.449.472z" fill="#161616"/><path d="M146.716 140.535c1.1 6.595 2.177 13.189 2.559 19.851.023.428.696.428.673 0-.404-6.729-1.481-13.392-2.581-20.031-.067-.428-.718-.248-.651.18z" fill="#161616"/><path opacity=".13" d="M124.851 111.074a60.243 60.243 0 018.755 13.751c4.175 9.093 5.006 16.948 5.634 23.633.494 5.086.763 12.176-.224 20.639 1.908-.833 4.601-2.273 7.205-4.772a24.431 24.431 0 003.323-4.006l-2.223-18.861a42.584 42.584 0 00-1.436-12.199c-2.357-8.778-6.892-14.427-8.418-16.205a40.413 40.413 0 00-5.634-5.447 983.307 983.307 0 01-6.982 3.467z" fill="#3F3F3F"/><path opacity=".14" d="M141.575 118.951c-.404.113.539 3.781 1.437 9.206 0 0 1.369 8.237 1.661 16.205.202 5.266-.068 12.964-2.425 22.529a21.147 21.147 0 003.771-2.431 20.187 20.187 0 003.659-3.893c-.291-9.071-1.055-13.775-1.773-16.43-.135-.518-.494-1.733-.786-3.444-.538-3.196-.269-4.569-.561-7.225-.224-2.115-.651-3.511-1.436-6.099-1.19-3.894-3.098-8.553-3.547-8.418z" fill="#3F3F3F"/><path d="M115.154 78.213a21.934 21.934 0 00-5.185 4.006c-3.771 4.029-4.983 8.53-5.41 10.759-.336-.045-1.257-.113-1.998.472-1.099.856-1.122 2.544-.695 3.534.157.36.381.653.853 1.238.561.698.92 1.125 1.504 1.373.247.112.808.27 1.616.09.247.743.651 1.778 1.257 2.971.786 1.53 1.975 3.803 4.355 5.784.696.585 1.773 1.35 3.232 2.048.539.698 1.527 2.161 1.639 4.142.224 3.488-2.312 6.392-4.714 7.674-4.175 2.229-8.71 0-10.371-.832-.898-.45-5.41-2.791-7.295-7.923-2.29-6.189.696-12.379 2.469-16.07 1.796-3.714 2.626-3.466 3.996-7.09 1.818-4.794.853-6.482 2.94-10.15.808-1.44 2.447-4.322 5.881-5.672 2.941-1.148 5.657-.563 6.824-.225.966-.585 2.672-1.418 4.827-1.418 5.118 0 8.395 4.861 9.181 6.032 2.334 3.443 1.099 4.501 3.187 9.34 2.626 6.1 5.185 5.74 7.542 11.456 1.145 2.791 3.053 7.405.943 11.817-2.177 4.546-7.138 5.874-7.767 6.031-1.144.293-4.22 1.058-7.295-.585-.292-.157-4.153-2.273-4.467-5.897-.112-1.328.269-2.565.359-2.835.472-1.463 1.28-2.409 1.527-2.724.965-1.193 2.132-3.398 2.94-7.787a3.76 3.76 0 001.639-.473c1.324-.765 1.953-2.318 1.885-3.669-.022-.315-.112-2.115-1.414-2.723-.539-.248-1.1-.18-1.414-.112-4.175-4.232-8.373-8.396-12.571-12.582z" fill="#5222D0"/><path d="M115.155 78.19a23.179 23.179 0 00-5.32 4.277c-3.659 3.984-4.826 8.147-5.073 9.115-.157.608-.269 1.103-.314 1.463-.247-.09-.808-.248-1.369 0-.853.383-1.033 1.418-1.123 1.936-.224 1.193.225 2.138.404 2.498.247.518.651 1.35 1.617 1.778.785.36 1.526.225 1.84.158.314.81.763 1.935 1.459 3.218 1.055 2.026 2.043 3.894 3.951 5.559a12.676 12.676 0 003.704 2.251c.359.563.853 1.441 1.122 2.588.225.901.27 1.666.247 2.251.584.293 1.684.743 3.053.72 2.626-.045 4.355-1.688 4.759-2.093a20.346 20.346 0 01-.965-4.681 28.734 28.734 0 01-.09-2.341 13.221 13.221 0 002.245-3.219c1.234-2.453 1.436-4.726 1.459-6.054.314.045.942.113 1.616-.157.943-.383 1.369-1.216 1.616-1.688.067-.113 1.01-2.049.157-3.962-.202-.427-.539-1.215-1.212-1.283-.494-.045-.898.338-1.055.495a519.996 519.996 0 00-5.073-5.964c-2.088-2.453-3.412-3.984-5.634-5.56a25.183 25.183 0 00-2.021-1.305z" fill="#fff"/><path d="M112.057 102.07c-.225.518.83 1.441 1.324 1.824 1.033.765 2.133.877 2.537.9.471.045 2.02.157 3.434-.855.337-.248 1.28-.901 1.639-2.116.247-.878.179-2.093-.292-2.296-.359-.135-.696.315-1.459.855-1.347.923-2.739 1.148-3.928 1.328-2.021.315-3.031-.09-3.255.36z" fill="#2D2D2D"/><path d="M104.941 96.871c.808 3.376 2.11 6.685 4.265 9.431 1.908 2.453 4.737 4.816 8.037 4.501 3.052-.292 5.544-2.678 7.16-5.109 1.908-2.836 2.829-6.234 2.739-9.656-.023-.427-.696-.427-.674 0a15.92 15.92 0 01-2.357 8.846c-1.548 2.498-4.107 5.131-7.228 5.266-3.299.136-6.016-2.565-7.766-5.086-1.751-2.521-2.829-5.424-3.547-8.395-.09-.405-.741-.225-.629.202z" fill="#161616"/><path d="M114.481 110.488a8.476 8.476 0 011.414 4.749c0 .428.674.428.674 0a9.292 9.292 0 00-1.504-5.086c-.225-.383-.808-.045-.584.337z" fill="#161616"/><path d="M116.21 115.507c2.739 1.576 6.286.811 8.149-1.71.269-.338-.314-.675-.584-.338-1.661 2.228-4.848 2.859-7.228 1.463-.381-.202-.718.383-.337.585z" fill="#161616"/><path d="M122.675 107.472c.022 2.049.337 4.074.988 6.032.134.405.785.225.651-.18-.607-1.913-.943-3.848-.966-5.852 0-.45-.673-.45-.673 0zm-17.06-8.462c-.292.315-1.01.202-1.347.022a2.873 2.873 0 01-.718-.54 4.314 4.314 0 01-1.033-1.508c-.449-1.058-.651-4.096 1.347-3.556.427.112.606-.54.18-.653-2.469-.653-2.851 2.633-2.223 4.276.494 1.328 2.761 4.074 4.288 2.431.269-.315-.202-.788-.494-.472zm22.559-7.878c.269-.9 1.436.832 1.571 1.148.269.72.359 1.508.247 2.273-.18 1.53-1.392 2.993-3.075 2.566-.427-.113-.606.54-.18.652 2.716.698 4.175-2.138 3.928-4.456-.112-1.013-.516-2.318-1.481-2.858-.629-.338-1.437-.248-1.661.472-.135.45.516.608.651.203zm-20.158-4.772c.741-1.418 2.043-2.34 3.614-2.566.427-.067.247-.72-.179-.652-1.729.247-3.21 1.328-4.018 2.88-.202.383.381.72.583.338zm10.371-3.466c1.886-.45 3.771.495 4.624 2.206.202.383.763.045.584-.338a4.767 4.767 0 00-5.388-2.52c-.426.112-.247.765.18.652zm-4.893 2.769c.426 2.386.538 4.839.292 7.27-.09.742-.449 1.8-.113 2.543.359.81 1.325 1.508 1.931 2.138.292.315.785-.157.471-.472-.404-.428-.808-.833-1.212-1.26-.629-.654-.696-.856-.561-1.801.112-.856.224-1.733.269-2.611a26.508 26.508 0 00-.426-5.965c-.068-.45-.719-.27-.651.158zm-2.828 5.784a2.863 2.863 0 01-.449-1.755c0-.135.089-.72.202-.743.067 0 .179.788.202.878.045.292.067.607.067.9 0 .09-.022.833-.022.383-.023-.653.022-1.306.045-1.959-.225.023-.449.068-.651.09.112.698.179 1.396.179 2.116h.674v-.27c0-.428-.674-.428-.674 0v.27c0 .428.674.428.674 0a13.3 13.3 0 00-.202-2.296c-.068-.382-.651-.27-.651.09-.023.72-.113 1.508-.023 2.229.045.337.202.652.584.72 1.122.225.785-1.98.696-2.52-.068-.428-.135-1.081-.539-1.329-.337-.202-.696 0-.898.315-.561.946-.247 2.341.269 3.196.157.383.741.045.517-.315zm10.369-1.193a2.863 2.863 0 01-.449-1.756c0-.135.09-.72.202-.742.067 0 .18.787.202.877.045.293.068.608.068.9 0 .09-.023.833-.023.383-.022-.652.023-1.305.045-1.958-.224.023-.449.068-.651.09.112.698.18 1.396.18 2.116h.673v-.27c0-.428-.673-.428-.673 0v.27c0 .427.673.427.673 0 0-.765-.067-1.53-.202-2.296-.067-.382-.651-.27-.651.09-.022.72-.112 1.508-.022 2.228.044.338.202.653.583.72 1.123.226.786-1.98.696-2.52-.067-.428-.135-1.08-.539-1.328-.336-.203-.696 0-.898.315-.561.945-.246 2.34.27 3.196.157.405.741.067.516-.315zm-13.692 3.264c.427 0 .427-.675 0-.675-.426 0-.426.675 0 .675zm2.649.495h.09a.346.346 0 00.337-.338.346.346 0 00-.337-.337h-.09a.346.346 0 00-.337.338c0 .18.135.337.337.337zm-1.571 2.07c.426 0 .426-.675 0-.675-.427 0-.449.675 0 .675zm12.75-2.903h.089c.18 0 .337-.158.337-.338a.346.346 0 00-.337-.337h-.089a.346.346 0 00-.337.338c0 .18.135.337.337.337zm2.469-1.665c.426 0 .426-.675 0-.675-.427 0-.427.675 0 .675zm-.338 1.823h.09a.346.346 0 00.336-.337.345.345 0 00-.336-.338h-.09a.346.346 0 00-.337.338c.023.18.157.337.337.337zm-10.684 9.251c-.359-.518-.942-1.261-.695-1.936.291-.765 1.212-.653 1.818-.563.741.113 1.347.248 2.065.023.584-.18 1.1-.563 1.639-.856 1.279-.72 2.783-.787 3.187.901 1.145 4.614-6.981 5.919-8.238 1.868-.135-.405-.786-.248-.651.18 1.549 4.974 11.156 3.128 9.473-2.386-.292-.923-.988-1.71-1.976-1.823-1.616-.157-2.671 1.463-4.22 1.576-1.145.09-2.536-.788-3.457.292-.83.968-.157 2.206.449 3.061.27.36.853.023.606-.337z" fill="#161616"/><path d="M111.317 101.305c.494 1.373 2.963.945 4.04.788 2.065-.315 3.951-1.216 5.545-2.544.337-.27-.135-.765-.472-.472a10.398 10.398 0 01-3.995 2.116c-.651.18-4.086.945-4.445-.045-.179-.428-.83-.248-.673.157zm3.995 9.881c2.626.675 6.128-.991 7.61-3.174.247-.36-.337-.698-.584-.338-1.302 1.914-4.557 3.444-6.846 2.859-.427-.113-.607.54-.18.653z" fill="#161616"/><path d="M115.559 111.389c2.334 1.463 6.173-.608 7.295-2.836.202-.383-.381-.72-.583-.338-.943 1.891-4.378 3.849-6.375 2.611-.382-.248-.719.338-.337.563z" fill="#161616"/><path opacity=".2" d="M124.874 87.531c.157.81.359 2.093.494 3.646.314 4.142.853 11.074-3.322 15.688-.898.99-2.806 2.746-6.33 3.736a18.835 18.835 0 003.973-.563c.741-.18 1.414-.405 2.02-.652.09 2.003.157 4.006.247 6.009.763-.495 1.504-.968 2.267-1.463-1.032-2.296-1.032-4.074-.898-5.199.202-1.576.786-2.858 1.37-4.141a18.687 18.687 0 011.481-2.656c.045.472.157.968.471 1.44 1.37 2.048 5.657 2.251 8.351.495 2.492-1.62 3.704-4.906 3.075-8.282.427.36.876.788 1.302 1.305.337.405 1.212 1.576 2.424 5.695.382 1.282.562 1.935.674 2.588.135.9.381 2.611-.09 4.546-.808 3.331-3.21 5.244-3.928 5.785a11.896 11.896 0 01-4.445 2.07c-1.122.248-4.489 1.058-7.654-.787-1.19-.698-1.841-1.216-2.2-1.846-.382-.698-.427-1.35-.472-1.846-.202-3.083-.291-4.636-.089-5.694.606-3.061 1.975-3.376 2.738-6.865.27-1.26.337-2.318.359-2.993.292.045.741.09 1.28-.045 1.122-.293 1.683-1.215 1.885-1.553.809-1.283 1.168-3.579-.089-4.636-.18-.158-.808-.63-2.021-.54a122.907 122.907 0 00-2.873-3.242z" fill="#3F3F3F"/><path opacity=".13" d="M114.234 94.823c1.145.338 2.312.698 3.457 1.036-.292.27-.583.517-.898.787-.292.248-.561.45-.853.675a4.751 4.751 0 01-1.279-1.462 3.76 3.76 0 01-.427-1.036z" fill="#3F3F3F"/><path opacity=".16" d="M96.231 97.636c-2.446 8.666-.628 15.665 3.03 17.196 2.874 1.193 8.059-.495 9.025-3.444.134-.382.269-1.057-.247-3.128-.449-1.823-1.37-4.569-3.435-7.698a5.41 5.41 0 01-1.279-1.125 5.119 5.119 0 01-1.078-2.498c.651.675 1.594 1.53 2.2 1.26.584-.27.943-1.08.741-1.89a28.003 28.003 0 001.1 4.096c.763 2.183 1.526 4.299 3.3 6.302.808.923 2.402 2.431 5.095 3.511a7.531 7.531 0 011.549 3.556c.045.27.202 1.508-.202 3.061-.09.36-.628 2.318-2.402 4.006-2.065 1.981-4.534 2.341-5.342 2.454-6.084.81-10.797-4.524-11.628-5.447-.83-.945-2.2-2.521-2.986-4.952-1.257-3.871-.291-7.359.404-9.903a25.193 25.193 0 012.156-5.356z" fill="#3F3F3F"/></svg>