<svg width="30" height="22" fill="none" xmlns="http://www.w3.org/2000/svg"><path d="M29.235 18.804v-15.3a2.547 2.547 0 00-2.55-2.55H2.868a2.547 2.547 0 00-2.55 2.55v15.3a2.547 2.547 0 002.55 2.55h23.817a2.547 2.547 0 002.55-2.55zM27.008 3.317c.561.561.255 1.14-.05 1.428l-6.903 6.324 6.63 6.902c.204.238.34.612.102.867-.22.272-.73.255-.952.085l-7.429-6.34-3.638 3.314-3.62-3.315-7.43 6.341c-.22.17-.73.187-.952-.085-.238-.255-.102-.629.102-.867l6.63-6.902-6.902-6.324c-.306-.289-.612-.867-.05-1.428.56-.56 1.138-.289 1.614.12l10.608 8.567 10.625-8.568c.476-.408 1.054-.68 1.615-.119z" fill="#0071BC"/></svg>