<svg width="55" height="70" fill="none" xmlns="http://www.w3.org/2000/svg"><path d="M49.795 70h-.612c-.973-1.867-2.066-3.665-3.182-5.449-8.56-13.67-17.735-26.938-26.866-40.234-.056-.084-.093-.24-.31-.163l.646 1.045A637.976 637.976 0 0138.586 58.23c.51.944.443 1.055-.648.996a24.008 24.008 0 01-8.783-2.17c-4.43-2.033-8.103-5.044-11.341-8.615-5.559-6.132-9.595-13.181-12.768-20.755-.255-.607-.094-.766.539-.681 1.566.21 3.137.388 4.708.573.31.037.63.139.953-.027-.058-.095-.077-.147-.112-.179a4.101 4.101 0 00-.297-.24C5.627 23.317 2.472 18.2.888 12.017-.279 7.47.061 2.907.006.78-.01.119.17-.09.792.033c.412.134.817.283 1.234.398 4.614 1.281 9.05 3 13.235 5.32 8.733 4.835 15.94 11.232 20.786 20.035 2.387 4.336 4.58 8.756 6.107 13.474.398 1.23.678 2.49.994 3.743.06-2.16-.132-4.3-.444-6.426-.84-5.7-2.501-11.1-5.933-15.848-.246-.34-.292-.67-.176-1.067.672-2.308 1.348-4.615 1.99-6.93 1.027-3.69 3.62-5.55 7.284-6.139 3.468-.559 6.378.942 7.998 4.037.534 1.021.81 2.123 1.133 3.215v.758c-2.256-.308-4.162.47-5.076 2.257-.951 1.863-.412 3.573.837 5.138.898 1.123 1.5 2.408 1.959 3.755 1.753 5.128 1.873 10.38.988 15.653-1.02 6.073-3.872 11.139-8.888 14.892-.478.358-.354.62-.086.994a146.248 146.248 0 014.256 6.302c1.301 2.03 1.428 4.161.805 6.406zm.749-59.664c-.01-.872-.619-1.479-1.492-1.486-.906-.008-1.54.624-1.53 1.524.008.896.658 1.511 1.57 1.485.869-.024 1.46-.645 1.452-1.523z" fill="#0071BC"/></svg>