<svg width="635" height="499" fill="none" xmlns="http://www.w3.org/2000/svg"><path d="M454.676 70.411c.095 1.485.143 2.97.239 4.407 0 .287.192.67.527.67 40.307 5.556 80.949.862 121.4.958 11.441 0 22.834.431 34.228 1.533.287.048.622-.24.67-.527.383-1.964.814-3.927 1.196-5.891.192-.91-1.196-1.293-1.388-.383-.383 1.963-.814 3.927-1.197 5.89.24-.19.479-.334.671-.526-40.068-3.927-80.28 1.006-120.443.144-11.633-.24-23.265-1.006-34.802-2.587.191.24.335.48.526.67-.095-1.484-.143-2.969-.239-4.406 0-.862-1.436-.862-1.388.048z" fill="#F3F3F3"/><path d="M455.872 71.13h156.011c.91 0 .91-1.437 0-1.437H455.872c-.909 0-.909 1.437 0 1.437z" fill="#F3F3F3"/><path d="M464.585 69.98c1.197-17.194 2.202-34.437 3.686-51.584.191-2.251.431-4.455.814-6.658.143-.814.191-2.49.67-3.161.622-.862 1.963-.862 2.92-1.006 2.202-.383 5.888-1.724 7.42.527.431.67.527 2.06.67 2.874.287 1.437.479 2.873.623 4.31.765 8.43-.336 17.004-.958 25.434l-2.154 29.312c-.048.91 1.388.91 1.436 0 1.053-13.986 2.202-27.923 3.064-41.91.383-6.417.574-12.98-1.005-19.302-.431-1.772-1.102-3.257-3.112-3.448-3.064-.24-6.606.814-9.574 1.437-.24.048-.431.287-.479.479-2.537 9.914-2.441 20.595-3.159 30.75-.766 10.632-1.484 21.313-2.25 31.947-.096.91 1.34.91 1.388 0z" fill="#F3F3F3"/><path d="M482.393 26.73a1093.606 1093.606 0 0018.478 43.681c.383.862 1.628.096 1.245-.718a1106.984 1106.984 0 01-18.335-43.347c-.335-.862-1.723-.479-1.388.384zm1.245-7.712c1.196-3.4 4.882-5.269 8.329-4.31.91.239 1.293-1.15.383-1.39-4.213-1.197-8.665 1.198-10.101 5.317-.287.91 1.101 1.245 1.389.383z" fill="#F3F3F3"/><path d="M491.967 14.995c9.478 18.393 18.909 36.833 28.387 55.225.431.814 1.676.096 1.245-.718-9.478-18.392-18.909-36.833-28.387-55.225-.431-.862-1.676-.144-1.245.718z" fill="#F3F3F3"/><path d="M516.908 2.638c1.532 22.272 3.064 44.544 4.548 66.816.047.91 1.484.91 1.436 0a31218.777 31218.777 0 01-4.548-66.816c-.048-.91-1.484-.91-1.436 0z" fill="#F3F3F3"/><path d="M518.152 3.404c2.442-2.203 5.745-2.203 8.809-1.676 1.244.191 2.585.43 3.781.862 2.202.814 1.867 2.826 1.963 4.79.287 6.849.527 13.698.814 20.547.526 13.843 1.101 27.733 1.628 41.575.047.91 1.484.91 1.436 0-.671-16.572-1.293-33.145-1.963-49.67-.144-4.118-.335-8.285-.479-12.404-.096-2.108.192-4.694-2.01-5.844-2.298-1.197-5.841-1.628-8.426-1.58-2.489.047-4.691.718-6.51 2.394-.718.575.287 1.629.957 1.006zM493.116 14.18c4.548.288 9 1.63 13.356 2.875 4.021 1.15 7.946 2.586 11.345 5.077.766.526 1.484-.719.718-1.246-3.542-2.538-7.563-4.023-11.728-5.22-4.5-1.294-9.048-2.587-13.739-2.922-.91-.096-.91 1.34.048 1.437z" fill="#F3F3F3"/><path d="M534.381 11.642c2.106-.527 4.452-1.054 6.654-.623 3.255.67 3.925 3.545 4.069 6.466.239 5.892.335 11.735.478 17.626.288 11.591.431 23.182.479 34.773 0 .91 1.436.91 1.436 0a1704.934 1704.934 0 00-.622-41.43c-.096-3.353-.192-6.658-.287-10.01-.096-2.204-.048-4.647-1.389-6.515-2.489-3.496-7.611-2.634-11.153-1.724-.958.287-.575 1.677.335 1.437z" fill="#F3F3F3"/><path d="M544.864 4.075V16.96c0 .91 1.436.91 1.436 0V4.075c0-.91-1.436-.91-1.436 0z" fill="#F3F3F3"/><path d="M546.971 4.602c.383.144.813.287 1.196.43.048.336.096.671.144 1.055.096.766.096 1.58.192 2.395.095 1.245.191 2.538.287 3.783.191 2.683.335 5.413.478 8.095a640.73 640.73 0 01.766 16.668c.431 10.968.575 21.937.575 32.905 0 .91 1.436.91 1.436 0 0-13.65-.287-27.349-.91-41a934.918 934.918 0 00-1.196-19.973c-.096-1.628.191-4.598-1.293-5.747-1.005-.766-2.393-.48-2.92.67-.335.863.862 1.581 1.245.719zm-70.562 72.851c1.484 2.49 2.92 6.227 5.314 7.999 2.345 1.772 5.218.191 7.803 1.101.861.288 1.244-1.101.383-1.389-2.298-.814-4.979.48-7.037-.814-2.346-1.437-3.83-5.316-5.218-7.663-.479-.767-1.724-.048-1.245.766z" fill="#F3F3F3"/><path d="M491.441 78.075c-.192 2.49-.958 4.742-2.202 6.85-.479.814.765 1.532 1.244.718 1.436-2.347 2.202-4.886 2.394-7.568.095-.91-1.341-.91-1.436 0z" fill="#F3F3F3"/><path d="M487.371 79.273c.431 2.203.862 4.406 1.341 6.61.191.91 1.58.526 1.388-.384a330.604 330.604 0 00-1.34-6.61c-.192-.91-1.58-.526-1.389.384z" fill="#F3F3F3"/><path d="M489.095 79.225c.095 0 .191.048.287.096.144.287.144.575.096.862-.048.335-.192.67-.288 1.006-.191.67-.239 1.293-.047 1.964.287.91 1.531.527 1.388-.384-.24-1.293-.048-2.586.478-3.783-.478-.048-.957-.144-1.388-.192-.143 1.485-.239 3.018-.383 4.502-.095.91 1.341.91 1.436 0 .144-1.484.24-3.017.383-4.502.096-.862-1.148-.862-1.388-.191-.622 1.484-.718 3.017-.479 4.55.479-.144.91-.24 1.389-.384-.431-1.436 1.244-3.209-.192-4.502-.861-.766-2.25-.479-2.585.623-.383.862 1.006 1.245 1.293.335zm75.013-10.489c-.431-1.773-.622-3.497-.478-5.317l-.718.719c8.473-.432 16.946-.958 25.419-1.15 4.26-.096 8.521-.096 12.781 0 .958 0 1.915.048 2.825.048.957.048 2.92-.287 3.781.144 1.915.91 1.102 4.598 1.102 6.274 0 .91 1.436.91 1.436 0 0-2.251 1.149-7.04-1.915-7.663-2.106-.431-4.596-.192-6.75-.24-2.681-.048-5.361-.096-8.042-.048-10.197.048-20.393.67-30.637 1.198a.737.737 0 00-.719.718c-.095 1.964.048 3.832.575 5.7.143.91 1.532.527 1.34-.383z" fill="#F3F3F3"/><path d="M569.422 54.318c.574 2.635 1.005 5.269 1.197 7.951.048.91 1.484.91 1.436 0a53.822 53.822 0 00-1.245-8.334c-.191-.862-1.579-.479-1.388.383z" fill="#F3F3F3"/><path d="M570.379 55.229c5.793-.48 11.585-1.006 17.377-.767 5.458.24 10.963 2.012 16.42 1.437l-.718-.718a18.416 18.416 0 00.91 7.376c.287.862 1.675.479 1.388-.383a17.287 17.287 0 01-.862-6.993c.048-.383-.335-.767-.718-.719-5.457.527-10.962-1.245-16.42-1.437-5.792-.239-11.632.288-17.377.767-.909.048-.909 1.485 0 1.437zm-48.732 148.623v5.988c0 .91 1.436.91 1.436 0v-5.988c0-.91-1.436-.91-1.436 0z" fill="#F3F3F3"/><path d="M522.365 203.373h111.73c.91 0 .91-1.436 0-1.436h-111.73c-.957 0-.957 1.436 0 1.436zm1.149 6.61h109.959c.91 0 .91-1.437 0-1.437H523.514c-.91 0-.91 1.437 0 1.437z" fill="#F3F3F3"/><path d="M633.377 203.852v4.167c0 .91 1.436.91 1.436 0v-4.167c0-.91-1.436-.91-1.436 0zm-100.672-16.141c1.245 4.934 2.394 9.915 3.351 14.896.191.91 1.58.527 1.388-.383-.957-4.981-2.058-9.963-3.351-14.896-.239-.91-1.627-.527-1.388.383zm24.893-.431c-1.149 4.933-2.106 9.867-2.825 14.848-.143.91 1.245 1.293 1.389.383a172.687 172.687 0 012.824-14.848c.192-.91-1.197-1.293-1.388-.383z" fill="#F3F3F3"/><path d="M528.78 185.028c.095 2.491 3.829 2.299 5.648 2.395 4.117.192 8.282-.431 12.399-.67 2.058-.144 4.117-.192 6.175 0 1.676.143 3.495.718 5.122.383 1.82-.383 2.968-2.108 1.915-3.784-.478-.766-1.723-.048-1.244.718 1.34 2.252-3.208 1.533-3.639 1.485a33.371 33.371 0 00-3.063-.287c-2.346-.144-4.739 0-7.085.192-1.532.095-14.744 1.676-14.792-.432 0-.958-1.436-.958-1.436 0z" fill="#F3F3F3"/><path d="M530.455 184.837c-.862-2.683 6.558-2.395 7.803-2.443 2.202-.096 4.452-.192 6.654-.287 1.197-.048 13.643-.384 13.308.526-.287.863 1.101 1.246 1.388.384 1.436-4.263-14.121-2.395-16.132-2.299-3.734.143-7.899-.192-11.537.526-1.915.384-3.542 1.821-2.872 3.928.287.91 1.675.527 1.388-.335z" fill="#F3F3F3"/><path d="M536.822 180.861c-2.202-1.005-4.165-2.442-5.697-4.262-.622-.767-5.026-7.137-2.441-7.52.431-.048.67-.719.431-1.054-1.388-2.012-1.963-4.598-2.681-6.897-.814-2.491-1.58-4.981-2.394-7.424-.143-.527-.383-1.006-.478-1.533-.24-1.006-.383-1.006.814-1.101 1.292-.096 1.962.91 2.824 1.772 1.628 1.628 3.064 3.4 4.356 5.268 4.835 6.993 7.516 15.232 9.527 23.422.239.91 1.627.527 1.388-.383-2.585-10.442-6.367-21.171-14.026-29.074-1.054-1.101-3.064-3.64-4.835-3.352-1.341.239-1.724 1.676-1.628 2.874.192 2.682 1.628 5.603 2.489 8.19.958 2.969 1.58 6.418 3.399 9.004.144-.335.287-.718.431-1.053-3.159.479-1.34 4.885-.479 6.609 1.819 3.497 4.74 6.179 8.282 7.856.814.287 1.532-.958.718-1.342z" fill="#F3F3F3"/><path d="M538.45 167.737c-.144-6.082-.288-12.405 1.771-18.2 1.005-2.826 2.537-5.365 4.308-7.76.431-.622.91-1.628 1.58-2.011.479-.767 1.197-.862 2.106-.24 1.149-.287 1.724 0 1.724.862.574 1.294.383 3.497.383 4.838 0 3.209-.766 6.179-1.532 9.244-.288 1.054-.527 2.155-.431 3.209.096 1.245.766 2.203 1.101 3.353.957 3.257-.718 6.61-1.867 9.579-1.149 3.114-2.346 6.227-3.495 9.388-.335.862 1.054 1.245 1.389.383 1.531-4.119 3.159-8.19 4.595-12.357 1.005-2.922 1.484-5.46.335-8.334-1.532-3.88.91-8.238 1.245-12.214.191-2.586.622-6.993-1.053-9.292-3.638-5.029-9.431 5.7-10.58 8.095-3.255 6.705-3.207 14.225-3.015 21.505.047.91 1.484.91 1.436-.048zm-12.064-11.782c4.739 6.658 7.564 14.657 10.867 22.081.383.862 1.628.095 1.245-.719-3.256-7.472-6.128-15.423-10.867-22.08-.527-.767-1.771-.048-1.245.718z" fill="#F3F3F3"/><path d="M539.598 152.555c.192 2.538 1.054 4.789 2.633 6.753.575.718 1.58-.287 1.006-1.006-1.293-1.676-2.059-3.64-2.202-5.747-.048-.91-1.484-.91-1.437 0zm6.511-.336c1.149-1.724 2.346-3.449 3.494-5.173.527-.766-.718-1.485-1.244-.718-1.149 1.724-2.346 3.448-3.495 5.172-.479.767.766 1.485 1.245.719zm14.265-.958c-1.197 1.916-2.92 3.401-4.5 4.934-1.723 1.628-3.446 3.304-5.17 4.933-.67.623.335 1.676 1.006 1.006 3.303-3.161 7.467-6.227 9.909-10.154.479-.767-.766-1.485-1.245-.719z" fill="#F3F3F3"/><path d="M559.752 153.177c.096 2.538 4.308 7.232 1.053 8.765-.431.239-.431.814-.143 1.15 1.101 1.341.383 3.352.239 4.933-.144 1.772 0 3.544-.479 5.269-.861 3.304-3.925 5.268-6.654 6.992-.766.479-.048 1.725.718 1.246 3.303-2.108 6.702-4.503 7.468-8.622.383-2.203.383-4.502.575-6.705.191-1.581.143-2.826-.91-4.071l-.144 1.149c4.548-2.155-.239-7.041-.335-10.01 0-1.006-1.436-1.006-1.388-.096z" fill="#F3F3F3"/><path d="M557.454 160.219a107.416 107.416 0 00-8.473 16.715c-.335.863 1.053 1.246 1.388.384 2.298-5.7 5.075-11.16 8.33-16.381.478-.814-.766-1.533-1.245-.718zm-22.212 37.311c1.915 2.586 4.548 4.358 7.707 5.029.91.191 1.293-1.198.383-1.389-2.776-.575-5.17-2.06-6.845-4.359-.527-.718-1.771 0-1.245.719zm-.814-5.892c4.931 3.784 10.149 9.197 16.468 10.49.909.191 1.292-1.198.383-1.389-6.128-1.246-11.298-6.658-16.133-10.346-.718-.575-1.436.671-.718 1.245zm3.782-3.639c2.968 2.442 5.84 4.933 8.856 7.28 1.293 1.006 2.633 1.964 4.213 2.586 1.484.623 3.064.911 4.404 1.868.766.527 1.484-.718.718-1.245-1.053-.718-2.106-1.054-3.255-1.485-1.963-.67-3.543-1.58-5.17-2.873-2.968-2.3-5.84-4.742-8.713-7.137-.766-.575-1.771.431-1.053 1.006zm7.851-.672a24.06 24.06 0 009.957 6.227c.862.287 1.245-1.102.383-1.389a22.824 22.824 0 01-9.335-5.891c-.622-.623-1.675.383-1.005 1.053zm35.233 13.939c-.287-.766-.718-1.772-.67-2.586.191-2.108 1.627-2.299 3.015-2.539 2.011-.383 4.117-.431 6.176-.431 3.494-.048 7.037.24 10.531.383 3.495.096 6.942-.095 10.436-.383 1.436-.144 3.973-.718 5.362-.239 1.436.527 1.819 1.245 1.867 2.586.048 1.054.048 2.108.095 3.209.048.91 1.484.91 1.437 0-.048-1.628.43-4.502-.383-6.035-.766-1.341-2.538-1.197-3.878-1.197-5.457 0-10.771.814-16.276.575-5.074-.192-10.196-.623-15.223.143-4.117.623-5.17 3.161-3.782 6.993.192.767 1.58.383 1.293-.479z" fill="#F3F3F3"/><path d="M591.443 193.554c.382-.862.718-1.724 1.101-2.586.43-.048.861-.096 1.292-.192.574-.048 1.101 0 1.676-.048 1.244 0 2.441-.048 3.686-.048 2.632-.047 5.217-.047 7.85-.095 2.442-.048 4.931-.048 7.372-.096.623 0 1.245 0 1.867-.048.766 0 1.006-.192 1.245.383.287.719-.239 2.73-.335 3.497-.096.91 1.34.91 1.436 0 .096-1.15.814-3.545.239-4.598-.478-.863-1.196-.719-2.154-.719-4.595 0-9.239.144-13.834.192-2.155.048-4.309.048-6.463.095-1.628 0-3.638-.191-5.122.575-1.723.91-2.537 3.257-.862 4.646.718.623 1.724-.383 1.006-.958z" fill="#F3F3F3"/><path d="M601.304 187.711c-1.245-1.676 3.973-1.485 4.308-1.533 1.149-.095 5.074-.814 4.309 1.773-.288.91 1.101 1.245 1.388.383.335-1.15-.048-2.204-.958-2.97-1.579-1.293-3.542-.67-5.409-.575-1.484.048-3.255-.431-4.452.719-.862.766-1.101 1.964-.431 2.921.575.719 1.819 0 1.245-.718zm-73.243 23.325a26.16 26.16 0 006.511 6.275c.766.527 1.484-.719.718-1.245-2.298-1.581-4.356-3.497-5.984-5.796-.574-.718-1.819 0-1.245.766z" fill="#F3F3F3"/><path d="M534.38 216.832h4.74c.909 0 2.393.24 3.207-.191.622-.336.814-1.102 1.101-1.677a27.556 27.556 0 012.729-4.358c.574-.719-.431-1.725-1.006-1.006-.526.622-1.005 1.293-1.484 1.963-.574.911-.957 2.204-1.627 3.018-1.341 1.581-5.697.862-7.66.814-.909 0-.909 1.437 0 1.437z" fill="#F3F3F3"/><path d="M539.694 210.941c.383 1.437.766 2.921 1.197 4.358.239.91 1.628.527 1.388-.383-.383-1.437-.766-2.922-1.197-4.359-.239-.91-1.627-.526-1.388.384zm58.355-.24c.765 1.581 1.579 3.114 2.585 4.55.526.767 1.196 1.964 2.106 2.395.957.479 2.298.096 3.255 0 1.724-.191 3.447-.335 5.17-.527.91-.095.91-1.532 0-1.437-1.149.096-2.298.24-3.447.336-1.005.096-2.489.527-3.446.335-2.489-.479-4.021-4.406-4.979-6.418-.431-.814-1.675-.096-1.244.766z" fill="#F3F3F3"/><path d="M611.213 209.504c-.574 2.059-.862 4.167-.814 6.274.048.91 1.484.91 1.436 0a20.301 20.301 0 01.718-5.891c.288-.862-1.101-1.246-1.34-.383z" fill="#F3F3F3"/><path d="M611.836 216.497c1.914-1.82 3.734-3.736 5.505-5.699.622-.671-.383-1.725-1.006-1.006-1.771 1.963-3.59 3.879-5.505 5.699-.67.623.335 1.629 1.006 1.006zM304.409 70.412v40.473c0 .91 1.437.91 1.437 0V70.412c0-.91-1.437-.91-1.437 0z" fill="#F3F3F3"/><path d="M305.558 111.986h51.318c.909 0 .909-1.437 0-1.437h-51.318c-.957 0-.957 1.437 0 1.437zm0-40.856h49.786c.91 0 .91-1.437 0-1.437h-49.786c-.957 0-.957 1.437 0 1.437z" fill="#F3F3F3"/><path d="M355.344 70.412v40.473c0 .91 1.436.91 1.436 0V70.412c0-.91-1.436-.91-1.436 0zm-24.223-1.197a3.27 3.27 0 01.335-1.772c.144-.336.718-1.198 1.054-.958.383.24.526 1.34.574 1.724a6.5 6.5 0 01.048 2.155c-.096.91 1.34.91 1.436 0 .096-1.245 0-2.49-.431-3.688-.287-.766-.67-1.676-1.58-1.772-1.962-.24-2.968 2.778-2.872 4.263.048 1.006 1.484 1.006 1.436.048zm-23.983 5.843v32.282c0 .91 1.436.91 1.436 0V75.058c0-.91-1.436-.91-1.436 0z" fill="#F3F3F3"/><path d="M307.856 108.059h45.094c.91 0 .91-1.437 0-1.437h-45.094c-.909 0-.909 1.437 0 1.437z" fill="#F3F3F3"/><path d="M354.099 106.957V74.675c0-.91-1.436-.91-1.436 0v32.282c0 .958 1.436.958 1.436 0z" fill="#F3F3F3"/><path d="M308.239 76.16h43.562c.91 0 .91-1.437 0-1.437h-43.562c-.91 0-.91 1.437 0 1.437zm.239 24.283c5.601-1.676 11.298-3.161 16.851-.575 3.973 1.868 7.42 4.694 11.872 5.508.909.144 1.292-1.197.383-1.389-5.074-.958-8.904-4.646-13.739-6.274-5.218-1.724-10.675-.192-15.75 1.341-.861.287-.478 1.676.383 1.389z" fill="#F3F3F3"/><path d="M327.148 99.629c6.846-2.395 13.978-3.257 21.159-2.539.909.096.909-1.341 0-1.437-7.324-.718-14.601.144-21.542 2.587-.862.335-.479 1.724.383 1.389zm1.484-11.113c-.527-.91-.383-2.25.527-2.874.813-.574 2.106-.335 2.68.432.575.814.24 2.107-.67 2.586-1.053.527-2.25-.479-2.25-1.533 0-.91-1.436-.91-1.436 0-.048 1.916 1.915 3.545 3.83 3.018 1.771-.48 2.728-2.73 1.962-4.359-.765-1.724-3.063-2.347-4.691-1.485-1.771.958-2.202 3.305-1.245 4.982.527.766 1.724.048 1.293-.767zM561.81 77.357c1.724 2.299 2.059 5.412 4.165 7.424 1.963 1.916 4.308 1.628 6.702.766.862-.287.479-1.676-.383-1.389-1.292.431-2.776.91-4.117.383-1.149-.479-1.915-1.532-2.489-2.634-.91-1.772-1.436-3.688-2.633-5.317-.574-.718-1.819 0-1.245.767z" fill="#F3F3F3"/><path d="M572.486 84.972a34.911 34.911 0 006.031-6.705c.527-.767-.718-1.485-1.244-.719a32.127 32.127 0 01-5.793 6.418c-.718.575.288 1.629 1.006 1.006zm-3.495-8.142c.67 1.58.957 3.21.91 4.886-.048.91 1.388.91 1.436 0a13.167 13.167 0 00-1.101-5.604c-.335-.862-1.58-.144-1.245.718zm-38.345 187.372v19.159c0 .91 1.437.91 1.437 0v-19.159c0-.91-1.437-.91-1.437 0zm-17.472 21.794h50.743c.909 0 .909-1.437 0-1.437h-50.743c-.91 0-.91 1.437 0 1.437zm27.525 1.196v11.974c0 .91 1.436.91 1.436 0v-11.974c0-.91-1.436-.91-1.436 0z" fill="#F3F3F3"/><path d="M512.695 301.322h44.999c.909 0 .909-1.437 0-1.437h-44.999c-.909 0-.909 1.437 0 1.437zm11.25 1.197v9.101c0 .91 1.436.91 1.436 0v-9.101c0-.91-1.436-.91-1.436 0zm4.787-231.915c0-2.012-.383-4.55 0-6.514.526-2.778 4.404-2.251 6.654-2.395.91-.048.91-1.485 0-1.437-1.819.096-3.734.096-5.553.383-.814.144-1.532.383-2.011 1.102-.574.862-.478 2.06-.478 3.065v5.796c-.048.958 1.388.958 1.388 0zm-8.425-53.502c4.356-1.197 8.712-.91 12.877.767.862.335 1.244-1.054.383-1.39-4.404-1.771-9.048-2.01-13.643-.766-.91.288-.527 1.677.383 1.39zm-1.772-4.31c3.83-2.634 8.426-3.113 12.734-1.39.862.336 1.244-1.053.383-1.388a14.56 14.56 0 00-13.835 1.533c-.766.526-.048 1.772.718 1.245zM502.977 37.89c-1.532 1.054-4.452 2.443-4.883 4.454-.191 1.054.288 2.012.671 2.97.67 1.676 1.34 3.353 2.058 5.03a203.047 203.047 0 009.335 19.206c.431.814 1.675.096 1.245-.719a209.043 209.043 0 01-7.325-14.656 167.438 167.438 0 01-3.398-7.999c-.623-1.58-1.485-2.97-.336-4.598.671-.958 2.394-1.772 3.399-2.443.718-.527 0-1.772-.766-1.245z" fill="#F3F3F3"/><path d="M301.681 272.632c-3.926 2.922-8.665 7.615-10.388 14.321-1.245 4.981-.048 7.903-.479 14.321-.287 4.454-1.436 10.729-5.122 18.201-8.377-1.724-22.451-3.401-39.063.431a90.68 90.68 0 00-23.696 9.148c.91.575 2.155 1.246 3.734 1.677 8.952 2.442 18.383-5.077 18.67-4.551.287.479-10.532 5.556-9.957 9.963.383 2.97 5.696 4.55 11.201 6.226 4.644 1.389 9.048 2.731 14.936 2.06 8.09-.91 13.691-4.981 16.18-7.089a69.77 69.77 0 0010.388 4.167c8.186 2.491 19.484 5.94 27 1.246 4.882-3.066 6.366-10.25 9.143-24.523 3.351-17.387 4.931-26.104.431-33.241-5.888-9.531-18-11.735-22.978-12.357z" fill="#fff" stroke="#2D2D2D" stroke-width="3" stroke-miterlimit="10"/><path d="M284.16 320.001c5.792 2.156 10.579 6.083 13.883 11.304.478.766 1.723.048 1.244-.718-3.494-5.556-8.617-9.676-14.744-11.975-.91-.335-1.245 1.054-.383 1.389zm-30.829 9.436c-5.696.958-10.292 4.79-12.35 10.154-.335.862 1.053 1.246 1.388.383 1.867-4.885 6.175-8.286 11.345-9.148.91-.144.527-1.533-.383-1.389zm6.702 4.79c-2.058 1.245-3.973 2.682-5.792 4.215-1.197 1.054-2.537 2.299-2.25 4.023.718 4.551 6.175 3.545 9.143 2.395.862-.335.479-1.724-.383-1.389-1.292.479-2.728 1.102-4.117 1.054-2.25-.096-4.26-2.251-2.345-4.215 1.819-1.916 4.212-3.449 6.462-4.885.766-.479.048-1.725-.718-1.198z" fill="#2D2D2D"/><path d="M346.344 213.671c-2.441.814-5.553 2.059-9.047 3.784-1.006.479-3.543 1.772-6.271 3.544-4.213 2.682-7.277 5.508-10.771 9.053-4.452 4.55-8.952 9.1-14.314 16.38-4.5 6.131-11.489 15.758-16.515 29.888a94.719 94.719 0 00-3.83 13.89 24.508 24.508 0 016.894-2.73c10.77-2.443 21.111 3.017 30.924 8.142 3.686 1.916 6.606 3.784 8.617 5.077 1.053-5.173 2.106-10.393 3.159-15.566.91-4.359 1.771-8.765 2.681-13.124 1.388-1.197 3.255-2.969 5.314-5.268 3.877-4.407 11.584-13.172 12.638-25.338 1.292-14.034-7.037-24.763-9.479-27.732z" fill="#FF6871"/><path d="M343.52 214.246c-5.122.766-9.526 3.496-13.5 6.657-4.595 3.593-8.904 7.568-12.925 11.783a138.566 138.566 0 00-20.345 27.062c-.479.814.766 1.532 1.245.718 5.457-9.483 11.967-18.296 19.531-26.199a146.735 146.735 0 0111.633-10.873c4.356-3.592 8.999-6.945 14.744-7.807.909-.096.526-1.485-.383-1.341zm-2.011 52.303a319.327 319.327 0 01-10.866 10.49c-.671.622.335 1.628 1.005 1.005 3.686-3.4 7.324-6.897 10.867-10.489.622-.67-.383-1.676-1.006-1.006z" fill="#2D2D2D"/><path d="M336.531 273.11c-1.676 9.197-3.303 18.441-4.979 27.637.335-.144.718-.288 1.053-.431a81.906 81.906 0 00-25.084-11.783c-7.037-1.916-15.989-3.784-22.02 1.533-.671.622.335 1.628 1.005 1.006 6.127-5.461 16.037-2.587 22.978-.479 7.994 2.442 15.51 6.178 22.355 10.92.383.24.958 0 1.054-.431 1.675-9.196 3.303-18.44 4.978-27.636.192-.863-1.197-1.246-1.34-.336z" fill="#2D2D2D"/><path d="M297.085 259.077c-4.978 9.723-11.201 19.733-11.632 30.989-.048.91 1.388.91 1.436 0 .431-10.968 6.558-20.739 11.441-30.271.383-.814-.862-1.532-1.245-.718z" fill="#2D2D2D"/><path opacity=".4" d="M339.642 240.972c-8.569 17.051-13.212 31.42-15.941 41.478-3.973 14.752-5.361 26.391-15.653 36.066-1.676 1.581-6.607 6.131-14.362 8.957-16.276 5.891-28.339-2.059-38.583 6.37-1.149.958-4.548 3.353-4.165 6.083.383 2.587 3.925 3.928 4.452 4.167 4.212 1.629 8.569-.048 14.026-2.251 6.175-2.49 5.505-3.353 8.281-3.832 5.841-1.005 8.521 2.683 16.277 5.125 3.303 1.006 13.068 4.072 20.105 0 5.17-3.017 6.75-8.669 9.239-18.2 1.724-6.466 3.495-15.902 3.208-27.78l5.744 4.454c2.489-20.212 4.931-40.425 7.372-60.637z" fill="#2D2D2D"/><path opacity=".38" d="M336.77 261.711c-6.558 12.405-9.766 22.895-11.489 29.983-3.447 14.226-2.346 20.931-7.037 30.942-5.026 10.872-13.164 17.769-18.813 21.697 3.159.718 10.771 2.059 16.276-2.251 3.877-3.018 4.883-7.329 6.367-14.369a811.513 811.513 0 005.744-29.361l4.452 2.874c1.532-13.124 3.016-26.343 4.5-39.515z" fill="#2D2D2D"/><path d="M345.339 212.713a3424.265 3424.265 0 00-5.027 34.007c-6.318 44.208-11.776 87.651-16.371 130.374.095 1.437.478 3.736 1.915 6.036 1.436 2.346 3.35 3.544 4.26 4.166 8.712 6.227 13.069 9.388 17.473 11.496 21.111 10.202 44.472 9.004 44.472 9.004 4.93-.239 14.744-.862 25.276-5.077.574-.239 4.595-2.107 12.637-5.891 7.277-3.401 8.569-4.071 10.341-5.7 4.212-3.879 5.84-8.669 6.941-12.07 2.345-7.232 2.106-13.363 2.01-14.848 0 0-.478-11.926-.813-81.568-.048-14.177 1.34-35.012 8.808-60.733-7.755-3.784-15.032-7.28-23.792-11.495-6.032-2.922-11.633-5.604-19.675-6.562-2.298-.287-4.356-.383-7.42-.335-12.446.095-22.691 2.011-27.095 2.778-8.569 1.389-20.153 3.496-33.94 6.418z" fill="#FF6871"/><path d="M344.956 214.389a528.01 528.01 0 0144.855-7.568c.67-.096 1.053-.958.383-1.341-.192-.096-.383-.239-.623-.335-.813-.479-1.531.766-.718 1.245.192.096.383.24.623.335.143-.431.239-.91.383-1.341A515.213 515.213 0 00344.621 213c-.958.192-.575 1.581.335 1.389zm-4.452 25.098a4453.818 4453.818 0 00-14.361 112.845c-.527 4.742-1.053 9.436-1.58 14.177-.431 4.119-1.628 8.765-1.101 12.885.479 3.64 3.351 5.939 5.984 8.142a96.15 96.15 0 009.047 6.706c12.973 8.381 28.148 13.411 43.563 14.321 18.334 1.053 36.765-3.64 52.418-13.22.766-.479.048-1.724-.718-1.245-27.382 16.716-62.232 17.386-90.14 1.533a90.733 90.733 0 01-9.287-6.035c-3.016-2.252-7.899-5.317-9.144-9.005-.574-1.772-.287-3.736-.095-5.604.239-2.347.526-4.742.766-7.089.478-4.406.957-8.813 1.484-13.219 2.058-17.961 4.164-35.875 6.462-53.788 2.585-20.356 5.266-40.712 8.138-61.021.096-.91-1.292-1.293-1.436-.383zm70.514-36.066c8.425 1.676 16.324 5.556 24.174 8.861 7.707 3.257 16.276 5.891 23.074 10.872.766.527 1.484-.718.718-1.245-6.654-4.886-15.031-7.472-22.547-10.633-8.138-3.401-16.324-7.472-25.036-9.244-.91-.192-1.293 1.197-.383 1.389z" fill="#2D2D2D"/><path d="M448.548 284.654c-.766 20.165-1.532 40.329-.813 60.446.335 9.771 1.867 19.925.047 29.648-1.531 7.999-6.031 15.997-14.026 18.967-.861.335-.478 1.724.383 1.389 12.734-4.742 16.037-19.255 15.845-31.42-.095-8.239-.813-16.477-1.005-24.763-.191-8.43-.096-16.812.048-25.242.192-9.675.575-19.35.91-29.025.095-.958-1.341-.958-1.389 0z" fill="#2D2D2D"/><path opacity=".38" d="M441.655 273.302c-2.537 8.718-6.511 18.249-12.638 27.733-27.43 42.197-77.646 50.626-90.476 52.399a3805.174 3805.174 0 0152.275 5.891c19.436 2.299 38.632 4.742 57.541 7.232-1.197-21.409-1.197-39.035-.91-51.632.527-26.056 2.394-47.131-1.005-47.801-.814-.192-2.25.718-4.787 6.178z" fill="#2D2D2D"/><path opacity=".42" d="M447.543 288.965a199.397 199.397 0 01-8.234 20.548c-5.457 11.734-10.675 23.038-17.425 29.983-18.861 19.398-55.721 11.016-55.817 12.357-.048.767 13.452 2.922 81.62 9.196 0-24.044-.048-48.04-.144-72.084z" fill="#2D2D2D"/><path d="M433.206 486.443a1079856.11 1079856.11 0 00-383.95-70.361c37.763-30.079 75.562-60.158 113.326-90.237 115.453 15.614 230.942 31.276 346.396 46.891-25.281 37.886-50.527 75.82-75.772 113.707z" fill="#fff" stroke="#2D2D2D" stroke-width="3" stroke-miterlimit="10"/><path d="M48 420.153c128.286 23.374 256.571 46.748 384.822 70.121m-2.441 1.054c26.885-39.036 53.769-78.119 80.619-117.155" stroke="#2D2D2D" stroke-width="16" stroke-miterlimit="10"/><path d="M387.561 388.733c-13.076 14.034-25.873 28.499-38.461 43.347-.523.622.244 1.628.732 1.006a1273.508 1273.508 0 0138.461-43.347c.523-.527-.209-1.581-.732-1.006z" fill="#2D2D2D"/><path d="M349.588 432.846c4.115 1.198 8.299 1.198 12.518 1.246 4.743.095 9.206.766 13.739 2.586 8.508 3.401 16.842 5.652 25.734 5.364.662 0 .662-1.436 0-1.436-4.568.143-9.136-.24-13.669-1.246-4.254-.958-8.299-2.682-12.449-4.263-3.975-1.532-7.95-2.251-12.099-2.347-4.533-.143-9.066.048-13.53-1.245-.627-.239-.906 1.15-.244 1.341zm38.74-43.059c13.809 1.533 27.513 4.55 40.972 9.053.663.239.942-1.15.279-1.389a196.884 196.884 0 00-41.251-9.101c-.662-.096-.662 1.341 0 1.437z" fill="#2D2D2D"/><path d="M402.381 441.18a608.678 608.678 0 0027.93-41.383c.419-.718-.313-1.724-.732-1.006a633.985 633.985 0 01-27.93 41.383c-.489.67.244 1.676.732 1.006zm-40.623-14.034c11.995-2.011 24.13.048 35.393 6.083.627.335.906-1.054.279-1.389-11.333-6.035-23.607-8.142-35.672-6.131-.663.096-.663 1.533 0 1.437zm18.167-5.268c7.392.766 14.68 2.346 21.898 4.693.663.24.941-1.149.279-1.389-7.288-2.394-14.68-3.975-22.177-4.741-.698-.048-.663 1.389 0 1.437zm-5.545-10.586c11.124.336 22.143 2.539 32.883 6.61.662.24.941-1.149.278-1.389-10.809-4.071-21.933-6.322-33.161-6.658-.662 0-.662 1.437 0 1.437zm13.809-4.406a195.6 195.6 0 0117.853 4.31c.663.192.942-1.197.279-1.389a195.6 195.6 0 00-17.853-4.31c-.663-.144-.942 1.245-.279 1.389zm-7.637 32.139c-2.127 4.502-4.254 9.004-6.416 13.459-.209.431.07 1.149.454 1.101 17.19-2.682 34.625-1.149 51.432 4.503.663.239.942-1.15.279-1.389-16.911-5.7-34.416-7.233-51.711-4.598.139.383.313.718.453 1.101 2.127-4.502 4.254-9.004 6.416-13.459.384-.766-.523-1.484-.907-.718z" fill="#2D2D2D"/><path d="M422.71 411.819l20.155-.574a11.56 11.56 0 01-.489-.911c-4.637 15.184-9.31 30.319-13.947 45.502-.245.863.767 1.246 1.011.384 4.637-15.184 9.31-30.319 13.948-45.502.139-.431-.21-.91-.489-.91l-20.154.574c-.698.048-.698 1.485-.035 1.437zm-25.49 35.684c1.778-.479 3.557-.575 5.37-.383.663.047.663-1.389 0-1.437a16.054 16.054 0 00-5.649.431c-.662.143-.383 1.532.279 1.389zm9.903.143a106.166 106.166 0 0116.389 2.155c.662.144.941-1.245.279-1.389a103.691 103.691 0 00-16.668-2.203c-.662-.048-.662 1.389 0 1.437zm.314-9.004h3.905c.663 0 .663-1.437 0-1.437h-3.905c-.663 0-.663 1.437 0 1.437z" fill="#2D2D2D"/><path d="M415.562 438.497c4.289.144 8.543.719 12.797 1.677.662.144.941-1.245.279-1.389a75.504 75.504 0 00-13.076-1.724c-.663 0-.663 1.436 0 1.436zm-.663-8.19c4.882.096 9.729.479 14.576 1.246.662.095.662-1.342 0-1.437-4.847-.767-9.694-1.198-14.576-1.246-.662-.048-.662 1.389 0 1.437zm-32.742 15.903c2.336.095 4.637-.288 6.939-1.054.662-.24.383-1.629-.279-1.389-2.197.766-4.394 1.101-6.66 1.006-.663 0-.663 1.437 0 1.437zm16.563-75.055c-.907 1.533-1.953 4.646-.872 6.514.662 1.149 1.918.91 2.859.958 1.709.096 3.418.239 5.126.335 6.939.431 13.843.91 20.782 1.341.663.048.663-1.389 0-1.437-5.125-.335-10.216-.67-15.342-1.006-2.511-.143-4.987-.335-7.497-.479-1.221-.095-2.511 0-3.731-.239-.907-.192-1.569-.239-1.535-1.772.035-1.198.419-2.299.942-3.209.418-.719-.314-1.772-.732-1.006z" fill="#2D2D2D"/><path d="M399.661 372.975c5.858.287 11.716.527 17.574.814 2.86.144 5.754.24 8.613.383 2.581.144 5.3.384 7.149 3.114.453.67 1.185-.335.732-1.006-1.395-2.108-3.278-2.922-5.3-3.305-2.999-.527-6.103-.431-9.136-.575-6.556-.287-13.111-.622-19.632-.91-.662.048-.662 1.485 0 1.485z" fill="#2D2D2D"/><path d="M426.267 380.351c2.685.048 5.23-1.101 7.392-3.305.523-.526 0-1.772-.523-1.245-2.022 2.06-4.324 3.161-6.869 3.113-.698 0-.698 1.437 0 1.437z" fill="#2D2D2D"/><path d="M427.104 372.975c-1.465 1.341-2.128 3.832-1.639 6.131.174.862 1.185.527 1.011-.383-.349-1.677.07-3.545 1.151-4.55.558-.479.034-1.725-.523-1.198z" fill="#2D2D2D"/><path d="M178.844 216.497c4.213-5.077 7.899-10.49 10.963-16.285 1.723-3.257-3.256-6.179-4.979-2.922-2.824 5.412-6.127 10.489-10.053 15.135-2.345 2.826 1.676 6.897 4.069 4.072z" fill="#FF6871"/><path d="M190.19 135.216c-.766 5.029-.575 9.963.766 14.896.718 2.682 4.882 1.533 4.164-1.149-1.101-4.119-1.436-8.382-.766-12.597.383-2.73-3.781-3.88-4.164-1.15z" fill="#0071BC"/><path d="M191.817 137.419c5.266 2.251 9.479-2.155 9.67-7.328 0-.479-.287-1.772-.095-2.203h-.24c.431.143.766.383.958.814.766.958 1.149 2.203 1.962 3.161 1.676 1.964 3.974 2.251 6.415 2.395 1.197.048 2.633-.096 3.351 1.054.718 1.101.335 2.969.239 4.215a186.871 186.871 0 01-.383 5.22c-.048.431-.478 2.06.144 1.437-.383.431-1.963.527-2.489.671-3.16.718-6.415 1.006-9.622.814-1.676-.096-4.213.096-5.17-1.389-.862-1.389-.91-3.496-.671-5.077-1.292.192-2.632.335-3.925.527 1.149 2.538 2.25 5.077 3.399 7.663.766 1.677 3.542 1.198 3.925-.527 1.149-5.172-.431-10.585 1.197-15.662-1.197.335-2.394.623-3.59.958 1.388 1.677 1.053 5.269 1.388 7.328.383 2.395 1.053 4.598 2.154 6.706 1.005 1.82 4.165 1.054 4.021-1.102a2088.65 2088.65 0 01-1.101-17.29c-1.388.191-2.824.383-4.212.574 2.01 5.413 2.297 11.064.718 16.62l3.159-1.293c-2.681-2.059-4.691-4.742-6.079-7.807-.91-1.964-4.117-.958-4.022 1.102.096 1.916.144 3.831.24 5.747h4.308c-.096-2.395 0-4.741.479-7.088.191-.815.383-1.677.622-2.491.144-.527.335-1.102.527-1.629.622-.766.526-1.053-.287-.862 2.297 3.257 2.585 8.143 2.202 11.927 1.34-.384 2.68-.719 4.021-1.102a21.934 21.934 0 01-2.107-7.137 21.05 21.05 0 01-.095-3.879c0-.192.239-1.533.143-1.629-.335.048-.67.048-1.005.096.191.383.383.719.574 1.102 2.203 4.502 2.873 9.579 2.346 14.56 1.341-.383 2.681-.718 4.021-1.101-.861-1.868-1.532-3.832-1.915-5.844-.143-.862-.239-1.724-.143-2.586a7.62 7.62 0 01.287-1.437c.527-.575.575-.814.144-.671-.575-.095-1.101-.143-1.676-.239.766.383 1.245 4.167 1.388 5.029.288 2.06.24 4.215-.047 6.275h4.164a26.993 26.993 0 01-1.149-4.694c-.239-1.533-.095-3.114-.574-4.598 1.053 3.304.862 6.801-.096 10.058 1.293-.192 2.633-.335 3.926-.527-.575-1.245-1.054-2.586-1.293-3.975-.143-.671-.191-1.342-.239-2.012 0-.287-.048-.575 0-.862.143-.671-.192-.719-.958-.192l-1.292-1.006c2.728 4.694-2.729 9.915-7.372 9.244.526.671 1.053 1.389 1.579 2.06-.047-.862-.335-2.107-.047-2.922l-1.006 1.293c-.813.527 3.543-.095 1.724-.287-2.49-.239-2.873 3.592-.575 4.215 2.298.623 4.404 1.868 6.846 1.581 2.106-.24 3.686-1.485 4.547-3.353.91-1.964 1.102-4.263.814-6.418-.143-1.198-.431-2.299-.909-3.353a19.678 19.678 0 00-.67-1.437c-.144-.287-.336-.575-.527-.862-.192-.431-.287-.335-.192.287 1.341.383 2.681.719 4.022 1.102.047-.91.143-1.772.191-2.682-1.388.191-2.824.383-4.213.574.814 2.395.671 4.599-.287 6.945-1.053 2.587 3.112 3.689 4.165 1.15 1.197-3.018 1.293-6.179.287-9.244-.766-2.347-4.069-1.868-4.212.575-.048.91-.144 1.772-.192 2.682-.143 2.107 3.112 3.017 4.021 1.101 1.053-2.299.766-5.268-1.675-6.561-2.107-1.102-4.931-.144-5.936 2.011-1.388 2.97 1.723 5.604 2.01 8.478.144 1.341.144 4.023-1.34 4.694-1.436.623-4.165-1.054-5.505-1.437-.192 1.389-.383 2.826-.575 4.215 4.357.383 4.452-5.365 1.437-7.232-1.484-.911-3.495-1.629-5.075-.671-1.962 1.197-1.388 3.592-1.34 5.508.048.862.622 1.964 1.58 2.06 7.659 1.101 14.648-5.029 13.164-13.028-.287-1.581-.909-3.353-2.681-3.688-1.484-.288-2.968.574-3.59 1.916-1.58 3.4.287 8.429 1.723 11.543.814 1.772 3.447 1.149 3.926-.527.957-3.209 1.244-6.514.67-9.819-.431-2.491-1.197-5.748-4.308-5.843-6.942-.144-4.069 11.255-2.873 14.848.623 1.82 3.782 2.251 4.165 0 .575-3.688.527-7.377-.431-11.017-.574-2.155-1.723-6.37-4.835-5.268-2.489.91-3.255 4.502-3.255 6.849 0 3.448 1.245 6.849 2.681 9.867 1.005 2.155 3.829.814 4.021-1.102.431-4.023.096-8.095-1.053-11.974-.814-2.73-2.298-8.238-5.936-8.095-3.543.096-3.734 4.646-3.734 7.233 0 4.167 1.053 8.19 2.872 11.974 1.005 2.107 3.83.814 4.021-1.102.383-3.4.048-6.849-1.005-10.106-.766-2.395-2.011-5.843-4.883-6.179-3.159-.335-4.26 3.305-4.978 5.652-1.053 3.449-1.389 7.089-1.245 10.729.144 2.778 4.404 2.778 4.308 0-.095-1.916-.143-3.832-.239-5.748-1.34.384-2.681.719-4.021 1.102 1.723 3.784 4.356 6.849 7.611 9.34 1.149.862 2.825-.096 3.16-1.293a29.78 29.78 0 00-.718-18.92c-.814-2.107-4.404-2.011-4.213.575.383 5.748.766 11.543 1.101 17.291 1.341-.383 2.681-.718 4.021-1.102-2.489-4.646-.814-10.824-4.212-14.943-1.101-1.342-3.16-.479-3.591.957-1.675 5.125-.048 10.49-1.196 15.663 1.292-.192 2.632-.336 3.925-.527-1.149-2.539-2.25-5.077-3.399-7.664-.718-1.628-3.638-1.245-3.925.527-.527 3.353-.287 8.047 2.633 10.346 1.34 1.054 3.111 1.149 4.787 1.341 2.25.24 4.547.335 6.845.192 2.202-.144 4.356-.479 6.511-.958 1.436-.336 3.351-.575 4.356-1.725 1.292-1.389 1.053-3.64 1.197-5.412.143-2.107.383-4.167.431-6.274.047-3.449-1.341-6.466-4.883-7.329-1.436-.335-2.92-.143-4.404-.383-2.298-.335-2.538-2.299-3.782-3.927-1.58-2.108-4.979-3.449-7.133-1.389-1.388 1.341-1.101 3.065-1.053 4.789.048 1.533-.718 5.413-3.16 4.359-2.92-.671-5.122 3.065-2.585 4.119zM64.96 161.272c3.35 3.065 6.51 6.37 9.239 10.01 1.819 2.395 3.686 7.185 6.941 7.855 1.915.384 3.447-.622 4.883-1.772 1.963-1.58 3.877-3.209 5.84-4.837 1.963-1.629 3.878-3.209 5.84-4.838 1.389-1.149 2.968-2.203 3.064-4.167.096-1.868-1.101-3.257-2.202-4.646-1.532-1.964-3.112-3.927-4.644-5.891-1.531-1.964-3.111-3.928-4.643-5.891-1.149-1.437-2.202-3.353-4.117-3.784-1.723-.383-3.303.622-4.739 1.389-1.915 1.006-3.782 2.155-5.553 3.353a63.26 63.26 0 00-9.718 8.19c-.91.958-.814 2.73.431 3.401 3.112 1.58 6.08 3.448 8.76 5.747a44.194 44.194 0 013.447 3.257c.527.575 1.053 1.15 1.58 1.772.335.383.67.815 1.005 1.198.431 1.149 1.053 1.101 1.82-.24.19 1.293.334 2.635.526 3.928a60.98 60.98 0 0013.451-11.064c1.628-1.82-.43-4.598-2.632-3.401a60.024 60.024 0 01-10.388 4.454l2.441 3.162c2.01-3.21 4.5-5.988 7.42-8.43a162.519 162.519 0 01-3.399-2.635 41.865 41.865 0 01-9.718 10.202l3.16 2.443c1.244-4.502 3.782-8.478 7.563-11.304a8309.426 8309.426 0 01-2.968-2.969c-2.154 4.263-5.17 7.903-9.047 10.681h2.154c.144.144.24.335.383.479.096-.383.192-.767.287-1.102.144-.479.287-.958.479-1.485.43-1.293 1.005-2.49 1.628-3.688 1.196-2.251 2.68-4.215 4.452-6.035a162.453 162.453 0 01-3.4-2.634c-2.536 5.221-6.031 9.771-10.435 13.603 1.245.527 2.441 1.006 3.686 1.532.526-5.651 2.968-10.824 6.941-14.895a165.976 165.976 0 01-3.399-2.635c-1.962 3.832-4.835 6.849-8.569 9.005 1.102.622 2.155 1.245 3.256 1.868-.048-1.725.191-3.401 1.005-4.934a8.17 8.17 0 011.245-1.82c.766-.91 2.202-1.149.861-2.011-.622-.767-.957-.719-1.005.239-.24.479-.43.958-.67 1.437-.383.718-.766 1.389-1.149 2.06-.43.67-.862 1.341-1.34 1.963-.383.479-.719.958-1.15 1.437-.67.383-.717.671-.143.815l1.005 1.293c-.478-1.533 1.101-4.407 1.82-5.7.43-.718 2.92-4.838 4.02-4.598.527.096 1.245 2.778 1.437 3.257.383 1.054.718 2.155.957 3.257.24 1.102.527 2.251.527 3.353 0 1.293 0 1.341-1.053.431-3.016-2.587-3.351-9.149 1.1-10.633 2.25-.767 2.92 2.107 3.447 3.736.766 2.347 1.484 4.741 2.25 7.136 1.197-.718 2.394-1.389 3.59-2.107-2.68-2.635-4.116-5.987-4.212-9.771-.91.67-1.82 1.389-2.729 2.059 5.027 1.916 5.84 8.239 6.51 12.837.384 2.73 4.548 1.58 4.165-1.15-.957-6.514-2.728-13.315-9.526-15.854-1.292-.479-2.776.767-2.729 2.06.096 4.885 2.011 9.34 5.458 12.788 1.484 1.485 4.26 0 3.59-2.107-.862-2.73-1.627-5.46-2.585-8.143-.67-1.915-1.532-3.927-3.303-5.077-3.83-2.538-8.33.336-10.292 3.832-2.25 4.071-1.676 9.148 1.388 12.597 2.537 2.826 7.468 4.359 8.856-.383 1.245-4.215-.91-10.442-3.016-14.082-2.872-4.885-7.611-1.197-10.053 1.964a20.32 20.32 0 00-3.016 5.46c-.67 1.82-1.77 4.79-.43 6.562 3.16 4.119 7.707-2.874 9.095-5.173 1.197-1.916 2.92-4.55 2.633-6.945-.287-2.251-2.393-3.305-4.404-2.443-4.404 1.916-6.654 7.808-6.463 12.262.048 1.628 1.772 2.682 3.256 1.868a26.098 26.098 0 0010.1-10.537c1.101-2.108-1.627-4.407-3.398-2.635-4.788 4.886-7.564 11.112-8.186 17.914-.192 2.011 2.393 2.634 3.686 1.532A45.502 45.502 0 0088.32 154.04c1.005-2.108-1.58-4.455-3.4-2.635-2.776 2.874-4.978 6.179-6.51 9.867-1.005 2.443-3.111 7.089.144 8.765.67.335 1.532.431 2.154 0 4.5-3.209 8.138-7.28 10.627-12.214.862-1.724-1.053-4.358-2.968-2.969-4.69 3.544-7.994 8.238-9.526 13.89-.478 1.676 1.58 3.592 3.16 2.443 4.452-3.257 8.186-7.137 11.297-11.735 1.436-2.155-1.627-4.071-3.399-2.634-3.207 2.634-5.888 5.747-8.09 9.292-1.005 1.58.67 3.736 2.442 3.161a61.867 61.867 0 0011.44-4.886 163.103 163.103 0 00-2.632-3.4c-3.686 4.071-7.899 7.567-12.59 10.393-1.724 1.054-1.149 3.257.526 3.928 2.011.814 4.165-.815 4.26-2.874.145-2.491-2.44-4.838-3.972-6.466-3.878-4.215-8.521-7.664-13.596-10.202.144 1.149.288 2.251.431 3.401a63.926 63.926 0 017.18-6.323c2.299-1.724 5.17-4.023 7.9-4.933.813-.288.765-.431 1.436.239.67.671 1.196 1.485 1.723 2.204 1.053 1.341 2.154 2.73 3.207 4.071 1.15 1.485 2.346 2.969 3.495 4.454.622.814 3.16 3.257 2.968 4.167-.192 1.054-2.825 2.587-3.686 3.305l-4.021 3.305-4.022 3.305c-.574.479-1.819 1.868-2.824 1.341-.383-.192-1.053-1.629-1.292-1.964-3.495-5.269-7.66-10.01-12.303-14.273-1.915-1.676-4.979 1.341-2.92 3.209z" fill="#0071BC"/><path d="M67.258 157.441c1.723 3.352 12.542 22.032 17.137 15.662 1.628-2.251-2.106-4.407-3.733-2.156-.096.096-.144.24-.24.336.623-.336 1.245-.719 1.867-1.054-.814.096-2.776-2.634-3.303-3.257-1.053-1.197-2.106-2.395-3.064-3.688-1.867-2.539-3.494-5.221-4.93-7.999-1.245-2.49-4.979-.287-3.734 2.156z" fill="#0071BC"/><path d="M152.898 98.288c-5.122-3.736-7.084-11.4-3.877-17.004 1.58-2.778 4.452-5.029 7.803-4.646 3.447.383 5.122 2.874 5.361 6.131.144 1.82-.048 3.688-.095 5.508-.096 1.724.095 3.736-.383 5.413-.479 1.676-2.202 2.586-2.873 4.262-.574 1.437.048 2.683-1.627 3.162-.479.143-1.149.095-1.58.239-.766-.096-.766.048 0 .383-.191-.622-.335-1.197-.527-1.82-.622-2.107-1.244-4.263-1.866-6.37-1.054-3.545-3.256-8.765-.479-12.07-1.149.144-2.298.287-3.495.431 1.676 1.245 1.053 6.322 1.149 8.047l.431 10.776c.144 3.784 5.361 3.641 5.744 0 .383-3.784-.143-7.52-.287-11.351-.096-1.629-.096-3.305.144-4.934.096-.814.287-1.58.526-2.346.144-.527.383-1.054.623-1.533.526-.814.526-.91.048-.288-.718.096-1.484.192-2.202.288-.144-.048.526 1.724.622 2.107.191.719.287 1.485.383 2.204.191 2.011.191 4.07.096 6.082-.048.91-.144 1.82-.288 2.778l-.287 1.725c-.479 1.15.335 1.437 2.442.718.191-.383-.336-1.916-.383-2.347a21.811 21.811 0 01-.096-3.065 25.93 25.93 0 01.766-5.748c.143-.575.287-1.101.478-1.676.719-1.245-.047-1.676-2.297-1.245-.192.335.574 2.155.67 2.49.431 2.012.526 4.071.335 6.131-.096.958-.192 4.071-1.293 4.31-3.59.863-2.058 6.419 1.532 5.557 3.782-.91 4.835-4.742 5.314-8.143.527-4.023.335-8.573-1.197-12.357-1.484-3.64-5.84-3.688-7.755-.335-1.915 3.352-2.346 8.094-2.298 11.878.048 3.065.096 8.334 3.782 9.436 4.069 1.197 5.505-3.21 5.936-6.275.575-4.023.718-8.142.048-12.166-.479-2.97-2.394-8.669-6.463-7.567-3.925 1.006-4.691 7.855-4.882 11.112-.24 4.885.813 9.723.335 14.608h5.744a1466.87 1466.87 0 00-.622-14.512c-.144-3.689-.718-6.946-3.83-9.245-.909-.718-2.728-.43-3.494.432-3.16 3.736-3.399 8.334-2.298 12.932.574 2.49 1.388 4.98 2.106 7.424.67 2.299 1.053 5.077 2.298 7.088 1.963 3.257 7.42 2.491 10.244.815 1.484-.862 2.49-2.299 2.873-3.976.239-1.054.143-1.485.813-2.347.766-.958 1.532-1.724 2.011-2.873.814-1.82.862-3.832.957-5.748.096-2.395.335-4.838.288-7.28-.096-4.263-1.484-8.287-5.17-10.73-7.085-4.693-15.989-.335-19.34 6.754-3.926 8.382-.766 18.297 6.558 23.661 2.92 2.251 5.792-2.73 2.824-4.885z" fill="#FF6871"/><path d="M152.611 110.981c.958 1.532 2.681 2.107 4.404 1.58.766-.239 1.436-.67 2.011-1.197.143-.144.335-.288.478-.479.144-.144.096-.144-.095.048.909-.479.191-.623-2.107-.527 1.149.958 2.968 1.197 4.069 0 1.006-1.054 1.197-3.018 0-4.071-1.388-1.198-3.159-1.389-4.787-.432a4.937 4.937 0 00-1.436 1.198c-.335.431.431-.287-.095.096.095-.048.191-.096.287-.096-1.006.239-.287.575 2.154 1.006-.814-1.293-2.585-1.916-3.925-1.054-1.197.814-1.82 2.586-.958 3.928z" fill="#FF6871"/><path d="M153.952 114.764v.432c0 .718.335 1.532.861 2.011.479.479 1.293.862 2.011.862.766-.048 1.532-.287 2.01-.862.527-.575.862-1.245.862-2.011v-.432c0-.718-.335-1.532-.862-2.011-.478-.479-1.292-.862-2.01-.862-.766.048-1.532.287-2.011.862-.526.527-.861 1.197-.861 2.011zM93.3 224.639v-.431c0-3.688-5.745-3.688-5.745 0v.431c0 3.736 5.744 3.736 5.744 0v-.431c0-3.688-5.744-3.688-5.744 0v.431c0 3.736 5.744 3.736 5.744 0zm-45.86-40.09c3.685 0 3.685-5.747 0-5.747-3.687 0-3.687 5.747 0 5.747z" fill="#FF6871"/><path d="M60.412 187.088c2.777 0 2.777-4.311 0-4.311-2.776 0-2.776 4.311 0 4.311zM236.337 77.596c2.777 0 2.777-4.31 0-4.31-2.776 0-2.776 4.31 0 4.31zm26.999 65.14v.814c0 .575.24 1.15.623 1.533.382.383 1.005.67 1.531.622.575-.048 1.149-.191 1.532-.622s.623-.958.623-1.533v-.814c0-.575-.24-1.15-.623-1.533s-1.005-.67-1.532-.623c-.574.048-1.149.192-1.531.623-.383.431-.623.958-.623 1.533z" fill="#0071BC"/><path d="M245.959 108.538c8.138 1.293 19.532 5.077 16.516 15.71-1.389 4.885-5.218 8.382-9 11.495-3.734 3.018-7.42 5.987-10.819 9.388-3.255 3.257-6.223 6.801-8.952 10.537-2.154 2.97-5.122 6.658-4.787 10.633.288 3.545 3.399 4.407 6.224 5.508 4.069 1.581 8.377 4.359 9.957 8.622 2.106 5.747-2.298 10.824-6.463 14.225-3.734 3.065-7.803 5.7-10.34 9.915-.479.814.766 1.532 1.245.718 4.547-7.663 16.132-10.729 17.425-20.404.526-3.784-1.197-7.328-3.926-9.867-1.34-1.293-2.92-2.347-4.547-3.257-1.963-1.053-4.261-1.484-6.176-2.586-5.361-3.113 1.341-11.064 3.638-14.082a84.91 84.91 0 0111.058-12.022c6.511-5.939 16.707-11.208 17.425-21.122.719-10.059-10.052-13.459-17.999-14.705-1.005-.239-1.388 1.15-.479 1.294zm-141.41-1.532c-8.52 10.489-18.143 20.021-28.77 28.355-10.436 8.19-21.781 14.704-33.318 21.17-10.628 5.987-21.35 12.118-30.446 20.404-4.07 3.688-8.569 7.999-10.867 13.124-1.771 3.975-1.915 9.148 2.633 11.207 2.49 1.102 5.41.719 7.995.288 4.212-.719 8.377-1.629 12.542-2.443 4.26-.814 8.52-1.676 12.781-2.491 4.07-.766 11.68-1.484 11.872 4.599.048.91 1.484.91 1.436 0-.191-5.652-6.223-7.089-10.866-6.514-7.085.91-14.074 2.682-21.111 4.023-4.931.958-18.096 4.933-17.138-4.502.622-6.083 6.367-11.352 10.531-15.327 8.809-8.334 19.388-14.513 29.92-20.452C52.8 152.22 63.81 146.089 73.96 138.426a184.215 184.215 0 0031.499-30.462c.67-.671-.335-1.677-.91-.958zm-76.162 98.38c-4.213 5.077-9.144 11.064-8.378 18.105.575 5.412 4.452 10.489 10.293 10.106 3.733-.24 7.037-2.299 10.292-3.88 4.069-1.964 8.234-3.736 12.542-5.029 4.26-1.245 8.712-2.06 13.164-2.155 3.543-.048 7.564.191 10.532 2.394 4.5 3.257 1.723 8.143-.67 11.783a87.365 87.365 0 00-6.223 10.873c-1.628 3.448-3.064 7.04-4.213 10.681-.862 2.73-1.867 5.939.24 8.334 4.5 5.22 11.345.766 15.127-2.778 5.792-5.413 12.063-9.915 19.291-13.268 8.091-3.736 16.899-5.939 25.755-6.418 4.5-.239 9.047-.096 13.499.623 3.974.622 8.426 1.868 10.293 5.843.383.814 1.627.096 1.244-.718-2.585-5.604-9.67-6.466-15.127-6.993-7.133-.671-14.409-.144-21.398 1.389-6.989 1.532-13.835 4.119-20.058 7.663-3.064 1.725-5.936 3.688-8.713 5.844-3.111 2.442-5.744 5.46-8.903 7.711-2.825 2.012-8.856 3.497-10.532-.91-.814-2.155.24-4.646.91-6.753a74.795 74.795 0 012.441-6.467 81.802 81.802 0 015.553-10.776c1.867-3.018 4.643-6.083 5.314-9.675 1.1-5.844-4.644-8.861-9.575-9.58-7.324-1.006-15.079.671-21.972 3.161-4.213 1.533-8.186 3.497-12.207 5.461-4.165 2.059-9.335 3.64-12.878-.431-6.606-7.568.336-17.1 5.362-23.183.622-.67-.383-1.676-1.005-.957z" fill="#2D2D2D"/><path d="M55.912 229.621c4.5-1.437 8.473 2.97 8.57 7.232.095 4.503-2.873 8.382-5.841 11.448-.67.67.383 1.676 1.005 1.005 3.639-3.735 7.42-9.052 5.984-14.608-1.149-4.359-5.553-7.903-10.1-6.466-.862.287-.527 1.676.382 1.389zm167.213-123.573c2.202 1.82 4.787 2.203 7.516 2.778 2.968.622 5.553 1.772 7.611 4.071 3.878 4.358 5.074 10.92 2.202 16.093-.431.814.766 1.533 1.245.719 2.776-4.982 2.202-11.112-.862-15.806-1.436-2.204-3.447-4.119-5.888-5.269-3.447-1.628-7.755-1.102-10.819-3.592-.718-.575-1.723.431-1.005 1.006zM47.583 208.067c2.729 7.329 11.393 5.461 16.707 2.587 3.399-1.82 6.558-4.167 9.335-6.849 2.968-2.922 5.361-6.371 8.281-9.34 3.208-3.257 7.707-6.227 12.542-5.413 4.357.719 6.99 4.599 9.766 7.568 3.638 3.832 10.962 7.759 14.648 1.677.479-.815-.765-1.533-1.244-.719-2.346 3.832-7.324 2.491-10.197.192-2.585-2.108-4.452-4.982-6.989-7.137-4.787-4.119-10.77-3.736-15.845-.287-5.6 3.784-9 10.058-14.122 14.417-3.016 2.538-6.51 4.885-10.244 6.274-3.973 1.485-9.526 1.389-11.25-3.305-.335-.91-1.723-.527-1.388.335zm11.967-44.639c6.128 5.316 11.25 11.639 15.224 18.727.43.815 1.675.096 1.244-.718a69.73 69.73 0 00-15.462-19.015c-.67-.623-1.723.431-1.005 1.006z" fill="#2D2D2D"/><path d="M60.795 161.895c5.17-6.849 12.495-13.842 20.633-16.955 1.292-.479 2.776-.91 4.164-.575 1.724.383 2.729 1.868 3.734 3.209 1.436 1.868 2.825 3.784 4.213 5.7a193.534 193.534 0 017.755 11.83c.479.767 1.723.048 1.245-.718a201.894 201.894 0 00-9.862-14.704c-2.633-3.593-5.026-7.807-10.148-6.61-4.452 1.054-8.713 4.311-12.207 7.041-4.07 3.209-7.66 6.945-10.82 11.064-.478.718.767 1.437 1.293.718z" fill="#2D2D2D"/><path d="M75.635 182.778c9.766-4.119 18.478-10.154 25.707-17.913.622-.671-.383-1.677-1.006-1.006-7.037 7.568-15.558 13.555-25.084 17.53-.861.383-.478 1.772.383 1.389zm-9.287-19.925c5.457-4.934 11.537-9.005 18.239-12.118.814-.384.096-1.629-.718-1.246-6.798 3.162-12.973 7.329-18.526 12.358-.718.574.335 1.628 1.005 1.006zm3.974 2.395c2.968-2.156 5.935-4.263 8.903-6.418.766-.527.048-1.773-.718-1.246-2.968 2.156-5.936 4.263-8.904 6.418-.765.575-.047 1.821.719 1.246zm2.01 3.304c4.979-3.496 9.957-7.04 14.936-10.537.766-.527.047-1.772-.718-1.245-4.979 3.496-9.957 7.041-14.936 10.537-.766.527-.048 1.772.718 1.245zm4.213 3.929c3.063-2.491 6.27-4.694 9.622-6.754.814-.479.048-1.724-.718-1.245-3.495 2.059-6.798 4.406-9.91 6.945-.718.622.288 1.628 1.006 1.054zm2.202 3.926c4.5-3.688 9.382-6.753 14.6-9.291.814-.384.096-1.629-.718-1.246-5.361 2.587-10.292 5.796-14.888 9.532-.718.574.288 1.58 1.006 1.005zm98.422 30.08c2.346-2.969-.431-6.61-3.542-7.472-3.734-1.054-7.995.719-9.862 4.071-2.106 3.736-1.244 8.622 1.484 11.783 3.495 4.119 12.59 6.61 10.963 13.411-.24.91 1.149 1.293 1.388.383 1.867-7.759-7.468-10.154-11.345-14.8-2.729-3.305-3.208-8.861.239-11.878 1.388-1.198 3.351-1.916 5.17-1.82 2.154.096 6.798 2.442 4.548 5.364-.623.671.383 1.677.957.958zm8.904-72.611c-.862 4.646-1.053 9.531 0 14.177 1.005 4.455 4.213 3.497 7.899 3.736 8.377.575 19.483 5.891 24.988-3.592.479-.814-.766-1.533-1.244-.719-4.692 8.095-14.553 4.12-21.734 3.114-1.675-.24-3.255-.24-4.93-.192-2.585 0-3.351-1.245-3.734-3.544-.718-4.167-.623-8.382.191-12.549.096-.958-1.292-1.341-1.436-.431z" fill="#2D2D2D"/><path d="M186.265 136.174c2.585-1.58 4.834-1.868 7.755-2.347 1.244-.191 2.058-.67 2.249-1.963.527-3.257-.861-6.61 1.724-9.388 2.872-3.113 6.75-.335 7.946 2.826.575 1.485.91 3.209 2.059 4.406 1.484 1.581 3.447 1.15 5.313 1.677 7.229 1.963 5.075 11.303 3.543 16.332-.287.863 1.101 1.246 1.388.384 1.628-5.221 3.255-11.735-1.101-16.094-.718-.718-1.532-1.293-2.441-1.676-1.389-.575-2.92-.288-4.357-.814-2.776-1.006-2.728-5.125-4.404-7.233-3.015-3.736-8.186-3.209-10.244 1.15-.574 1.197-.766 2.442-.862 3.736-.095 1.532.623 4.598-1.005 5.22-1.149.479-2.92.288-4.165.671-1.484.431-2.824 1.102-4.117 1.868-.765.527-.047 1.772.719 1.245z" fill="#2D2D2D"/><path d="M191.961 134.689c-.718 5.652.239 11.256 2.729 16.381.383.814 1.627.096 1.244-.718-2.393-4.886-3.255-10.25-2.537-15.663.144-.91-1.292-.91-1.436 0zm-46.052-31.851c-6.175-2.873-9.861-9.531-9.526-16.332.383-6.946 5.074-13.268 11.058-16.573 3.734-2.06 7.707-2.682 11.489-.479 3.447 1.964 5.888 5.365 7.277 9.005 2.489 6.61 1.579 14.13-2.346 20.02-.527.767.718 1.486 1.244.72 6.511-9.724 5.027-26.632-6.893-31.66-5.984-2.54-12.351.861-16.659 5.076-4.213 4.12-6.941 10.01-6.606 15.95.383 6.562 4.213 12.741 10.196 15.566.862.336 1.58-.91.766-1.293z" fill="#2D2D2D"/><path d="M145.239 104.563c-1.244 1.341-.909 3.401.623 4.406 2.489 1.629 6.797.144 9.43-.479 2.824-.67 7.085-1.293 9-3.783 1.149-1.533 1.149-3.641-.335-4.934-.718-.575-1.724.431-1.006 1.006 2.202 1.868-.67 4.023-2.393 4.694-1.436.527-2.92.958-4.404 1.341-1.388.335-2.777.671-4.165.91-.862.144-1.819.383-2.681.431-1.244.048-4.835-.623-3.016-2.538.623-.719-.383-1.725-1.053-1.054z" fill="#2D2D2D"/><path d="M148.016 109.687c.191 2.826 2.585 4.646 5.361 4.838 3.83.239 6.702-2.97 8.952-5.604.575-.718-.431-1.724-1.005-1.006-1.58 1.868-3.351 4.023-5.697 4.838-2.393.862-5.936-.096-6.127-3.066-.096-.91-1.532-.91-1.484 0z" fill="#2D2D2D"/><path d="M151.893 115.052c-.383 1.963.814 4.023 2.872 4.358 2.107.335 3.926-1.533 3.974-3.544 0-.91-1.436-.91-1.436 0 0 1.197-1.149 2.395-2.442 2.107-1.101-.239-1.819-1.485-1.58-2.538.192-.91-1.196-1.293-1.388-.383zm-9.813-30.319c4.117 2.634 7.276 6.322 9.287 10.777.383.862 1.627.096 1.244-.719-2.106-4.694-5.457-8.525-9.813-11.303-.814-.48-1.532.766-.718 1.245z" fill="#2D2D2D"/><path d="M149.452 81.237c.909 6.897 1.867 13.794 2.776 20.643.144.91 1.484.527 1.389-.383-.91-6.897-1.867-13.794-2.777-20.644-.143-.91-1.484-.526-1.388.384z" fill="#2D2D2D"/><path d="M151.941 92.972c1.245-4.503 4.117-8.143 8.186-10.442.814-.431.096-1.676-.718-1.245a18.57 18.57 0 00-8.856 11.303c-.239.91 1.149 1.294 1.388.384zM99.762 216.114c1.915 4.167 3.973 8.287 6.271 12.262 1.149 1.964 2.681 5.7 5.505 4.502.862-.383.096-1.58-.718-1.245-1.819.766-5.074-6.658-5.696-7.855-1.484-2.73-2.825-5.556-4.117-8.382-.383-.862-1.628-.144-1.245.718z" fill="#2D2D2D"/><path d="M101.055 216.976c4.069-3.161 8.042-6.418 12.159-9.483 3.59-2.73 7.468-5.365 11.872-6.61 4.739-1.389 8.856-.287 12.015 3.544 2.681 3.257 4.309 7.281 6.128 11.017.383.814 1.627.095 1.244-.719-3.494-7.184-7.611-17.338-17.425-15.758-4.882.767-9.287 3.449-13.26 6.323-4.691 3.448-9.191 7.136-13.787 10.728-.67.527.336 1.533 1.054.958z" fill="#2D2D2D"/><path d="M109.575 233.021c12.495-2.73 24.079-8.573 33.797-16.907.718-.623-.335-1.629-1.005-1.006-9.526 8.19-20.92 13.842-33.175 16.572-.909.192-.526 1.581.383 1.341zm11.633-13.506c-2.537-.623-4.643-3.114-4.021-5.844.574-2.634 3.782-4.55 6.319-3.305 5.122 2.587 1.627 9.963-3.638 8.095-.862-.287-1.245 1.102-.383 1.389 2.968 1.054 6.558-.383 7.707-3.401 1.149-2.969-.718-6.562-3.638-7.615-3.16-1.15-6.75 1.006-7.66 4.167-1.053 3.544 1.532 7.041 4.931 7.903.91.239 1.293-1.15.383-1.389zm25.515-36.353c-.574-5.125-.622-10.969 5.458-12.358 3.063-.718 5.6-1.628 7.372-4.454 1.819-2.874 1.579-5.556.861-8.717-.526-2.491-.478-4.646 1.532-6.514 1.628-1.485 3.782-2.06 5.888-1.389.862.287 1.245-1.102.383-1.389-3.063-.958-6.271.239-8.234 2.778-3.015 3.975.527 7.998-.67 12.261-.718 2.539-2.68 4.694-5.218 5.556-2.058.671-4.26.623-5.983 2.06-3.639 2.969-3.304 7.998-2.825 12.166.096.91 1.532.91 1.436 0zm-11.68-26.823c-1.484-1.197-.287-3.879 1.627-2.874.766.384 1.245 1.294.814 2.108-.431.814-1.532 1.245-2.345.814-.814-.431-1.532.814-.719 1.245 1.484.719 3.304.192 4.213-1.149.958-1.437.335-3.257-1.053-4.119-1.388-.862-3.255-.623-4.165.814-.814 1.341-.622 3.209.622 4.215.719.527 1.724-.479 1.006-1.054zm65.487-74.24c-.862-1.39-1.388-3.161-.862-4.742.431-1.341 1.772-2.155 3.16-2.012 1.532.144 2.346 1.581 1.532 2.922-.718 1.245-2.202 1.868-3.591 1.677-.909-.096-.909 1.34 0 1.436 2.059.24 4.309-1.005 5.075-2.97.718-1.771-.192-3.735-2.011-4.31-1.723-.575-3.829.096-4.883 1.58-1.579 2.156-.957 5.078.335 7.233.479.67 1.724-.048 1.245-.814zm-77.216 58.722c2.585 4.694 7.851 7.328 13.165 6.562 6.51-.958 10.005-5.94 12.59-11.496 3.016-6.418 7.18-11.686 13.834-14.512 6.032-2.539 13.835-1.246 18.814-5.987 1.915-1.821 3.207-4.359 2.776-7.041-.335-2.06-1.58-3.784-1.101-5.94a6.084 6.084 0 014.692-4.55c.909-.191.526-1.58-.383-1.389-2.777.623-5.027 2.73-5.697 5.556-.383 1.533-.096 2.922.383 4.407.766 2.395 1.053 4.358-.527 6.562-2.776 3.879-7.659 4.406-12.015 5.029-3.878.575-7.516 1.628-10.867 3.64a26.521 26.521 0 00-7.659 6.945c-2.25 3.065-3.495 6.658-5.314 9.963-2.298 4.071-6.079 7.184-10.914 7.471-4.405.24-8.521-2.107-10.676-5.987-.287-.766-1.531-.048-1.101.767zm-9.957-77.066c2.633 1.58 5.266-1.869 7.995-1.82 2.058.047 3.973 1.005 5.17 2.73.861 1.245 1.292 2.442 2.681 3.16.813.432 1.531-.814.718-1.245-1.628-.862-2.107-2.97-3.495-4.167a7.912 7.912 0 00-3.351-1.676 8.193 8.193 0 00-3.734 0c-1.532.383-3.782 2.634-5.218 1.772-.814-.479-1.532.767-.766 1.245zm-.574 12.74c.909-.766 2.25 0 2.01 1.197-.191.91 1.197 1.294 1.389.384.239-1.15-.192-2.347-1.245-2.97-1.053-.623-2.298-.383-3.207.383-.67.575.335 1.58 1.053 1.006zm-2.25 7.328c-.957 5.173-3.112 9.915-6.51 13.938-.575.719.43 1.725 1.005 1.006 3.542-4.263 5.888-9.148 6.893-14.608.144-.863-1.244-1.246-1.388-.336zm-10.005 5.987a127.398 127.398 0 01-15.702 9.915c-.813.431-.095 1.676.718 1.245a127.37 127.37 0 0015.702-9.915c.766-.574.048-1.82-.718-1.245zm116.853 109.493c-1.293-2.012-3.447-.958-4.596.574-1.245 1.581-2.25 3.449-3.303 5.173-.814 1.341-1.771 2.826-1.915 4.503-.287 3.352 2.25 3.736 4.787 4.55 3.016 1.006 2.824 4.55.91 6.514-1.532 1.58-3.782 2.251-5.793 2.922-.861.287-.478 1.676.383 1.389 4.021-1.294 10.005-4.215 7.947-9.58a4.186 4.186 0 00-1.676-2.059 7.048 7.048 0 00-1.388-.575c-1.388-.431-1.771-.288-2.872-1.485-.91-.527-1.197-1.245-.766-2.203.191-.671.431-1.293.766-1.868.383-.767.862-1.485 1.34-2.203.479-.719 3.83-6.754 4.931-4.982.479.815 1.723.096 1.245-.67zm-82.195 56.374c3.926-1.006 7.277 2.874 5.553 6.61-.383.814.862 1.58 1.245.718 2.25-4.838-1.915-10.058-7.133-8.717-.957.239-.574 1.628.335 1.389zm73.338-78.886c-1.819-1.341-1.819-4.838.958-4.933 1.005-.048 2.058.527 2.01 1.628 0 .91-.813 2.012-1.819 1.868-.909-.144-1.292 1.245-.383 1.389 1.772.287 3.303-1.006 3.591-2.73.335-1.772-.958-3.305-2.681-3.544-1.771-.288-3.59.718-4.213 2.442-.622 1.916.24 3.976 1.819 5.125.718.527 1.436-.718.718-1.245zM8.425 170.852c.67-2.683 2.967-4.215 5.122-5.7 2.25-1.581 4.547-3.209 6.845-4.79 4.548-3.209 9.096-6.37 13.643-9.579.766-.527.048-1.772-.718-1.246-5.313 3.736-10.627 7.424-15.94 11.16-3.59 2.491-9.192 5.125-10.34 9.771-.24.91 1.148 1.294 1.388.384z" fill="#2D2D2D"/><path d="M329.59 422.645l-174.489-29.888c35.328-14.273 70.657-28.498 105.985-42.772 55.243 12.31 110.486 24.619 165.681 36.929-32.36 11.926-64.769 23.804-97.177 35.731z" fill="#fff" stroke="#2D2D2D" stroke-width="3" stroke-miterlimit="10"/><path d="M327.196 423.363c.192.575.335 1.198.527 1.773.239.766 1.388.622 1.388-.192v-1.389c0-.91-1.436-.91-1.436 0a3.82 3.82 0 01-.335 1.628h1.388c-.192-.622-.239-1.197-.096-1.868-.431.048-.862.096-1.292.192.143.144.143.24.048.383.43.048.861.096 1.292.192a1.024 1.024 0 01.144-.91c-.431-.144-.91-.24-1.341-.383-.095.766-.191 1.484-.287 2.251-.048.383.383.718.718.718.431 0 .67-.335.718-.718.096-.767.192-1.485.287-2.251.096-.719-1.005-.91-1.34-.384a2.584 2.584 0 00-.287 2.06c.143.623 1.005.671 1.292.192.383-.575.383-1.294-.048-1.82-.335-.432-1.196-.479-1.292.191-.192.862-.144 1.772.096 2.634.239.719 1.149.623 1.388 0 .239-.67.383-1.341.383-2.011h-1.436v1.389c.478-.048.957-.144 1.388-.192-.191-.575-.335-1.197-.527-1.772-.191-1.006-1.579-.623-1.34.287z" fill="#2D2D2D"/><path d="M328.297 426.812c7.707-3.975 16.132-6.083 24.414-8.43 4.069-1.149 8.09-2.395 11.968-4.023 3.734-1.533 7.324-3.449 11.01-5.173 8.186-3.832 17.042-6.322 25.611-9.148 8.904-2.97 17.76-5.939 26.664-8.861.862-.287.479-1.676-.383-1.389-8.904 2.97-17.76 5.939-26.664 8.861-8.425 2.778-17.09 5.268-25.18 8.957-4.213 1.915-8.33 4.167-12.638 5.843-3.925 1.533-7.946 2.73-12.015 3.88-7.995 2.299-16.085 4.406-23.553 8.238-.766.431-.048 1.676.766 1.245z" fill="#2D2D2D"/><path d="M328.967 426.524a10533.076 10533.076 0 0099.045-34.821c2.585-.91 1.484-5.077-1.149-4.167-32.935 11.783-65.966 23.374-99.045 34.821-2.585.91-1.484 5.077 1.149 4.167zm-3.734-46.268c6.223.623 11.537 4.407 17.665 5.604.909.192 1.292-1.197.382-1.389-6.223-1.245-11.632-5.029-18.047-5.651-.909-.048-.909 1.389 0 1.436z" fill="#2D2D2D"/><path d="M343.328 385.189c3.782-2.059 7.325-4.502 10.532-7.376.67-.623-.335-1.628-1.005-1.006-3.16 2.778-6.559 5.173-10.245 7.137-.813.479-.095 1.724.718 1.245zm-16.611-7.663a136.172 136.172 0 019.335-6.131c.814-.479.048-1.724-.718-1.245-3.207 1.916-6.319 3.927-9.335 6.13-.766.575-.048 1.821.718 1.246z" fill="#2D2D2D"/><path d="M336.291 371.635c5.458 2.06 10.915 4.071 16.42 6.131.862.335 1.245-1.054.383-1.389-5.457-2.06-10.915-4.071-16.42-6.131-.861-.287-1.244 1.102-.383 1.389zm-15.366 14.082a479.241 479.241 0 0142.557 15.375c.862.335 1.245-1.054.383-1.389a479.241 479.241 0 00-42.557-15.375c-.91-.287-1.293 1.102-.383 1.389zm1.388 11.159c8.952 4.311 17.999 8.382 27.143 12.358.861.383 1.58-.863.718-1.246a691.778 691.778 0 01-27.143-12.357c-.814-.383-1.532.862-.718 1.245zm1.293 12.31c4.882 2.491 9.765 5.029 14.648 7.52.814.431 1.532-.814.718-1.245-4.883-2.491-9.765-5.029-14.648-7.52-.814-.431-1.532.814-.718 1.245z" fill="#2D2D2D"/><path d="M326.382 409.617c6.75-5.748 13.835-11.016 21.207-15.902.766-.526.048-1.772-.718-1.245-7.468 4.933-14.649 10.346-21.494 16.141-.718.623.287 1.629 1.005 1.006zm-1.771-9.819c3.83-2.682 7.659-5.364 11.489-8.094.766-.527.048-1.773-.718-1.246-3.83 2.683-7.659 5.365-11.489 8.095-.718.527 0 1.772.718 1.245z" fill="#2D2D2D"/><path d="M327.004 425.95l-180.52-30.75c-5.649-42.772-11.346-85.496-16.994-128.267 64.769 8.717 129.49 17.434 194.259 26.199 1.101 44.257 2.202 88.513 3.255 132.818z" fill="#fff" stroke="#2D2D2D" stroke-width="3" stroke-miterlimit="10"/><path d="M219.774 351.949c-5.218-1.629-8.042-6.035-8.473-11.352-.431-5.412.622-10.633 5.649-13.459 4.452-2.49 9.765-1.772 13.739 1.246 3.973 3.017 7.515 9.196 4.308 13.938-.527.766.718 1.484 1.245.718 3.446-5.077.191-11.783-4.022-15.279-4.356-3.592-10.244-4.694-15.366-2.155-5.936 2.921-7.468 8.861-6.989 15.039.478 5.987 3.638 10.921 9.526 12.741.862.239 1.245-1.15.383-1.437z" fill="#2D2D2D"/><path d="M221.114 352.476c-2.202-3.64-1.484-8.717 2.059-11.256 3.542-2.538 8.617-1.484 11.297 1.773.575.718 1.58-.288 1.006-1.006-3.16-3.784-9.096-4.838-13.213-1.916-4.117 2.969-4.978 8.909-2.393 13.124.478.766 1.723.047 1.244-.719z" fill="#2D2D2D"/><path d="M226.045 354.488c-2.25-2.395-1.915-6.849 1.101-8.573 2.968-1.725 6.989.239 7.947 3.4.287.862 1.675.527 1.388-.383-1.245-4.023-6.271-6.418-10.053-4.215-3.782 2.203-4.26 7.759-1.388 10.825.622.623 1.627-.383 1.005-1.054z" fill="#2D2D2D"/><path d="M229.731 357.841c1.867.67 4.021-.431 4.739-2.203.766-1.773-.239-3.688-1.914-4.455-1.676-.766-3.687-.335-4.596 1.293-.862 1.581-.575 3.736.862 4.886.718.575 1.723-.431 1.005-1.006-1.915-1.485-.575-4.981 1.963-3.927 1.101.431 1.867 1.58 1.34 2.778-.527 1.149-1.867 1.724-3.016 1.293-.862-.336-1.245 1.053-.383 1.341z" fill="#2D2D2D"/><path d="M323.749 293.084l4.213 131.955m-3.925-132.051l3.877 130.184" stroke="#2D2D2D" stroke-width="3" stroke-miterlimit="10"/><path opacity=".37" d="M241.172 284.176c3.112 1.628 29.824 16.189 31.691 42.053 1.053 14.273-5.936 25.098-10.341 31.708-23.743 35.731-70.705 42.053-83.438 43.394 18.526 12.31 83.247 52.878 154 50.483 15.749-.526 40.163-1.628 66.636-16.189 19.866-10.92 32.744-24.954 40.116-34.294-4.548-2.826-9.048-5.604-13.596-8.43a80206.32 80206.32 0 01-100.289 34.294l-5.17-132.721c-26.568-3.353-53.089-6.802-79.609-10.298z" fill="#2D2D2D"/><path opacity=".5" d="M203.115 404.444a204.387 204.387 0 0028.291 15.663c15.511 7.088 61.419 28.067 111.156 16.428 36.143-8.478 64.099-31.707 62.28-35.539-1.149-2.395-15.175.096-77.646 24.954a25787.43 25787.43 0 01-2.968-60.829c-1.723 17.051-3.495 34.103-5.218 51.106-38.632-3.88-77.263-7.855-115.895-11.783z" fill="#2D2D2D"/><path d="M215.992 349.841c-3.494-3.832-4.643-9.196-2.92-13.89 1.771-4.742 6.463-8.813 12.063-8.621 4.931.191 8.904 3.64 10.341 6.897 1.053 2.49.813 4.79.813 4.79a8.059 8.059 0 01-.909 2.921c-2.442-2.826-6.175-4.119-9.67-3.305-4.308 1.006-6.175 4.694-6.367 5.03-1.963 4.023-.239 7.759 0 8.19a88.401 88.401 0 00-3.351-2.012z" fill="#0071BC"/><path d="M458.218 289.203a38.478 38.478 0 00-7.899 7.903c-9.43 12.693-8.138 27.589-7.467 32.426-8.378-1.724-22.452-3.4-39.063.432a90.665 90.665 0 00-23.696 9.148c.91.575 2.154 1.245 3.734 1.676 8.952 2.443 18.382-5.077 18.67-4.55.287.479-10.532 5.556-9.958 9.962.383 2.97 5.697 4.551 11.202 6.227 4.644 1.389 9.048 2.73 14.936 2.06 8.09-.91 13.691-4.982 16.18-7.089a69.88 69.88 0 0010.388 4.167c8.186 2.491 19.483 5.939 26.999 1.245 4.883-3.065 6.367-10.25 9.143-24.523 3.543-18.296 5.314-27.445.431-33.24-6.462-7.712-19.435-6.418-23.6-5.844z" fill="#fff" stroke="#2D2D2D" stroke-width="3" stroke-miterlimit="10"/><path d="M441.224 330.012c5.792 2.155 10.579 6.083 13.883 11.303.478.767 1.723.048 1.244-.718-3.494-5.556-8.617-9.675-14.744-11.974-.862-.287-1.245 1.102-.383 1.389zm-30.781 9.484c-5.697.958-10.292 4.789-12.351 10.154-.335.862 1.054 1.245 1.389.383 1.867-4.885 6.175-8.286 11.345-9.148.91-.144.527-1.533-.383-1.389z" fill="#2D2D2D"/><path d="M398.763 350.56c2.968 2.826 7.084 3.784 10.962 2.538.862-.287.479-1.676-.383-1.389-3.399 1.102-6.989.336-9.574-2.155-.67-.67-1.676.335-1.005 1.006z" fill="#2D2D2D"/><path d="M417.097 344.237c-2.058 1.245-3.973 2.682-5.792 4.215-1.197 1.053-2.538 2.299-2.25 4.023.718 4.55 6.175 3.544 9.143 2.395.862-.335.479-1.724-.383-1.389-1.292.479-2.729 1.102-4.117 1.054-2.25-.096-4.26-2.251-2.346-4.215 1.82-1.916 4.213-3.449 6.463-4.886.814-.431.096-1.676-.718-1.197z" fill="#2D2D2D"/><path d="M455.824 220.855c1.963 1.533 4.5 3.641 7.181 6.371a62.32 62.32 0 014.691 5.268c3.064 3.832 5.027 7.472 7.181 11.927 2.777 5.699 5.553 11.399 8.33 19.925 2.345 7.184 5.936 18.488 6.366 33.527.192 5.94-.191 10.921-.574 14.417-1.963-2.251-3.925-3.736-5.553-4.694-9.143-5.603-20.249-3.592-30.733-1.676-3.926.719-7.181 1.581-9.431 2.203.575-5.268 1.101-10.537 1.676-15.806.479-4.406.909-8.86 1.388-13.315-.909-1.58-2.154-3.832-3.303-6.658-2.25-5.412-6.75-16.045-4.165-27.971 3.064-13.699 13.835-21.458 16.946-23.518z" fill="#FF6871"/><path d="M457.5 223.489c4.787 2.491 7.994 6.802 10.771 11.256a136.46 136.46 0 017.755 14.226c4.691 9.962 8.138 20.499 10.388 31.276.191.91 1.58.527 1.388-.383a139.14 139.14 0 00-10.914-32.426c-2.442-5.077-5.123-10.011-8.186-14.752-2.729-4.215-5.936-8.143-10.436-10.49-.862-.383-1.58.862-.766 1.293zM442.564 272.2c2.202 4.503 4.5 8.909 6.894 13.316.431.814 1.675.096 1.244-.719a350.604 350.604 0 01-6.893-13.315c-.431-.862-1.676-.144-1.245.718z" fill="#2D2D2D"/><path d="M445.963 280.439a5527.549 5527.549 0 00-3.542 27.876c-.048.479.526.814.909.67 8.138-2.586 16.611-3.832 25.132-3.544 6.75.239 15.702.862 19.484 7.472.479.814 1.675.095 1.244-.719-3.59-6.322-11.441-7.615-18.047-8.046-9.526-.671-19.1.574-28.148 3.448.287.24.623.479.91.671a5527.549 5527.549 0 003.542-27.876c.096-.862-1.34-.862-1.484.048z" fill="#2D2D2D"/><path d="M486.318 279.529c1.676 10.537 4.404 21.697 1.58 32.282-.24.91 1.149 1.293 1.388.383 2.872-10.825.144-22.224-1.58-33.049-.143-.91-1.532-.527-1.388.384z" fill="#2D2D2D"/><path opacity=".32" d="M452.186 219.083c4.357 8.142 8.713 17.865 12.399 29.025 7.228 22.033 9.143 41.814 9.287 56.614l-14.649.863c1.58 11.351 3.208 22.75 4.787 34.102a48.778 48.778 0 00-13.786-5.364c-1.963-.431-9.191-1.868-16.899-.575-16.18 2.73-25.946 15.997-28.148 19.159 2.202.91 5.027 1.772 8.426 1.963 10.435.623 18.047-5.412 20.297-7.328 7.133 3.592 13.356 5.317 17.76 6.179 7.707 1.58 16.707 3.4 21.685-1.389.383-.383 1.245-1.293 3.112-5.939 2.92-7.377 4.452-14.274 6.462-26.775.431-2.778 1.054-6.514 1.676-10.968l3.638 3.64a58.009 58.009 0 001.676-9.292c1.005-10.202-.958-18.249-2.825-24.81-7.516-26.535-12.015-42.533-27.047-54.124a66.488 66.488 0 00-7.851-4.981z" fill="#2D2D2D"/><path opacity=".29" d="M477.51 251.893a169.256 169.256 0 013.399 38.461c-.24 8.908-1.149 15.422-2.107 21.984-2.824 19.782-4.26 29.648-9.717 34.246-10.34 8.718-28.771 2.108-33.175.432 4.165 2.778 19.149 12.213 33.797 6.992 1.532-.574 3.207-1.293 4.835-2.346 1.723-2.922 4.021-7.424 5.505-13.316.862-3.496 1.101-6.035 1.436-9.004.527-4.79 1.436-11.783 2.968-20.548 1.388 1.197 2.825 2.395 4.213 3.592a66.207 66.207 0 001.244-10.777c.431-11.112-2.01-19.541-4.834-29.169-1.532-5.268-3.926-12.357-7.564-20.547z" fill="#2D2D2D"/><path d="M345.913 126.164c.479 5.125 1.341 12.309 3.256 20.787 1.244 5.508 2.01 9.004 3.638 13.363 2.441 6.562 7.085 19.111 19.196 27.301 2.92 2.012 7.755 4.694 14.553 6.275 1.101.095 2.202.239 3.303.335.383 2.012.861 4.981 1.34 8.573 1.149 9.244.575 12.07 2.968 14.561 2.92 3.018 7.564 2.73 8.569 2.634 7.994-.527 12.016-8.477 12.207-8.908a47.079 47.079 0 01-3.638-8.574c-2.298-7.424-2.346-14.034-1.963-18.536 3.686-5.317 7.755-9.388 11.872-12.549 1.58-1.197 2.92-2.826 5.266-3.64 3.351-1.15 5.074 0 7.564-.766 4.116-1.294 5.888-6.61 6.654-8.813 2.92-8.718-.671-17.339-2.968-22.464-2.059-4.694-7.42-16.333-20.489-25.433-13.452-9.388-40.355-19.83-58.163-6.275-3.064 2.347-10.053 8.622-13.165 22.129z" fill="#fff"/><path d="M347.924 145.897c-3.064-.527-10.819-2.347-15.845-9.005-7.66-10.106-3.543-24.235.718-31.707 6.702-11.735 18.909-15.806 34.227-20.931 9.096-3.018 17.761-5.891 29.537-5.412 6.51.287 28.579 1.245 41.791 17.674 7.851 9.723 8.712 20.164 10.436 40.76.814 9.435.191 14.56-1.436 19.446-1.197 3.544-5.075 14.896-16.229 19.446-5.84 2.395-11.249 1.916-14.217 1.437 2.681-3.976 5.361-7.903 8.09-11.879 1.532.096 6.989.192 11.154-3.592 5.696-5.221 6.702-15.614 2.537-18.392-3.064-2.06-9.143-.048-14.409 4.694-.479-3.018-1.245-6.323-2.537-9.723-6.032-16.237-19.149-25.146-25.563-28.834-2.537 3.257-10.58 12.788-24.845 16.572-11.298 2.97-20.68.862-24.845-.383l1.436 19.829z" fill="#0071BC"/><path d="M345.531 127.409c1.962 14.8 4.021 30.175 11.249 43.49 5.936 10.921 15.51 20.261 27.813 23.374.91.239 1.293-1.15.383-1.389-12.159-3.113-21.542-12.501-27.286-23.374-6.846-12.932-8.808-27.78-10.723-42.101-.144-.91-1.58-.91-1.436 0z" fill="#2D2D2D"/><path d="M384.593 194.464c8.665 0 17.76-4.646 24.558-9.627a57.03 57.03 0 0016.467-18.967c.431-.815-.813-1.533-1.244-.719-3.878 7.28-9.287 13.603-15.941 18.44-6.654 4.886-15.463 9.436-23.84 9.436-.957 0-.957 1.437 0 1.437z" fill="#2D2D2D"/><path d="M409.103 183.687c-.957 9.676.91 19.351 5.314 28.02.43.814 1.675.096 1.244-.718-4.308-8.478-6.031-17.866-5.122-27.302.096-.91-1.34-.91-1.436 0z" fill="#2D2D2D"/><path d="M388.279 194.225a151.994 151.994 0 013.83 16.62c.622 3.736.861 7.951 5.026 9.34 6.223 2.107 15.415-1.629 17.808-7.808.335-.862-1.053-1.245-1.388-.383-1.341 3.497-4.692 5.413-8.138 6.418-2.872.815-7.229 1.677-9.67-.67-1.436-1.389-1.628-3.592-1.915-5.46-.335-1.964-.67-3.928-1.053-5.892-.862-4.215-1.867-8.429-3.064-12.549-.287-.862-1.675-.479-1.436.384z" fill="#2D2D2D"/><path d="M390.338 200.164c8.521-1.102 14.121-7.616 18.238-14.609.479-.814-.766-1.533-1.244-.718-3.782 6.514-9.048 12.884-16.994 13.89-.91.143-.91 1.58 0 1.437z" fill="#2D2D2D"/><path d="M390.002 195.279c6.655-.767 12.638-3.88 17.09-8.909.623-.671-.383-1.725-1.005-1.006-4.165 4.742-9.813 7.759-16.085 8.478-.861.095-.909 1.532 0 1.437z" fill="#2D2D2D"/><path d="M390.242 194.224c5.361-.766 10.196-2.969 14.313-6.466.718-.622-.335-1.628-1.005-1.005-3.925 3.352-8.569 5.412-13.691 6.13-.91.096-.527 1.485.383 1.341z" fill="#2D2D2D"/><path d="M389.955 195.422c.239 1.149.191 3.449 1.627 3.832 1.388.383 3.495-1.246 4.596-1.916 3.782-2.299 6.941-5.413 9.43-9.053.527-.766-.718-1.484-1.244-.718-1.772 2.634-3.926 4.981-6.463 6.897-1.197.91-2.441 1.676-3.734 2.395-.526.287-1.723 1.101-2.25.766-.335-.191-.478-2.251-.526-2.586-.24-.91-1.628-.527-1.436.383z" fill="#2D2D2D"/><path d="M390.625 196.763a59.38 59.38 0 0011.632-6.322c.766-.527.048-1.772-.718-1.245-3.542 2.49-7.276 4.55-11.297 6.178-.862.336-.479 1.725.383 1.389z" fill="#2D2D2D"/><path d="M391.343 198.2c4.595-1.628 8.617-4.167 11.968-7.711.622-.671-.383-1.677-1.006-1.006-3.207 3.305-6.989 5.795-11.345 7.328-.862.335-.479 1.724.383 1.389z" fill="#2D2D2D"/><path d="M392.109 197.434c3.399-1.485 6.51-3.496 9.191-6.083.67-.622-.335-1.628-1.005-1.006-2.633 2.491-5.601 4.407-8.904 5.844-.862.383-.144 1.628.718 1.245zm-39.111-33.624c-7.803-2.778-10.388-12.98-9.622-20.356.814-8.094 8.09-16.907 16.994-13.124 4.261 1.82 5.841 6.514 6.99 10.681 1.196 4.407 1.723 9.292.574 13.795-1.005 3.975-3.447 7.759-7.276 9.483-3.83 1.724-8.378.767-10.963-2.538-.574-.719-1.579.287-1.005 1.005 4.356 5.604 12.542 4.503 16.946-.431 5.601-6.274 5.027-15.806 2.633-23.325-1.101-3.497-2.537-7.137-5.744-9.149-2.777-1.772-6.319-2.203-9.431-1.389-7.276 1.964-11.058 9.676-11.202 16.716-.143 7.712 2.873 17.243 10.819 20.021.766.288 1.149-1.101.287-1.389z" fill="#2D2D2D"/><path d="M369.562 149.489c4.691-2.826 10.388-3.113 15.27-.671.814.432 1.532-.814.718-1.245-5.361-2.682-11.584-2.443-16.754.671-.718.479 0 1.724.766 1.245z" fill="#2D2D2D"/><path d="M392.444 159.692c-5.409-5.221-7.659-13.315-5.553-20.596 2.202-7.567 9.765-14.081 17.903-11.399 9 2.969 9.479 15.854 7.133 23.421-1.388 4.455-4.165 8.909-8.76 10.538-4.596 1.628-8.569-.815-12.255-3.401-.766-.527-1.484.718-.718 1.245 3.016 2.156 6.271 4.311 10.101 4.167 3.638-.143 6.941-2.155 9.191-4.885 5.074-6.131 6.079-15.471 3.973-22.943-1.915-6.801-7.563-11.208-14.792-10.01-6.893 1.101-11.968 7.328-13.499 13.842-1.772 7.52.622 15.662 6.175 21.027.766.67 1.771-.384 1.101-1.006zm-35.089-15.758c-.479 3.017.047 5.939 1.675 8.525.335.527 1.101.431 1.293-.191 1.148-3.305-.479-6.562-2.107-9.388-.335-.623-1.34-.335-1.34.383a20.515 20.515 0 001.532 7.376c.335.862 1.723.479 1.388-.383-.91-2.251-1.436-4.55-1.484-6.993-.431.144-.91.24-1.34.383 1.484 2.539 3.015 5.317 1.962 8.286.431-.047.862-.095 1.293-.191-1.436-2.251-1.963-4.79-1.532-7.424.191-.91-1.197-1.293-1.34-.383z" fill="#2D2D2D"/><path d="M399.72 142.592c0-.622-.048-.766-.335-1.293-.335-.623-1.34-.335-1.34.383.048 2.97.287 6.179 2.585 8.286.478.432 1.149.096 1.244-.526.383-3.545-.67-6.85-2.872-9.628-.479-.574-1.34.048-1.197.719a54.269 54.269 0 002.155 6.849c.335.862 1.723.479 1.388-.383a43.562 43.562 0 01-2.154-6.849c-.383.239-.814.479-1.197.718 1.963 2.491 2.776 5.46 2.441 8.621.431-.191.814-.335 1.245-.526-2.059-1.868-2.154-4.694-2.202-7.281-.431.144-.91.24-1.341.383l.144.575c0 .862 1.436.862 1.436-.048zm-25.371 9.436c-.958 2.874-1.772 5.796-2.298 8.765-.287 1.581-1.293 4.55-.575 6.131 1.437 3.209 7.803 1.245 10.005.191.814-.383.096-1.628-.718-1.245-1.771.862-3.686 1.293-5.648 1.15-1.149-.096-2.059-.288-2.298-1.581-.144-.718.335-2.586.478-3.401.575-3.304 1.437-6.514 2.49-9.675.239-.814-1.149-1.197-1.436-.335zm7.228 27.636c3.591-.479 6.702-2.778 8.282-6.083.383-.814-.862-1.58-1.245-.718-1.436 3.017-4.117 4.981-7.42 5.412-.909.144-.478 1.533.383 1.389zm-27.238-39.85a2.65 2.65 0 013.734-.335c.718.623 1.723-.431 1.005-1.006-1.676-1.437-4.261-1.341-5.745.335-.622.671.383 1.677 1.006 1.006zm41.073-2.682c1.484-1.293 3.734-1.293 5.218-.048.718.575 1.723-.431 1.005-1.005-2.106-1.82-5.17-1.773-7.276.048-.671.622.383 1.628 1.053 1.005zm18.861 6.61c5.17-1.82 10.484-2.922 15.989-3.209.909-.048.909-1.485 0-1.437-5.601.287-11.058 1.389-16.372 3.257-.862.335-.527 1.724.383 1.389z" fill="#2D2D2D"/><path opacity=".4" d="M421.406 84.063c2.872 3.688 13.93 18.823 11.872 39.61-1.149 11.591-5.936 20.117-8.952 24.619a34.886 34.886 0 014.308-2.874c2.92-1.628 4.787-2.634 7.181-2.49.718.048 2.441.191 3.686 1.197 3.638 3.065 2.393 13.938-4.069 19.015-3.543 2.778-7.707 3.065-9.814 3.018-2.728 3.879-5.505 7.759-8.233 11.686 1.819.288 4.595.527 7.802.048 1.389-.191 6.942-1.197 12.207-5.412 5.17-4.167 7.277-9.244 8.665-12.693 3.83-9.579 3.064-18.009 1.723-33.192-.574-6.754-.909-10.202-2.25-14.752-1.436-4.934-3.686-12.214-10.1-18.728-4.596-4.79-9.766-7.472-14.026-9.052z" fill="#2D2D2D"/><path opacity=".48" d="M375.162 125.014a116.781 116.781 0 0015.319-16.524 118.146 118.146 0 008.09-12.07c-.814 4.311-1.627 8.621-2.393 12.932a41.722 41.722 0 01-9.814 10.01 42.012 42.012 0 01-11.202 5.652z" fill="#2D2D2D"/><path opacity=".27" d="M409.199 119.554c3.638 12.118 3.925 22.272 3.59 28.977-.239 4.982-1.58 31.085-15.319 40.09-1.34.862-4.739 2.874-4.595 3.161.191.335 6.558-2.491 10.053-4.406 5.505-2.97 13.978-8.957 21.829-21.602 1.292.144 7.611.575 12.159-3.784 5.505-5.221 6.462-15.47 2.106-18.488-3.111-2.155-9.047-.335-14.265 3.976a59.088 59.088 0 00-2.107-6.946c-3.59-9.483-8.999-16.38-13.451-20.978z" fill="#2D2D2D"/><path opacity=".36" d="M397.662 191.399c1.244 3.832 2.489 7.664 3.734 11.543 1.723 5.269 3.398 10.585 5.074 15.854.957-.191 3.303-.862 5.361-2.969a11.668 11.668 0 002.968-5.365 47.75 47.75 0 01-4.835-16.381 46.51 46.51 0 010-9.675 1019.83 1019.83 0 01-12.302 6.993z" fill="#2D2D2D"/><path opacity=".43" d="M373.774 153.704c-2.393 5.125-4.787 10.202-7.18 15.327 3.925-.096 7.803-.144 11.728-.239-2.298-.719-4.643-1.437-6.941-2.156.766-4.31 1.579-8.621 2.393-12.932z" fill="#2D2D2D"/><path d="M261.782 202.994s-1.968 6.043-2.249 6.605c-.14.562-4.637 8.432-5.199 8.432-.562 0-6.604 6.885-12.365 8.572-5.761 1.686-9.696 5.761-15.176 5.34-5.48-.422-6.885 2.529-13.489.702-6.464-1.827-8.572 1.125-13.63-1.405-5.059-2.389-10.398-.562-13.771-5.059-3.372-4.497-6.323-6.886-9.976-10.258-3.654-3.373-9.274-8.291-9.274-8.291" fill="#fff"/><path d="M261.782 202.994s-1.968 6.043-2.249 6.605c-.14.562-4.637 8.432-5.199 8.432-.562 0-6.604 6.885-12.365 8.572-5.761 1.686-9.696 5.761-15.176 5.34-5.48-.422-6.885 2.529-13.489.702-6.464-1.827-8.572 1.125-13.63-1.405-5.059-2.389-10.398-.562-13.771-5.059-3.372-4.497-6.323-6.886-9.976-10.258-3.654-3.373-9.274-8.291-9.274-8.291" stroke="#2D2D2D" stroke-width=".813" stroke-miterlimit="10"/><path d="M210.634 219.717c-3.372-1.265-6.464-2.951-9.696-4.497-1.826-.843-3.794-1.686-5.62-2.67-3.232-1.686-6.183-3.513-9.415-5.199-3.653-2.108-7.447-4.216-11.382-5.902-1.686-.703-3.231-1.406-4.918-1.827-1.264-.281-2.669-.703-3.934-.422-.984.141-1.967.843-2.248 1.827-.281.843-.141 1.686-.141 2.529 0 2.108.141 4.076.281 6.184.422 8.15 1.124 16.301 1.405 24.451.141 4.076.281 8.01.422 12.086.14 2.951.422 6.183 2.389 8.431 1.967 2.249 5.058 2.811 7.869 3.232 3.934.422 7.868.703 11.803.844 8.15.281 16.159 0 24.309-.282 8.15-.281 16.3-.562 24.59-.843 7.447-.281 14.895-.421 22.342-.843 1.265-.14 2.67-.14 3.935-.281.983-.14 1.967-.281 2.81-.703 2.248-1.264 2.67-3.794 2.951-6.183.14-1.967.421-3.794.421-5.761 0-2.108 0-4.076-.14-6.184a222.567 222.567 0 00-.843-13.631c-.422-6.323-.281-12.647-.703-19.111-.141-1.546-.141-3.092-.562-4.638-.281-1.264-.984-2.529-2.389-2.67-.843 0-1.827.281-2.67.703a38.856 38.856 0 00-4.075 2.389c-1.264.843-2.669 1.546-3.934 2.389a464.978 464.978 0 01-26.136 13.912c-1.686.843-3.513 1.686-5.199 2.53-.421.14 0 .702.281.562 8.572-3.935 16.862-8.573 25.152-12.929 3.092-1.686 6.324-3.373 9.415-5.199 1.124-.703 2.389-1.406 3.513-2.108.983-.562 2.108-1.265 3.232-1.406 1.545-.281 1.967 1.265 2.248 2.53.562 3.654.562 7.448.702 11.102.141 2.951.141 6.042.141 8.993 0 2.951.422 5.902.562 8.853.281 4.357.562 8.854.562 13.351 0 1.686-.14 3.372-.281 4.918-.14 2.529-.281 5.762-2.951 6.886-.983.421-2.248.562-3.232.702-1.264.141-2.388.141-3.653.282l-10.117.421c-8.009.281-15.878.703-23.888.984-7.869.281-15.737.702-23.606.983-7.729.282-15.597 0-23.326-.702-3.091-.281-6.604-.843-8.712-3.373-2.107-2.529-2.107-6.183-2.107-9.415 0-3.935-.141-7.87-.281-11.664-.141-3.935-.282-7.869-.282-11.945-.14-3.934-.14-7.869-.281-11.663 0-1.968-.14-3.795-.14-5.762 0-.562-.141-1.124 0-1.827 0 .141.14-.562 0-.281 0-.14.14-.14.14-.281.141-.14-.14.141 0 0 .141-.14 0 0 0 0s.422-.14.141-.14c.562-.422.703-.422 1.265-.422 1.264 0 2.529.422 3.794.843 3.653 1.265 7.166 2.951 10.538 4.637l10.539 5.481c3.372 1.686 6.745 2.811 10.257 4.356 2.951 1.265 5.902 2.67 8.993 3.654-.14 0 0-.14-.14-.281z" fill="#2D2D2D"/><path d="M173.678 206.508c.703-8.713-.983-16.723-.562-26.279.422-7.307-1.967-15.739 5.621-20.517 4.778-2.951 10.96-2.389 16.721-1.827a263.363 263.363 0 0051.569 0c4.216-.421 9.415-.421 11.663 3.092.984 1.686 1.124 3.794 1.124 5.621.422 15.598.984 31.197 1.405 46.795 0 1.546.141 3.233-.702 4.638-1.124 1.967-3.373 2.81-5.48 3.372-19.953 6.184-41.171 8.994-61.827 6.043-4.356-.703-8.852-1.546-12.646-4.075-4.918-3.232-7.167-8.994-6.886-14.756.281-5.058.141-10.399-.14-15.457" fill="#fff"/><path d="M173.397 206.508a52.85 52.85 0 00-.421-9.416c-.281-3.091-.703-6.323-.843-9.415-.141-1.546-.141-3.232-.141-4.778v-4.778c0-3.091-.421-6.323 0-9.555.141-1.687.562-3.373 1.405-4.919.844-1.686 1.968-3.092 3.373-4.075 2.67-2.249 6.182-3.092 9.555-3.373 3.372-.281 6.604.141 9.695.422 3.092.281 6.183.562 9.415.843 6.183.562 12.506.843 18.829.843 6.323.141 12.506 0 18.829-.562 3.091-.141 6.323-.703 9.555-.422 1.405.281 3.091.562 4.497 1.546 1.405.984 2.388 2.53 2.81 4.216.421 1.686.421 3.232.421 4.778l.281 4.778.422 9.415c.281 6.324.703 12.648.984 18.831l.421 9.415c0 1.546.141 3.092.141 4.778 0 .843-.141 1.827-.422 2.81-.281.984-.984 1.827-1.686 2.53-1.546 1.405-3.232 1.967-4.778 2.529l-4.496 1.406c-3.091.843-6.183 1.686-9.274 2.389-6.183 1.405-12.506 2.529-18.829 3.091-6.323.562-12.787.703-19.11.281-3.232-.281-6.323-.562-9.555-.983-3.092-.422-6.323-.984-9.415-2.108-1.545-.562-3.091-1.265-4.496-2.108-1.405-.843-2.67-2.108-3.794-3.373-2.108-2.67-3.373-5.902-3.654-9.134-.14-1.686 0-3.373.141-4.919.14-1.545.281-3.091.281-4.637.14-3.092 0-6.324 0-9.415h.281c.281 3.091.562 6.323.703 9.415 0 1.546.14 3.232 0 4.778 0 1.686-.141 3.092.14 4.637.422 2.951 1.686 5.762 3.653 8.01 1.968 2.249 4.637 3.514 7.448 4.497 2.81.984 5.901 1.406 8.993 1.687 3.091.421 6.182.562 9.274.702 6.182.281 12.506 0 18.688-.562a135.711 135.711 0 0018.408-2.951c3.091-.703 6.042-1.405 9.133-2.248l4.497-1.265c1.405-.422 2.81-.984 3.653-1.686.843-.703 1.124-1.827 1.265-3.233v-4.637l-.141-9.556c-.14-6.323-.14-12.647-.14-18.971l-.141-9.415v-4.778c0-1.546 0-3.092-.281-4.638-.281-1.405-1.124-2.67-2.248-3.513s-2.67-1.264-4.215-1.405c-3.092-.281-6.183.281-9.274.422-6.324.562-12.647.983-18.97 1.264-6.464.281-12.787.281-19.11 0-3.091-.14-6.323-.281-9.415-.702-3.091-.281-6.182-.562-9.133-.422-3.091.281-6.042.984-8.15 2.811-2.248 1.686-3.653 4.215-3.934 7.167-.422 2.951-.281 6.042-.281 9.274 0 1.687-.141 3.232-.282 4.778v4.638l.282 9.415c0 3.092 0 6.324-.422 9.556h-.422z" fill="#2D2D2D"/><path d="M223.421 187.115c-.141-.703-.141-1.265-.562-1.968-.422-.562-1.124-1.124-1.686-1.405-1.265-.843-2.951-1.124-4.497-.984-2.389.141-4.637 1.406-6.464 3.092-1.967 1.967-3.231 4.497-3.372 7.167-.14 2.67.843 5.48 2.81 7.307 1.968 1.827 5.059 2.53 7.588 1.686 2.81-.983 4.778-3.653 5.621-6.604.843-2.811.702-5.902.702-8.854.141 1.687.281 3.654.703 5.2.562 1.967 1.265 3.935 2.67 5.481 1.405 1.545 3.372 2.67 5.48 2.529 4.777-.281 7.026-5.621 7.447-9.696.422-5.059-1.686-10.118-5.199-13.631-4.215-3.795-9.836-5.622-15.457-5.622-8.29 0-16.44 4.357-21.077 11.102-1.967 2.811-3.232 6.043-3.372 9.415-.141 3.092.983 6.184 2.67 8.854 1.545 2.67 3.793 4.918 6.604 6.323 3.232 1.827 7.025 2.249 10.819 2.389 8.01.422 17.143.281 22.483-6.604 2.529-3.233 3.513-7.308 3.372-11.383" fill="#FF6871"/><path d="M209.51 219.577c-2.108-.843-4.075-1.967-5.761-2.67-8.431-3.654-16.441-8.291-24.731-12.366-1.967-.844-15.035-8.01-14.895-2.108.422 14.333 1.265 28.667 1.687 43.001.14 3.232.281 6.886 2.388 9.275 2.108 2.389 5.621 2.951 8.712 3.232 6.183.562 12.225.843 18.408.843 4.075 0 8.15-.141 12.225-.281 16.299-.562 32.459-1.265 48.758-1.827 1.827 0 6.886-.281 8.431-.984 3.373-1.545 2.811-5.761 3.232-9.415.422-3.654-.702-20.938-.983-24.733 0 0 0-18.69-1.125-21.641-1.124-2.951-3.372-1.686-8.852 1.687-4.637 2.81-24.871 13.631-34.005 17.987" fill="#fff"/><path d="M209.369 219.718l-6.885-2.811-6.745-2.951c-4.496-2.108-8.852-4.356-13.349-6.464-4.496-2.108-8.852-4.638-13.349-5.762-1.124-.281-2.248-.422-3.231-.281-.422.141-.562.281-.703.422-.14.281-.14.702 0 1.264l.281 7.448c.422 9.837.703 19.674.843 29.651l.281 7.167c.141 2.389.422 4.778 1.827 6.605 1.405 1.827 3.794 2.67 6.183 3.092 2.388.421 4.918.562 7.306.843 9.836.843 19.672.281 29.509-.281l29.508-1.546 14.894-.843c2.389-.141 4.918-.281 7.167-.562.562-.141 1.124-.281 1.405-.422.421-.14.702-.421.983-.843.562-.703.843-1.686.984-2.811.14-1.124.14-2.389.281-3.653l.141-1.827v-1.827c0-2.389-.141-4.918-.141-7.307l-.843-14.756v-.14c0-2.951 0-5.902-.141-8.853 0-2.951-.14-5.903-.281-8.713 0-.703-.14-1.405-.14-2.108l-.141-.984c-.14-.281-.14-.562-.281-.843-.14-.281-.281-.421-.281-.562-.14-.14-.14-.14-.421-.14-.422 0-.984.14-1.686.421-2.53 1.124-5.059 2.811-7.588 4.216-5.199 2.81-10.539 5.48-15.738 8.15-5.34 2.67-10.539 5.2-16.019 7.589h-.14c5.199-2.67 10.398-5.621 15.597-8.432 5.199-2.81 10.258-5.761 15.316-8.712 2.529-1.406 4.918-3.092 7.728-4.497.703-.281 1.546-.703 2.67-.703.562 0 1.265.281 1.686.562.422.422.703.843.984 1.265.281.422.281.843.422 1.265l.14 1.124c.141.703.141 1.546.281 2.248.562 5.903.703 11.805.703 17.847v-.14c.421 4.918.702 9.837.983 14.896.141 2.529.141 4.918.141 7.448v1.967l-.281 1.967c-.141 1.125-.141 2.389-.281 3.795-.141 1.264-.562 2.81-1.546 4.075-.562.562-1.124 1.124-1.827 1.405-.843.422-1.405.422-2.107.562-2.53.422-5.059.422-7.588.562l-14.754.422-29.649.703-14.754.281c-4.918.14-9.836-.141-14.754-.422-2.529-.141-4.918-.281-7.447-.703-2.389-.421-5.059-1.124-6.886-3.232-1.826-2.108-2.248-4.778-2.388-7.307l-.422-7.448c-.562-9.837-1.124-19.674-1.405-29.511l-.422-7.448c0-.562-.14-1.405.281-2.248.141-.422.562-.843.984-1.124.421-.281.843-.422 1.265-.422 1.545-.281 2.81.141 4.075.422 4.918 1.405 9.274 3.934 13.629 6.323 4.356 2.389 8.712 4.778 13.068 7.027 4.356 2.389 8.853 4.356 13.209 6.605h-.141z" fill="#2D2D2D"/><path d="M223.983 187.255c0-.843 0-1.686-.422-2.389-.562-.843-1.405-1.546-2.248-1.967-1.827-1.124-4.215-1.265-6.183-.562-4.074 1.124-7.587 4.918-8.711 8.993-1.125 4.216.421 8.994 4.215 11.524 3.653 2.389 8.29 1.827 11.241-1.265 3.935-3.935 3.654-9.696 2.951-14.755l-1.265.421c.843 4.919 1.265 10.961 6.464 13.35 2.108.984 4.497.703 6.323-.562 1.827-1.124 3.092-3.091 3.794-5.059 3.794-9.696-2.951-20.798-12.365-24.03-9.134-3.232-18.97-.422-26.136 5.902-3.372 2.951-6.042 6.746-7.166 10.961-1.265 4.919-.141 9.837 2.67 13.912 2.81 4.216 6.885 7.308 11.943 8.292 2.53.562 5.059.562 7.448.843 3.091.14 5.901.14 8.993-.422 1.545-.281 2.95-.562 4.496-.843 2.108-.422 1.265-3.794-.843-3.232-2.67.562-5.34 1.124-8.009 1.265-2.389.14-4.778 0-7.167-.281-2.248-.141-4.356-.422-6.463-.984-2.108-.562-3.794-1.686-5.199-3.092-2.951-2.951-5.34-6.886-5.34-11.242-.141-3.794 1.686-7.588 4.075-10.399 4.918-6.043 12.787-9.556 20.656-8.994 2.248.141 4.356.563 6.323 1.406 2.108.702 4.075 1.545 5.761 2.951 3.653 2.81 5.902 7.026 6.042 11.663.281 4.076-1.967 10.821-7.026 10.821-5.901.141-8.149-7.729-7.868-12.507 0-.843-1.265-.843-1.406 0-.281 3.794-.421 7.589-2.529 10.961-1.686 2.53-4.496 3.935-7.447 2.951-3.092-.983-4.637-4.215-4.637-7.307 0-3.373 1.967-6.605 4.777-8.432 1.686-.983 3.654-1.545 5.621-1.124.984.141 1.967.281 2.81.843.562.281.984.703 1.265 1.265.14.281.281.843.562 1.124-.141.141 0 .141 0 0zm-55.785 67.454a1610.937 1610.937 0 0123.466-20.096c3.935-3.372 7.869-6.605 11.663-9.977l5.761-5.2c.984-.843 1.968-1.686 3.092-2.529.281-.141.562-.422.983-.562.422-.141.703-.281 1.124-.422.843-.281 1.687-.421 2.53-.281 1.686.281 2.95 1.124 4.075 1.827 1.124.843 2.107 1.686 3.091 2.529l5.902 4.919c3.934 3.372 7.868 6.605 11.803 9.977l11.663 10.118c3.793 3.373 8.009 6.464 11.943 9.837-4.356-2.81-8.571-5.621-12.787-8.713-4.074-3.232-8.149-6.323-12.224-9.555-4.075-3.233-8.01-6.465-12.085-9.697l-6.042-4.918c-.983-.843-1.967-1.687-2.951-2.389-.983-.703-1.967-1.265-2.81-1.405-1.686-.282-3.653 1.545-5.621 3.232-1.967 1.686-3.793 3.513-5.761 5.199-3.934 3.373-8.009 6.605-12.084 9.697-8.15 6.183-16.3 12.366-24.731 18.409z" fill="#2D2D2D"/><path d="M253.21 240.937c0 .844 1.686 17.707 3.232 19.112 1.405 1.405 5.48-2.951 7.307-3.794 1.686-.984 1.405 1.124 3.372 7.026 1.827 5.902 2.529 6.605 9.836 1.124 7.307-5.48 7.166-7.307 4.215-8.291-2.95-.983-12.646-5.621-10.96-7.026 1.686-1.546 7.448-4.356 2.67-5.059-4.918-.562-19.391-6.745-19.672-3.092z" fill="#2D2D2D"/></svg>