<svg width="654" height="491" fill="none" xmlns="http://www.w3.org/2000/svg"><path d="M196.404 114.117c5.102 0 9.238-4.58 9.238-10.23 0-5.649-4.136-10.229-9.238-10.229-5.101 0-9.237 4.58-9.237 10.229 0 5.65 4.136 10.23 9.237 10.23zm209.485 163.912c3.792 0 6.867-2.968 6.867-6.629 0-3.661-3.075-6.629-6.867-6.629-3.793 0-6.867 2.968-6.867 6.629 0 3.661 3.074 6.629 6.867 6.629zm-209.403-40.017c2.822 0 5.11-2.29 5.11-5.115a5.112 5.112 0 00-5.11-5.114 5.112 5.112 0 00-5.109 5.114 5.112 5.112 0 005.109 5.115z" fill="#FF6871"/><path d="M186.962 110.72c4.493 0 8.134-3.828 8.134-8.551 0-4.723-3.641-8.552-8.134-8.552-4.492 0-8.134 3.829-8.134 8.552 0 4.723 3.642 8.551 8.134 8.551zm217.047 156.834c2.776 0 5.027-2.345 5.027-5.238 0-2.892-2.251-5.237-5.027-5.237-2.777 0-5.028 2.345-5.028 5.237 0 2.893 2.251 5.238 5.028 5.238zm67.198-144.436c3.048 0 5.518-2.638 5.518-5.892 0-3.254-2.47-5.892-5.518-5.892-3.048 0-5.518 2.638-5.518 5.892 0 3.254 2.47 5.892 5.518 5.892z" fill="#2D2D2D"/><path d="M351.362 159.534c-.9-1.432-2.371-.082-2.984.9-1.267 2.046-2.085 4.583-1.145 6.915.695 1.759 2.412 3.232 4.415 2.946 1.839-.246 3.229-1.76 3.188-3.601 0-.491-.695-.859-1.063-.45-2.166 2.741-4.823 6.629-2.657 10.147 1.513 2.415 5.232 2.742 6.704.123a10.498 10.498 0 01-1.104-.163c.205 1.145.409 2.291.572 3.437.123.777 1.308.45 1.186-.328a97.298 97.298 0 01-.572-3.437c-.082-.532-.9-.573-1.104-.164-.654 1.146-2.126 1.555-3.311.983-1.308-.655-1.88-2.128-1.88-3.56 0-2.373 1.676-4.46 3.065-6.22-.367-.163-.694-.286-1.062-.45.041 1.555-1.472 2.701-2.984 2.374-1.145-.246-1.88-1.228-2.289-2.292-.409-1.105-.368-2.209-.041-3.314.041-.082 1.717-3.723 1.962-3.314.45.736 1.512.122 1.104-.532zm-166.893 3.683c.899-2.455 3.883-1.391 4.823.327.327.573.491 1.228.572 1.882.164 1.228.041 1.719-1.021 2.455-1.145 1.146-1.431.696-.818-1.35.286-.123.613-.246.899-.368.777-.205 1.676-.164 2.453.082 1.962.654 2.943 2.741 2.657 4.664-.082.491.408.982.899.696 2.657-1.514 6.172.163 6.785 3.15.164.778 1.349.45 1.186-.327-.777-3.764-5.232-5.728-8.584-3.846.286.245.613.45.899.695.531-3.6-2.207-6.956-6.009-6.383-1.308.205-3.27 1.023-3.433 2.578-.123 1.268 1.063 2.21 2.248 2.332 3.515.328 3.434-4.787 2.289-6.833-1.553-2.782-5.845-3.478-7.071-.041-.246.696.94 1.023 1.226.287z" fill="#FF6871"/><path d="M121.276 354.093c.899 8.879 2.453 17.635 4.619 26.309.204.778 1.39.45 1.185-.327-2.125-8.552-3.678-17.226-4.578-25.982-.081-.778-1.308-.778-1.226 0z" fill="#F3F3F3"/><path d="M126.14 380.811a48.656 48.656 0 0024.484 0c.777-.204.45-1.391-.327-1.186a47.026 47.026 0 01-23.83 0c-.736-.205-1.062.982-.327 1.186z" fill="#F3F3F3"/><path d="M151.565 379.584a804.113 804.113 0 012.043-26.146c.082-.777-1.144-.777-1.226 0a806.942 806.942 0 00-2.044 26.146c-.041.777 1.186.777 1.227 0z" fill="#F3F3F3"/><path d="M121.971 354.747a73.152 73.152 0 0030.82-.286c.776-.164.449-1.35-.327-1.187-9.933 2.21-20.192 2.332-30.166.287-.777-.164-1.104 1.023-.327 1.186z" fill="#F3F3F3"/><path d="M121.848 357.693c.327 1.678 2.453 1.596 3.761 1.719 3.311.286 6.663.368 9.973.286 3.189-.082 6.377-.327 9.565-.695 2.534-.328 4.987-.655 7.235-1.923.695-.369.082-1.432-.613-1.064-4.047 2.25-9.647 2.168-14.184 2.373a124.81 124.81 0 01-6.785.082c-1.185-.041-7.521.245-7.766-1.105-.164-.777-1.308-.45-1.186.327zm2.33 14.198a35.926 35.926 0 007.44 9.207c.572.532 1.471-.328.858-.86a33.205 33.205 0 01-7.235-8.96c-.368-.696-1.431-.082-1.063.613zm-1.594-9.451c4.169 7.037 9.238 13.502 15.042 19.312.572.573 1.431-.327.858-.859-5.722-5.728-10.709-12.111-14.837-19.067-.409-.655-1.472-.041-1.063.614z" fill="#F3F3F3"/><path d="M129.41 359.493a145.351 145.351 0 0015.042 21.891c.491.614 1.349-.246.859-.859-5.6-6.752-10.587-13.994-14.838-21.645-.368-.696-1.431-.082-1.063.613zm7.807.287a1930.932 1930.932 0 0012.753 18.821c.45.655 1.513.041 1.063-.613a1895.886 1895.886 0 01-12.753-18.822c-.449-.655-1.512-.041-1.063.614zm6.54-.368c2.126 3.437 4.415 6.792 6.786 10.065.449.614 1.512 0 1.062-.614-2.37-3.273-4.659-6.628-6.785-10.065-.409-.655-1.471-.041-1.063.614zm-35.356-41.326c.49 2.823.981 5.687 1.512 8.511.163.777.286 1.595.94 2.086.45.369 1.921.328 2.207.737.041-.246.082-.491.082-.737-.613.614-1.226 1.228-1.88 1.801-.164.163-.205.409-.164.613.368 1.105.613 2.742 1.349 3.683.368.491 1.022.409 1.308.695.245.246.164.082.041.819a7.545 7.545 0 000 1.923c.123.982.409 1.923.777 2.823 2.125 5.156 6.254 9.329 10.218 13.175.573.532 1.431-.327.859-.859-2.534-2.455-5.069-4.992-7.153-7.856-2.044-2.823-4.456-6.628-3.189-10.229.082-.205 0-.491-.163-.614-.777-.614-1.553-.368-2.085-1.35-1.022-1.841-.449-2.455.859-3.724.204-.163.245-.531.081-.736-.327-.491-.572-.655-1.103-.818-.327-.123-.818 0-1.145-.164-.695-.368-.695-1.268-.817-1.923a564.265 564.265 0 01-1.431-8.143c-.082-.818-1.267-.49-1.103.287z" fill="#F3F3F3"/><path d="M109.3 317.922c15.941 5.319 26.855 20.213 27.182 37.071 0 .777 1.226.777 1.226 0-.327-17.39-11.609-32.734-28.081-38.258-.736-.245-1.063.941-.327 1.187z" fill="#F3F3F3"/><path d="M133.784 338.217c3.965-11.007 9.81-21.645 19.17-28.887.613-.491 0-1.555-.613-1.064-9.646 7.488-15.655 18.29-19.742 29.624-.246.736.94 1.064 1.185.327z" fill="#F3F3F3"/><path d="M151.892 309.085c.286 3.764.613 7.528.899 11.333.081.778 1.308.778 1.226 0-.286-3.764-.613-7.528-.899-11.333-.041-.778-1.267-.778-1.226 0z" fill="#F3F3F3"/><path d="M153.322 320.009c-.531.123-1.063.246-1.553.409-.777.205-.45 1.391.327 1.187.531-.123 1.063-.246 1.553-.409.777-.205.45-1.351-.327-1.187z" fill="#F3F3F3"/><path d="M151.156 321.523c.163.777.817 1.268 1.553 1.35.327.041.613-.286.613-.614 0-.368-.286-.572-.613-.613h-.041c-.041 0-.123-.041-.041 0-.041-.041-.082-.041-.122-.082-.082-.041.081.082-.041-.041l-.082-.082c.082.082 0 0 0-.041-.041-.041-.041-.123-.041-.041 0-.041-.041-.122-.041-.163-.082-.328-.449-.532-.736-.41-.327.082-.49.41-.408.737z" fill="#F3F3F3"/><path d="M152.096 322.423a55.598 55.598 0 01-.286 6.915c-.082.737.041 2.455-.45 3.028-.041.041-.776.164-.94.286-.613.491.245 1.351.858.86.205-.164.695 0 1.022-.369.491-.491.409-1.636.491-2.209.368-2.823.531-5.688.49-8.552.041-.736-1.185-.736-1.185.041z" fill="#F3F3F3"/><path d="M149.929 333.716c1.308 1.555.941 4.133.818 6.015-.164 2.168-.531 4.173-1.594 6.056-1.513 2.782-3.638 5.114-4.742 8.142-.286.737.9 1.064 1.186.327 1.471-3.969 4.864-6.915 5.886-11.088.736-2.987 1.43-7.774-.695-10.311-.491-.573-1.349.286-.859.859zm-9.646 20.786c1.145-11.621 4.21-22.954 9.115-33.511.327-.696-.736-1.35-1.063-.614-4.986 10.802-8.134 22.3-9.278 34.166-.082.777 1.144.736 1.226-.041zm-24.116-29.747c7.153 9.002 12.385 19.354 15.45 30.402.205.777 1.39.45 1.186-.328a87.425 87.425 0 00-15.778-30.933c-.49-.614-1.349.246-.858.859z" fill="#F3F3F3"/><path d="M116.943 339.854c3.434-.205 6.622.613 9.524 2.414.654.409 1.308-.655.613-1.064-3.065-1.882-6.54-2.782-10.137-2.578-.817.041-.817 1.269 0 1.228zm7.48-5.483a13.318 13.318 0 01.9-6.547c.286-.736-.899-1.064-1.186-.327-.899 2.209-1.185 4.501-.94 6.874.082.777 1.308.777 1.226 0zm13.244-6.793c1.349 3.315 3.311 6.833 3.801 10.352.123.778 1.308.45 1.186-.327-.532-3.56-2.494-7.079-3.802-10.352-.286-.736-1.471-.409-1.185.327zm7.521 3.888c1.185-1.351 2.33-2.946 3.842-3.969 1.267-.86 2.657-1.432 3.638-2.619.491-.614-.368-1.473-.858-.859-1.063 1.268-2.616 1.8-3.883 2.782-1.39 1.064-2.453 2.496-3.597 3.805-.532.614.327 1.473.858.86zm.409 22.627a18.549 18.549 0 016.008-.614c.777.041.777-1.187 0-1.227a19.425 19.425 0 00-6.335.654c-.736.205-.45 1.391.327 1.187z" fill="#F3F3F3"/><path d="M145.433 354.584c2.289.204 4.497-.082 6.704-.778.736-.245.409-1.432-.327-1.186-2.085.654-4.21.9-6.377.736-.776-.041-.776 1.187 0 1.228zm-22.931-.205h1.554c.776 0 .776-1.228 0-1.228h-1.554c-.776 0-.776 1.228 0 1.228zm29.962 9.902h38.913c.776 0 .776-1.228 0-1.228h-38.913c-.777 0-.777 1.228 0 1.228zm219.335-8.101h23.135c.777 0 .777-1.228 0-1.228h-23.135c-.777 0-.777 1.228 0 1.228zm70.141.736h128.389c.777 0 .777-1.228 0-1.228H441.94c-.776 0-.776 1.228 0 1.228zm-49.336-134.33a297.843 297.843 0 01-10.014 18.904c-.164.327-.041.859.368.9 17.535 2.66 33.231 11.375 48.355 20.172.695.409 1.308-.655.613-1.064-15.246-8.838-31.024-17.594-48.682-20.295.123.287.245.614.368.901 3.597-6.179 6.908-12.48 10.014-18.904.368-.696-.654-1.35-1.022-.614z" fill="#F3F3F3"/><path d="M395.302 244.886c1.226-3.519 2.453-7.078 3.679-10.597.531-1.473.899-3.11 1.594-4.542.164-.859.695-1.514 1.512-2.005l1.472.368c.736.205 1.471.369 2.166.573 1.676.409 4.374.409 4.088 2.66-.205 1.596-1.145 3.314-1.676 4.869-1.226 3.478-2.412 6.956-3.638 10.434-.245.736.94 1.064 1.185.327 1.595-4.583 3.189-9.206 4.783-13.789.368-1.064 1.39-2.864.572-4.01-.899-1.227-3.597-1.309-4.987-1.677-1.349-.328-3.719-1.555-5.109-.9-1.185.531-1.431 2.577-1.799 3.6-1.675 4.787-3.351 9.616-5.027 14.403-.245.695.94 1.023 1.185.286zm15.778 4.378c2.616-5.524 5.273-11.088 7.889-16.612a763.158 763.158 0 013.965-8.306c.613-1.268 1.103-2.782 1.88-3.969.654-1.023.817-1.268 1.962-.818.613.245 1.349.859 1.88 1.227.695.491 1.799 1.023 2.289 1.678.613.777.368 1.596 0 2.578-.49 1.309-1.226 2.577-1.839 3.846-1.349 2.782-2.698 5.564-4.129 8.347a483.81 483.81 0 01-8.42 15.712c-.409.695.654 1.309 1.063.614a389.847 389.847 0 0010.137-19.15c1.594-3.191 3.352-6.464 4.701-9.779.94-2.414-1.104-3.396-2.903-4.664-1.43-.982-3.678-3.233-5.232-1.391-.981 1.145-1.512 3.068-2.166 4.46-.818 1.677-1.594 3.355-2.412 5.073-3.27 6.874-6.54 13.748-9.769 20.622-.286.614.777 1.269 1.104.532zm13.57 8.511c3.516-5.524 7.48-10.761 11.854-15.59-.245.041-.49.082-.736.082 1.554 1.064 3.066 2.087 4.619 3.151a6.559 6.559 0 01-.204-.859c-3.475 5.441-6.949 10.842-10.423 16.284-.409.655.613 1.269 1.062.614 3.475-5.442 6.949-10.843 10.424-16.285.204-.286.04-.654-.205-.859-1.553-1.064-3.065-2.087-4.619-3.151-.204-.163-.572-.081-.735.082-4.456 4.951-8.502 10.229-12.059 15.835-.449.777.614 1.391 1.022.696zm48.764-38.912c-4.087-1.555-6.662-5.646-5.927-10.025.736-4.459 5.11-8.428 9.606-5.769 3.106 1.841 4.701 6.015 3.515 9.411-1.226 3.642-5.232 5.81-8.951 5.237-.777-.122-1.104 1.064-.327 1.187 4.373.655 8.992-1.759 10.464-6.097 1.471-4.337-.9-9.574-5.151-11.334-4.986-2.045-9.523 2.251-10.382 7.038-.899 5.074 2.085 9.738 6.785 11.539.777.286 1.104-.901.368-1.187z" fill="#F3F3F3"/><path d="M481.794 218.086c-8.134-.246-5.069-13.298 2.125-12.807 7.194.532 4.251 15.221-3.638 12.52-.735-.245-1.062.942-.327 1.187 9.115 3.11 13.203-13.502 4.497-14.894-4.251-.695-8.094 3.315-8.748 7.284-.654 3.928 2.003 7.774 6.091 7.896.776.082.776-1.145 0-1.186zm-6.091-37.03c-.695-.736-1.022-1.923-.49-2.823.531-.859 1.839-1.269 2.657-.614.735.573.899 1.8.204 2.414-.817.737-2.125.368-2.902-.245-.613-.491-1.472.368-.858.859 1.267.982 3.229 1.473 4.578.286 1.226-1.104 1.103-3.15-.123-4.214-1.267-1.105-3.27-.777-4.333.45-1.185 1.391-.858 3.478.368 4.746.572.573 1.431-.286.899-.859zm-118.619 30.81c-1.144-6.956 2.902-15.343 10.75-15.262 4.006.041 7.889 1.678 11.936 1.105 2.861-.409 5.313-2.046 7.03-4.296 1.717-2.25 2.698-5.074 2.861-7.897.205-4.173-1.389-8.429-.245-12.561.572-2.087 1.799-4.01 3.883-4.788 2.003-.695 4.17-.286 6.254-.368 3.025-.123 5.396-1.432 6.908-4.092 2.126-3.723 1.635-8.183 3.107-12.111 1.757-4.746 6.703-8.797 11.935-6.465.695.328 1.349-.736.613-1.064-7.112-3.191-13.039 3.233-14.429 9.698-.899 4.214-.735 10.761-5.763 12.438-3.515 1.187-7.48-.654-10.709 1.76-2.657 1.964-3.434 5.564-3.393 8.715.123 4.624 1.553 9.124-.49 13.543-1.881 4.174-5.6 6.67-10.219 6.383-4.088-.245-8.134-1.923-12.263-.859-6.989 1.76-9.973 10.025-8.87 16.49.082.695 1.268.368 1.104-.369zm51.666-29.173c-1.512-3.437.572-6.71 3.883-7.815 2.412-.819 5.069-.859 7.153-2.496 1.635-1.269 2.167-2.864 1.962-4.91-.204-1.923-.204-3.437 1.308-4.746 1.267-1.105 2.943-1.514 4.578-1.596 4.497-.164 10.669 2.127 13.939-2.251 1.512-2.045 1.062-4.582 1.757-6.874.94-3.191 4.006-5.155 7.276-4.991.777.04.777-1.187 0-1.228-2.493-.123-4.905.818-6.622 2.619-2.125 2.25-1.839 4.787-2.493 7.61-1.758 7.733-12.508 2.292-17.576 4.706-1.881.9-3.393 2.496-3.556 4.623-.205 2.496.94 4.542-1.595 6.26-1.348.901-2.902 1.187-4.455 1.555-2.575.614-5.109 1.391-6.417 3.887-1.063 1.964-1.063 4.215-.164 6.22.286.777 1.308.122 1.022-.573zm72.839-54.501a10.234 10.234 0 01-.449-1.187c.531-.614 1.022-1.227 1.553-1.841.163-.041.899.45 1.144.45.613.082 1.145-.082 1.635-.45 1.513-1.187.981-3.069 1.431-4.665.736-2.741 3.965-.859 5.436-2.905 1.472-2.005.941-6.26 4.865-5.114.776.204 1.103-.982.326-1.187-2.248-.655-4.291.409-5.109 2.578-.245.614-.327 1.309-.572 1.923-.531 1.432-1.104 1.637-2.657 1.718-1.144.082-2.044 0-2.82.982-.654.86-.654 1.964-.777 2.987-.123 1.514 0 2.783-2.248 2.619-.45-.041-.818-.45-1.308-.45-2.698-.041-2.248 3.273-1.594 4.869.245.736 1.471.409 1.144-.327zm7.685 3.396c-.654-.859-1.758-3.355.163-4.01.695-.245 1.594.041 2.33.041.654 0 1.226 0 1.758-.45 1.635-1.309.449-3.642 1.308-5.278 1.39-2.66 4.169-.573 6.131-1.964 1.39-.982 1.758-2.864 2.003-4.419.123-.778-1.063-1.105-1.185-.328-.287 1.842-.614 3.887-2.903 4.092-1.185.123-2.084-.286-3.188.246-1.798.859-2.371 2.455-2.411 4.296-.041 1.555.327 2.332-2.289 2.455-.327 0-.654-.082-.981-.082a3.069 3.069 0 00-2.289 1.35c-1.145 1.637-.491 3.519.654 4.951.531.614 1.389-.286.899-.9zm-347.52 22.176c3.393-4.091 8.216-7.447 13.775-6.874 6.05.614 9.034 5.442 9.606 11.089.981 9.37-1.308 20.581 5.028 28.56 2.493 3.15 6.213 4.828 10.218 3.846 4.824-1.146 8.584-4.951 12.876-7.202 5.068-2.659 12.058-4.091 16.636.369 3.352 3.273 4.088 8.265 5.191 12.602 1.022 3.928 2.78 8.265 6.295 10.597 2.125 1.392 4.455 1.514 6.908 1.351 2.738-.205 8.338-.369 7.766 3.928-.082.777 1.145.777 1.226 0 .205-1.678-.572-3.028-1.921-4.01-2.125-1.555-4.578-1.31-7.071-1.146-2.821.205-5.232-.041-7.398-2.046-1.963-1.8-3.148-4.337-4.006-6.833-1.431-4.296-1.84-9.001-4.292-12.929-2.412-3.888-6.581-5.77-11.077-5.606-5.682.205-10.464 3.478-15.001 6.506-2.167 1.432-4.497 2.946-7.154 3.396-3.188.532-6.008-.859-8.052-3.233-3.842-4.5-4.455-10.924-4.66-16.571-.204-5.278.491-11.006-1.267-16.121-1.594-4.665-5.641-7.57-10.505-7.815-5.64-.287-10.586 3.11-14.061 7.283-.449.614.409 1.473.94.859zm-20.641 63.135c6.376 10.638 12.058 21.645 17.085 32.979.327.736 1.39.081 1.063-.614a310.66 310.66 0 00-17.086-32.979c-.408-.696-1.471-.082-1.062.614z" fill="#F3F3F3"/><path d="M121.889 216.408c9.933-6.178 20.152-11.947 30.656-17.185.695-.368.082-1.432-.613-1.064-10.464 5.238-20.682 11.007-30.656 17.185-.695.45-.082 1.514.613 1.064z" fill="#F3F3F3"/><path d="M151.81 198.691a630.021 630.021 0 0016.472 32.283c.368.696 1.431.082 1.063-.614-5.804-10.597-11.322-21.358-16.472-32.283-.368-.736-1.39-.123-1.063.614z" fill="#F3F3F3"/><path d="M139.588 250.123a1010.474 1010.474 0 0028.98-18.167c.654-.409.041-1.473-.613-1.064a1008.26 1008.26 0 01-28.98 18.167c-.654.409-.041 1.473.613 1.064zm-.776-37.316a132.299 132.299 0 001.348 23.446c.123.777 1.308.45 1.186-.328-1.145-7.651-1.553-15.385-1.308-23.118.041-.777-1.186-.777-1.226 0z" fill="#F3F3F3"/><path d="M138.852 212.398c5.682 4.46 11.364 8.838 17.127 13.176.613.491 1.226-.573.613-1.064a879.981 879.981 0 01-16.881-12.971c-.613-.491-1.472.368-.859.859z" fill="#F3F3F3"/><path d="M141.427 236.498c4.701-4.214 10.832-6.465 15.288-11.006.572-.573-.327-1.433-.859-.86-4.455 4.501-10.545 6.792-15.287 11.007-.613.491.286 1.35.858.859zm-18.679-13.175c1.308-.655 2.616-1.268 3.924-1.923.694-.327.081-1.391-.614-1.064-1.308.655-2.616 1.269-3.924 1.923-.694.369-.081 1.391.614 1.064zm4.21 6.956c1.103-.737 2.289-1.351 3.515-1.883.736-.286.409-1.473-.327-1.186a26.277 26.277 0 00-3.842 2.005c-.613.45 0 1.514.654 1.064zm4.619 8.019a132.09 132.09 0 013.433-1.677c.695-.369.082-1.391-.613-1.064a132.145 132.145 0 01-3.434 1.677c-.694.328-.081 1.392.614 1.064zm2.37 8.02a23.374 23.374 0 014.047-2.864c.695-.409.082-1.432-.613-1.064a25.729 25.729 0 00-4.292 3.069c-.613.532.245 1.391.858.859zm20.193-39.566a9.232 9.232 0 013.024-1.391c.777-.205.45-1.351-.327-1.187a9.544 9.544 0 00-3.351 1.514c-.614.45 0 1.514.654 1.064zm3.637 6.996c1.308-.818 2.616-1.636 3.884-2.495.654-.41.04-1.473-.614-1.064-1.308.818-2.616 1.636-3.883 2.496-.695.45-.081 1.514.613 1.063zm4.17 8.388c1.39-.613 2.82-1.227 4.21-1.841.736-.327.082-1.391-.613-1.064-1.39.614-2.821 1.228-4.21 1.842-.736.327-.082 1.391.613 1.063zm2.984 5.483a18.707 18.707 0 013.678-2.741c.695-.368.082-1.432-.613-1.064-1.43.818-2.738 1.76-3.924 2.905-.572.573.286 1.432.859.9zm-21.869 17.103a24.415 24.415 0 012.535 4.788c.286.736 1.471.409 1.185-.328-.695-1.8-1.553-3.519-2.657-5.114-.449-.614-1.512 0-1.063.654zm6.254-3.396c.777 1.392 1.513 2.742 2.289 4.133.368.696 1.431.082 1.063-.614-.776-1.391-1.512-2.741-2.289-4.132-.368-.696-1.431-.082-1.063.613zm7.235-5.196l2.453 4.419c.368.695 1.43.082 1.063-.614l-2.453-4.419c-.368-.696-1.431-.082-1.063.614zm6.499-3.888c.654 1.555 1.308 3.11 2.003 4.624.327.737 1.349.082 1.063-.614-.654-1.555-1.308-3.109-2.003-4.623-.327-.696-1.39-.082-1.063.613zm-37.073-22.135c.776 1.268 1.512 2.536 2.289 3.764.408.695 1.471.041 1.062-.614-.776-1.268-1.512-2.537-2.289-3.764-.408-.655-1.471-.041-1.062.614zm7.03-4.092l2.207 4.91c.327.737 1.39.082 1.063-.614l-2.207-4.91c-.368-.736-1.39-.122-1.063.614zm6.336-3.928c1.103 1.473 1.962 3.069 2.534 4.787.245.737 1.431.409 1.186-.327-.614-1.841-1.472-3.56-2.657-5.074-.45-.613-1.513-.041-1.063.614zm6.826-3.15c.858 1.309 1.676 2.577 2.534 3.887.409.654 1.472.041 1.063-.614-.858-1.309-1.676-2.578-2.534-3.887-.45-.655-1.513-.041-1.063.614zm63.561-81.138c-3.965-1.228-4.17-5.442-2.289-8.593 1.839-3.068 5.395-3.887 8.175-1.35 2.289 2.128 2.493 5.769.368 8.102-2.126 2.373-5.6 2.332-8.053.531-.613-.491-1.226.573-.613 1.064 3.107 2.292 7.644 1.923 9.974-1.309 2.411-3.273 1.553-7.856-1.84-10.066-8.175-5.278-15.205 9.943-6.049 12.807.776.246 1.103-.941.327-1.186z" fill="#F3F3F3"/><path d="M216.311 118.862c-3.066.941-3.802-2.741-2.453-4.705 1.104-1.596 3.27-2.537 5.232-2.005 1.88.491 3.229 2.414 2.739 4.337-.613 2.414-3.148 3.274-5.396 2.905-.776-.122-1.103 1.064-.327 1.187 3.025.532 6.295-.778 6.949-4.051.572-2.823-1.635-5.401-4.374-5.728-3.024-.368-6.335 1.841-6.744 4.951-.368 2.7 2.085 5.114 4.782 4.255.695-.205.368-1.391-.408-1.146zm-26.079 26.637c-.981 2.005.409 4.01 2.453 4.542 1.553.409 3.188.041 4.782.123 1.717.082 3.434.491 4.987 1.186 3.433 1.555 5.641 4.379 5.763 8.184.123 3.191-.817 6.506.572 9.533 2.943 6.383 11.037 1.514 15.206 5.647 3.474 3.478 2.044 9.82 6.704 12.479.694.41 1.308-.654.613-1.063-4.17-2.374-3.189-8.552-6.132-11.989-1.553-1.8-3.801-2.291-6.09-2.455-2.78-.164-6.376.409-8.42-1.964-2.371-2.782-1.104-6.956-1.226-10.229-.082-2.578-.941-4.91-2.739-6.751-1.594-1.596-3.679-2.701-5.845-3.274-1.104-.286-2.248-.491-3.393-.532-1.471-.081-7.848.655-6.131-2.823.327-.695-.736-1.309-1.104-.614zM94.666 366.368h22.155c.776 0 .776-1.228 0-1.228H94.667c-.818 0-.818 1.228 0 1.228zm11.936 27.741h42.633c.776 0 .776-1.228 0-1.228h-42.633c-.817 0-.817 1.228 0 1.228zm40.916-7.692h39.649c.776 0 .776-1.228 0-1.228h-39.649c-.818 0-.818 1.228 0 1.228zm219.867-2.128c6.662-1.637 13.366-1.8 20.151-.736 2.861.45 5.763.9 8.665.654 2.821-.245 5.559-1.105 8.298-1.841 3.107-.859 6.213-1.514 9.483-1.268 3.352.245 6.581 1.186 9.851 1.923 2.82.654 5.682 1.104 8.584 1.063 3.065-.081 6.09-.613 9.074-1.063 8.175-1.31 15.859-.491 23.953.859.776.123 1.103-1.064.327-1.187-6.54-1.064-13.121-2.168-19.784-1.514-6.949.696-13.407 2.414-20.437.982-5.886-1.186-11.486-3.027-17.536-1.882-3.229.614-6.294 1.76-9.524 2.373-3.597.696-7.071.287-10.668-.286-6.99-1.064-13.897-.982-20.805.736-.695.205-.368 1.392.368 1.187zm62.783-12.438c12.835-.696 25.67-1.392 38.505-2.046 6.335-.328 12.467-.205 18.761.654 2.821.369 5.519.45 8.339.123 3.147-.368 6.417-.859 9.36.655.695.368 1.308-.696.613-1.064-4.986-2.537-10.75-.164-16.104-.655-3.189-.286-6.295-.9-9.483-1.064-3.311-.163-6.622-.081-9.933.082-13.366.614-26.732 1.432-40.098 2.128-.736 0-.736 1.227.04 1.187zm-251.34 35.147c6.05.573 12.14 1.146 18.189.45 2.821-.327 5.519-.941 8.257-1.759 3.556-1.064 6.745-1.351 10.423-.696 2.821.491 5.6 1.187 8.421 1.432 2.983.246 5.967.082 8.951-.204 6.254-.614 12.508-1.678 18.721-.287.777.164 1.104-1.023.327-1.186-5.968-1.31-11.936-.45-17.944.163-2.984.287-5.968.573-8.952.409-3.392-.163-6.662-1.063-9.973-1.595-2.78-.45-5.437-.45-8.175.204-2.943.737-5.723 1.719-8.748 2.169-6.458.941-13.039.286-19.497-.287-.817-.122-.777 1.105 0 1.187zm64.664-330.157c-1.594-1.104-3.76-2.864-3.106-5.073.695-2.292 2.411-1.187 4.006-1.719 2.125-.696 2.002-3.273 1.389-4.95-.613-1.638-1.921-5.606 1.472-4.256.776.327 1.349.86 2.248.573.817-.246 1.226-.982 1.431-1.76.163-.695.04-1.432 0-2.168a9.424 9.424 0 01-.123-1.514c-.164-1.187.572-1.678 2.125-1.473.041.777 1.268.777 1.227 0-.082-1.146-.94-1.964-2.167-1.923-1.43.04-2.207 1.432-2.37 2.741-.123.9.613 2.987.204 3.723-.491.328-.981.696-1.512 1.023l-.614-.368c-.367-.123-.654-.368-1.021-.45-1.268-.286-2.289.491-2.739 1.637-.777 1.964.613 3.6 1.022 5.442.531 2.537-1.39 2.25-3.066 2.537-.736.122-1.349.49-1.839 1.022-2.575 2.987.409 6.302 2.861 8.02.613.45 1.226-.614.572-1.064zm8.053-1.145c-1.349-1.555-2.371-3.683.245-4.501.654-.205 1.39-.123 2.003-.532 1.349-.941.776-2.21.531-3.519-.122-.736-.409-1.718.041-2.455.327-.532 1.512-.736 2.126-.86.858-.204 1.757-.327 2.493-.818 1.104-.777 1.512-2.168.777-3.355-.409-.654-1.472-.04-1.063.614 1.226 1.964-4.496 2.496-5.477 3.928-1.145 1.678 1.267 4.624-.736 5.688-.777.409-1.758.122-2.494.654-.531.368-.899.941-1.062 1.555-.45 1.76.736 3.273 1.798 4.5.491.574 1.349-.286.818-.9zm-48.274-9.698c-1.062-.736-1.185-2.046-.858-3.191.204-.778 1.185-2.906 2.125-2.987 1.554-.164 2.33 1.8 2.739 2.946.368 1.104.491 2.21.531 3.355 0 .777 1.227.777 1.227 0-.041-2.291-1.554-9.33-5.314-7.283-1.431.777-2.493 3.027-2.657 4.582-.163 1.473.409 2.783 1.594 3.642.613.45 1.226-.614.613-1.064z" fill="#F3F3F3"/><path d="M202.781 66.653c-1.472.368-2.943.737-4.455 1.105-.859.205-2.33.286-3.025.941-1.186 1.105-.859 4.5-.859 5.933 0 .41.409.695.777.573.204-.041.409-.123.654-.164 1.063-.573 1.594-.204 1.635 1.023.818.818.818 1.31 0 1.391-.49.205-.981.287-1.512.287-.327.04-.613.245-.613.613.081 2.619.286 5.197.572 7.815.082.778 1.308.778 1.226 0a100.6 100.6 0 01-.572-7.815l-.613.614c1.716-.204 4.455-.9 4.087-3.232-.409-2.496-3.433-2.21-5.15-1.719.245.205.531.41.777.573 0-.941 0-1.841.081-2.782.123-1.473.041-2.005 1.39-2.537 1.839-.737 4.006-.982 5.927-1.473.776-.123.449-1.31-.327-1.146zm5.886.368c1.717-.082 3.474-.082 5.191.123 1.635.205 1.553.45 1.799 1.882.163.9.204 1.841.286 2.742.327 3.518.572 7.037.776 10.556.041.778 1.267.778 1.227 0-.246-4.787-.409-9.697-1.186-14.444-.204-1.186-.409-1.554-1.635-1.759-2.125-.41-4.333-.41-6.458-.286-.777 0-.777 1.227 0 1.186z" fill="#F3F3F3"/><path d="M196.854 87.03c2.412-.41 4.823-.819 7.194-1.228 2.739-.45 5.355-.245 8.093-.45 1.267-.123 7.276-.737 5.069-3.232-.532-.573-1.39.286-.859.859.327.368-5.232 1.186-5.354 1.186-1.717.041-3.434-.04-5.151.164-3.106.368-6.213 1.023-9.319 1.555-.777.082-.45 1.268.327 1.146z" fill="#F3F3F3"/><path d="M311.508 394.478c-7.766 9.533-15.491 19.026-23.257 28.559 9.115 32.079 14.265 40.508 17.33 40.058 2.208-.327 3.27-5.115 4.456-10.475 2.943-13.38 1.185-24.877-.613-32.038 4.905-5.482 9.769-11.006 14.674-16.489-4.21-3.192-8.38-6.383-12.59-9.615z" fill="#F3F3F3" stroke="#F3F3F3" stroke-width="2" stroke-miterlimit="10"/><path d="M282.855 345.378c4.864 3.764 9.524 2.414 19.17 4.051 8.216 1.391 17.454 4.459 27.264 10.597a888.4 888.4 0 00-31.31 38.912c-2.494 3.314-4.987 6.628-7.399 9.942a76.324 76.324 0 0114.061 4.788c5.11 2.291 9.279 4.869 12.59 7.201a834.273 834.273 0 0041.856-39.116c5.722-5.729 13.816-14.485 15.083-26.883.081-.695.081-1.309.081-1.923-.286-20.581-26.16-35.474-41.896-40.957-17.209-5.974-46.802-9.207-55.059 5.073-4.864 8.429-2.003 22.464 5.559 28.315z" fill="#FF6871"/><path opacity=".26" d="M313.062 324.797c-.286 3.887-.981 8.511-2.412 13.625a69.884 69.884 0 01-3.474 9.616c-1.349.531-2.657 1.063-4.006 1.595 8.788 3.478 17.617 6.956 26.405 10.434-6.54 7.488-13.121 15.344-19.742 23.527-6.827 8.429-13.326 16.694-19.498 24.837 4.374 1.432 8.707 2.864 13.08 4.255 15.655-17.267 31.31-34.575 46.965-51.842 1.635-4.705 1.554-8.387 1.063-10.965-2.248-12.603-17.658-22.873-38.381-25.082z" fill="#F3F3F3"/><path opacity=".23" d="M329.493 359.985c1.431 2.168 2.821 4.378 4.251 6.547-12.18 14.689-24.361 29.337-36.542 44.026-2.166-.573-4.374-1.187-6.54-1.76 7.807-10.72 16.227-21.726 25.343-32.815a836.255 836.255 0 0113.488-15.998z" fill="#F3F3F3"/><path d="M288.823 378.929c12.058 2.21 24.157 4.378 36.215 6.588 13.938 30.442 15.492 40.262 12.876 41.939-1.881 1.187-5.805-1.759-10.178-5.073-10.955-8.306-17.045-18.208-20.356-24.878-7.276-.982-14.552-2.005-21.827-2.987 1.062-5.196 2.166-10.392 3.27-15.589z" fill="#fff" stroke="#fff" stroke-width="2" stroke-miterlimit="10"/><path d="M263.971 311.13c-21.991 6.465-35.398 19.886-44.023 28.724-11.649 11.988-25.955 26.677-21.827 37.52 2.126 5.524 8.584 8.92 38.668 14.157a609.08 609.08 0 0057.797 7.284c1.921-7.038 3.842-14.035 5.723-21.072-15.451-4.992-30.861-9.943-46.312-14.935 9.483-2.005 19.457-4.378 29.839-7.283 7.889-2.21 15.41-4.501 22.563-6.915 6.622-13.38 8.052-27.824 1.145-36.007-9.647-11.457-31.27-5.114-43.573-1.473z" fill="#FF6871"/><path opacity=".29" d="M312.898 325.287a57.36 57.36 0 01-2.779 14.976c-1.145 3.478-2.453 6.505-3.761 9.001-1.103.082-2.207.205-3.311.287-9.319 3.068-19.252 5.974-29.757 8.674-6.785 1.759-13.407 3.273-19.824 4.665 15.492 4.869 30.983 9.697 46.475 14.566a80.403 80.403 0 01-1.226 5.278c-.573 2.128-1.227 4.092-1.84 5.892l-64.133-15.835c-.981-1.186-4.21-5.482-3.719-11.17.531-6.178 6.417-10.556 13.938-14.566 21.746-11.539 58.206-19.354 69.937-21.768z" fill="#fff"/><path opacity=".24" d="M242.471 363.749c3.883-.287 7.807-.573 11.69-.9 15.246 5.073 30.492 10.188 45.739 15.262-.654 2.414-1.308 4.869-1.962 7.283-18.476-7.243-36.992-14.444-55.467-21.645z" fill="#fff"/><path d="M258.207 218.413c6.05-3.559 16.555-8.633 30.534-10.106 21.419-2.251 37.85 5.442 44.349 8.92-1.185 16.08-3.024 28.928-4.496 37.766-1.757 10.556-3.188 16.407-3.842 26.105-.818 12.152.204 22.136 1.144 28.682-7.112 2.21-17.862 4.624-31.105 4.337-12.753-.286-23.054-3.068-29.962-5.482 1.84-14.649 1.226-26.269.327-34.166-1.022-8.797-2.411-13.093-4.087-23.732-2.167-13.748-2.739-25-2.862-32.324z" fill="#fff" stroke="#2D2D2D" stroke-width="2" stroke-miterlimit="10"/><path opacity=".14" d="M302.434 213.176a90.087 90.087 0 012.494 12.561c.449 3.478 2.288 19.231-3.434 40.017-3.515 12.807-7.235 26.35-19.416 37.479a53.453 53.453 0 01-10.504 7.529c6.172 1.596 14.224 3.11 23.748 3.192 12.467.122 22.767-2.128 29.92-4.338-.408-3.068-.94-7.692-1.144-13.257-.164-4.869-.164-12.643 3.188-34.533 2.657-17.226 4.537-24.632 5.477-40.221.123-1.801.164-3.315.246-4.338a58.561 58.561 0 00-11.65-5.237c-4.414-1.432-8.379-2.168-11.649-2.496l-7.276 3.642z" fill="#2D2D2D"/><path opacity=".17" d="M331.823 223.937a225.691 225.691 0 01-7.684 30.728c-6.949 21.277-11.813 35.598-24.934 46.073-8.134 6.505-16.595 9.247-22.032 10.556 5.518 1.555 13.326 3.069 22.768 2.864 10.872-.245 19.661-2.7 25.424-4.787-.777-4.992-1.676-12.48-1.431-21.604.286-11.825 2.208-18.944 4.333-31.915 1.185-7.61 2.698-18.494 3.556-31.915z" fill="#2D2D2D"/><path d="M257.962 218.208a71.666 71.666 0 00-18.107 18.127c-13.448 19.558-13.08 40.303-12.549 47.954 2.452 6.588 6.663 15.221 14.02 23.691 4.292 4.951 10.587 12.07 21.337 16.653a48.365 48.365 0 009.033 2.905c1.962-1.76 3.883-3.519 5.845-5.278-6.294-7.365-12.63-15.099-18.966-23.077a813.236 813.236 0 01-14.02-18.126c.164-5.033 1.226-14.158 6.704-23.691 3.106-5.401 6.744-9.329 9.646-11.989-.981-9.042-1.962-18.085-2.943-27.169z" fill="#fff" stroke="#2D2D2D" stroke-width="2" stroke-miterlimit="10"/><path opacity=".13" d="M258.739 227.333c-11.772 13.298-17.372 25.9-20.152 33.838-4.864 13.748-3.842 20.949-3.106 24.386.613 2.701 1.962 7.325 6.908 14.362 4.292 6.097 13.325 17.022 30.533 26.023 1.513-1.473 3.025-2.905 4.538-4.378a603.623 603.623 0 01-14.715-17.267 544.489 544.489 0 01-18.149-23.281 52.675 52.675 0 013.27-16.367c3.638-9.697 9.36-16.08 12.917-19.476-.736-5.933-1.39-11.866-2.044-17.84z" fill="#2D2D2D"/><path opacity=".16" d="M244.555 281.548a61.498 61.498 0 005.436 17.471c7.031 14.321 18.026 22.218 23.626 25.655 1.104-.982 2.167-1.923 3.27-2.905-10.791-13.421-21.541-26.841-32.332-40.221z" fill="#2D2D2D"/><path d="M333.704 217.472c5.967 3.642 13.652 9.329 20.314 17.799 15.124 19.19 14.675 39.566 14.102 47.095-2.779 6.465-7.48 14.935-15.737 23.282-4.823 4.828-11.894 11.825-23.952 16.366a62.783 62.783 0 01-10.178 2.864c-2.167-1.718-4.374-3.437-6.54-5.155 7.03-7.242 14.183-14.812 21.296-22.668a1131.182 1131.182 0 0015.737-17.799c-.205-4.91-1.349-13.87-7.521-23.281-3.516-5.319-7.562-9.166-10.832-11.784 1.144-8.92 2.248-17.799 3.311-26.719z" fill="#fff" stroke="#2D2D2D" stroke-width="2" stroke-miterlimit="10"/><path opacity=".16" d="M333.417 227.415a95.31 95.31 0 0117.781 26.309c2.616 5.77 6.867 15.14 6.949 23.978.286 26.882-37.728 45.376-39.935 46.44-2.167-1.391-4.292-2.741-6.458-4.133 12.303-13.502 24.566-27.005 36.869-40.507-.245-4.419-1.267-12.643-6.172-21.399-4.047-7.202-9.075-11.866-12.385-14.444a1893.124 1893.124 0 003.351-16.244z" fill="#2D2D2D"/><path opacity=".12" d="M349.032 279.625a57.507 57.507 0 01-3.23 11.456c-7.194 18.167-21.745 28.11-29.103 32.365-1.757-1.145-3.474-2.291-5.232-3.437 12.508-13.461 25.016-26.923 37.565-40.384z" fill="#2D2D2D"/><path d="M343.105 282.652H242.593v63.708h100.512v-63.708z" fill="#fff" stroke="#2D2D2D" stroke-width="2" stroke-miterlimit="10"/><path d="M291.398 320.582c-5.314.655-7.889-5.81-6.499-10.106 1.349-4.255 6.376-6.26 10.464-4.787 4.046 1.473 6.008 6.424 4.578 10.393-1.594 4.419-7.153 6.219-11.241 4.255-.695-.327-1.349.736-.613 1.064 3.638 1.759 8.093 1.104 10.995-1.76 2.821-2.823 3.23-7.283 1.472-10.761-4.006-7.938-16.391-5.401-17.249 3.314-.45 4.665 2.902 10.271 8.093 9.657.777-.123.777-1.35 0-1.269z" fill="#2D2D2D"/><path opacity=".14" d="M280.321 282.489c13.611 4.746 22.89 16.898 23.176 29.951.368 16.367-13.366 31.751-32.087 33.306l71.531.614c-.082-21.359-.122-42.717-.204-64.035-20.806 0-41.611.082-62.416.164z" fill="#2D2D2D"/><path opacity=".26" d="M342.941 282.284c-.368 13.012-2.943 23.159-5.109 29.828-3.188 9.698-5.477 16.776-12.058 23.037-8.952 8.592-20.111 10.188-25.016 10.597 13.939.123 27.877.245 41.815.409.041-12.152.123-24.304.205-36.498 0-9.124.081-18.248.163-27.373z" fill="#2D2D2D"/><path d="M289.886 185.394c-2.249 2.741-.082 6.096-.491 15.057-.204 4.46-.94 8.06-1.512 10.475 1.921.9 5.313 2.168 9.687 2.291a24.858 24.858 0 0011.486-2.537 33.134 33.134 0 01-2.82-8.183c-1.84-9.166 1.43-13.462-1.268-16.858-3.147-3.928-12.058-3.969-15.082-.245z" fill="#fff" stroke="#0071BC" stroke-width="2" stroke-miterlimit="10"/><path d="M275.62 146.032c-2.575 6.629-1.594 12.602-1.022 15.18-.245.041-5.027 1.064-6.335 4.746-1.308 3.724 1.389 9.002 7.03 10.721 2.044 4.991 6.99 14.648 17.413 19.926 1.758.859 3.433 1.555 5.109 2.046a40.349 40.349 0 005.886-2.823c7.276-4.215 11.323-9.452 12.263-10.721 1.717-2.291 4.046-5.973 5.681-11.047.9.164 2.494.245 4.047-.532 3.515-1.8 5.273-7.406 2.82-11.047-2.043-3.028-6.008-3.151-6.499-3.151.532-2.128 2.167-9.779-1.962-17.349-4.741-8.715-14.919-13.298-24.484-11.988-14.143 1.841-19.702 15.384-19.947 16.039z" fill="#fff" stroke="#0071BC" stroke-width="2" stroke-miterlimit="10"/><path d="M289.354 196.236c2.494 1.473 5.232 3.765 8.298 3.519 2.534-.204 5.354-1.677 7.275-3.232.614-.491-.245-1.35-.858-.859-1.798 1.432-4.701 2.946-7.071 2.905-2.494-.041-5.028-2.128-7.072-3.396-.613-.41-1.226.654-.572 1.063z" fill="#F3F3F3"/><path d="M289.191 196.769c2.33 2.005 4.986 4.255 8.256 4.091 3.189-.163 6.173-2.291 8.257-4.582.532-.573-.327-1.432-.858-.86-1.799 1.964-4.333 3.887-7.112 4.174-3.066.286-5.519-1.8-7.685-3.683-.572-.532-1.431.328-.858.86z" fill="#F3F3F3"/><path d="M290.744 197.014c0-.041 0-.041 0 0-.245-.368-.695-.45-.981-.164l-.041.041c-.245.205-.245.655 0 .86 4.496 4.296 12.753 5.687 15.982-.901.327-.695-.695-1.35-1.063-.613-2.861 5.892-10.096 4.46-14.02.654v.86l.041-.041-.981-.123v.041c.409.655 1.472.041 1.063-.614z" fill="#F3F3F3"/><path d="M295.649 159.166a82.013 82.013 0 00.817 19.763c.041.327.45.532.736.409 1.594-.532 2.739-1.473 3.597-2.905.409-.696-.654-1.31-1.063-.614-.694 1.187-1.553 1.882-2.861 2.332.245.123.491.287.736.409-1.063-6.424-1.308-12.929-.777-19.435.123-.777-1.103-.777-1.185.041z" fill="#0071BC"/><path d="M288.373 165.672c.082.368.695 2.659 0 3.028-.695.368-2.657-1.105-3.27-3.028-.49-1.637-.082-3.683.695-3.846.818-.205 2.085 2.045 2.575 3.846zm21.092 0c.081.368.694 2.659 0 3.028-.695.368-2.657-1.105-3.27-3.028-.491-1.637-.082-3.683.694-3.846.818-.205 2.085 2.045 2.576 3.846z" fill="#0071BC" stroke="#0071BC" stroke-miterlimit="10"/><path d="M294.177 184.33c4.987 2.127 9.524-.86 13.203-4.092.613-.532-.286-1.391-.858-.859-3.189 2.782-7.276 5.769-11.691 3.887-.776-.287-1.389.777-.654 1.064zm14.388-12.152c.777 0 .777-1.228 0-1.228-.776 0-.776 1.228 0 1.228zm4.537-2.292l.123-.122a.595.595 0 000-.86.593.593 0 00-.858 0l-.123.123a.594.594 0 000 .859.591.591 0 00.858 0zm-1.348 2.987h.122a.629.629 0 00.613-.614.628.628 0 00-.613-.613h-.122a.628.628 0 00-.613.613c0 .328.245.614.613.614zm-28.204-14.525c1.553-1.31 3.842-1.35 5.395-.082.614.491 1.472-.368.859-.859-2.126-1.719-5.069-1.719-7.153.082-.573.491.327 1.35.899.859zm19.947-.451c1.758-1.554 4.251-1.841 6.336-.736.694.368 1.308-.696.613-1.064-2.575-1.391-5.641-1.023-7.807.941-.614.532.245 1.391.858.859zm-19.62 14.158c.777 0 .777-1.228 0-1.228s-.777 1.228 0 1.228zm4.333-.573c.776 0 .776-1.228 0-1.228-.777 0-.777 1.228 0 1.228zm-2.167.941l-.122.123a.592.592 0 000 .859.593.593 0 00.858 0l.123-.123a.594.594 0 000-.859.592.592 0 00-.859 0z" fill="#0071BC"/><path d="M282.283 132.734c-2.453 1.514-7.807 4.828-11.445 11.62-3.638 6.751-3.597 13.134-3.434 15.876-5.968 10.761-8.665 20.254-9.973 26.718-2.126 10.271-.981 14.035.49 16.531 3.597 6.137 10.832 7.651 12.59 8.019 9.033 1.924 16.227-2.7 17.862-3.764a26.45 26.45 0 001.145-4.91 25.312 25.312 0 00-.164-8.02 43.073 43.073 0 01-6.703-6.874 42.706 42.706 0 01-6.54-12.111c-3.597-.368-6.295-2.823-6.54-5.565-.246-2.577 1.553-5.892 3.924-5.892 1.757 0 3.024 1.801 3.27 2.128a17.32 17.32 0 004.905-4.255c2.411-3.069 2.82-5.81 3.924-8.675 1.062-2.782 3.106-6.628 7.521-10.638 4.251 1.514 7.643 2.987 9.973 4.092 7.48 3.478 11.731 5.524 15.042 9.983 1.839 2.455 2.78 4.87 3.27 6.383 3.801-2.905 5.355-2.127 5.682-1.964 2.411 1.351 2.33 8.757-1.431 10.802-1.43.778-3.065.573-4.087.328-1.186 4.132-3.802 10.884-9.81 16.857a35.664 35.664 0 01-5.886 4.747c-.164 1.514-.246 3.6.163 6.055.368 2.251 1.022 4.092 1.635 5.401 9.933 6.547 22.277 5.361 28.98-1.677 5.968-6.301 5.968-15.835 3.72-22.341-2.044-5.933-6.008-9.492-7.97-11.047.531-2.291 3.474-15.876-5.069-28.355-2.207-3.233-8.379-11.048-19.497-13.748-11.772-2.865-21.46 1.8-25.547 4.296z" fill="#0071BC"/><path opacity=".17" d="M308.198 149.551c4.618 5.81 5.845 11.17 6.253 13.952 1.676 11.703-5.109 21.195-8.542 26.064-2.821 3.969-5.723 6.792-7.808 8.634 1.799 4.828 3.557 9.615 5.355 14.443a11890.4 11890.4 0 005.518-1.841 27.87 27.87 0 01-2.452-5.687c-1.267-4.092-1.349-7.693-1.227-10.148a43.427 43.427 0 007.399-6.628c5.068-5.729 7.602-11.621 8.91-15.589.818.163 2.576.368 4.251-.573 3.516-2.005 2.943-6.997 2.903-7.324-.123-1.064-.368-2.783-1.595-3.478-1.43-.778-3.801-.041-5.681 2.168-.572-2.005-2.207-6.628-6.622-10.311-2.452-2.046-4.946-3.109-6.662-3.682z" fill="#0071BC"/><path opacity=".19" d="M296.221 159.534c-.245-.041-1.063 3.519-3.556 19.231h4.292a97.546 97.546 0 01-.777-8.797c-.204-6.301.286-10.393.041-10.434z" fill="#0071BC"/><path opacity=".54" d="M332.15 170.95c-.695.409 1.921 3.928 1.554 9.166-.123 1.636-.368 5.36-3.311 7.856-.205.163-4.578 3.764-8.911 1.473-2.575-1.351-4.129-4.215-4.047-7.325a32.126 32.126 0 01-6.376 8.266 33.742 33.742 0 01-5.559 4.214c-.123 1.8-.123 4.255.531 7.038a25.638 25.638 0 001.267 3.887c1.267.818 3.148 1.923 5.6 2.782 1.553.532 10.096 3.519 18.435-.614 1.471-.736 4.741-2.414 7.112-6.014.286-.45 1.349-2.046 2.126-4.747 2.779-9.247-1.308-17.594-1.676-18.289-2.248-4.542-5.886-8.184-6.745-7.693z" fill="#484848"/><path opacity=".35" d="M276.07 175.983c-.368.041.449 3.396-.45 6.71-.654 2.455-2.738 6.465-6.295 7.283-3.719.819-8.338-1.923-10.464-7.037-.981 2.25-2.289 5.851-2.493 10.433-.123 2.987-.286 6.179 1.185 9.329 3.311 7.038 13.04 9.779 20.274 9.125a23.414 23.414 0 0010.424-3.601c.49-1.391.981-3.069 1.308-4.992.531-3.314.408-6.219.122-8.347a34.22 34.22 0 01-6.826-6.505c-1.962-2.496-4.619-5.852-5.968-10.516-.204-.532-.572-1.923-.817-1.882z" fill="#484848"/></svg>